<svg width="512" height="512" viewBox="0 0 512 512" xmlns="http://www.w3.org/2000/svg">
          <rect x="0" y="0" width="512" height="512" fill="#f8f8ff" fill-opacity="1"></rect>
        <circle cx="194.33555763517774" cy="64.69550789880583" r="4" fill="#000000" fill-opacity="1"></circle><circle cx="174.00954792946268" cy="33.58433813838808" r="4" fill="#000000" fill-opacity="1"></circle><circle cx="215.00558686799945" cy="140.24714849290206" r="4" fill="#000000" fill-opacity="1"></circle><circle cx="369.2377512578437" cy="235.59806582302303" r="4" fill="#000000" fill-opacity="1"></circle><circle cx="421.68035889303565" cy="255.35852358571688" r="4" fill="#000000" fill-opacity="1"></circle><circle cx="145.15445721505006" cy="442.237298759971" r="4" fill="#000000" fill-opacity="1"></circle><circle cx="209.45494462821645" cy="92.46538682994895" r="4" fill="#000000" fill-opacity="1"></circle><circle cx="239.930667821945" cy="169.58665143458168" r="4" fill="#000000" fill-opacity="1"></circle><circle cx="303.8241985669541" cy="359.9527741895454" r="4" fill="#000000" fill-opacity="1"></circle><circle cx="45.146210853322785" cy="64.91918110343096" r="4" fill="#000000" fill-opacity="1"></circle><circle cx="25.76958345455908" cy="224.5814603407091" r="4" fill="#000000" fill-opacity="1"></circle><circle cx="384.5260403554455" cy="200.10460372019202" r="4" fill="#000000" fill-opacity="1"></circle><circle cx="54.753811806052795" cy="176.68499897945966" r="4" fill="#000000" fill-opacity="1"></circle><circle cx="370.8999319282505" cy="207.83309766678806" r="4" fill="#000000" fill-opacity="1"></circle><circle cx="60.18427635608769" cy="458.28057543207103" r="4" fill="#000000" fill-opacity="1"></circle><circle cx="184.13829346135236" cy="30.86981658018742" r="4" fill="#000000" fill-opacity="1"></circle><circle cx="452.6556812983047" cy="191.2273357134291" r="4" fill="#000000" fill-opacity="1"></circle><circle cx="104.49084226466827" cy="277.01516440037506" r="4" fill="#000000" fill-opacity="1"></circle><circle cx="308.2171377409163" cy="156.3805002027584" r="4" fill="#000000" fill-opacity="1"></circle><circle cx="470.7287102681723" cy="481.377375809369" r="4" fill="#000000" fill-opacity="1"></circle><circle cx="112.32365539339006" cy="119.52109361616233" r="4" fill="#000000" fill-opacity="1"></circle><circle cx="168.38808740098395" cy="139.41983563011613" r="4" fill="#000000" fill-opacity="1"></circle><circle cx="208.89547060873227" cy="185.67994512637003" r="4" fill="#000000" fill-opacity="1"></circle><circle cx="420.6430626751444" cy="396.5613610884396" r="4" fill="#000000" fill-opacity="1"></circle><circle cx="255.54357887760224" cy="338.4369517214681" r="4" fill="#000000" fill-opacity="1"></circle><circle cx="173.04811785338666" cy="75.2651800514633" r="4" fill="#000000" fill-opacity="1"></circle><circle cx="180.4988264806386" cy="392.3217327698291" r="4" fill="#000000" fill-opacity="1"></circle><circle cx="483.2454717280645" cy="368.2638508219251" r="4" fill="#000000" fill-opacity="1"></circle><circle cx="64.81119299143754" cy="473.2743425128373" r="4" fill="#000000" fill-opacity="1"></circle><circle cx="108.80992226895944" cy="238.19624105002566" r="4" fill="#000000" fill-opacity="1"></circle><circle cx="454.8519984058015" cy="354.9424974514643" r="4" fill="#000000" fill-opacity="1"></circle><circle cx="476.74614039502393" cy="43.51409317773391" r="4" fill="#000000" fill-opacity="1"></circle><circle cx="230.49919095174133" cy="313.10486203018166" r="4" fill="#000000" fill-opacity="1"></circle><circle cx="400.3906780738373" cy="39.88826765697874" r="4" fill="#000000" fill-opacity="1"></circle><circle cx="361.17912331986145" cy="314.4469893473145" r="4" fill="#000000" fill-opacity="1"></circle><circle cx="458.66363879583855" cy="163.49020643550216" r="4" fill="#000000" fill-opacity="1"></circle><circle cx="347.5011634205682" cy="306.72905825140896" r="4" fill="#000000" fill-opacity="1"></circle><circle cx="428.6239737513543" cy="291.54115370926826" r="4" fill="#000000" fill-opacity="1"></circle><circle cx="172.10650118355431" cy="215.91578762586332" r="4" fill="#000000" fill-opacity="1"></circle><circle cx="470.54151218528546" cy="343.3977668432519" r="4" fill="#000000" fill-opacity="1"></circle><circle cx="296.50085752499723" cy="178.7569256369785" r="4" fill="#000000" fill-opacity="1"></circle><circle cx="297.7646799798796" cy="400.23806492726226" r="4" fill="#000000" fill-opacity="1"></circle><circle cx="217.40517746516468" cy="256.70132297795624" r="4" fill="#000000" fill-opacity="1"></circle><circle cx="62.95652572996997" cy="267.4504264566365" r="4" fill="#000000" fill-opacity="1"></circle><circle cx="316.9376484659837" cy="63.5082843462211" r="4" fill="#000000" fill-opacity="1"></circle><circle cx="199.28656532554515" cy="144.67042504467787" r="4" fill="#000000" fill-opacity="1"></circle><circle cx="25.862676581360798" cy="300.94228143826507" r="4" fill="#000000" fill-opacity="1"></circle><circle cx="190.99358639137026" cy="89.47860234141334" r="4" fill="#000000" fill-opacity="1"></circle><circle cx="79.99619418500053" cy="75.80123394099151" r="4" fill="#000000" fill-opacity="1"></circle><circle cx="454.92624121122105" cy="401.2780109206167" r="4" fill="#000000" fill-opacity="1"></circle><circle cx="42.07716542116332" cy="285.4788615022968" r="4" fill="#000000" fill-opacity="1"></circle><circle cx="163.7477342354914" cy="377.6998013567202" r="4" fill="#000000" fill-opacity="1"></circle><circle cx="142.85674576832463" cy="246.61413791307788" r="4" fill="#000000" fill-opacity="1"></circle><circle cx="382.68522042467504" cy="34.50383411812954" r="4" fill="#000000" fill-opacity="1"></circle><circle cx="58.97369565438514" cy="220.6467074068819" r="4" fill="#000000" fill-opacity="1"></circle><circle cx="29.690584291229303" cy="264.53265137437063" r="4" fill="#000000" fill-opacity="1"></circle><circle cx="430.1193327470563" cy="40.63859445480989" r="4" fill="#000000" fill-opacity="1"></circle><circle cx="346.25514045206734" cy="389.7570816406023" r="4" fill="#000000" fill-opacity="1"></circle><circle cx="470.76590373989944" cy="395.30247034928186" r="4" fill="#000000" fill-opacity="1"></circle><circle cx="317.9446874247611" cy="474.47697267280034" r="4" fill="#000000" fill-opacity="1"></circle><circle cx="37.41560672962301" cy="119.30580530206797" r="4" fill="#000000" fill-opacity="1"></circle><circle cx="283.3675849928901" cy="365.6949153844997" r="4" fill="#000000" fill-opacity="1"></circle><circle cx="296.8958391128521" cy="441.1362879397486" r="4" fill="#000000" fill-opacity="1"></circle><circle cx="240.4823510742418" cy="457.7412114817229" r="4" fill="#000000" fill-opacity="1"></circle><circle cx="205.48071593675309" cy="43.55622662229399" r="4" fill="#000000" fill-opacity="1"></circle><circle cx="367.40977663402225" cy="146.69332627520376" r="4" fill="#000000" fill-opacity="1"></circle><circle cx="340.40544529152044" cy="127.29230161081705" r="4" fill="#000000" fill-opacity="1"></circle><circle cx="190.96272265181017" cy="118.33060868335839" r="4" fill="#000000" fill-opacity="1"></circle><circle cx="95.97376827323387" cy="269.3284451801835" r="4" fill="#000000" fill-opacity="1"></circle><circle cx="270.9770843647103" cy="123.93094514862084" r="4" fill="#000000" fill-opacity="1"></circle><circle cx="177.27433915740247" cy="263.2678055688224" r="4" fill="#000000" fill-opacity="1"></circle><circle cx="124.86649359000647" cy="409.9494070154059" r="4" fill="#000000" fill-opacity="1"></circle><circle cx="152.95873571017006" cy="332.2803870081674" r="4" fill="#000000" fill-opacity="1"></circle><circle cx="223.09916654646125" cy="475.37775251887854" r="4" fill="#000000" fill-opacity="1"></circle><circle cx="387.30316637636565" cy="74.09416171021041" r="4" fill="#000000" fill-opacity="1"></circle><circle cx="332.6377234940651" cy="223.66582936818222" r="4" fill="#000000" fill-opacity="1"></circle><circle cx="179.27074295370096" cy="411.82675471693506" r="4" fill="#000000" fill-opacity="1"></circle><circle cx="92.54553556301742" cy="233.27817703573618" r="4" fill="#000000" fill-opacity="1"></circle><circle cx="207.9940944547211" cy="221.2879521175943" r="4" fill="#000000" fill-opacity="1"></circle><circle cx="407.7325378415241" cy="320.0160812366587" r="4" fill="#000000" fill-opacity="1"></circle><circle cx="236.41550953181576" cy="417.4819827123978" r="4" fill="#000000" fill-opacity="1"></circle><circle cx="422.9023012361485" cy="462.42382381550885" r="4" fill="#000000" fill-opacity="1"></circle><circle cx="471.8476234335023" cy="410.78930467165094" r="4" fill="#000000" fill-opacity="1"></circle><circle cx="142.06585550683116" cy="213.2825690578153" r="4" fill="#000000" fill-opacity="1"></circle><circle cx="447.6297505368664" cy="380.1756468400102" r="4" fill="#000000" fill-opacity="1"></circle><circle cx="211.56212694653092" cy="283.12782688956696" r="4" fill="#000000" fill-opacity="1"></circle><circle cx="125.5694261607305" cy="140.2772969356859" r="4" fill="#000000" fill-opacity="1"></circle><circle cx="324.5167296141289" cy="262.70950240007295" r="4" fill="#000000" fill-opacity="1"></circle><circle cx="339.589865587167" cy="193.5569986388294" r="4" fill="#000000" fill-opacity="1"></circle><circle cx="51.288556320076005" cy="192.84410242579034" r="4" fill="#000000" fill-opacity="1"></circle><circle cx="120.62284414930338" cy="228.74242360881777" r="4" fill="#000000" fill-opacity="1"></circle><circle cx="91.16028045509827" cy="155.5730682756144" r="4" fill="#000000" fill-opacity="1"></circle><circle cx="256.9141003795485" cy="238.44426833090657" r="4" fill="#000000" fill-opacity="1"></circle><circle cx="71.86679995836981" cy="102.98332046260106" r="4" fill="#000000" fill-opacity="1"></circle><circle cx="487.04336070379014" cy="176.03261558319608" r="4" fill="#000000" fill-opacity="1"></circle><circle cx="262.5687738932996" cy="312.7634372145193" r="4" fill="#000000" fill-opacity="1"></circle><circle cx="419.1754690215819" cy="196.83453008589183" r="4" fill="#000000" fill-opacity="1"></circle><circle cx="160.1637198753453" cy="306.4617390911726" r="4" fill="#000000" fill-opacity="1"></circle><circle cx="484.89464640258814" cy="206.75085971946706" r="4" fill="#000000" fill-opacity="1"></circle><circle cx="416.497962643879" cy="33.41664488179358" r="4" fill="#000000" fill-opacity="1"></circle></svg>