<svg width="512" height="512" viewBox="0 0 512 512" xmlns="http://www.w3.org/2000/svg">
          <rect x="0" y="0" width="512" height="512" fill="#f8f8ff" fill-opacity="1"></rect>
        <circle cx="155.91918104321633" cy="147.93906223367946" r="4" fill="#000000" fill-opacity="1"></circle><circle cx="339.72737964480694" cy="32.78753475553934" r="4" fill="#000000" fill-opacity="1"></circle><circle cx="80.39147875229315" cy="399.204195220927" r="4" fill="#000000" fill-opacity="1"></circle><circle cx="460.28365841098264" cy="54.72848959719898" r="4" fill="#000000" fill-opacity="1"></circle><circle cx="378.1192969886503" cy="349.2768973831999" r="4" fill="#000000" fill-opacity="1"></circle><circle cx="211.68120512751005" cy="337.1943065939792" r="4" fill="#000000" fill-opacity="1"></circle><circle cx="34.30714500163511" cy="246.49249644370155" r="4" fill="#000000" fill-opacity="1"></circle><circle cx="424.58814506517746" cy="101.5807609166996" r="4" fill="#000000" fill-opacity="1"></circle><circle cx="449.27275339722115" cy="469.64822784773014" r="4" fill="#000000" fill-opacity="1"></circle><circle cx="169.4379863312428" cy="248.34222443465842" r="4" fill="#000000" fill-opacity="1"></circle><circle cx="250.65953798501843" cy="473.86971261344246" r="4" fill="#000000" fill-opacity="1"></circle><circle cx="316.0516263747377" cy="163.7483563852965" r="4" fill="#000000" fill-opacity="1"></circle><circle cx="41.17582913443498" cy="259.57725120432724" r="4" fill="#000000" fill-opacity="1"></circle><circle cx="90.85168367022368" cy="133.18728322839715" r="4" fill="#000000" fill-opacity="1"></circle><circle cx="263.1449386202522" cy="348.5266121757467" r="4" fill="#000000" fill-opacity="1"></circle><circle cx="92.22955592820176" cy="398.8217888129147" r="4" fill="#000000" fill-opacity="1"></circle><circle cx="76.23034298466715" cy="463.4103978657481" r="4" fill="#000000" fill-opacity="1"></circle><circle cx="270.4523981587523" cy="102.63944388718525" r="4" fill="#000000" fill-opacity="1"></circle><circle cx="274.43050266846205" cy="219.10791394755898" r="4" fill="#000000" fill-opacity="1"></circle><circle cx="464.21088636128644" cy="408.90636203689337" r="4" fill="#000000" fill-opacity="1"></circle><circle cx="379.46471914492247" cy="360.3175759051797" r="4" fill="#000000" fill-opacity="1"></circle><circle cx="128.61818069948708" cy="177.9707262108069" r="4" fill="#000000" fill-opacity="1"></circle><circle cx="185.66264332708226" cy="428.09500679748686" r="4" fill="#000000" fill-opacity="1"></circle><circle cx="425.61186453671064" cy="440.3652842584596" r="4" fill="#000000" fill-opacity="1"></circle><circle cx="360.1304982292171" cy="301.04560129366655" r="4" fill="#000000" fill-opacity="1"></circle><circle cx="200.1544042930184" cy="410.1084749008485" r="4" fill="#000000" fill-opacity="1"></circle><circle cx="189.35013214035024" cy="69.16185967870446" r="4" fill="#000000" fill-opacity="1"></circle><circle cx="326.5255927411451" cy="125.533733272761" r="4" fill="#000000" fill-opacity="1"></circle><circle cx="385.4440110241858" cy="133.19730401193982" r="4" fill="#000000" fill-opacity="1"></circle><circle cx="404.89753665132037" cy="56.79093847885097" r="4" fill="#000000" fill-opacity="1"></circle><circle cx="220.734500058931" cy="82.53605984493778" r="4" fill="#000000" fill-opacity="1"></circle><circle cx="266.5823422162618" cy="37.15095218159148" r="4" fill="#000000" fill-opacity="1"></circle><circle cx="253.86032214737395" cy="37.2258346004961" r="4" fill="#000000" fill-opacity="1"></circle><circle cx="461.8360431903662" cy="253.37846458863805" r="4" fill="#000000" fill-opacity="1"></circle><circle cx="245.03505892290144" cy="229.4670455598008" r="4" fill="#000000" fill-opacity="1"></circle><circle cx="110.05321409689884" cy="419.51813881095586" r="4" fill="#000000" fill-opacity="1"></circle><circle cx="141.4348477541298" cy="147.25069070593048" r="4" fill="#000000" fill-opacity="1"></circle><circle cx="375.7980070552771" cy="207.2555364921148" r="4" fill="#000000" fill-opacity="1"></circle><circle cx="96.85602611731754" cy="259.26362840859446" r="4" fill="#000000" fill-opacity="1"></circle><circle cx="141.65717583423913" cy="198.26083610401207" r="4" fill="#000000" fill-opacity="1"></circle><circle cx="392.4420617713119" cy="257.3198356006876" r="4" fill="#000000" fill-opacity="1"></circle><circle cx="133.65422923720757" cy="455.0993369835367" r="4" fill="#000000" fill-opacity="1"></circle><circle cx="168.24368271140796" cy="319.42914787119946" r="4" fill="#000000" fill-opacity="1"></circle><circle cx="277.1545765683003" cy="66.85827089281729" r="4" fill="#000000" fill-opacity="1"></circle><circle cx="470.888359194303" cy="393.3942353446661" r="4" fill="#000000" fill-opacity="1"></circle><circle cx="74.21374065112396" cy="475.42515818414614" r="4" fill="#000000" fill-opacity="1"></circle><circle cx="225.87418760229548" cy="345.6299809082599" r="4" fill="#000000" fill-opacity="1"></circle><circle cx="263.0205814850673" cy="474.2253093193631" r="4" fill="#000000" fill-opacity="1"></circle><circle cx="469.63834596946646" cy="431.571275505764" r="4" fill="#000000" fill-opacity="1"></circle><circle cx="123.70410128036774" cy="121.19309354797245" r="4" fill="#000000" fill-opacity="1"></circle><circle cx="81.65918794438782" cy="358.30530257981883" r="4" fill="#000000" fill-opacity="1"></circle><circle cx="35.79876378052221" cy="306.7510585010887" r="4" fill="#000000" fill-opacity="1"></circle><circle cx="439.00389542676055" cy="250.56239024511174" r="4" fill="#000000" fill-opacity="1"></circle><circle cx="430.2546875251631" cy="487.10217906228695" r="4" fill="#000000" fill-opacity="1"></circle><circle cx="389.29922153586796" cy="245.8518860960905" r="4" fill="#000000" fill-opacity="1"></circle><circle cx="350.48392082886625" cy="401.76355722824906" r="4" fill="#000000" fill-opacity="1"></circle><circle cx="324.1438887718644" cy="138.367670987006" r="4" fill="#000000" fill-opacity="1"></circle><circle cx="84.16560413672197" cy="232.0646578507339" r="4" fill="#000000" fill-opacity="1"></circle><circle cx="438.68508291576114" cy="278.7127857298807" r="4" fill="#000000" fill-opacity="1"></circle><circle cx="66.43845825988582" cy="279.2816250407126" r="4" fill="#000000" fill-opacity="1"></circle><circle cx="179.69151568061352" cy="418.14463049597447" r="4" fill="#000000" fill-opacity="1"></circle><circle cx="161.5476524216351" cy="53.542705198387985" r="4" fill="#000000" fill-opacity="1"></circle><circle cx="167.07859310372257" cy="275.51755346116397" r="4" fill="#000000" fill-opacity="1"></circle><circle cx="439.2744116911932" cy="210.64856154526598" r="4" fill="#000000" fill-opacity="1"></circle><circle cx="463.85767714152587" cy="113.51810973349438" r="4" fill="#000000" fill-opacity="1"></circle><circle cx="150.05711404560645" cy="332.26836444831633" r="4" fill="#000000" fill-opacity="1"></circle><circle cx="102.12068416713242" cy="299.64376419736135" r="4" fill="#000000" fill-opacity="1"></circle><circle cx="49.31851126137961" cy="367.97177610454895" r="4" fill="#000000" fill-opacity="1"></circle><circle cx="55.640627425683306" cy="163.3893631214848" r="4" fill="#000000" fill-opacity="1"></circle><circle cx="343.44930443541597" cy="251.05968224242667" r="4" fill="#000000" fill-opacity="1"></circle><circle cx="243.43588721612613" cy="68.32002294165419" r="4" fill="#000000" fill-opacity="1"></circle><circle cx="465.8680946609991" cy="289.9937491618424" r="4" fill="#000000" fill-opacity="1"></circle><circle cx="152.87424528547845" cy="135.99764879070236" r="4" fill="#000000" fill-opacity="1"></circle><circle cx="304.1511222602617" cy="152.1756532365746" r="4" fill="#000000" fill-opacity="1"></circle><circle cx="268.2040829936704" cy="191.18402041171166" r="4" fill="#000000" fill-opacity="1"></circle><circle cx="430.18348625348847" cy="341.75252761800243" r="4" fill="#000000" fill-opacity="1"></circle><circle cx="410.28406234310404" cy="470.7771871195622" r="4" fill="#000000" fill-opacity="1"></circle><circle cx="464.7999011979473" cy="95.73093404826555" r="4" fill="#000000" fill-opacity="1"></circle><circle cx="314.68054242265407" cy="476.70182666356703" r="4" fill="#000000" fill-opacity="1"></circle><circle cx="407.473323167474" cy="161.79305570658155" r="4" fill="#000000" fill-opacity="1"></circle><circle cx="24.23472803477709" cy="147.46810137148466" r="4" fill="#000000" fill-opacity="1"></circle><circle cx="223.26482531824828" cy="376.8387864150389" r="4" fill="#000000" fill-opacity="1"></circle><circle cx="185.19119655765783" cy="85.03534753193408" r="4" fill="#000000" fill-opacity="1"></circle><circle cx="457.5402088991338" cy="124.96368260437504" r="4" fill="#000000" fill-opacity="1"></circle><circle cx="366.225111706" cy="453.7723800820597" r="4" fill="#000000" fill-opacity="1"></circle><circle cx="180.33548327504076" cy="475.5732603640216" r="4" fill="#000000" fill-opacity="1"></circle><circle cx="76.78672259923461" cy="263.36119422203416" r="4" fill="#000000" fill-opacity="1"></circle><circle cx="146.6534005642179" cy="217.8006928059757" r="4" fill="#000000" fill-opacity="1"></circle><circle cx="124.05943193353713" cy="48.170961619047674" r="4" fill="#000000" fill-opacity="1"></circle><circle cx="247.10760196112773" cy="458.2606628964616" r="4" fill="#000000" fill-opacity="1"></circle><circle cx="217.65352213379282" cy="128.44137076505558" r="4" fill="#000000" fill-opacity="1"></circle><circle cx="334.2411120171976" cy="349.188935923376" r="4" fill="#000000" fill-opacity="1"></circle><circle cx="331.80831549848455" cy="81.13551252975299" r="4" fill="#000000" fill-opacity="1"></circle><circle cx="320.30067383804464" cy="333.92112175628074" r="4" fill="#000000" fill-opacity="1"></circle><circle cx="212.2442339733156" cy="216.88358314381756" r="4" fill="#000000" fill-opacity="1"></circle><circle cx="99.66115204744102" cy="31.770290588396314" r="4" fill="#000000" fill-opacity="1"></circle><circle cx="289.7245553677883" cy="478.3879876649811" r="4" fill="#000000" fill-opacity="1"></circle><circle cx="298.46077712418725" cy="218.7980074950172" r="4" fill="#000000" fill-opacity="1"></circle><circle cx="45.41944707466938" cy="132.20540680109082" r="4" fill="#000000" fill-opacity="1"></circle><circle cx="258.3440972691967" cy="97.87472832667277" r="4" fill="#000000" fill-opacity="1"></circle><circle cx="313.6135943327326" cy="462.1274738478488" r="4" fill="#000000" fill-opacity="1"></circle><circle cx="391.5396683868104" cy="370.71881099080906" r="4" fill="#000000" fill-opacity="1"></circle><circle cx="232.03902592902887" cy="409.0620020763467" r="4" fill="#000000" fill-opacity="1"></circle><circle cx="409.88911309089895" cy="284.9928178579895" r="4" fill="#000000" fill-opacity="1"></circle><circle cx="254.6108743542579" cy="432.863010333431" r="4" fill="#000000" fill-opacity="1"></circle><circle cx="58.767417964840746" cy="236.3446261646205" r="4" fill="#000000" fill-opacity="1"></circle><circle cx="230.00483451225074" cy="205.6439055565863" r="4" fill="#000000" fill-opacity="1"></circle><circle cx="123.6881857126279" cy="285.8521831418627" r="4" fill="#000000" fill-opacity="1"></circle><circle cx="212.12136808208737" cy="57.53793709502048" r="4" fill="#000000" fill-opacity="1"></circle><circle cx="430.9233741139841" cy="72.76005054886228" r="4" fill="#000000" fill-opacity="1"></circle></svg>