<svg width="512" height="512" viewBox="0 0 512 512" xmlns="http://www.w3.org/2000/svg">
          <rect x="0" y="0" width="512" height="512" fill="#f8f8ff" fill-opacity="1"></rect>
        <circle cx="434.91528143087186" cy="195.06176365016512" r="4" fill="#000000" fill-opacity="1"></circle><circle cx="239.0701388143712" cy="357.26080517098103" r="4" fill="#000000" fill-opacity="1"></circle><circle cx="199.94047387979145" cy="155.30771633657335" r="4" fill="#000000" fill-opacity="1"></circle><circle cx="143.19103594440992" cy="162.41570839310702" r="4" fill="#000000" fill-opacity="1"></circle><circle cx="47.35939058279865" cy="102.97425678621858" r="4" fill="#000000" fill-opacity="1"></circle><circle cx="305.10294882915923" cy="74.01775697733135" r="4" fill="#000000" fill-opacity="1"></circle><circle cx="202.99039771397847" cy="88.8950200300986" r="4" fill="#000000" fill-opacity="1"></circle><circle cx="282.5600176327822" cy="62.308572531979124" r="4" fill="#000000" fill-opacity="1"></circle><circle cx="144.2422860629919" cy="73.4849503219946" r="4" fill="#000000" fill-opacity="1"></circle><circle cx="53.18033651529304" cy="366.7065194048244" r="4" fill="#000000" fill-opacity="1"></circle><circle cx="203.430188287724" cy="485.39188343652097" r="4" fill="#000000" fill-opacity="1"></circle><circle cx="486.9997944191993" cy="76.40364703034534" r="4" fill="#000000" fill-opacity="1"></circle><circle cx="77.53108745976586" cy="32.1687520328381" r="4" fill="#000000" fill-opacity="1"></circle><circle cx="227.47566018553164" cy="87.74500457554028" r="4" fill="#000000" fill-opacity="1"></circle><circle cx="364.7279250087279" cy="214.49237516827048" r="4" fill="#000000" fill-opacity="1"></circle><circle cx="91.28712480782474" cy="106.1712971210811" r="4" fill="#000000" fill-opacity="1"></circle><circle cx="70.4058227880483" cy="169.33848271820855" r="4" fill="#000000" fill-opacity="1"></circle><circle cx="296.8582387728718" cy="372.8510489990275" r="4" fill="#000000" fill-opacity="1"></circle><circle cx="473.2267327453592" cy="313.7428304398213" r="4" fill="#000000" fill-opacity="1"></circle><circle cx="36.94959753400829" cy="316.24721821507836" r="4" fill="#000000" fill-opacity="1"></circle><circle cx="261.34563290063863" cy="87.35679843779452" r="4" fill="#000000" fill-opacity="1"></circle><circle cx="83.35813061041816" cy="335.3963646001901" r="4" fill="#000000" fill-opacity="1"></circle><circle cx="330.31029515791823" cy="473.0012392061059" r="4" fill="#000000" fill-opacity="1"></circle><circle cx="431.0528711889914" cy="425.8421572699782" r="4" fill="#000000" fill-opacity="1"></circle><circle cx="310.1593755594666" cy="87.49528419574777" r="4" fill="#000000" fill-opacity="1"></circle><circle cx="443.369806562305" cy="428.2662164734309" r="4" fill="#000000" fill-opacity="1"></circle><circle cx="232.51335056194554" cy="481.4502260329239" r="4" fill="#000000" fill-opacity="1"></circle><circle cx="313.9811418124134" cy="167.97981470252608" r="4" fill="#000000" fill-opacity="1"></circle><circle cx="193.24957481492484" cy="392.29625245799144" r="4" fill="#000000" fill-opacity="1"></circle><circle cx="393.81943747558955" cy="380.74615133781475" r="4" fill="#000000" fill-opacity="1"></circle><circle cx="169.66709523667117" cy="195.3691308658305" r="4" fill="#000000" fill-opacity="1"></circle><circle cx="192.64670467124301" cy="420.93710448331535" r="4" fill="#000000" fill-opacity="1"></circle><circle cx="78.68345915041996" cy="210.29060813978435" r="4" fill="#000000" fill-opacity="1"></circle><circle cx="142.00411713879018" cy="305.4445407212378" r="4" fill="#000000" fill-opacity="1"></circle><circle cx="339.96930913408625" cy="79.21737273159714" r="4" fill="#000000" fill-opacity="1"></circle><circle cx="479.54977712068813" cy="37.25755052818204" r="4" fill="#000000" fill-opacity="1"></circle><circle cx="198.7878108995693" cy="37.7459862683215" r="4" fill="#000000" fill-opacity="1"></circle><circle cx="80.0871881713059" cy="67.02082573230228" r="4" fill="#000000" fill-opacity="1"></circle><circle cx="469.7826264030265" cy="396.6247986224703" r="4" fill="#000000" fill-opacity="1"></circle><circle cx="138.62397734159208" cy="471.7510559818569" r="4" fill="#000000" fill-opacity="1"></circle><circle cx="241.61160462112346" cy="116.41049293778592" r="4" fill="#000000" fill-opacity="1"></circle><circle cx="355.5653124998267" cy="209.14082837306637" r="4" fill="#000000" fill-opacity="1"></circle><circle cx="357.94297006611015" cy="472.56184327512676" r="4" fill="#000000" fill-opacity="1"></circle><circle cx="424.4396261753066" cy="73.57731729383275" r="4" fill="#000000" fill-opacity="1"></circle><circle cx="168.3878239042529" cy="284.62507979164195" r="4" fill="#000000" fill-opacity="1"></circle><circle cx="103.29360717596613" cy="428.96921147426224" r="4" fill="#000000" fill-opacity="1"></circle><circle cx="469.5057852266303" cy="427.5486309829685" r="4" fill="#000000" fill-opacity="1"></circle><circle cx="466.73708015565745" cy="353.9414096350683" r="4" fill="#000000" fill-opacity="1"></circle><circle cx="467.2040247099064" cy="288.0067003626777" r="4" fill="#000000" fill-opacity="1"></circle><circle cx="379.0344255382193" cy="173.531194733264" r="4" fill="#000000" fill-opacity="1"></circle><circle cx="56.27262789802811" cy="315.0488962775234" r="4" fill="#000000" fill-opacity="1"></circle><circle cx="239.84911244120937" cy="266.6818091092542" r="4" fill="#000000" fill-opacity="1"></circle><circle cx="419.2553265201031" cy="403.25271258319657" r="4" fill="#000000" fill-opacity="1"></circle><circle cx="213.39448976739396" cy="402.68925395220845" r="4" fill="#000000" fill-opacity="1"></circle><circle cx="296.8638540164301" cy="143.61294338550462" r="4" fill="#000000" fill-opacity="1"></circle><circle cx="201.79778204449428" cy="458.7764684909449" r="4" fill="#000000" fill-opacity="1"></circle><circle cx="199.70059747965607" cy="144.75968227518024" r="4" fill="#000000" fill-opacity="1"></circle><circle cx="156.34128600781264" cy="37.33433432051087" r="4" fill="#000000" fill-opacity="1"></circle><circle cx="380.0306084720029" cy="239.42015573459364" r="4" fill="#000000" fill-opacity="1"></circle><circle cx="211.17800757545527" cy="34.0146642240757" r="4" fill="#000000" fill-opacity="1"></circle><circle cx="432.8519723435721" cy="32.335678935298404" r="4" fill="#000000" fill-opacity="1"></circle><circle cx="154.90614627852207" cy="131.35038289800485" r="4" fill="#000000" fill-opacity="1"></circle><circle cx="357.49395811971056" cy="355.7507911198519" r="4" fill="#000000" fill-opacity="1"></circle><circle cx="336.00807300192275" cy="427.6406066636252" r="4" fill="#000000" fill-opacity="1"></circle><circle cx="269.7889476007541" cy="46.43097812910396" r="4" fill="#000000" fill-opacity="1"></circle><circle cx="456.4978780484569" cy="217.39358032365357" r="4" fill="#000000" fill-opacity="1"></circle><circle cx="380.27839671735194" cy="224.60585309664057" r="4" fill="#000000" fill-opacity="1"></circle><circle cx="49.711892293329186" cy="444.62813467053445" r="4" fill="#000000" fill-opacity="1"></circle><circle cx="487.3726690065453" cy="140.75988251354602" r="4" fill="#000000" fill-opacity="1"></circle><circle cx="100.34573168257336" cy="465.47177779001373" r="4" fill="#000000" fill-opacity="1"></circle><circle cx="389.86624879953774" cy="453.4451719583012" r="4" fill="#000000" fill-opacity="1"></circle><circle cx="153.56799532618484" cy="99.10206763928193" r="4" fill="#000000" fill-opacity="1"></circle><circle cx="99.33448047876733" cy="208.82009591082857" r="4" fill="#000000" fill-opacity="1"></circle><circle cx="349.7288933598217" cy="122.51330718749409" r="4" fill="#000000" fill-opacity="1"></circle><circle cx="382.8583210273547" cy="138.72908611950805" r="4" fill="#000000" fill-opacity="1"></circle><circle cx="37.755982737636785" cy="456.5043187575127" r="4" fill="#000000" fill-opacity="1"></circle><circle cx="269.4402799699414" cy="366.7696936007874" r="4" fill="#000000" fill-opacity="1"></circle><circle cx="54.98480972360169" cy="57.08015738294313" r="4" fill="#000000" fill-opacity="1"></circle><circle cx="411.40881222546085" cy="256.7645532785788" r="4" fill="#000000" fill-opacity="1"></circle><circle cx="118.41629233240354" cy="431.17945978588835" r="4" fill="#000000" fill-opacity="1"></circle><circle cx="79.70300080731957" cy="399.32098113574864" r="4" fill="#000000" fill-opacity="1"></circle><circle cx="112.55982311295014" cy="358.3471328262814" r="4" fill="#000000" fill-opacity="1"></circle><circle cx="407.1269341158367" cy="320.4698519059986" r="4" fill="#000000" fill-opacity="1"></circle><circle cx="128.91510253496375" cy="130.011316550489" r="4" fill="#000000" fill-opacity="1"></circle><circle cx="308.43712186058275" cy="417.00054410626836" r="4" fill="#000000" fill-opacity="1"></circle><circle cx="341.0251514470305" cy="216.01908226377037" r="4" fill="#000000" fill-opacity="1"></circle><circle cx="40.19478332249905" cy="55.60864588969544" r="4" fill="#000000" fill-opacity="1"></circle><circle cx="207.3418028420255" cy="200.53008156051146" r="4" fill="#000000" fill-opacity="1"></circle><circle cx="137.34874469837578" cy="258.133972614493" r="4" fill="#000000" fill-opacity="1"></circle><circle cx="422.12813631764004" cy="361.55438891831443" r="4" fill="#000000" fill-opacity="1"></circle><circle cx="439.5461312209747" cy="95.579007331934" r="4" fill="#000000" fill-opacity="1"></circle><circle cx="91.71646158776555" cy="218.14644035563097" r="4" fill="#000000" fill-opacity="1"></circle><circle cx="159.16698941501187" cy="168.61924837352916" r="4" fill="#000000" fill-opacity="1"></circle><circle cx="273.8531111073753" cy="117.46775972660873" r="4" fill="#000000" fill-opacity="1"></circle><circle cx="43.91491511800233" cy="372.5172867262401" r="4" fill="#000000" fill-opacity="1"></circle><circle cx="77.79404714694188" cy="251.00130943797768" r="4" fill="#000000" fill-opacity="1"></circle><circle cx="338.872026902603" cy="149.90887830047916" r="4" fill="#000000" fill-opacity="1"></circle><circle cx="193.6416426516971" cy="52.7673580685706" r="4" fill="#000000" fill-opacity="1"></circle><circle cx="457.3153545667499" cy="291.4072370291186" r="4" fill="#000000" fill-opacity="1"></circle><circle cx="458.7173818243263" cy="448.4139881998282" r="4" fill="#000000" fill-opacity="1"></circle><circle cx="349.6318600775427" cy="286.8021999848008" r="4" fill="#000000" fill-opacity="1"></circle><circle cx="145.51955016418617" cy="321.24167192965524" r="4" fill="#000000" fill-opacity="1"></circle><circle cx="187.7863638778955" cy="107.99643414200797" r="4" fill="#000000" fill-opacity="1"></circle><circle cx="120.30688739969844" cy="26.408393783745968" r="4" fill="#000000" fill-opacity="1"></circle><circle cx="345.20708682742304" cy="227.193585464834" r="4" fill="#000000" fill-opacity="1"></circle><circle cx="202.5336085154152" cy="125.97044726189932" r="4" fill="#000000" fill-opacity="1"></circle><circle cx="274.29303103840056" cy="486.04635752002775" r="4" fill="#000000" fill-opacity="1"></circle><circle cx="92.54529278875538" cy="484.32800453465086" r="4" fill="#000000" fill-opacity="1"></circle><circle cx="278.2974674756267" cy="172.0337650980885" r="4" fill="#000000" fill-opacity="1"></circle><circle cx="296.65139114084366" cy="285.5196855850513" r="4" fill="#000000" fill-opacity="1"></circle><circle cx="242.74330012340104" cy="289.67420553412904" r="4" fill="#000000" fill-opacity="1"></circle><circle cx="470.69435921461104" cy="83.84575827955665" r="4" fill="#000000" fill-opacity="1"></circle><circle cx="451.26220681639853" cy="466.6374265370645" r="4" fill="#000000" fill-opacity="1"></circle><circle cx="379.93172629139326" cy="268.048673104846" r="4" fill="#000000" fill-opacity="1"></circle><circle cx="274.3231196491905" cy="298.72199931741545" r="4" fill="#000000" fill-opacity="1"></circle><circle cx="452.9768968906227" cy="149.19238861739154" r="4" fill="#000000" fill-opacity="1"></circle><circle cx="394.8211602385204" cy="367.0957297931512" r="4" fill="#000000" fill-opacity="1"></circle><circle cx="396.71017714067983" cy="24.01313360301571" r="4" fill="#000000" fill-opacity="1"></circle><circle cx="282.666133116852" cy="29.689703060740385" r="4" fill="#000000" fill-opacity="1"></circle><circle cx="407.61469396846854" cy="335.610637627505" r="4" fill="#000000" fill-opacity="1"></circle></svg>