<svg width="512" height="512" viewBox="0 0 512 512" xmlns="http://www.w3.org/2000/svg">
          <rect x="0" y="0" width="512" height="512" fill="#f8f8ff" fill-opacity="1"></rect>
        <circle cx="160.20349365568643" cy="272.952678285718" r="4" fill="#000000" fill-opacity="1"></circle><circle cx="45.455058755241" cy="76.90680331285631" r="4" fill="#000000" fill-opacity="1"></circle><circle cx="267.27190286856853" cy="453.2360126047031" r="4" fill="#000000" fill-opacity="1"></circle><circle cx="445.55291325009983" cy="310.3365906083866" r="4" fill="#000000" fill-opacity="1"></circle><circle cx="158.10947010475962" cy="442.4648204166503" r="4" fill="#000000" fill-opacity="1"></circle><circle cx="124.99391802218102" cy="27.181821117809598" r="4" fill="#000000" fill-opacity="1"></circle><circle cx="204.97146167810354" cy="258.377019411125" r="4" fill="#000000" fill-opacity="1"></circle><circle cx="465.92609015726674" cy="31.07678385714629" r="4" fill="#000000" fill-opacity="1"></circle><circle cx="228.79919736887445" cy="75.06210059737043" r="4" fill="#000000" fill-opacity="1"></circle><circle cx="255.84794841279646" cy="272.09622123472667" r="4" fill="#000000" fill-opacity="1"></circle><circle cx="362.99852678438475" cy="54.7010516666839" r="4" fill="#000000" fill-opacity="1"></circle><circle cx="422.34065192265564" cy="193.81476602907804" r="4" fill="#000000" fill-opacity="1"></circle><circle cx="424.47136355289183" cy="445.6690101558506" r="4" fill="#000000" fill-opacity="1"></circle><circle cx="476.47478357271183" cy="344.11448346606903" r="4" fill="#000000" fill-opacity="1"></circle><circle cx="163.40696079246925" cy="318.90114924389735" r="4" fill="#000000" fill-opacity="1"></circle><circle cx="125.21789482403415" cy="230.37005597954743" r="4" fill="#000000" fill-opacity="1"></circle><circle cx="450.10452767695784" cy="419.88717331718783" r="4" fill="#000000" fill-opacity="1"></circle><circle cx="118.47761460713048" cy="118.68248509963766" r="4" fill="#000000" fill-opacity="1"></circle><circle cx="304.0742616919651" cy="236.63553602773916" r="4" fill="#000000" fill-opacity="1"></circle><circle cx="173.05216887299764" cy="135.47826967354456" r="4" fill="#000000" fill-opacity="1"></circle><circle cx="34.69251862922046" cy="312.2198357617369" r="4" fill="#000000" fill-opacity="1"></circle><circle cx="90.14495199717454" cy="27.857521051544087" r="4" fill="#000000" fill-opacity="1"></circle><circle cx="466.0114806861033" cy="140.02653343753815" r="4" fill="#000000" fill-opacity="1"></circle><circle cx="434.25602957616746" cy="61.70698677829567" r="4" fill="#000000" fill-opacity="1"></circle><circle cx="77.9804471248176" cy="474.73989558462057" r="4" fill="#000000" fill-opacity="1"></circle><circle cx="39.07099317977598" cy="157.1983242319921" r="4" fill="#000000" fill-opacity="1"></circle><circle cx="62.32365135158403" cy="24.467858188941268" r="4" fill="#000000" fill-opacity="1"></circle><circle cx="258.7198884349255" cy="400.31490874710875" r="4" fill="#000000" fill-opacity="1"></circle><circle cx="374.09667439191225" cy="147.7028645389659" r="4" fill="#000000" fill-opacity="1"></circle><circle cx="325.5003223421911" cy="272.6525328826076" r="4" fill="#000000" fill-opacity="1"></circle><circle cx="108.54376641110446" cy="86.41432537493125" r="4" fill="#000000" fill-opacity="1"></circle><circle cx="483.2162849770689" cy="74.43359623387357" r="4" fill="#000000" fill-opacity="1"></circle><circle cx="236.66848707055334" cy="110.12977288253771" r="4" fill="#000000" fill-opacity="1"></circle><circle cx="215.92837295649406" cy="133.36654633379902" r="4" fill="#000000" fill-opacity="1"></circle><circle cx="36.64680964271267" cy="236.0123482256138" r="4" fill="#000000" fill-opacity="1"></circle><circle cx="114.83299115016733" cy="323.8467784434122" r="4" fill="#000000" fill-opacity="1"></circle><circle cx="426.5510221804926" cy="266.5906903173466" r="4" fill="#000000" fill-opacity="1"></circle><circle cx="456.088080558446" cy="170.6318602014113" r="4" fill="#000000" fill-opacity="1"></circle><circle cx="103.99562189088428" cy="297.86914390379735" r="4" fill="#000000" fill-opacity="1"></circle><circle cx="459.66631801784246" cy="280.90948032057304" r="4" fill="#000000" fill-opacity="1"></circle><circle cx="96.51500840934357" cy="378.6158572506779" r="4" fill="#000000" fill-opacity="1"></circle><circle cx="155.10333551707296" cy="61.03094497934842" r="4" fill="#000000" fill-opacity="1"></circle><circle cx="137.58147876547002" cy="158.3435956968633" r="4" fill="#000000" fill-opacity="1"></circle><circle cx="202.11021156007007" cy="28.5922143003945" r="4" fill="#000000" fill-opacity="1"></circle><circle cx="339.74243440458434" cy="482.72629976637785" r="4" fill="#000000" fill-opacity="1"></circle><circle cx="48.365279553017956" cy="319.544548890826" r="4" fill="#000000" fill-opacity="1"></circle><circle cx="89.31817567006928" cy="390.78816559424195" r="4" fill="#000000" fill-opacity="1"></circle><circle cx="283.75171470753105" cy="29.171348822801246" r="4" fill="#000000" fill-opacity="1"></circle><circle cx="331.8094465437251" cy="303.3711539651299" r="4" fill="#000000" fill-opacity="1"></circle><circle cx="481.6824026101465" cy="430.4159836740687" r="4" fill="#000000" fill-opacity="1"></circle><circle cx="157.7791370852157" cy="388.54473350696776" r="4" fill="#000000" fill-opacity="1"></circle><circle cx="314.6473917103385" cy="405.2099765811455" r="4" fill="#000000" fill-opacity="1"></circle><circle cx="291.07497696952043" cy="453.696892730739" r="4" fill="#000000" fill-opacity="1"></circle><circle cx="480.63409259890017" cy="45.07562890350363" r="4" fill="#000000" fill-opacity="1"></circle><circle cx="125.8609060515426" cy="432.28392387660546" r="4" fill="#000000" fill-opacity="1"></circle><circle cx="427.6098668887888" cy="218.0784561700418" r="4" fill="#000000" fill-opacity="1"></circle><circle cx="254.312274854751" cy="338.36635018986055" r="4" fill="#000000" fill-opacity="1"></circle><circle cx="465.3119521153783" cy="332.2497838075588" r="4" fill="#000000" fill-opacity="1"></circle><circle cx="316.3296205698696" cy="149.51625031812193" r="4" fill="#000000" fill-opacity="1"></circle><circle cx="433.5828526956622" cy="362.0692090044359" r="4" fill="#000000" fill-opacity="1"></circle><circle cx="283.91033565984975" cy="368.6204544676234" r="4" fill="#000000" fill-opacity="1"></circle><circle cx="291.8529422943934" cy="279.01908355049034" r="4" fill="#000000" fill-opacity="1"></circle><circle cx="212.27838642010292" cy="432.4686816017129" r="4" fill="#000000" fill-opacity="1"></circle><circle cx="233.618709117223" cy="153.91997750498587" r="4" fill="#000000" fill-opacity="1"></circle><circle cx="98.69040548796599" cy="162.05799089390396" r="4" fill="#000000" fill-opacity="1"></circle><circle cx="26.317917571663717" cy="192.5134410707179" r="4" fill="#000000" fill-opacity="1"></circle><circle cx="36.65438716725979" cy="183.83962296816586" r="4" fill="#000000" fill-opacity="1"></circle><circle cx="214.09170177525664" cy="298.5277976991798" r="4" fill="#000000" fill-opacity="1"></circle><circle cx="330.77394072990944" cy="213.1814208621335" r="4" fill="#000000" fill-opacity="1"></circle><circle cx="63.785438744784486" cy="296.7001013253633" r="4" fill="#000000" fill-opacity="1"></circle><circle cx="160.27108141104293" cy="151.15453074205146" r="4" fill="#000000" fill-opacity="1"></circle><circle cx="35.40993552427899" cy="110.90483025416025" r="4" fill="#000000" fill-opacity="1"></circle><circle cx="438.1772580130716" cy="245.69349110621044" r="4" fill="#000000" fill-opacity="1"></circle><circle cx="61.1253518148915" cy="446.91007719933" r="4" fill="#000000" fill-opacity="1"></circle><circle cx="406.3076351358372" cy="117.38407503694043" r="4" fill="#000000" fill-opacity="1"></circle><circle cx="287.12454551276755" cy="63.35139035152454" r="4" fill="#000000" fill-opacity="1"></circle><circle cx="232.44219980055442" cy="329.4132640076066" r="4" fill="#000000" fill-opacity="1"></circle><circle cx="132.93498924330868" cy="380.01096869869673" r="4" fill="#000000" fill-opacity="1"></circle><circle cx="52.6359273231821" cy="209.3068669632802" r="4" fill="#000000" fill-opacity="1"></circle><circle cx="186.7221677814376" cy="139.99641500683077" r="4" fill="#000000" fill-opacity="1"></circle><circle cx="265.5343699822412" cy="89.63816635149777" r="4" fill="#000000" fill-opacity="1"></circle><circle cx="134.8300279772411" cy="459.31655201471585" r="4" fill="#000000" fill-opacity="1"></circle><circle cx="435.4026630999168" cy="154.8703962253389" r="4" fill="#000000" fill-opacity="1"></circle><circle cx="331.6916224402921" cy="405.5792728938352" r="4" fill="#000000" fill-opacity="1"></circle><circle cx="24.889516752410714" cy="97.64309951845493" r="4" fill="#000000" fill-opacity="1"></circle><circle cx="476.56123871581894" cy="85.49661502699985" r="4" fill="#000000" fill-opacity="1"></circle><circle cx="455.7531382676804" cy="217.71139986651943" r="4" fill="#000000" fill-opacity="1"></circle><circle cx="214.67341413538585" cy="91.81772293448515" r="4" fill="#000000" fill-opacity="1"></circle><circle cx="78.60751152992052" cy="233.65180445901134" r="4" fill="#000000" fill-opacity="1"></circle><circle cx="335.3354710850372" cy="313.14155606420815" r="4" fill="#000000" fill-opacity="1"></circle><circle cx="401.9983059391333" cy="41.82915729130457" r="4" fill="#000000" fill-opacity="1"></circle><circle cx="261.94977417701875" cy="123.49980802812365" r="4" fill="#000000" fill-opacity="1"></circle><circle cx="42.604772076347416" cy="439.5415033023424" r="4" fill="#000000" fill-opacity="1"></circle><circle cx="143.24276886053354" cy="227.40045756179356" r="4" fill="#000000" fill-opacity="1"></circle><circle cx="213.10470229409452" cy="40.557153627231266" r="4" fill="#000000" fill-opacity="1"></circle><circle cx="144.31055827145676" cy="477.68408786073223" r="4" fill="#000000" fill-opacity="1"></circle><circle cx="297.79304759719935" cy="473.2912817331248" r="4" fill="#000000" fill-opacity="1"></circle><circle cx="180.002397974822" cy="445.3900591519137" r="4" fill="#000000" fill-opacity="1"></circle><circle cx="149.4334287123388" cy="458.87307081358335" r="4" fill="#000000" fill-opacity="1"></circle><circle cx="303.7501039413761" cy="216.93263358811095" r="4" fill="#000000" fill-opacity="1"></circle><circle cx="449.00050159719683" cy="286.8424280774418" r="4" fill="#000000" fill-opacity="1"></circle><circle cx="262.30137843372466" cy="379.994726662482" r="4" fill="#000000" fill-opacity="1"></circle><circle cx="181.63705831562865" cy="477.4869362892123" r="4" fill="#000000" fill-opacity="1"></circle><circle cx="397.6163524722963" cy="275.1480018247853" r="4" fill="#000000" fill-opacity="1"></circle><circle cx="269.8727361664129" cy="473.34694751419704" r="4" fill="#000000" fill-opacity="1"></circle><circle cx="278.16131195580783" cy="340.3512879904877" r="4" fill="#000000" fill-opacity="1"></circle><circle cx="138.96471096700031" cy="276.4581680722314" r="4" fill="#000000" fill-opacity="1"></circle><circle cx="28.036624203786467" cy="331.0436356242052" r="4" fill="#000000" fill-opacity="1"></circle><circle cx="416.5827238367108" cy="354.84766883011326" r="4" fill="#000000" fill-opacity="1"></circle><circle cx="31.536157671729736" cy="375.1062985190093" r="4" fill="#000000" fill-opacity="1"></circle><circle cx="471.4682353426533" cy="451.7936406113224" r="4" fill="#000000" fill-opacity="1"></circle><circle cx="183.76723206077833" cy="270.7057224743794" r="4" fill="#000000" fill-opacity="1"></circle><circle cx="169.67501362958237" cy="423.824402900319" r="4" fill="#000000" fill-opacity="1"></circle><circle cx="96.21517445534901" cy="77.62297348148103" r="4" fill="#000000" fill-opacity="1"></circle><circle cx="197.65295413885428" cy="486.40569580274075" r="4" fill="#000000" fill-opacity="1"></circle><circle cx="108.17192679817744" cy="104.45734341863688" r="4" fill="#000000" fill-opacity="1"></circle><circle cx="328.3093149611704" cy="439.10487178045724" r="4" fill="#000000" fill-opacity="1"></circle><circle cx="158.01138926091934" cy="72.72928547110563" r="4" fill="#000000" fill-opacity="1"></circle><circle cx="321.7675075735473" cy="487.9687622047589" r="4" fill="#000000" fill-opacity="1"></circle><circle cx="58.258080113809086" cy="418.9318027520168" r="4" fill="#000000" fill-opacity="1"></circle><circle cx="350.7279810808908" cy="92.82911922810763" r="4" fill="#000000" fill-opacity="1"></circle><circle cx="116.09951689104123" cy="271.7517148579291" r="4" fill="#000000" fill-opacity="1"></circle><circle cx="368.7752420677751" cy="198.08679324103394" r="4" fill="#000000" fill-opacity="1"></circle><circle cx="166.81278500682785" cy="468.8016965600781" r="4" fill="#000000" fill-opacity="1"></circle><circle cx="135.97417492688496" cy="44.72603068335387" r="4" fill="#000000" fill-opacity="1"></circle><circle cx="36.966715444739314" cy="273.83385790293687" r="4" fill="#000000" fill-opacity="1"></circle><circle cx="73.73697268686374" cy="56.10890168670862" r="4" fill="#000000" fill-opacity="1"></circle><circle cx="92.09437630158217" cy="213.56230831159667" r="4" fill="#000000" fill-opacity="1"></circle><circle cx="441.2011081566788" cy="435.04810357753144" r="4" fill="#000000" fill-opacity="1"></circle><circle cx="227.9968957387257" cy="417.44814780829165" r="4" fill="#000000" fill-opacity="1"></circle></svg>