<svg width="512" height="512" viewBox="0 0 512 512" xmlns="http://www.w3.org/2000/svg">
          <rect x="0" y="0" width="512" height="512" fill="#f8f8ff" fill-opacity="1"></rect>
        <circle cx="393.4990090931265" cy="425.72767563729815" r="4" fill="#000000" fill-opacity="1"></circle><circle cx="79.12698347907353" cy="483.90617956991025" r="4" fill="#000000" fill-opacity="1"></circle><circle cx="318.1787537218183" cy="125.65335039130314" r="4" fill="#000000" fill-opacity="1"></circle><circle cx="108.00328520229846" cy="105.50576143839022" r="4" fill="#000000" fill-opacity="1"></circle><circle cx="322.25634731189984" cy="156.25468409151392" r="4" fill="#000000" fill-opacity="1"></circle><circle cx="201.55904204562637" cy="100.84434773352814" r="4" fill="#000000" fill-opacity="1"></circle><circle cx="317.77411928917036" cy="354.32398998016333" r="4" fill="#000000" fill-opacity="1"></circle><circle cx="384.94071370434557" cy="307.10156606228554" r="4" fill="#000000" fill-opacity="1"></circle><circle cx="380.2028028060682" cy="485.0743043886649" r="4" fill="#000000" fill-opacity="1"></circle><circle cx="259.36733667723" cy="46.76197824846061" r="4" fill="#000000" fill-opacity="1"></circle><circle cx="253.58923080420078" cy="444.6311807055128" r="4" fill="#000000" fill-opacity="1"></circle><circle cx="208.462084927114" cy="481.0411928430751" r="4" fill="#000000" fill-opacity="1"></circle><circle cx="350.53509365962617" cy="180.8548230362111" r="4" fill="#000000" fill-opacity="1"></circle><circle cx="454.0701671618435" cy="93.42562073120618" r="4" fill="#000000" fill-opacity="1"></circle><circle cx="129.2855154295006" cy="186.9656026749063" r="4" fill="#000000" fill-opacity="1"></circle><circle cx="220.04056319107772" cy="287.5063835071082" r="4" fill="#000000" fill-opacity="1"></circle><circle cx="63.03953607988601" cy="418.2638503718978" r="4" fill="#000000" fill-opacity="1"></circle><circle cx="371.18659035729996" cy="63.8269579592774" r="4" fill="#000000" fill-opacity="1"></circle><circle cx="448.43681390599045" cy="234.3499256957357" r="4" fill="#000000" fill-opacity="1"></circle><circle cx="444.62984540644203" cy="264.89911046433565" r="4" fill="#000000" fill-opacity="1"></circle><circle cx="62.17641603630894" cy="142.5350449232997" r="4" fill="#000000" fill-opacity="1"></circle><circle cx="465.35645299472793" cy="138.9790058765094" r="4" fill="#000000" fill-opacity="1"></circle><circle cx="342.9308247101297" cy="273.6088234952272" r="4" fill="#000000" fill-opacity="1"></circle><circle cx="132.8478545748454" cy="155.24423743013148" r="4" fill="#000000" fill-opacity="1"></circle><circle cx="374.1011076691262" cy="193.09864048025452" r="4" fill="#000000" fill-opacity="1"></circle><circle cx="216.83256314767095" cy="98.68758470753781" r="4" fill="#000000" fill-opacity="1"></circle><circle cx="304.8479950996308" cy="230.35135267280063" r="4" fill="#000000" fill-opacity="1"></circle><circle cx="221.8084510489996" cy="414.15073600508464" r="4" fill="#000000" fill-opacity="1"></circle><circle cx="326.7638937601911" cy="184.05175692387004" r="4" fill="#000000" fill-opacity="1"></circle><circle cx="118.10595357117055" cy="53.987697513472696" r="4" fill="#000000" fill-opacity="1"></circle><circle cx="237.0851475687226" cy="93.92120676047377" r="4" fill="#000000" fill-opacity="1"></circle><circle cx="263.37250969656645" cy="182.1244160434993" r="4" fill="#000000" fill-opacity="1"></circle><circle cx="201.89170275662445" cy="347.11620966777116" r="4" fill="#000000" fill-opacity="1"></circle><circle cx="108.14888530655689" cy="422.0524618589483" r="4" fill="#000000" fill-opacity="1"></circle><circle cx="377.1700730309697" cy="74.26125400319697" r="4" fill="#000000" fill-opacity="1"></circle><circle cx="153.40981273916174" cy="342.2892790964079" r="4" fill="#000000" fill-opacity="1"></circle><circle cx="88.96750452592866" cy="428.2860859621817" r="4" fill="#000000" fill-opacity="1"></circle><circle cx="388.6591589078063" cy="166.6150284451444" r="4" fill="#000000" fill-opacity="1"></circle><circle cx="352.3367533607566" cy="37.003613700867135" r="4" fill="#000000" fill-opacity="1"></circle><circle cx="212.8177103279167" cy="224.29175981607528" r="4" fill="#000000" fill-opacity="1"></circle><circle cx="256.38672303845647" cy="276.8266249290342" r="4" fill="#000000" fill-opacity="1"></circle><circle cx="482.557741280139" cy="480.63840848952384" r="4" fill="#000000" fill-opacity="1"></circle><circle cx="313.0222077807836" cy="212.91274918399984" r="4" fill="#000000" fill-opacity="1"></circle><circle cx="437.9637645175478" cy="375.6687695985811" r="4" fill="#000000" fill-opacity="1"></circle><circle cx="234.0053133272098" cy="425.792244504748" r="4" fill="#000000" fill-opacity="1"></circle><circle cx="47.4179466631977" cy="344.7931615277231" r="4" fill="#000000" fill-opacity="1"></circle><circle cx="437.62891384936677" cy="353.88262689769357" r="4" fill="#000000" fill-opacity="1"></circle><circle cx="233.19148021737783" cy="216.44647583018593" r="4" fill="#000000" fill-opacity="1"></circle><circle cx="198.84221464274037" cy="357.62371863788815" r="4" fill="#000000" fill-opacity="1"></circle><circle cx="327.9825181564674" cy="263.4517052492811" r="4" fill="#000000" fill-opacity="1"></circle><circle cx="189.67512641885978" cy="281.5531811219285" r="4" fill="#000000" fill-opacity="1"></circle><circle cx="60.91213966971999" cy="481.2964602642517" r="4" fill="#000000" fill-opacity="1"></circle><circle cx="195.26187451494272" cy="149.74527970030454" r="4" fill="#000000" fill-opacity="1"></circle><circle cx="453.7024834117596" cy="436.34801779230366" r="4" fill="#000000" fill-opacity="1"></circle><circle cx="182.8337728585939" cy="150.71973302975618" r="4" fill="#000000" fill-opacity="1"></circle><circle cx="207.38234620278962" cy="202.71313384710496" r="4" fill="#000000" fill-opacity="1"></circle><circle cx="391.277149267908" cy="38.45010180667557" r="4" fill="#000000" fill-opacity="1"></circle><circle cx="294.7599620701394" cy="199.8830768446949" r="4" fill="#000000" fill-opacity="1"></circle><circle cx="434.6767284493508" cy="289.24207690276813" r="4" fill="#000000" fill-opacity="1"></circle><circle cx="62.90842537203895" cy="226.58287884252866" r="4" fill="#000000" fill-opacity="1"></circle><circle cx="58.40400278776512" cy="352.49758082890696" r="4" fill="#000000" fill-opacity="1"></circle><circle cx="150.05470015417302" cy="398.57818419348075" r="4" fill="#000000" fill-opacity="1"></circle><circle cx="105.7444054247012" cy="253.19632315058396" r="4" fill="#000000" fill-opacity="1"></circle><circle cx="134.87736604707572" cy="46.50996393549377" r="4" fill="#000000" fill-opacity="1"></circle><circle cx="272.3712270334719" cy="274.47530123819115" r="4" fill="#000000" fill-opacity="1"></circle><circle cx="356.9420956627123" cy="439.2249460895785" r="4" fill="#000000" fill-opacity="1"></circle><circle cx="39.22561699099913" cy="354.1151339425394" r="4" fill="#000000" fill-opacity="1"></circle><circle cx="135.512586451866" cy="309.73895929897606" r="4" fill="#000000" fill-opacity="1"></circle><circle cx="112.2780959670013" cy="42.88570207929271" r="4" fill="#000000" fill-opacity="1"></circle><circle cx="263.7456466513492" cy="397.40748265919086" r="4" fill="#000000" fill-opacity="1"></circle><circle cx="92.9459844194605" cy="463.8895121715297" r="4" fill="#000000" fill-opacity="1"></circle><circle cx="43.05159792742967" cy="42.89578524622628" r="4" fill="#000000" fill-opacity="1"></circle><circle cx="481.612883785394" cy="335.9549545279242" r="4" fill="#000000" fill-opacity="1"></circle><circle cx="202.41864332848655" cy="135.46277339181015" r="4" fill="#000000" fill-opacity="1"></circle><circle cx="138.4009031955877" cy="229.28865188085175" r="4" fill="#000000" fill-opacity="1"></circle><circle cx="57.259349246947735" cy="83.16839346842896" r="4" fill="#000000" fill-opacity="1"></circle><circle cx="331.55519789757886" cy="95.32551907866505" r="4" fill="#000000" fill-opacity="1"></circle><circle cx="442.7601490166525" cy="121.96593267116495" r="4" fill="#000000" fill-opacity="1"></circle><circle cx="306.84908242708065" cy="440.329740578937" r="4" fill="#000000" fill-opacity="1"></circle><circle cx="145.87188649752036" cy="186.70965370128843" r="4" fill="#000000" fill-opacity="1"></circle><circle cx="204.27706865334764" cy="452.1884027578731" r="4" fill="#000000" fill-opacity="1"></circle><circle cx="368.7525779852383" cy="145.45603357357297" r="4" fill="#000000" fill-opacity="1"></circle><circle cx="122.78616156975056" cy="95.32870747542364" r="4" fill="#000000" fill-opacity="1"></circle><circle cx="233.06449539065724" cy="166.0093364446225" r="4" fill="#000000" fill-opacity="1"></circle><circle cx="238.73812208096152" cy="150.20922320843908" r="4" fill="#000000" fill-opacity="1"></circle><circle cx="414.27270677465026" cy="78.66995993833096" r="4" fill="#000000" fill-opacity="1"></circle><circle cx="316.68923527065215" cy="96.30721149384688" r="4" fill="#000000" fill-opacity="1"></circle><circle cx="256.0706362654777" cy="381.2087139360345" r="4" fill="#000000" fill-opacity="1"></circle><circle cx="351.6206005068579" cy="134.83598464431776" r="4" fill="#000000" fill-opacity="1"></circle><circle cx="431.02851476066394" cy="400.1421529024223" r="4" fill="#000000" fill-opacity="1"></circle><circle cx="407.98731734801413" cy="197.25074325420294" r="4" fill="#000000" fill-opacity="1"></circle><circle cx="454.722990215719" cy="181.8118380687116" r="4" fill="#000000" fill-opacity="1"></circle><circle cx="53.00332365620259" cy="392.6081798187293" r="4" fill="#000000" fill-opacity="1"></circle><circle cx="133.46043623745544" cy="363.3083908386092" r="4" fill="#000000" fill-opacity="1"></circle><circle cx="270.93725347092493" cy="320.91748887707763" r="4" fill="#000000" fill-opacity="1"></circle><circle cx="286.5329326758685" cy="401.2465796165131" r="4" fill="#000000" fill-opacity="1"></circle><circle cx="70.3075645845395" cy="291.00162686460015" r="4" fill="#000000" fill-opacity="1"></circle><circle cx="487.42936001149394" cy="180.03088508529575" r="4" fill="#000000" fill-opacity="1"></circle><circle cx="98.05595481244583" cy="183.9648924517321" r="4" fill="#000000" fill-opacity="1"></circle><circle cx="36.97479589549174" cy="455.80383049921215" r="4" fill="#000000" fill-opacity="1"></circle><circle cx="273.0404966845116" cy="376.32452529242363" r="4" fill="#000000" fill-opacity="1"></circle><circle cx="228.45106832371434" cy="330.0190682390864" r="4" fill="#000000" fill-opacity="1"></circle><circle cx="214.56537451990323" cy="113.27380803560087" r="4" fill="#000000" fill-opacity="1"></circle><circle cx="400.461610198588" cy="433.34483970843525" r="4" fill="#000000" fill-opacity="1"></circle><circle cx="401.0452113725639" cy="252.88378465381206" r="4" fill="#000000" fill-opacity="1"></circle><circle cx="286.8813784956424" cy="44.17146850068888" r="4" fill="#000000" fill-opacity="1"></circle><circle cx="278.8278361709617" cy="59.52736621866875" r="4" fill="#000000" fill-opacity="1"></circle><circle cx="408.1197542454084" cy="397.52069783905415" r="4" fill="#000000" fill-opacity="1"></circle><circle cx="442.7319706597809" cy="384.8034323922846" r="4" fill="#000000" fill-opacity="1"></circle><circle cx="107.39336699492752" cy="405.17349763104045" r="4" fill="#000000" fill-opacity="1"></circle><circle cx="435.8318892762992" cy="54.47930109705014" r="4" fill="#000000" fill-opacity="1"></circle><circle cx="67.1234223336343" cy="430.85989229567457" r="4" fill="#000000" fill-opacity="1"></circle><circle cx="58.98393238244245" cy="107.28831717852354" r="4" fill="#000000" fill-opacity="1"></circle><circle cx="369.7772704191902" cy="438.63501088975846" r="4" fill="#000000" fill-opacity="1"></circle><circle cx="284.8170568519574" cy="160.6130664570697" r="4" fill="#000000" fill-opacity="1"></circle><circle cx="379.06614081397737" cy="36.363506571451296" r="4" fill="#000000" fill-opacity="1"></circle><circle cx="476.855522360984" cy="150.3187451242992" r="4" fill="#000000" fill-opacity="1"></circle><circle cx="480.6903879422675" cy="64.7661305571905" r="4" fill="#000000" fill-opacity="1"></circle><circle cx="194.97988772613797" cy="483.03242407066307" r="4" fill="#000000" fill-opacity="1"></circle><circle cx="56.520343541952485" cy="431.6778762308801" r="4" fill="#000000" fill-opacity="1"></circle><circle cx="270.8883242154032" cy="110.06007979258034" r="4" fill="#000000" fill-opacity="1"></circle><circle cx="233.8775121217563" cy="264.92796995106477" r="4" fill="#000000" fill-opacity="1"></circle><circle cx="126.24279618901068" cy="479.44300472330104" r="4" fill="#000000" fill-opacity="1"></circle><circle cx="190.7599354406616" cy="440.91389921762817" r="4" fill="#000000" fill-opacity="1"></circle><circle cx="194.6329743239593" cy="44.32224137795748" r="4" fill="#000000" fill-opacity="1"></circle><circle cx="122.82994705344065" cy="454.7157887050603" r="4" fill="#000000" fill-opacity="1"></circle><circle cx="65.1567839135995" cy="461.9000686563022" r="4" fill="#000000" fill-opacity="1"></circle><circle cx="301.05449198952255" cy="155.5224148394439" r="4" fill="#000000" fill-opacity="1"></circle><circle cx="457.05487269829575" cy="222.78286187865672" r="4" fill="#000000" fill-opacity="1"></circle><circle cx="246.76359420887604" cy="244.9849157998309" r="4" fill="#000000" fill-opacity="1"></circle><circle cx="427.96834209222015" cy="262.41914966241814" r="4" fill="#000000" fill-opacity="1"></circle><circle cx="367.12242773283106" cy="263.8615820612264" r="4" fill="#000000" fill-opacity="1"></circle><circle cx="344.6016762366105" cy="447.3753338820777" r="4" fill="#000000" fill-opacity="1"></circle><circle cx="481.787654482682" cy="139.36993757287436" r="4" fill="#000000" fill-opacity="1"></circle><circle cx="221.11610590493666" cy="312.8807832949039" r="4" fill="#000000" fill-opacity="1"></circle><circle cx="351.50307855751794" cy="359.0507348189908" r="4" fill="#000000" fill-opacity="1"></circle><circle cx="308.00662998330654" cy="487.56360582102025" r="4" fill="#000000" fill-opacity="1"></circle><circle cx="27.6826007513631" cy="187.46920824618527" r="4" fill="#000000" fill-opacity="1"></circle><circle cx="78.40012732668028" cy="36.23306186467556" r="4" fill="#000000" fill-opacity="1"></circle><circle cx="469.5919034806273" cy="318.2493366315612" r="4" fill="#000000" fill-opacity="1"></circle></svg>