<svg width="512" height="512" viewBox="0 0 512 512" xmlns="http://www.w3.org/2000/svg">
          <rect x="0" y="0" width="512" height="512" fill="#f8f8ff" fill-opacity="1"></rect>
        <circle cx="471.2290438647526" cy="254.17602477085495" r="4" fill="#000000" fill-opacity="1"></circle><circle cx="444.0633824011289" cy="363.3082158187232" r="4" fill="#000000" fill-opacity="1"></circle><circle cx="413.2570832372657" cy="151.42659178489174" r="4" fill="#000000" fill-opacity="1"></circle><circle cx="107.5221740565166" cy="24.11429941871455" r="4" fill="#000000" fill-opacity="1"></circle><circle cx="63.00925205381856" cy="87.77580680781534" r="4" fill="#000000" fill-opacity="1"></circle><circle cx="278.63941987204197" cy="173.20197040882212" r="4" fill="#000000" fill-opacity="1"></circle><circle cx="381.42204107663997" cy="391.4457867267198" r="4" fill="#000000" fill-opacity="1"></circle><circle cx="371.3485049378317" cy="74.79001409021134" r="4" fill="#000000" fill-opacity="1"></circle><circle cx="445.27135770019606" cy="113.16095992162931" r="4" fill="#000000" fill-opacity="1"></circle><circle cx="56.09774352834876" cy="102.7140986427794" r="4" fill="#000000" fill-opacity="1"></circle><circle cx="198.43970355448175" cy="76.40786349796689" r="4" fill="#000000" fill-opacity="1"></circle><circle cx="388.7904998225628" cy="255.87126786791086" r="4" fill="#000000" fill-opacity="1"></circle><circle cx="151.21976329371412" cy="86.35292652442986" r="4" fill="#000000" fill-opacity="1"></circle><circle cx="182.32560307093345" cy="347.8810379136305" r="4" fill="#000000" fill-opacity="1"></circle><circle cx="199.34021016059845" cy="226.2342862716402" r="4" fill="#000000" fill-opacity="1"></circle><circle cx="337.0276022594229" cy="256.38493842625405" r="4" fill="#000000" fill-opacity="1"></circle><circle cx="386.9808862951063" cy="49.330543286188416" r="4" fill="#000000" fill-opacity="1"></circle><circle cx="397.69780981675154" cy="227.29126241582316" r="4" fill="#000000" fill-opacity="1"></circle><circle cx="368.902908391412" cy="471.85959150643464" r="4" fill="#000000" fill-opacity="1"></circle><circle cx="121.74858118143047" cy="385.86600227742724" r="4" fill="#000000" fill-opacity="1"></circle><circle cx="228.87796376923774" cy="60.02032039879167" r="4" fill="#000000" fill-opacity="1"></circle><circle cx="277.36374360783645" cy="48.05719741024703" r="4" fill="#000000" fill-opacity="1"></circle><circle cx="328.89572008839224" cy="347.3350040726895" r="4" fill="#000000" fill-opacity="1"></circle><circle cx="467.6172810094248" cy="469.0390916768648" r="4" fill="#000000" fill-opacity="1"></circle><circle cx="27.710901966655413" cy="126.70946592367447" r="4" fill="#000000" fill-opacity="1"></circle><circle cx="192.42938344623406" cy="317.790263109813" r="4" fill="#000000" fill-opacity="1"></circle><circle cx="159.8326099311542" cy="347.6807499759486" r="4" fill="#000000" fill-opacity="1"></circle><circle cx="94.81777670330936" cy="371.5149684610372" r="4" fill="#000000" fill-opacity="1"></circle><circle cx="92.82924164951334" cy="486.94752399433315" r="4" fill="#000000" fill-opacity="1"></circle><circle cx="236.28268411044726" cy="338.94345569412735" r="4" fill="#000000" fill-opacity="1"></circle><circle cx="320.5075034464579" cy="58.05296943972979" r="4" fill="#000000" fill-opacity="1"></circle><circle cx="80.68236870377216" cy="157.57409616609897" r="4" fill="#000000" fill-opacity="1"></circle><circle cx="346.33543049341" cy="479.3119704742302" r="4" fill="#000000" fill-opacity="1"></circle><circle cx="328.48727390460147" cy="335.3394088482061" r="4" fill="#000000" fill-opacity="1"></circle><circle cx="421.76342656966085" cy="65.05147660036134" r="4" fill="#000000" fill-opacity="1"></circle><circle cx="393.8892234779319" cy="411.7742228114723" r="4" fill="#000000" fill-opacity="1"></circle><circle cx="36.34069353448733" cy="93.94879117715857" r="4" fill="#000000" fill-opacity="1"></circle><circle cx="27.3051315298843" cy="324.3837925716939" r="4" fill="#000000" fill-opacity="1"></circle><circle cx="413.6504096585302" cy="295.0363371735484" r="4" fill="#000000" fill-opacity="1"></circle><circle cx="101.28986166015976" cy="130.94200892153782" r="4" fill="#000000" fill-opacity="1"></circle><circle cx="343.3851800976091" cy="198.78616077558905" r="4" fill="#000000" fill-opacity="1"></circle><circle cx="183.34664424610554" cy="131.96457106613417" r="4" fill="#000000" fill-opacity="1"></circle><circle cx="321.1470518308533" cy="376.3729633322523" r="4" fill="#000000" fill-opacity="1"></circle><circle cx="45.81662065898193" cy="113.35296422315425" r="4" fill="#000000" fill-opacity="1"></circle><circle cx="36.71041221874829" cy="307.4287839225641" r="4" fill="#000000" fill-opacity="1"></circle><circle cx="32.2415773468828" cy="53.881941764286786" r="4" fill="#000000" fill-opacity="1"></circle><circle cx="132.56050745736172" cy="280.48537982373307" r="4" fill="#000000" fill-opacity="1"></circle><circle cx="301.80983035816575" cy="180.94139578489177" r="4" fill="#000000" fill-opacity="1"></circle><circle cx="298.10651602390743" cy="316.108943812246" r="4" fill="#000000" fill-opacity="1"></circle><circle cx="267.13794128834496" cy="419.2917684026273" r="4" fill="#000000" fill-opacity="1"></circle><circle cx="278.3321048837603" cy="285.59532248962336" r="4" fill="#000000" fill-opacity="1"></circle><circle cx="85.86090482507454" cy="288.15587129329793" r="4" fill="#000000" fill-opacity="1"></circle><circle cx="58.697782910585765" cy="182.8253367507347" r="4" fill="#000000" fill-opacity="1"></circle><circle cx="361.768014663513" cy="431.01881508799" r="4" fill="#000000" fill-opacity="1"></circle><circle cx="113.58408585232733" cy="63.09584666024237" r="4" fill="#000000" fill-opacity="1"></circle><circle cx="452.9043725926863" cy="425.4199716788811" r="4" fill="#000000" fill-opacity="1"></circle><circle cx="69.33474469632802" cy="477.1751685846284" r="4" fill="#000000" fill-opacity="1"></circle><circle cx="349.05684309121534" cy="68.15409504158693" r="4" fill="#000000" fill-opacity="1"></circle><circle cx="55.40776464941669" cy="277.6284500667872" r="4" fill="#000000" fill-opacity="1"></circle><circle cx="308.7389504715587" cy="283.1626419512029" r="4" fill="#000000" fill-opacity="1"></circle><circle cx="169.84088450357282" cy="333.29777366947144" r="4" fill="#000000" fill-opacity="1"></circle><circle cx="303.15013307055136" cy="342.29700477145116" r="4" fill="#000000" fill-opacity="1"></circle><circle cx="415.60907347010766" cy="28.320698472685102" r="4" fill="#000000" fill-opacity="1"></circle><circle cx="344.16596812659253" cy="180.62332516779233" r="4" fill="#000000" fill-opacity="1"></circle><circle cx="31.27399958180536" cy="220.81606318498737" r="4" fill="#000000" fill-opacity="1"></circle><circle cx="474.32867700954154" cy="53.41996583734689" r="4" fill="#000000" fill-opacity="1"></circle><circle cx="463.22099802318996" cy="288.6301769253874" r="4" fill="#000000" fill-opacity="1"></circle><circle cx="472.89960902894336" cy="390.978076778283" r="4" fill="#000000" fill-opacity="1"></circle><circle cx="459.7940641307651" cy="208.81340193667782" r="4" fill="#000000" fill-opacity="1"></circle><circle cx="173.39527825806167" cy="163.74212813982703" r="4" fill="#000000" fill-opacity="1"></circle><circle cx="379.8813911979312" cy="164.642752264004" r="4" fill="#000000" fill-opacity="1"></circle><circle cx="383.7797184627183" cy="473.03993241474274" r="4" fill="#000000" fill-opacity="1"></circle><circle cx="179.70471257295443" cy="81.11785222510807" r="4" fill="#000000" fill-opacity="1"></circle><circle cx="355.5148117159238" cy="120.62512338884046" r="4" fill="#000000" fill-opacity="1"></circle><circle cx="190.23275848805486" cy="41.54323903143694" r="4" fill="#000000" fill-opacity="1"></circle><circle cx="392.20353385876047" cy="376.8413353269445" r="4" fill="#000000" fill-opacity="1"></circle><circle cx="242.04978158475348" cy="75.79230090420126" r="4" fill="#000000" fill-opacity="1"></circle><circle cx="434.60584109674807" cy="169.14092009626103" r="4" fill="#000000" fill-opacity="1"></circle><circle cx="123.6239185369243" cy="408.68673564968935" r="4" fill="#000000" fill-opacity="1"></circle><circle cx="47.01152232068027" cy="312.59185433182466" r="4" fill="#000000" fill-opacity="1"></circle><circle cx="241.1332680886713" cy="412.47272700267115" r="4" fill="#000000" fill-opacity="1"></circle><circle cx="186.92802839027522" cy="477.034920495886" r="4" fill="#000000" fill-opacity="1"></circle><circle cx="198.12023688016995" cy="166.37372475544663" r="4" fill="#000000" fill-opacity="1"></circle><circle cx="77.65615378356202" cy="431.805403065026" r="4" fill="#000000" fill-opacity="1"></circle><circle cx="101.11017315217646" cy="217.25098844311137" r="4" fill="#000000" fill-opacity="1"></circle><circle cx="50.2651155142065" cy="339.65902132505795" r="4" fill="#000000" fill-opacity="1"></circle><circle cx="415.21588237394377" cy="356.9895266286639" r="4" fill="#000000" fill-opacity="1"></circle><circle cx="226.22376693894307" cy="272.823997925603" r="4" fill="#000000" fill-opacity="1"></circle><circle cx="237.13156831052552" cy="137.37582209336333" r="4" fill="#000000" fill-opacity="1"></circle><circle cx="321.61932200490673" cy="132.35343989252644" r="4" fill="#000000" fill-opacity="1"></circle><circle cx="379.32314380481097" cy="85.28232793705004" r="4" fill="#000000" fill-opacity="1"></circle><circle cx="264.2532902148453" cy="302.6166303780273" r="4" fill="#000000" fill-opacity="1"></circle><circle cx="290.0271078242694" cy="75.37869381466606" r="4" fill="#000000" fill-opacity="1"></circle><circle cx="333.63455793690554" cy="230.61624831014075" r="4" fill="#000000" fill-opacity="1"></circle><circle cx="210.6451711710195" cy="481.35473376697803" r="4" fill="#000000" fill-opacity="1"></circle><circle cx="291.46599397114284" cy="427.7428761540705" r="4" fill="#000000" fill-opacity="1"></circle><circle cx="101.26668505600362" cy="480.25074729050726" r="4" fill="#000000" fill-opacity="1"></circle><circle cx="95.14615422512615" cy="323.74426035882965" r="4" fill="#000000" fill-opacity="1"></circle><circle cx="292.88013180939345" cy="228.03348434051026" r="4" fill="#000000" fill-opacity="1"></circle><circle cx="272.0286011663044" cy="257.7191022371279" r="4" fill="#000000" fill-opacity="1"></circle><circle cx="236.8963273830429" cy="422.840310491678" r="4" fill="#000000" fill-opacity="1"></circle><circle cx="369.98251471285727" cy="148.4172808417028" r="4" fill="#000000" fill-opacity="1"></circle><circle cx="487.5724861619991" cy="147.5902861123049" r="4" fill="#000000" fill-opacity="1"></circle><circle cx="177.57690259240266" cy="188.32265548320805" r="4" fill="#000000" fill-opacity="1"></circle><circle cx="295.7835457960157" cy="111.09137711544469" r="4" fill="#000000" fill-opacity="1"></circle><circle cx="262.0177456382478" cy="248.60455496047086" r="4" fill="#000000" fill-opacity="1"></circle><circle cx="295.149924017583" cy="39.40574657564024" r="4" fill="#000000" fill-opacity="1"></circle><circle cx="87.63495375778612" cy="124.83829547832858" r="4" fill="#000000" fill-opacity="1"></circle><circle cx="162.20624175828482" cy="399.7773980507043" r="4" fill="#000000" fill-opacity="1"></circle><circle cx="99.41232741944992" cy="439.37518585376665" r="4" fill="#000000" fill-opacity="1"></circle><circle cx="382.9739574728156" cy="67.53309001952388" r="4" fill="#000000" fill-opacity="1"></circle><circle cx="454.6066014205968" cy="189.37528569484172" r="4" fill="#000000" fill-opacity="1"></circle><circle cx="475.4375248601936" cy="368.29375192183505" r="4" fill="#000000" fill-opacity="1"></circle><circle cx="443.8439664763978" cy="390.0293402206049" r="4" fill="#000000" fill-opacity="1"></circle><circle cx="196.02971605141104" cy="118.67600151519238" r="4" fill="#000000" fill-opacity="1"></circle><circle cx="434.15946479136534" cy="153.3776177132314" r="4" fill="#000000" fill-opacity="1"></circle><circle cx="146.28726976607737" cy="42.2013045473692" r="4" fill="#000000" fill-opacity="1"></circle><circle cx="181.51133623473993" cy="56.70865047031827" r="4" fill="#000000" fill-opacity="1"></circle><circle cx="283.44469468102494" cy="471.06049381561627" r="4" fill="#000000" fill-opacity="1"></circle><circle cx="56.23108256255031" cy="244.477373101502" r="4" fill="#000000" fill-opacity="1"></circle><circle cx="328.9130092399165" cy="398.6265211721276" r="4" fill="#000000" fill-opacity="1"></circle><circle cx="299.8323502483618" cy="163.9727354228189" r="4" fill="#000000" fill-opacity="1"></circle><circle cx="247.47484922770843" cy="383.397705486277" r="4" fill="#000000" fill-opacity="1"></circle><circle cx="316.0320438096832" cy="160.25528342887992" r="4" fill="#000000" fill-opacity="1"></circle><circle cx="68.170668530221" cy="449.796159796067" r="4" fill="#000000" fill-opacity="1"></circle><circle cx="442.94155777577447" cy="255.86815820570382" r="4" fill="#000000" fill-opacity="1"></circle><circle cx="220.89459169372878" cy="462.54147087746463" r="4" fill="#000000" fill-opacity="1"></circle><circle cx="281.9566767804678" cy="255.80114942720226" r="4" fill="#000000" fill-opacity="1"></circle><circle cx="173.46258650461243" cy="386.0957671064177" r="4" fill="#000000" fill-opacity="1"></circle><circle cx="236.64848036778992" cy="295.5811852409581" r="4" fill="#000000" fill-opacity="1"></circle><circle cx="165.7663780028297" cy="78.36414612538904" r="4" fill="#000000" fill-opacity="1"></circle><circle cx="450.6411875467725" cy="102.74876625250268" r="4" fill="#000000" fill-opacity="1"></circle><circle cx="238.26626898645637" cy="164.33915487352144" r="4" fill="#000000" fill-opacity="1"></circle><circle cx="102.49900190028363" cy="314.72424090747563" r="4" fill="#000000" fill-opacity="1"></circle><circle cx="195.85168502702712" cy="96.53660835579738" r="4" fill="#000000" fill-opacity="1"></circle><circle cx="288.6466826579946" cy="143.01461649928916" r="4" fill="#000000" fill-opacity="1"></circle><circle cx="118.07935220565977" cy="475.6422515655632" r="4" fill="#000000" fill-opacity="1"></circle><circle cx="338.1213507235425" cy="315.08861494268086" r="4" fill="#000000" fill-opacity="1"></circle><circle cx="297.34397971387745" cy="478.82888383601806" r="4" fill="#000000" fill-opacity="1"></circle><circle cx="107.84351641125338" cy="364.31437802131586" r="4" fill="#000000" fill-opacity="1"></circle><circle cx="24.597469278210408" cy="380.6230648527305" r="4" fill="#000000" fill-opacity="1"></circle><circle cx="277.4202403631894" cy="393.59116947822554" r="4" fill="#000000" fill-opacity="1"></circle><circle cx="154.8908994928263" cy="383.151042070848" r="4" fill="#000000" fill-opacity="1"></circle><circle cx="222.7555439664845" cy="253.10252424615783" r="4" fill="#000000" fill-opacity="1"></circle><circle cx="356.94419409640847" cy="352.4422514859962" r="4" fill="#000000" fill-opacity="1"></circle><circle cx="36.62772039722252" cy="411.60778850665537" r="4" fill="#000000" fill-opacity="1"></circle><circle cx="134.626187944913" cy="399.88045822233147" r="4" fill="#000000" fill-opacity="1"></circle><circle cx="44.303781980992675" cy="238.78300334374953" r="4" fill="#000000" fill-opacity="1"></circle><circle cx="261.6743504302822" cy="267.82867821661097" r="4" fill="#000000" fill-opacity="1"></circle><circle cx="216.83574230343976" cy="234.79237803621663" r="4" fill="#000000" fill-opacity="1"></circle></svg>