<svg width="512" height="512" viewBox="0 0 512 512" xmlns="http://www.w3.org/2000/svg">
          <rect x="0" y="0" width="512" height="512" fill="#f8f8ff" fill-opacity="1"></rect>
        <circle cx="190.9254235410286" cy="186.08937443430634" r="4" fill="#000000" fill-opacity="1"></circle><circle cx="191.89284358192134" cy="356.8841270620672" r="4" fill="#000000" fill-opacity="1"></circle><circle cx="416.4250122809049" cy="386.8346804048767" r="4" fill="#000000" fill-opacity="1"></circle><circle cx="323.51378358585515" cy="309.31193397728634" r="4" fill="#000000" fill-opacity="1"></circle><circle cx="347.6384214954268" cy="318.00243199597384" r="4" fill="#000000" fill-opacity="1"></circle><circle cx="241.7171265681801" cy="255.7947135546588" r="4" fill="#000000" fill-opacity="1"></circle><circle cx="372.2217381351602" cy="183.46348816734286" r="4" fill="#000000" fill-opacity="1"></circle><circle cx="364.2692280275872" cy="299.3714237393469" r="4" fill="#000000" fill-opacity="1"></circle><circle cx="33.14702736745348" cy="168.9673577270705" r="4" fill="#000000" fill-opacity="1"></circle><circle cx="73.45519305789044" cy="453.9165439869325" r="4" fill="#000000" fill-opacity="1"></circle><circle cx="171.45986544065275" cy="431.2854529829805" r="4" fill="#000000" fill-opacity="1"></circle><circle cx="164.27294692140683" cy="441.0155116693389" r="4" fill="#000000" fill-opacity="1"></circle><circle cx="88.4888105525767" cy="366.1654333790409" r="4" fill="#000000" fill-opacity="1"></circle><circle cx="235.54725403285022" cy="408.4915031594398" r="4" fill="#000000" fill-opacity="1"></circle><circle cx="469.53406843000624" cy="357.0486221552032" r="4" fill="#000000" fill-opacity="1"></circle><circle cx="195.8683495898097" cy="255.31392870885884" r="4" fill="#000000" fill-opacity="1"></circle><circle cx="390.8930180281961" cy="179.00491795973633" r="4" fill="#000000" fill-opacity="1"></circle><circle cx="471.5870187865142" cy="390.7788789989769" r="4" fill="#000000" fill-opacity="1"></circle><circle cx="293.7785588940197" cy="271.2904707778372" r="4" fill="#000000" fill-opacity="1"></circle><circle cx="187.66487128769484" cy="269.2925885802362" r="4" fill="#000000" fill-opacity="1"></circle><circle cx="481.99344600533897" cy="349.6329149105842" r="4" fill="#000000" fill-opacity="1"></circle><circle cx="314.0925351691384" cy="404.7435225364151" r="4" fill="#000000" fill-opacity="1"></circle><circle cx="120.9468614313304" cy="36.88291440580175" r="4" fill="#000000" fill-opacity="1"></circle><circle cx="176.823674352215" cy="73.63069949234097" r="4" fill="#000000" fill-opacity="1"></circle><circle cx="129.1069935955581" cy="397.3488886204454" r="4" fill="#000000" fill-opacity="1"></circle><circle cx="254.34655524514162" cy="102.1513184359458" r="4" fill="#000000" fill-opacity="1"></circle><circle cx="183.12669263115237" cy="257.1384536721621" r="4" fill="#000000" fill-opacity="1"></circle><circle cx="148.65044923670655" cy="55.9278797894624" r="4" fill="#000000" fill-opacity="1"></circle><circle cx="167.5401820985871" cy="389.7420447357906" r="4" fill="#000000" fill-opacity="1"></circle><circle cx="398.49678318032494" cy="433.36891353308755" r="4" fill="#000000" fill-opacity="1"></circle><circle cx="199.24340067451752" cy="264.9911472776173" r="4" fill="#000000" fill-opacity="1"></circle><circle cx="238.17991750544772" cy="291.1421548307784" r="4" fill="#000000" fill-opacity="1"></circle><circle cx="164.50501656035607" cy="186.26170222444568" r="4" fill="#000000" fill-opacity="1"></circle><circle cx="406.05012992707805" cy="274.30095129418044" r="4" fill="#000000" fill-opacity="1"></circle><circle cx="426.2023965651668" cy="96.62951563197139" r="4" fill="#000000" fill-opacity="1"></circle><circle cx="46.5811333923838" cy="217.4963396256154" r="4" fill="#000000" fill-opacity="1"></circle><circle cx="27.636360947476916" cy="445.24387850725094" r="4" fill="#000000" fill-opacity="1"></circle><circle cx="364.5577492481199" cy="75.95540040350801" r="4" fill="#000000" fill-opacity="1"></circle><circle cx="305.904884118412" cy="312.0523203340799" r="4" fill="#000000" fill-opacity="1"></circle><circle cx="190.32527107118005" cy="439.919417688493" r="4" fill="#000000" fill-opacity="1"></circle><circle cx="318.2858872814553" cy="334.657174613014" r="4" fill="#000000" fill-opacity="1"></circle><circle cx="429.55936689848545" cy="79.41576934754036" r="4" fill="#000000" fill-opacity="1"></circle><circle cx="461.75295979215383" cy="223.08839571445878" r="4" fill="#000000" fill-opacity="1"></circle><circle cx="225.9526988129473" cy="293.13437858670176" r="4" fill="#000000" fill-opacity="1"></circle><circle cx="187.218403342111" cy="56.534777297373026" r="4" fill="#000000" fill-opacity="1"></circle><circle cx="232.66374291151553" cy="131.0546726103905" r="4" fill="#000000" fill-opacity="1"></circle><circle cx="134.01442761346397" cy="92.54158001408754" r="4" fill="#000000" fill-opacity="1"></circle><circle cx="423.84789738991185" cy="426.99191557054075" r="4" fill="#000000" fill-opacity="1"></circle><circle cx="317.7999901181075" cy="465.0879577794447" r="4" fill="#000000" fill-opacity="1"></circle><circle cx="246.41695781633123" cy="274.78897937354384" r="4" fill="#000000" fill-opacity="1"></circle><circle cx="63.15553663579222" cy="375.18522577495656" r="4" fill="#000000" fill-opacity="1"></circle><circle cx="274.779042533442" cy="311.72811535696667" r="4" fill="#000000" fill-opacity="1"></circle><circle cx="337.75519574524577" cy="465.2120911390109" r="4" fill="#000000" fill-opacity="1"></circle><circle cx="91.21989245642374" cy="474.1792549652292" r="4" fill="#000000" fill-opacity="1"></circle><circle cx="153.5270757165432" cy="360.73659282467264" r="4" fill="#000000" fill-opacity="1"></circle><circle cx="222.1490168709971" cy="167.67323810057886" r="4" fill="#000000" fill-opacity="1"></circle><circle cx="299.1756746129133" cy="449.99242273153857" r="4" fill="#000000" fill-opacity="1"></circle><circle cx="140.23216229495432" cy="416.29769528630277" r="4" fill="#000000" fill-opacity="1"></circle><circle cx="161.68743129015144" cy="348.3098998742507" r="4" fill="#000000" fill-opacity="1"></circle><circle cx="277.38329889112003" cy="213.15121885268627" r="4" fill="#000000" fill-opacity="1"></circle><circle cx="422.5010478537004" cy="42.506645271396685" r="4" fill="#000000" fill-opacity="1"></circle><circle cx="138.85932930419477" cy="355.1454046928792" r="4" fill="#000000" fill-opacity="1"></circle><circle cx="172.31436476546565" cy="478.97489940827836" r="4" fill="#000000" fill-opacity="1"></circle><circle cx="343.1075898047922" cy="265.04993354295095" r="4" fill="#000000" fill-opacity="1"></circle><circle cx="295.8750905194063" cy="281.2132435263294" r="4" fill="#000000" fill-opacity="1"></circle><circle cx="136.5351949777285" cy="455.99602052627034" r="4" fill="#000000" fill-opacity="1"></circle><circle cx="311.1022604677951" cy="55.65189425427539" r="4" fill="#000000" fill-opacity="1"></circle><circle cx="228.73887822810175" cy="210.87551068817862" r="4" fill="#000000" fill-opacity="1"></circle><circle cx="401.0764305966854" cy="376.17522486753654" r="4" fill="#000000" fill-opacity="1"></circle><circle cx="109.97959695455994" cy="385.6230198502967" r="4" fill="#000000" fill-opacity="1"></circle><circle cx="32.98892814311894" cy="317.6713529834912" r="4" fill="#000000" fill-opacity="1"></circle><circle cx="274.4670106328622" cy="365.536529169735" r="4" fill="#000000" fill-opacity="1"></circle><circle cx="443.37907794697253" cy="102.96938506802539" r="4" fill="#000000" fill-opacity="1"></circle><circle cx="134.68424110501059" cy="49.34552405007155" r="4" fill="#000000" fill-opacity="1"></circle><circle cx="214.3077682359613" cy="253.01943151133312" r="4" fill="#000000" fill-opacity="1"></circle><circle cx="116.8117566210937" cy="209.078948825965" r="4" fill="#000000" fill-opacity="1"></circle><circle cx="182.90134674960998" cy="200.73884598951375" r="4" fill="#000000" fill-opacity="1"></circle><circle cx="442.3527348951294" cy="271.69061815235085" r="4" fill="#000000" fill-opacity="1"></circle><circle cx="408.05373474044444" cy="139.35617719911062" r="4" fill="#000000" fill-opacity="1"></circle><circle cx="223.43233253281247" cy="69.11809025217181" r="4" fill="#000000" fill-opacity="1"></circle><circle cx="438.3656417640092" cy="146.01567393260262" r="4" fill="#000000" fill-opacity="1"></circle><circle cx="451.68635108121504" cy="166.41117492291474" r="4" fill="#000000" fill-opacity="1"></circle><circle cx="428.57300349665263" cy="181.94436166074922" r="4" fill="#000000" fill-opacity="1"></circle><circle cx="140.67436540691247" cy="201.7370344267191" r="4" fill="#000000" fill-opacity="1"></circle><circle cx="342.89189346996363" cy="171.53265522067827" r="4" fill="#000000" fill-opacity="1"></circle><circle cx="37.578869457154426" cy="146.45598496629296" r="4" fill="#000000" fill-opacity="1"></circle><circle cx="337.7306470797454" cy="223.57863532785976" r="4" fill="#000000" fill-opacity="1"></circle><circle cx="114.94111121818185" cy="76.12908050023688" r="4" fill="#000000" fill-opacity="1"></circle><circle cx="356.81232525229876" cy="466.09912500325214" r="4" fill="#000000" fill-opacity="1"></circle><circle cx="472.86404871070334" cy="329.90172680887605" r="4" fill="#000000" fill-opacity="1"></circle><circle cx="336.65215404507956" cy="303.70897484112356" r="4" fill="#000000" fill-opacity="1"></circle><circle cx="141.8964477830071" cy="27.878747165540204" r="4" fill="#000000" fill-opacity="1"></circle><circle cx="482.474040477613" cy="64.64246437945188" r="4" fill="#000000" fill-opacity="1"></circle><circle cx="462.2817327385556" cy="256.6794887154856" r="4" fill="#000000" fill-opacity="1"></circle><circle cx="175.64820075566934" cy="272.0896631574345" r="4" fill="#000000" fill-opacity="1"></circle><circle cx="247.9054035405183" cy="414.57965295407234" r="4" fill="#000000" fill-opacity="1"></circle><circle cx="297.197071006534" cy="438.1172762947003" r="4" fill="#000000" fill-opacity="1"></circle><circle cx="169.22364206144945" cy="24.348622184837538" r="4" fill="#000000" fill-opacity="1"></circle><circle cx="421.4002796089088" cy="53.14369209378411" r="4" fill="#000000" fill-opacity="1"></circle><circle cx="31.373282393179345" cy="301.74159431112014" r="4" fill="#000000" fill-opacity="1"></circle><circle cx="218.29360367075645" cy="327.1538632661252" r="4" fill="#000000" fill-opacity="1"></circle><circle cx="53.07162280241212" cy="297.57726825991915" r="4" fill="#000000" fill-opacity="1"></circle><circle cx="284.40268535170884" cy="193.20641040780507" r="4" fill="#000000" fill-opacity="1"></circle><circle cx="430.95521300713597" cy="374.8692285140772" r="4" fill="#000000" fill-opacity="1"></circle><circle cx="56.14218237312653" cy="80.69592761183307" r="4" fill="#000000" fill-opacity="1"></circle><circle cx="412.6981611805921" cy="413.9205959450784" r="4" fill="#000000" fill-opacity="1"></circle><circle cx="420.05226116837116" cy="156.48785741006378" r="4" fill="#000000" fill-opacity="1"></circle><circle cx="139.53347110838718" cy="81.50430661829182" r="4" fill="#000000" fill-opacity="1"></circle><circle cx="62.56392485186488" cy="197.6689141260184" r="4" fill="#000000" fill-opacity="1"></circle><circle cx="288.25666208151034" cy="180.43402720655592" r="4" fill="#000000" fill-opacity="1"></circle><circle cx="165.02854448547538" cy="221.34802829083372" r="4" fill="#000000" fill-opacity="1"></circle><circle cx="401.9488933094548" cy="482.21282448764964" r="4" fill="#000000" fill-opacity="1"></circle><circle cx="480.5991453888556" cy="485.25899787156095" r="4" fill="#000000" fill-opacity="1"></circle><circle cx="419.1435782006014" cy="338.32817369021694" r="4" fill="#000000" fill-opacity="1"></circle><circle cx="242.06875130233428" cy="356.5392144492904" r="4" fill="#000000" fill-opacity="1"></circle><circle cx="483.7005781642472" cy="235.0718004224575" r="4" fill="#000000" fill-opacity="1"></circle><circle cx="327.9977339251034" cy="331.31694110620833" r="4" fill="#000000" fill-opacity="1"></circle><circle cx="431.27214245012146" cy="25.176581071858088" r="4" fill="#000000" fill-opacity="1"></circle><circle cx="85.49505610117419" cy="346.31655003219805" r="4" fill="#000000" fill-opacity="1"></circle><circle cx="157.88985573650308" cy="144.16567058853687" r="4" fill="#000000" fill-opacity="1"></circle><circle cx="446.3112216247346" cy="477.3254721454161" r="4" fill="#000000" fill-opacity="1"></circle><circle cx="372.0832364880576" cy="329.20964353612334" r="4" fill="#000000" fill-opacity="1"></circle><circle cx="151.21352622854417" cy="424.0041632466886" r="4" fill="#000000" fill-opacity="1"></circle><circle cx="163.50204597632762" cy="55.74195423242921" r="4" fill="#000000" fill-opacity="1"></circle><circle cx="164.35835112466089" cy="374.02288628468705" r="4" fill="#000000" fill-opacity="1"></circle><circle cx="104.07345038111553" cy="326.9978225614209" r="4" fill="#000000" fill-opacity="1"></circle><circle cx="107.12784176190809" cy="102.34541383729552" r="4" fill="#000000" fill-opacity="1"></circle><circle cx="403.0732926189235" cy="45.16318011995616" r="4" fill="#000000" fill-opacity="1"></circle><circle cx="337.00983694480175" cy="185.44237476355715" r="4" fill="#000000" fill-opacity="1"></circle><circle cx="373.88768189530447" cy="473.0121071750677" r="4" fill="#000000" fill-opacity="1"></circle><circle cx="392.37452309973344" cy="311.81086162101207" r="4" fill="#000000" fill-opacity="1"></circle><circle cx="236.120973087098" cy="195.62566862967768" r="4" fill="#000000" fill-opacity="1"></circle><circle cx="409.72348581915384" cy="309.31769487389647" r="4" fill="#000000" fill-opacity="1"></circle><circle cx="108.10863978771825" cy="480.07351595756546" r="4" fill="#000000" fill-opacity="1"></circle><circle cx="39.43157589966195" cy="289.1931420125167" r="4" fill="#000000" fill-opacity="1"></circle><circle cx="89.32098041426535" cy="212.2993166929517" r="4" fill="#000000" fill-opacity="1"></circle><circle cx="124.54980126280768" cy="166.95779119362163" r="4" fill="#000000" fill-opacity="1"></circle><circle cx="377.6962950291868" cy="83.52253077938605" r="4" fill="#000000" fill-opacity="1"></circle><circle cx="350.65076245400695" cy="422.5995654134336" r="4" fill="#000000" fill-opacity="1"></circle><circle cx="247.15676566344231" cy="192.02303043094315" r="4" fill="#000000" fill-opacity="1"></circle><circle cx="291.01395702795054" cy="216.3981719556474" r="4" fill="#000000" fill-opacity="1"></circle><circle cx="111.48790510613262" cy="90.7495104828433" r="4" fill="#000000" fill-opacity="1"></circle><circle cx="309.17257805812557" cy="233.39075447882252" r="4" fill="#000000" fill-opacity="1"></circle><circle cx="78.29921826177153" cy="329.534121569847" r="4" fill="#000000" fill-opacity="1"></circle><circle cx="72.78371217110998" cy="271.86054926268844" r="4" fill="#000000" fill-opacity="1"></circle><circle cx="275.5977722729336" cy="448.5741373103325" r="4" fill="#000000" fill-opacity="1"></circle><circle cx="414.2061225672695" cy="250.2227635609569" r="4" fill="#000000" fill-opacity="1"></circle><circle cx="54.78267140835858" cy="35.35447703161447" r="4" fill="#000000" fill-opacity="1"></circle><circle cx="270.10288330504403" cy="389.97176593074244" r="4" fill="#000000" fill-opacity="1"></circle><circle cx="218.1141965234551" cy="230.54202024553547" r="4" fill="#000000" fill-opacity="1"></circle><circle cx="151.7974214000256" cy="451.72322079277274" r="4" fill="#000000" fill-opacity="1"></circle><circle cx="180.02976509353797" cy="132.28589671806355" r="4" fill="#000000" fill-opacity="1"></circle><circle cx="282.64000458907987" cy="463.449623291975" r="4" fill="#000000" fill-opacity="1"></circle><circle cx="70.73672380139504" cy="355.00672636153973" r="4" fill="#000000" fill-opacity="1"></circle><circle cx="394.5921360693201" cy="250.3961145285209" r="4" fill="#000000" fill-opacity="1"></circle><circle cx="209.310083989339" cy="101.88440982367773" r="4" fill="#000000" fill-opacity="1"></circle><circle cx="258.1411135285469" cy="112.408468549547" r="4" fill="#000000" fill-opacity="1"></circle><circle cx="62.01636444360537" cy="271.44966037879897" r="4" fill="#000000" fill-opacity="1"></circle><circle cx="389.7904567559419" cy="455.23455344729894" r="4" fill="#000000" fill-opacity="1"></circle><circle cx="290.57410765004073" cy="373.3012820349847" r="4" fill="#000000" fill-opacity="1"></circle></svg>