<svg width="512" height="512" viewBox="0 0 512 512" xmlns="http://www.w3.org/2000/svg">
          <rect x="0" y="0" width="512" height="512" fill="#f8f8ff" fill-opacity="1"></rect>
        <circle cx="465.42626539056636" cy="413.5283137746663" r="4" fill="#000000" fill-opacity="1"></circle><circle cx="52.25743077527645" cy="84.68019503733245" r="4" fill="#000000" fill-opacity="1"></circle><circle cx="426.39070566858" cy="48.684191734561594" r="4" fill="#000000" fill-opacity="1"></circle><circle cx="209.46329421151745" cy="443.23612578602365" r="4" fill="#000000" fill-opacity="1"></circle><circle cx="424.4006188287155" cy="384.0701497377677" r="4" fill="#000000" fill-opacity="1"></circle><circle cx="69.49591899643326" cy="463.1593898932767" r="4" fill="#000000" fill-opacity="1"></circle><circle cx="331.72675999176715" cy="46.17803179501155" r="4" fill="#000000" fill-opacity="1"></circle><circle cx="248.1595252745736" cy="194.12300260881855" r="4" fill="#000000" fill-opacity="1"></circle><circle cx="419.9843436263745" cy="311.78786826291974" r="4" fill="#000000" fill-opacity="1"></circle><circle cx="313.88610237976377" cy="392.0098379096928" r="4" fill="#000000" fill-opacity="1"></circle><circle cx="61.385481416302056" cy="156.86144813636758" r="4" fill="#000000" fill-opacity="1"></circle><circle cx="61.78147076105226" cy="474.90957971216943" r="4" fill="#000000" fill-opacity="1"></circle><circle cx="114.67831451291772" cy="459.9643413591538" r="4" fill="#000000" fill-opacity="1"></circle><circle cx="213.92357499909673" cy="182.71631344094527" r="4" fill="#000000" fill-opacity="1"></circle><circle cx="291.5460120610538" cy="239.05829666053882" r="4" fill="#000000" fill-opacity="1"></circle><circle cx="449.42430832155515" cy="477.9273387869475" r="4" fill="#000000" fill-opacity="1"></circle><circle cx="107.24867807060869" cy="76.84945290384614" r="4" fill="#000000" fill-opacity="1"></circle><circle cx="430.6276276253646" cy="65.17513029020346" r="4" fill="#000000" fill-opacity="1"></circle><circle cx="185.38433442250926" cy="133.8903599549186" r="4" fill="#000000" fill-opacity="1"></circle><circle cx="168.3368048895623" cy="431.9744330380156" r="4" fill="#000000" fill-opacity="1"></circle><circle cx="281.7923444517436" cy="78.95902034132672" r="4" fill="#000000" fill-opacity="1"></circle><circle cx="89.30236518864912" cy="446.82247717892005" r="4" fill="#000000" fill-opacity="1"></circle><circle cx="262.6990984878206" cy="236.31678125027452" r="4" fill="#000000" fill-opacity="1"></circle><circle cx="80.39984217956767" cy="249.13996218922586" r="4" fill="#000000" fill-opacity="1"></circle><circle cx="387.23669700749866" cy="391.81871481233975" r="4" fill="#000000" fill-opacity="1"></circle><circle cx="438.13887627724455" cy="458.13804220681857" r="4" fill="#000000" fill-opacity="1"></circle><circle cx="267.84140591401956" cy="434.1320853779877" r="4" fill="#000000" fill-opacity="1"></circle><circle cx="24.591650766889327" cy="453.822198335304" r="4" fill="#000000" fill-opacity="1"></circle><circle cx="475.5751863518771" cy="434.8860815938552" r="4" fill="#000000" fill-opacity="1"></circle><circle cx="398.1252026400457" cy="187.03370336914477" r="4" fill="#000000" fill-opacity="1"></circle><circle cx="292.17726421794106" cy="71.95673296683059" r="4" fill="#000000" fill-opacity="1"></circle><circle cx="31.004439686462728" cy="82.65834916186506" r="4" fill="#000000" fill-opacity="1"></circle><circle cx="235.34051679179743" cy="61.27734430093251" r="4" fill="#000000" fill-opacity="1"></circle><circle cx="44.01861213922031" cy="416.3547966830288" r="4" fill="#000000" fill-opacity="1"></circle><circle cx="355.4221849751378" cy="80.96229532728972" r="4" fill="#000000" fill-opacity="1"></circle><circle cx="385.9329537805616" cy="482.88808116379386" r="4" fill="#000000" fill-opacity="1"></circle><circle cx="126.89693309422424" cy="130.83146457319265" r="4" fill="#000000" fill-opacity="1"></circle><circle cx="367.1130727586739" cy="196.89367402558648" r="4" fill="#000000" fill-opacity="1"></circle><circle cx="264.933144838884" cy="309.63664043642143" r="4" fill="#000000" fill-opacity="1"></circle><circle cx="452.56536819068907" cy="152.3466725343902" r="4" fill="#000000" fill-opacity="1"></circle><circle cx="33.18450336654852" cy="179.8764981795479" r="4" fill="#000000" fill-opacity="1"></circle><circle cx="420.4047157825146" cy="262.5304530385656" r="4" fill="#000000" fill-opacity="1"></circle><circle cx="273.8292694522235" cy="377.032927928237" r="4" fill="#000000" fill-opacity="1"></circle><circle cx="374.4586423229834" cy="188.60348342177414" r="4" fill="#000000" fill-opacity="1"></circle><circle cx="426.4747445594983" cy="221.7845773321427" r="4" fill="#000000" fill-opacity="1"></circle><circle cx="381.28449701978155" cy="294.6565760559237" r="4" fill="#000000" fill-opacity="1"></circle><circle cx="257.778472220944" cy="161.43445912016537" r="4" fill="#000000" fill-opacity="1"></circle><circle cx="170.3197491137721" cy="49.0626517770595" r="4" fill="#000000" fill-opacity="1"></circle><circle cx="376.31904796006125" cy="452.3639279692717" r="4" fill="#000000" fill-opacity="1"></circle><circle cx="202.47988060578948" cy="336.3907545151746" r="4" fill="#000000" fill-opacity="1"></circle><circle cx="187.51017718235707" cy="284.2526909219172" r="4" fill="#000000" fill-opacity="1"></circle><circle cx="181.0355526760623" cy="388.143798873807" r="4" fill="#000000" fill-opacity="1"></circle><circle cx="354.87717174315173" cy="132.46614817691676" r="4" fill="#000000" fill-opacity="1"></circle><circle cx="419.28747346775066" cy="175.6441940525439" r="4" fill="#000000" fill-opacity="1"></circle><circle cx="152.49107263264264" cy="125.40890681306142" r="4" fill="#000000" fill-opacity="1"></circle><circle cx="166.90997945322025" cy="230.29360854902137" r="4" fill="#000000" fill-opacity="1"></circle><circle cx="432.93811457690913" cy="399.77339701588886" r="4" fill="#000000" fill-opacity="1"></circle><circle cx="466.40387304610937" cy="423.55098379514186" r="4" fill="#000000" fill-opacity="1"></circle><circle cx="269.1540486159832" cy="298.6872180812577" r="4" fill="#000000" fill-opacity="1"></circle><circle cx="119.52375819095194" cy="150.15315843101922" r="4" fill="#000000" fill-opacity="1"></circle><circle cx="450.14938253100667" cy="211.56796241951858" r="4" fill="#000000" fill-opacity="1"></circle><circle cx="355.3566296548961" cy="428.3275006681812" r="4" fill="#000000" fill-opacity="1"></circle><circle cx="246.47652474852967" cy="82.03327205949462" r="4" fill="#000000" fill-opacity="1"></circle><circle cx="468.061707957716" cy="219.1311982607443" r="4" fill="#000000" fill-opacity="1"></circle><circle cx="111.45965262268213" cy="96.9260024506508" r="4" fill="#000000" fill-opacity="1"></circle><circle cx="91.50225246378557" cy="126.15176591036226" r="4" fill="#000000" fill-opacity="1"></circle><circle cx="82.2928961629097" cy="137.9362208935838" r="4" fill="#000000" fill-opacity="1"></circle><circle cx="294.3992211202991" cy="380.8769485172402" r="4" fill="#000000" fill-opacity="1"></circle><circle cx="384.1130507469631" cy="52.862549871020306" r="4" fill="#000000" fill-opacity="1"></circle><circle cx="445.35072281639106" cy="42.37207971241386" r="4" fill="#000000" fill-opacity="1"></circle><circle cx="456.76363836205485" cy="128.34723489138804" r="4" fill="#000000" fill-opacity="1"></circle><circle cx="54.31267862081022" cy="37.28573317643833" r="4" fill="#000000" fill-opacity="1"></circle><circle cx="48.047166955734916" cy="246.40871962868974" r="4" fill="#000000" fill-opacity="1"></circle><circle cx="209.7381648757682" cy="171.8171134024783" r="4" fill="#000000" fill-opacity="1"></circle><circle cx="294.33755196541074" cy="108.74288855534651" r="4" fill="#000000" fill-opacity="1"></circle><circle cx="92.57706245560132" cy="225.69225380919454" r="4" fill="#000000" fill-opacity="1"></circle><circle cx="263.33008271025085" cy="202.0759421744427" r="4" fill="#000000" fill-opacity="1"></circle><circle cx="458.36683289373696" cy="335.3204466716745" r="4" fill="#000000" fill-opacity="1"></circle><circle cx="377.8371111571879" cy="225.27755146514812" r="4" fill="#000000" fill-opacity="1"></circle><circle cx="291.3115714494393" cy="250.964432999507" r="4" fill="#000000" fill-opacity="1"></circle><circle cx="344.2779594643295" cy="463.19561899887975" r="4" fill="#000000" fill-opacity="1"></circle><circle cx="93.82424997628463" cy="173.99773443197617" r="4" fill="#000000" fill-opacity="1"></circle><circle cx="376.1534454786698" cy="366.94090687168796" r="4" fill="#000000" fill-opacity="1"></circle><circle cx="303.7957209704524" cy="146.48277366271014" r="4" fill="#000000" fill-opacity="1"></circle><circle cx="200.20946684329493" cy="415.54253463201064" r="4" fill="#000000" fill-opacity="1"></circle><circle cx="372.1097673970567" cy="80.07681997344268" r="4" fill="#000000" fill-opacity="1"></circle><circle cx="449.3859425293061" cy="93.05530144765324" r="4" fill="#000000" fill-opacity="1"></circle><circle cx="231.91992099128532" cy="189.76432379974665" r="4" fill="#000000" fill-opacity="1"></circle><circle cx="308.4534616972155" cy="158.7769509664643" r="4" fill="#000000" fill-opacity="1"></circle><circle cx="25.888159616565783" cy="156.25680049355785" r="4" fill="#000000" fill-opacity="1"></circle><circle cx="209.28764612790835" cy="123.13083414018305" r="4" fill="#000000" fill-opacity="1"></circle><circle cx="338.29069665032665" cy="61.03879600698688" r="4" fill="#000000" fill-opacity="1"></circle><circle cx="412.82983901516184" cy="365.2368380547136" r="4" fill="#000000" fill-opacity="1"></circle><circle cx="67.93406682410573" cy="447.1093573127399" r="4" fill="#000000" fill-opacity="1"></circle><circle cx="364.8182730728135" cy="181.14847455904194" r="4" fill="#000000" fill-opacity="1"></circle><circle cx="82.90280908628156" cy="425.6030872592262" r="4" fill="#000000" fill-opacity="1"></circle><circle cx="384.04167693376536" cy="207.62771668888544" r="4" fill="#000000" fill-opacity="1"></circle><circle cx="279.3043639102999" cy="359.0197452644923" r="4" fill="#000000" fill-opacity="1"></circle><circle cx="179.27221882359342" cy="226.55049860000983" r="4" fill="#000000" fill-opacity="1"></circle><circle cx="282.8515672174255" cy="29.602543551408445" r="4" fill="#000000" fill-opacity="1"></circle><circle cx="58.6332105462762" cy="255.7394441027048" r="4" fill="#000000" fill-opacity="1"></circle><circle cx="140.03417368923616" cy="405.89726096377404" r="4" fill="#000000" fill-opacity="1"></circle><circle cx="474.9560300103072" cy="289.15731786209705" r="4" fill="#000000" fill-opacity="1"></circle><circle cx="393.6458249881052" cy="273.5253955269471" r="4" fill="#000000" fill-opacity="1"></circle><circle cx="267.74954265214603" cy="69.2497246229952" r="4" fill="#000000" fill-opacity="1"></circle><circle cx="406.42490512882404" cy="279.89810001340334" r="4" fill="#000000" fill-opacity="1"></circle><circle cx="390.0056114573787" cy="252.02952664148933" r="4" fill="#000000" fill-opacity="1"></circle><circle cx="79.00547319790437" cy="64.42998774374178" r="4" fill="#000000" fill-opacity="1"></circle><circle cx="426.97320227026626" cy="451.78717821492114" r="4" fill="#000000" fill-opacity="1"></circle><circle cx="408.3357850950992" cy="242.5136820020378" r="4" fill="#000000" fill-opacity="1"></circle><circle cx="340.28528829252934" cy="74.42756904740662" r="4" fill="#000000" fill-opacity="1"></circle><circle cx="437.89015613497526" cy="238.012482811241" r="4" fill="#000000" fill-opacity="1"></circle><circle cx="149.5429408266985" cy="472.81178149118676" r="4" fill="#000000" fill-opacity="1"></circle><circle cx="481.94289948998215" cy="38.572737439760196" r="4" fill="#000000" fill-opacity="1"></circle><circle cx="95.16355153385068" cy="47.55205141769605" r="4" fill="#000000" fill-opacity="1"></circle><circle cx="65.72202850127346" cy="167.7477847973723" r="4" fill="#000000" fill-opacity="1"></circle><circle cx="482.39405183912845" cy="106.01986313062304" r="4" fill="#000000" fill-opacity="1"></circle><circle cx="110.81730043101675" cy="425.2168471768961" r="4" fill="#000000" fill-opacity="1"></circle><circle cx="141.08024822123025" cy="349.2029329024752" r="4" fill="#000000" fill-opacity="1"></circle><circle cx="334.90627293334956" cy="360.61864333977405" r="4" fill="#000000" fill-opacity="1"></circle><circle cx="313.5735665900374" cy="338.02516893802897" r="4" fill="#000000" fill-opacity="1"></circle><circle cx="321.49317944325156" cy="309.57837078638784" r="4" fill="#000000" fill-opacity="1"></circle><circle cx="52.74435275660332" cy="411.4468663666017" r="4" fill="#000000" fill-opacity="1"></circle><circle cx="79.89731463383954" cy="469.8855226892885" r="4" fill="#000000" fill-opacity="1"></circle><circle cx="57.79758142749859" cy="62.571322252969864" r="4" fill="#000000" fill-opacity="1"></circle><circle cx="240.35902551833885" cy="50.00678387190189" r="4" fill="#000000" fill-opacity="1"></circle><circle cx="228.57195820806749" cy="479.1271975254579" r="4" fill="#000000" fill-opacity="1"></circle><circle cx="218.12096685974555" cy="51.8869687174255" r="4" fill="#000000" fill-opacity="1"></circle><circle cx="335.09845646896963" cy="236.46555669061505" r="4" fill="#000000" fill-opacity="1"></circle><circle cx="110.91929502542659" cy="108.11970560807285" r="4" fill="#000000" fill-opacity="1"></circle><circle cx="239.90844616878468" cy="211.94986936641845" r="4" fill="#000000" fill-opacity="1"></circle><circle cx="368.1322682334168" cy="443.7889633524604" r="4" fill="#000000" fill-opacity="1"></circle><circle cx="177.45606391485524" cy="476.7860147381034" r="4" fill="#000000" fill-opacity="1"></circle><circle cx="40.85775681017776" cy="70.51218112483838" r="4" fill="#000000" fill-opacity="1"></circle><circle cx="227.34097093382462" cy="289.9675587653018" r="4" fill="#000000" fill-opacity="1"></circle><circle cx="301.57997836042995" cy="312.90744772149276" r="4" fill="#000000" fill-opacity="1"></circle><circle cx="391.22229043214884" cy="358.5398824618681" r="4" fill="#000000" fill-opacity="1"></circle><circle cx="337.92838914514954" cy="304.2240471363081" r="4" fill="#000000" fill-opacity="1"></circle><circle cx="415.9782889904181" cy="335.5430134207577" r="4" fill="#000000" fill-opacity="1"></circle><circle cx="102.0987568855949" cy="303.1496754736136" r="4" fill="#000000" fill-opacity="1"></circle><circle cx="155.22260905901038" cy="406.7505171693071" r="4" fill="#000000" fill-opacity="1"></circle><circle cx="206.57342146529348" cy="142.8029344180985" r="4" fill="#000000" fill-opacity="1"></circle><circle cx="436.4636703863666" cy="384.88410870091815" r="4" fill="#000000" fill-opacity="1"></circle><circle cx="26.647791488998845" cy="188.442758113482" r="4" fill="#000000" fill-opacity="1"></circle><circle cx="343.67055642218315" cy="282.7740561348872" r="4" fill="#000000" fill-opacity="1"></circle><circle cx="295.59642486763533" cy="484.6952571156829" r="4" fill="#000000" fill-opacity="1"></circle><circle cx="83.51703359983908" cy="328.9616688719882" r="4" fill="#000000" fill-opacity="1"></circle><circle cx="70.54700937497311" cy="422.8790139381925" r="4" fill="#000000" fill-opacity="1"></circle><circle cx="370.85935958998203" cy="46.054080237214365" r="4" fill="#000000" fill-opacity="1"></circle><circle cx="192.7256145570125" cy="441.18678424524245" r="4" fill="#000000" fill-opacity="1"></circle><circle cx="102.13942400003697" cy="119.31444839588131" r="4" fill="#000000" fill-opacity="1"></circle><circle cx="365.00874396378566" cy="127.99969319231698" r="4" fill="#000000" fill-opacity="1"></circle><circle cx="460.4583333409727" cy="205.44174704514086" r="4" fill="#000000" fill-opacity="1"></circle><circle cx="319.99086436838803" cy="141.24357872777964" r="4" fill="#000000" fill-opacity="1"></circle><circle cx="256.7885098990629" cy="137.8674579268296" r="4" fill="#000000" fill-opacity="1"></circle><circle cx="198.9981730846526" cy="201.95058602934932" r="4" fill="#000000" fill-opacity="1"></circle><circle cx="252.55756021242664" cy="453.9027830174323" r="4" fill="#000000" fill-opacity="1"></circle><circle cx="83.53707958947626" cy="55.325355516764006" r="4" fill="#000000" fill-opacity="1"></circle><circle cx="177.04041396021404" cy="290.2821737594567" r="4" fill="#000000" fill-opacity="1"></circle><circle cx="465.5328008472804" cy="281.69298377956363" r="4" fill="#000000" fill-opacity="1"></circle><circle cx="215.26665551594422" cy="111.02344404274544" r="4" fill="#000000" fill-opacity="1"></circle><circle cx="320.2990006100507" cy="484.4703281415872" r="4" fill="#000000" fill-opacity="1"></circle><circle cx="220.6767819589074" cy="404.2440731444997" r="4" fill="#000000" fill-opacity="1"></circle><circle cx="170.16052046168738" cy="118.10179943433323" r="4" fill="#000000" fill-opacity="1"></circle><circle cx="336.7697420981537" cy="429.497494384788" r="4" fill="#000000" fill-opacity="1"></circle><circle cx="196.80452735935972" cy="49.461153385304115" r="4" fill="#000000" fill-opacity="1"></circle><circle cx="402.4164308136056" cy="114.70625081264669" r="4" fill="#000000" fill-opacity="1"></circle><circle cx="225.32105649093194" cy="80.27900216299594" r="4" fill="#000000" fill-opacity="1"></circle><circle cx="322.4734613318063" cy="473.09252482325587" r="4" fill="#000000" fill-opacity="1"></circle><circle cx="135.21378037033867" cy="112.0793234306199" r="4" fill="#000000" fill-opacity="1"></circle></svg>