<svg width="512" height="512" viewBox="0 0 512 512" xmlns="http://www.w3.org/2000/svg">
          <rect x="0" y="0" width="512" height="512" fill="#f8f8ff" fill-opacity="1"></rect>
        <circle cx="281.54205088308726" cy="270.7052751799175" r="4" fill="#000000" fill-opacity="1"></circle><circle cx="321.10788114693173" cy="219.28969818636995" r="4" fill="#000000" fill-opacity="1"></circle><circle cx="371.0930566774524" cy="137.25950735420022" r="4" fill="#000000" fill-opacity="1"></circle><circle cx="177.19490468656394" cy="370.1478309961309" r="4" fill="#000000" fill-opacity="1"></circle><circle cx="40.8548941380538" cy="40.550940685788945" r="4" fill="#000000" fill-opacity="1"></circle><circle cx="221.09053674046038" cy="383.7323333102444" r="4" fill="#000000" fill-opacity="1"></circle><circle cx="124.98125235730348" cy="46.42681069182103" r="4" fill="#000000" fill-opacity="1"></circle><circle cx="190.09428388193217" cy="128.14504150712048" r="4" fill="#000000" fill-opacity="1"></circle><circle cx="183.68016750760535" cy="429.9063960902917" r="4" fill="#000000" fill-opacity="1"></circle><circle cx="483.5004155534294" cy="467.4863497502393" r="4" fill="#000000" fill-opacity="1"></circle><circle cx="318.98579497337437" cy="430.66269042932134" r="4" fill="#000000" fill-opacity="1"></circle><circle cx="388.82683151326637" cy="55.16817543228807" r="4" fill="#000000" fill-opacity="1"></circle><circle cx="79.4662046989717" cy="66.02607684881886" r="4" fill="#000000" fill-opacity="1"></circle><circle cx="258.5609712673562" cy="370.83599978957983" r="4" fill="#000000" fill-opacity="1"></circle><circle cx="99.80524006841279" cy="70.70028158817723" r="4" fill="#000000" fill-opacity="1"></circle><circle cx="107.14584421976394" cy="210.70649035156924" r="4" fill="#000000" fill-opacity="1"></circle><circle cx="158.96210875645866" cy="101.62597821044483" r="4" fill="#000000" fill-opacity="1"></circle><circle cx="45.13427758401696" cy="243.4160652541304" r="4" fill="#000000" fill-opacity="1"></circle><circle cx="329.28200871400384" cy="441.58147093200046" r="4" fill="#000000" fill-opacity="1"></circle><circle cx="294.22218097795735" cy="88.31450666232415" r="4" fill="#000000" fill-opacity="1"></circle><circle cx="308.486674929024" cy="233.45547124831995" r="4" fill="#000000" fill-opacity="1"></circle><circle cx="163.99148823304466" cy="313.3688015896502" r="4" fill="#000000" fill-opacity="1"></circle><circle cx="265.2774656564585" cy="67.19229606714468" r="4" fill="#000000" fill-opacity="1"></circle><circle cx="401.4797449824275" cy="363.60537745673946" r="4" fill="#000000" fill-opacity="1"></circle><circle cx="137.86703437911817" cy="38.537035052358476" r="4" fill="#000000" fill-opacity="1"></circle><circle cx="358.31606513766303" cy="373.3293643543353" r="4" fill="#000000" fill-opacity="1"></circle><circle cx="48.757786362798726" cy="158.8047167664784" r="4" fill="#000000" fill-opacity="1"></circle><circle cx="198.04016591804861" cy="151.70859192173612" r="4" fill="#000000" fill-opacity="1"></circle><circle cx="269.2522263841488" cy="288.2650950849365" r="4" fill="#000000" fill-opacity="1"></circle><circle cx="285.36515094415114" cy="239.81723493962457" r="4" fill="#000000" fill-opacity="1"></circle><circle cx="145.49218482009775" cy="267.63619101052245" r="4" fill="#000000" fill-opacity="1"></circle><circle cx="353.9482095065792" cy="348.3866401563946" r="4" fill="#000000" fill-opacity="1"></circle><circle cx="79.77807801935951" cy="278.49739773483395" r="4" fill="#000000" fill-opacity="1"></circle><circle cx="300.60327750373824" cy="63.88152758394004" r="4" fill="#000000" fill-opacity="1"></circle><circle cx="186.16895953398526" cy="150.56193010120907" r="4" fill="#000000" fill-opacity="1"></circle><circle cx="424.5521980055527" cy="35.557266322962604" r="4" fill="#000000" fill-opacity="1"></circle><circle cx="411.0688699847703" cy="160.71545653750633" r="4" fill="#000000" fill-opacity="1"></circle><circle cx="115.52094374437351" cy="242.0118678161539" r="4" fill="#000000" fill-opacity="1"></circle><circle cx="266.57519254644" cy="465.5765659582838" r="4" fill="#000000" fill-opacity="1"></circle><circle cx="487.84913557099975" cy="185.60628637845954" r="4" fill="#000000" fill-opacity="1"></circle><circle cx="459.3178479159436" cy="226.5623503077225" r="4" fill="#000000" fill-opacity="1"></circle><circle cx="123.35062441326275" cy="478.45243938381867" r="4" fill="#000000" fill-opacity="1"></circle><circle cx="130.4256973034525" cy="330.35432113662563" r="4" fill="#000000" fill-opacity="1"></circle><circle cx="45.54349375626929" cy="117.02606297600882" r="4" fill="#000000" fill-opacity="1"></circle><circle cx="40.288227981155345" cy="88.19103585482868" r="4" fill="#000000" fill-opacity="1"></circle><circle cx="64.35983277003848" cy="166.4468841851056" r="4" fill="#000000" fill-opacity="1"></circle><circle cx="174.12315775509722" cy="36.08182726070088" r="4" fill="#000000" fill-opacity="1"></circle><circle cx="275.3932671322258" cy="100.09843023837564" r="4" fill="#000000" fill-opacity="1"></circle><circle cx="104.6922899031778" cy="105.48119870610503" r="4" fill="#000000" fill-opacity="1"></circle><circle cx="226.79409339805068" cy="235.2695985601392" r="4" fill="#000000" fill-opacity="1"></circle><circle cx="172.58131874924896" cy="214.18208843461318" r="4" fill="#000000" fill-opacity="1"></circle><circle cx="195.60983228753105" cy="37.15717420869771" r="4" fill="#000000" fill-opacity="1"></circle><circle cx="458.78083347889634" cy="244.48760305175065" r="4" fill="#000000" fill-opacity="1"></circle><circle cx="142.44671128916826" cy="236.73175009681262" r="4" fill="#000000" fill-opacity="1"></circle><circle cx="457.35077632079094" cy="143.66642094122193" r="4" fill="#000000" fill-opacity="1"></circle><circle cx="69.63114246125681" cy="272.212373730561" r="4" fill="#000000" fill-opacity="1"></circle><circle cx="401.56481633849245" cy="173.15512321690665" r="4" fill="#000000" fill-opacity="1"></circle><circle cx="349.5056621859565" cy="257.2465573048306" r="4" fill="#000000" fill-opacity="1"></circle><circle cx="103.42404523488229" cy="439.6811387256601" r="4" fill="#000000" fill-opacity="1"></circle><circle cx="221.84087626128562" cy="464.0033432488124" r="4" fill="#000000" fill-opacity="1"></circle><circle cx="144.2811720220049" cy="68.96843917326507" r="4" fill="#000000" fill-opacity="1"></circle><circle cx="431.04850778684664" cy="61.38280834489367" r="4" fill="#000000" fill-opacity="1"></circle><circle cx="162.09558080676774" cy="36.01712542488952" r="4" fill="#000000" fill-opacity="1"></circle><circle cx="26.064744138535822" cy="291.1962621099535" r="4" fill="#000000" fill-opacity="1"></circle><circle cx="413.01695405285653" cy="136.54599957789463" r="4" fill="#000000" fill-opacity="1"></circle><circle cx="442.20943181671095" cy="432.6008349362204" r="4" fill="#000000" fill-opacity="1"></circle><circle cx="466.9168521685824" cy="27.685683500489827" r="4" fill="#000000" fill-opacity="1"></circle><circle cx="183.34991516397906" cy="87.58382888112986" r="4" fill="#000000" fill-opacity="1"></circle><circle cx="248.24847932976454" cy="311.1347685197757" r="4" fill="#000000" fill-opacity="1"></circle><circle cx="243.50004531967136" cy="161.0650951188948" r="4" fill="#000000" fill-opacity="1"></circle><circle cx="284.13212282235736" cy="413.01959824027705" r="4" fill="#000000" fill-opacity="1"></circle><circle cx="87.81304708144079" cy="371.70951158919803" r="4" fill="#000000" fill-opacity="1"></circle><circle cx="24.21066767221911" cy="138.1498602859176" r="4" fill="#000000" fill-opacity="1"></circle><circle cx="255.60978009096968" cy="92.94128741104619" r="4" fill="#000000" fill-opacity="1"></circle><circle cx="172.83347767607347" cy="200.61681256074192" r="4" fill="#000000" fill-opacity="1"></circle><circle cx="76.64769221086449" cy="365.71315356960343" r="4" fill="#000000" fill-opacity="1"></circle><circle cx="323.9616709982569" cy="299.11433241576754" r="4" fill="#000000" fill-opacity="1"></circle><circle cx="342.10722505512945" cy="454.08602929991406" r="4" fill="#000000" fill-opacity="1"></circle><circle cx="115.07145652179241" cy="307.9251416843344" r="4" fill="#000000" fill-opacity="1"></circle><circle cx="336.3167387318631" cy="187.6657087134936" r="4" fill="#000000" fill-opacity="1"></circle><circle cx="235.61687054524063" cy="294.98698843116983" r="4" fill="#000000" fill-opacity="1"></circle><circle cx="407.4831500172873" cy="73.28411207233742" r="4" fill="#000000" fill-opacity="1"></circle><circle cx="406.83719850030604" cy="244.61272837717723" r="4" fill="#000000" fill-opacity="1"></circle><circle cx="470.1875944028559" cy="49.76553857765583" r="4" fill="#000000" fill-opacity="1"></circle><circle cx="476.66269337966867" cy="408.4669457088038" r="4" fill="#000000" fill-opacity="1"></circle><circle cx="285.43187042163635" cy="314.7230469863757" r="4" fill="#000000" fill-opacity="1"></circle><circle cx="373.57382058375765" cy="328.3967181688287" r="4" fill="#000000" fill-opacity="1"></circle><circle cx="206.25504000078246" cy="161.32964990202336" r="4" fill="#000000" fill-opacity="1"></circle><circle cx="64.59552092883013" cy="469.5264531719494" r="4" fill="#000000" fill-opacity="1"></circle><circle cx="256.4801946979236" cy="324.1804782293904" r="4" fill="#000000" fill-opacity="1"></circle><circle cx="403.80094276154205" cy="147.9022073181106" r="4" fill="#000000" fill-opacity="1"></circle><circle cx="409.955983802326" cy="347.0248391257582" r="4" fill="#000000" fill-opacity="1"></circle><circle cx="358.26093525106427" cy="94.01960390427553" r="4" fill="#000000" fill-opacity="1"></circle><circle cx="113.27191331006117" cy="87.9716147726788" r="4" fill="#000000" fill-opacity="1"></circle><circle cx="65.26377314424212" cy="94.52314278785514" r="4" fill="#000000" fill-opacity="1"></circle><circle cx="442.07373676559354" cy="416.8898025091137" r="4" fill="#000000" fill-opacity="1"></circle><circle cx="146.22961075110913" cy="364.81395051967183" r="4" fill="#000000" fill-opacity="1"></circle><circle cx="193.95664677327497" cy="215.77202111795467" r="4" fill="#000000" fill-opacity="1"></circle><circle cx="155.8118879820904" cy="76.4239539695249" r="4" fill="#000000" fill-opacity="1"></circle><circle cx="425.97777096661457" cy="205.5393785339823" r="4" fill="#000000" fill-opacity="1"></circle><circle cx="248.6690082338585" cy="250.67657698049732" r="4" fill="#000000" fill-opacity="1"></circle><circle cx="144.54708581754036" cy="474.1229154946671" r="4" fill="#000000" fill-opacity="1"></circle><circle cx="431.0453266647253" cy="463.17574800243733" r="4" fill="#000000" fill-opacity="1"></circle><circle cx="473.48555747441526" cy="279.18872370525344" r="4" fill="#000000" fill-opacity="1"></circle><circle cx="281.0606536268137" cy="36.14864133598735" r="4" fill="#000000" fill-opacity="1"></circle><circle cx="456.605074944208" cy="113.61729742313972" r="4" fill="#000000" fill-opacity="1"></circle><circle cx="305.2398050355609" cy="115.07302360694295" r="4" fill="#000000" fill-opacity="1"></circle><circle cx="101.46543105049888" cy="234.98801105114657" r="4" fill="#000000" fill-opacity="1"></circle><circle cx="367.1801200343756" cy="424.4611710938031" r="4" fill="#000000" fill-opacity="1"></circle><circle cx="280.9017367298006" cy="456.25319224982" r="4" fill="#000000" fill-opacity="1"></circle><circle cx="432.64460424334897" cy="409.7312220789401" r="4" fill="#000000" fill-opacity="1"></circle><circle cx="464.26546396763746" cy="338.9597394065381" r="4" fill="#000000" fill-opacity="1"></circle><circle cx="177.38173416041644" cy="317.99781032846914" r="4" fill="#000000" fill-opacity="1"></circle><circle cx="121.03168316980168" cy="191.91609956176606" r="4" fill="#000000" fill-opacity="1"></circle><circle cx="97.10215266609995" cy="420.5952601212487" r="4" fill="#000000" fill-opacity="1"></circle><circle cx="276.68104517924087" cy="153.7620725898491" r="4" fill="#000000" fill-opacity="1"></circle><circle cx="144.70590425701153" cy="486.6379687156069" r="4" fill="#000000" fill-opacity="1"></circle><circle cx="309.9307954978993" cy="179.16539461288295" r="4" fill="#000000" fill-opacity="1"></circle><circle cx="114.86461520163819" cy="153.06291711490826" r="4" fill="#000000" fill-opacity="1"></circle><circle cx="425.7524874017151" cy="366.3137098954748" r="4" fill="#000000" fill-opacity="1"></circle><circle cx="209.48236301690667" cy="79.8319577902104" r="4" fill="#000000" fill-opacity="1"></circle><circle cx="377.21872162613056" cy="78.66609950839279" r="4" fill="#000000" fill-opacity="1"></circle><circle cx="323.59292366939314" cy="476.9386645047489" r="4" fill="#000000" fill-opacity="1"></circle><circle cx="152.37498664950937" cy="335.63080475170284" r="4" fill="#000000" fill-opacity="1"></circle><circle cx="360.537316474082" cy="177.39411169016432" r="4" fill="#000000" fill-opacity="1"></circle><circle cx="375.0685289761409" cy="182.62835489921596" r="4" fill="#000000" fill-opacity="1"></circle><circle cx="231.00947538314537" cy="391.3213636128325" r="4" fill="#000000" fill-opacity="1"></circle><circle cx="210.92200331519874" cy="148.24310246604387" r="4" fill="#000000" fill-opacity="1"></circle><circle cx="192.87438264969265" cy="91.0073660837058" r="4" fill="#000000" fill-opacity="1"></circle><circle cx="443.43277475331337" cy="57.127250781129355" r="4" fill="#000000" fill-opacity="1"></circle><circle cx="408.02222902477325" cy="411.3361993493875" r="4" fill="#000000" fill-opacity="1"></circle><circle cx="68.38664462497638" cy="247.76218516169683" r="4" fill="#000000" fill-opacity="1"></circle><circle cx="298.4484399490492" cy="35.59677612691445" r="4" fill="#000000" fill-opacity="1"></circle><circle cx="118.54286329066647" cy="67.39142851763235" r="4" fill="#000000" fill-opacity="1"></circle><circle cx="465.2573406940538" cy="85.61254190788085" r="4" fill="#000000" fill-opacity="1"></circle><circle cx="345.02320914979225" cy="436.681627389911" r="4" fill="#000000" fill-opacity="1"></circle><circle cx="186.7543493272035" cy="441.1190613802968" r="4" fill="#000000" fill-opacity="1"></circle><circle cx="484.50311942027275" cy="142.55089401443195" r="4" fill="#000000" fill-opacity="1"></circle><circle cx="485.19707750226183" cy="156.63193109303572" r="4" fill="#000000" fill-opacity="1"></circle><circle cx="334.8422073153384" cy="365.8044543002741" r="4" fill="#000000" fill-opacity="1"></circle><circle cx="482.0244096000635" cy="310.9681705478572" r="4" fill="#000000" fill-opacity="1"></circle><circle cx="37.81928348154204" cy="140.97825930255448" r="4" fill="#000000" fill-opacity="1"></circle><circle cx="111.49048712944987" cy="198.9814240329434" r="4" fill="#000000" fill-opacity="1"></circle><circle cx="273.77483232934696" cy="224.13773192890238" r="4" fill="#000000" fill-opacity="1"></circle><circle cx="148.58396620937327" cy="401.7950694932086" r="4" fill="#000000" fill-opacity="1"></circle><circle cx="270.6185422317456" cy="179.54494962941007" r="4" fill="#000000" fill-opacity="1"></circle><circle cx="392.0995257913629" cy="193.85431464266196" r="4" fill="#000000" fill-opacity="1"></circle><circle cx="410.84170889518435" cy="61.06408158940288" r="4" fill="#000000" fill-opacity="1"></circle><circle cx="162.7885342323172" cy="145.33843985269306" r="4" fill="#000000" fill-opacity="1"></circle><circle cx="160.95654169526406" cy="486.1111321959659" r="4" fill="#000000" fill-opacity="1"></circle><circle cx="83.47091857741543" cy="31.561957750909794" r="4" fill="#000000" fill-opacity="1"></circle><circle cx="219.31774513988816" cy="252.30674753178295" r="4" fill="#000000" fill-opacity="1"></circle><circle cx="330.845096002937" cy="34.89385199331052" r="4" fill="#000000" fill-opacity="1"></circle><circle cx="233.1187285240819" cy="206.16753773943813" r="4" fill="#000000" fill-opacity="1"></circle><circle cx="391.92886361893915" cy="332.64300818840036" r="4" fill="#000000" fill-opacity="1"></circle><circle cx="455.545173957336" cy="345.46895362849233" r="4" fill="#000000" fill-opacity="1"></circle><circle cx="341.2865070724241" cy="87.82254782827769" r="4" fill="#000000" fill-opacity="1"></circle><circle cx="257.0567796181325" cy="183.60466758983293" r="4" fill="#000000" fill-opacity="1"></circle><circle cx="351.8657747095759" cy="50.25723775476918" r="4" fill="#000000" fill-opacity="1"></circle><circle cx="435.2088546758402" cy="101.96049807347643" r="4" fill="#000000" fill-opacity="1"></circle><circle cx="276.11529076415366" cy="362.5024128748597" r="4" fill="#000000" fill-opacity="1"></circle><circle cx="266.5088661215523" cy="317.14585681427286" r="4" fill="#000000" fill-opacity="1"></circle><circle cx="415.7095471777299" cy="473.6413471251952" r="4" fill="#000000" fill-opacity="1"></circle><circle cx="415.3563270627647" cy="209.50668191945678" r="4" fill="#000000" fill-opacity="1"></circle><circle cx="451.985045624932" cy="219.7506029280551" r="4" fill="#000000" fill-opacity="1"></circle><circle cx="209.90182711169336" cy="353.23672801987715" r="4" fill="#000000" fill-opacity="1"></circle><circle cx="49.96894470382823" cy="301.9131818227733" r="4" fill="#000000" fill-opacity="1"></circle><circle cx="424.4443779146776" cy="349.4800946908624" r="4" fill="#000000" fill-opacity="1"></circle><circle cx="468.39507576367305" cy="448.6848060449624" r="4" fill="#000000" fill-opacity="1"></circle><circle cx="347.7465662207445" cy="30.733505924001655" r="4" fill="#000000" fill-opacity="1"></circle><circle cx="388.2953792593676" cy="293.99730652810183" r="4" fill="#000000" fill-opacity="1"></circle><circle cx="126.60042074564969" cy="233.32709363736606" r="4" fill="#000000" fill-opacity="1"></circle><circle cx="436.4550210530694" cy="157.41195035653547" r="4" fill="#000000" fill-opacity="1"></circle><circle cx="431.11479653133745" cy="279.7354165867046" r="4" fill="#000000" fill-opacity="1"></circle><circle cx="236.5773044771696" cy="381.2465399601203" r="4" fill="#000000" fill-opacity="1"></circle><circle cx="132.36576998453236" cy="303.96036033913015" r="4" fill="#000000" fill-opacity="1"></circle><circle cx="111.81329074520346" cy="55.95375287161694" r="4" fill="#000000" fill-opacity="1"></circle><circle cx="351.2062300042948" cy="423.2591280940683" r="4" fill="#000000" fill-opacity="1"></circle><circle cx="27.10443841007239" cy="90.8592248434734" r="4" fill="#000000" fill-opacity="1"></circle><circle cx="28.720622876431644" cy="79.02299467835607" r="4" fill="#000000" fill-opacity="1"></circle></svg>