<svg width="512" height="512" viewBox="0 0 512 512" xmlns="http://www.w3.org/2000/svg">
          <rect x="0" y="0" width="512" height="512" fill="#f8f8ff" fill-opacity="1"></rect>
        <circle cx="120.29098206440972" cy="146.9115092401471" r="4" fill="#000000" fill-opacity="1"></circle><circle cx="150.49727783853717" cy="429.0377094757427" r="4" fill="#000000" fill-opacity="1"></circle><circle cx="273.5584319404303" cy="218.68999289328144" r="4" fill="#000000" fill-opacity="1"></circle><circle cx="150.18323508924956" cy="37.77291811546307" r="4" fill="#000000" fill-opacity="1"></circle><circle cx="184.87597471752275" cy="368.4821901807723" r="4" fill="#000000" fill-opacity="1"></circle><circle cx="190.2819813921504" cy="305.38451258867434" r="4" fill="#000000" fill-opacity="1"></circle><circle cx="351.4394782247523" cy="209.4730612868375" r="4" fill="#000000" fill-opacity="1"></circle><circle cx="212.60054431430464" cy="483.76483847645596" r="4" fill="#000000" fill-opacity="1"></circle><circle cx="394.9178449316324" cy="77.71197140118078" r="4" fill="#000000" fill-opacity="1"></circle><circle cx="60.2051832000499" cy="171.9804017535428" r="4" fill="#000000" fill-opacity="1"></circle><circle cx="378.2200978017348" cy="418.5792418471887" r="4" fill="#000000" fill-opacity="1"></circle><circle cx="463.36248466686965" cy="258.608547846526" r="4" fill="#000000" fill-opacity="1"></circle><circle cx="239.46287474869956" cy="380.08877921904383" r="4" fill="#000000" fill-opacity="1"></circle><circle cx="303.23115463023305" cy="252.11166198102623" r="4" fill="#000000" fill-opacity="1"></circle><circle cx="256.45569178297677" cy="257.85163329585555" r="4" fill="#000000" fill-opacity="1"></circle><circle cx="248.3974053997462" cy="442.79592012815885" r="4" fill="#000000" fill-opacity="1"></circle><circle cx="334.83363974631743" cy="155.54254255946174" r="4" fill="#000000" fill-opacity="1"></circle><circle cx="111.7341613072219" cy="339.8138453125478" r="4" fill="#000000" fill-opacity="1"></circle><circle cx="45.32069196083417" cy="35.9843397300089" r="4" fill="#000000" fill-opacity="1"></circle><circle cx="199.61654935968735" cy="357.65818824267865" r="4" fill="#000000" fill-opacity="1"></circle><circle cx="326.53220803121206" cy="285.24556576647365" r="4" fill="#000000" fill-opacity="1"></circle><circle cx="157.58462478176284" cy="93.38252300358653" r="4" fill="#000000" fill-opacity="1"></circle><circle cx="304.46589810630957" cy="68.28132968772738" r="4" fill="#000000" fill-opacity="1"></circle><circle cx="275.32707780744084" cy="233.3806372030279" r="4" fill="#000000" fill-opacity="1"></circle><circle cx="332.837561481989" cy="314.62340505468694" r="4" fill="#000000" fill-opacity="1"></circle><circle cx="221.37578516146596" cy="458.7016487329534" r="4" fill="#000000" fill-opacity="1"></circle><circle cx="447.99550704615683" cy="231.9404876094819" r="4" fill="#000000" fill-opacity="1"></circle><circle cx="452.03472239560256" cy="480.32980819521146" r="4" fill="#000000" fill-opacity="1"></circle><circle cx="484.38843631672495" cy="62.058078673372435" r="4" fill="#000000" fill-opacity="1"></circle><circle cx="133.66603145339292" cy="185.80033078549798" r="4" fill="#000000" fill-opacity="1"></circle><circle cx="334.2164334035937" cy="351.83716962438035" r="4" fill="#000000" fill-opacity="1"></circle><circle cx="60.62839956907494" cy="151.3068793453371" r="4" fill="#000000" fill-opacity="1"></circle><circle cx="424.0530970851028" cy="177.6646773639284" r="4" fill="#000000" fill-opacity="1"></circle><circle cx="349.2998441436351" cy="233.85321582679427" r="4" fill="#000000" fill-opacity="1"></circle><circle cx="166.73390786494178" cy="232.3502330990168" r="4" fill="#000000" fill-opacity="1"></circle><circle cx="73.01428308329699" cy="252.95723091383252" r="4" fill="#000000" fill-opacity="1"></circle><circle cx="234.13395800265403" cy="401.99175654821903" r="4" fill="#000000" fill-opacity="1"></circle><circle cx="43.993457938383955" cy="286.1886396709019" r="4" fill="#000000" fill-opacity="1"></circle><circle cx="264.81099809012574" cy="367.78362892165666" r="4" fill="#000000" fill-opacity="1"></circle><circle cx="435.34876988743235" cy="125.75357765819011" r="4" fill="#000000" fill-opacity="1"></circle><circle cx="407.42644512171194" cy="419.018035322984" r="4" fill="#000000" fill-opacity="1"></circle><circle cx="436.9298428908363" cy="115.52168263859578" r="4" fill="#000000" fill-opacity="1"></circle><circle cx="27.8536547935672" cy="176.30135224880473" r="4" fill="#000000" fill-opacity="1"></circle><circle cx="368.7477498815322" cy="50.36797506894577" r="4" fill="#000000" fill-opacity="1"></circle><circle cx="291.2640515429098" cy="448.7896128721479" r="4" fill="#000000" fill-opacity="1"></circle><circle cx="295.5850445688688" cy="162.73215060708367" r="4" fill="#000000" fill-opacity="1"></circle><circle cx="110.66762147808598" cy="84.21027092106908" r="4" fill="#000000" fill-opacity="1"></circle><circle cx="225.3741475983024" cy="319.0861470009316" r="4" fill="#000000" fill-opacity="1"></circle><circle cx="449.2377423294242" cy="94.94815946025926" r="4" fill="#000000" fill-opacity="1"></circle><circle cx="103.6993829413805" cy="285.84643506578163" r="4" fill="#000000" fill-opacity="1"></circle><circle cx="389.65403353955867" cy="448.62435024157367" r="4" fill="#000000" fill-opacity="1"></circle><circle cx="131.8208003589028" cy="327.1244437609734" r="4" fill="#000000" fill-opacity="1"></circle><circle cx="365.93271203397836" cy="169.6701900155635" r="4" fill="#000000" fill-opacity="1"></circle><circle cx="160.58713338792612" cy="257.03948401882167" r="4" fill="#000000" fill-opacity="1"></circle><circle cx="96.76156469116572" cy="375.16520480866507" r="4" fill="#000000" fill-opacity="1"></circle><circle cx="445.45310044508244" cy="381.2653288856618" r="4" fill="#000000" fill-opacity="1"></circle><circle cx="103.24034632645379" cy="131.37463034972126" r="4" fill="#000000" fill-opacity="1"></circle><circle cx="178.6005457071294" cy="246.6608282907177" r="4" fill="#000000" fill-opacity="1"></circle><circle cx="159.78579806368177" cy="314.40713561586034" r="4" fill="#000000" fill-opacity="1"></circle><circle cx="484.14346429987387" cy="302.32117700462686" r="4" fill="#000000" fill-opacity="1"></circle><circle cx="333.4919975275106" cy="442.6554092570777" r="4" fill="#000000" fill-opacity="1"></circle><circle cx="209.48013459593054" cy="385.0431787723516" r="4" fill="#000000" fill-opacity="1"></circle><circle cx="396.18767216187626" cy="295.56356639099" r="4" fill="#000000" fill-opacity="1"></circle><circle cx="180.43731626940328" cy="417.69228558083256" r="4" fill="#000000" fill-opacity="1"></circle><circle cx="395.110883088054" cy="399.8801226824459" r="4" fill="#000000" fill-opacity="1"></circle><circle cx="45.03911768366035" cy="246.20901215998265" r="4" fill="#000000" fill-opacity="1"></circle><circle cx="208.84430575530922" cy="429.35282294786003" r="4" fill="#000000" fill-opacity="1"></circle><circle cx="396.7300197444338" cy="208.91650990127982" r="4" fill="#000000" fill-opacity="1"></circle><circle cx="108.0866873817167" cy="416.08292071368896" r="4" fill="#000000" fill-opacity="1"></circle><circle cx="245.48256752887707" cy="93.9969520193246" r="4" fill="#000000" fill-opacity="1"></circle><circle cx="348.2975539963695" cy="451.09252067425786" r="4" fill="#000000" fill-opacity="1"></circle><circle cx="176.93123911567216" cy="228.54123394227844" r="4" fill="#000000" fill-opacity="1"></circle><circle cx="127.79323271933607" cy="469.09446201713564" r="4" fill="#000000" fill-opacity="1"></circle><circle cx="177.17005587727698" cy="169.39625991496433" r="4" fill="#000000" fill-opacity="1"></circle><circle cx="25.424645441877864" cy="237.7072433499049" r="4" fill="#000000" fill-opacity="1"></circle><circle cx="347.62952922702607" cy="422.5704044914893" r="4" fill="#000000" fill-opacity="1"></circle><circle cx="435.35024607416443" cy="267.1260522094571" r="4" fill="#000000" fill-opacity="1"></circle><circle cx="182.26586501041962" cy="434.61118867478973" r="4" fill="#000000" fill-opacity="1"></circle><circle cx="59.36148613679123" cy="246.87065669829835" r="4" fill="#000000" fill-opacity="1"></circle><circle cx="271.8295547109607" cy="191.592456316722" r="4" fill="#000000" fill-opacity="1"></circle><circle cx="207.2398169417193" cy="217.57975287300536" r="4" fill="#000000" fill-opacity="1"></circle><circle cx="89.45667740418531" cy="38.580686531843256" r="4" fill="#000000" fill-opacity="1"></circle><circle cx="470.97284652297475" cy="87.78463765417233" r="4" fill="#000000" fill-opacity="1"></circle><circle cx="341.6541479578779" cy="111.73500432166652" r="4" fill="#000000" fill-opacity="1"></circle><circle cx="483.3363158830219" cy="474.8767549374484" r="4" fill="#000000" fill-opacity="1"></circle><circle cx="169.13011496105378" cy="39.804262487846145" r="4" fill="#000000" fill-opacity="1"></circle><circle cx="377.87421727518495" cy="389.20722573158065" r="4" fill="#000000" fill-opacity="1"></circle><circle cx="328.9715239566698" cy="193.34093443436834" r="4" fill="#000000" fill-opacity="1"></circle><circle cx="111.98881986483656" cy="292.9272523674879" r="4" fill="#000000" fill-opacity="1"></circle><circle cx="147.89671409282462" cy="79.61389238612308" r="4" fill="#000000" fill-opacity="1"></circle><circle cx="231.8763571966028" cy="389.6174273776374" r="4" fill="#000000" fill-opacity="1"></circle><circle cx="177.8168509843101" cy="379.8444139599713" r="4" fill="#000000" fill-opacity="1"></circle><circle cx="420.0458686609505" cy="98.12616184295106" r="4" fill="#000000" fill-opacity="1"></circle><circle cx="279.4626871869481" cy="279.83807881752637" r="4" fill="#000000" fill-opacity="1"></circle><circle cx="453.31364222124057" cy="125.97195084333966" r="4" fill="#000000" fill-opacity="1"></circle><circle cx="438.60036936176095" cy="455.9485525910096" r="4" fill="#000000" fill-opacity="1"></circle><circle cx="253.45871962192666" cy="275.31683728755" r="4" fill="#000000" fill-opacity="1"></circle><circle cx="297.6126827019413" cy="343.61760804905623" r="4" fill="#000000" fill-opacity="1"></circle><circle cx="150.32191608336382" cy="152.73958672522303" r="4" fill="#000000" fill-opacity="1"></circle><circle cx="131.3100462238737" cy="484.44228888023184" r="4" fill="#000000" fill-opacity="1"></circle><circle cx="376.3297838402235" cy="141.52271274104612" r="4" fill="#000000" fill-opacity="1"></circle><circle cx="363.1170588184723" cy="252.30832138968196" r="4" fill="#000000" fill-opacity="1"></circle><circle cx="75.87483929733061" cy="291.0708321299789" r="4" fill="#000000" fill-opacity="1"></circle><circle cx="329.3503923471748" cy="422.3980912797138" r="4" fill="#000000" fill-opacity="1"></circle><circle cx="297.48178478022123" cy="84.08892295742508" r="4" fill="#000000" fill-opacity="1"></circle><circle cx="266.988015442499" cy="461.43252334307124" r="4" fill="#000000" fill-opacity="1"></circle><circle cx="278.6638269991937" cy="155.3781625355656" r="4" fill="#000000" fill-opacity="1"></circle><circle cx="149.2646670122818" cy="256.5119716327432" r="4" fill="#000000" fill-opacity="1"></circle><circle cx="219.29110491786003" cy="43.709548008644205" r="4" fill="#000000" fill-opacity="1"></circle><circle cx="314.9538058571493" cy="191.56835534304685" r="4" fill="#000000" fill-opacity="1"></circle><circle cx="208.3913752879269" cy="440.25442457143754" r="4" fill="#000000" fill-opacity="1"></circle><circle cx="293.4904748339817" cy="257.5937889150497" r="4" fill="#000000" fill-opacity="1"></circle><circle cx="381.0393135863047" cy="205.75164158901956" r="4" fill="#000000" fill-opacity="1"></circle><circle cx="132.04042162631825" cy="432.92057333471547" r="4" fill="#000000" fill-opacity="1"></circle><circle cx="458.746013833683" cy="438.7959414985666" r="4" fill="#000000" fill-opacity="1"></circle><circle cx="206.94398818479732" cy="267.24803291423075" r="4" fill="#000000" fill-opacity="1"></circle><circle cx="113.56054493174024" cy="205.9099309969979" r="4" fill="#000000" fill-opacity="1"></circle><circle cx="34.117156952593305" cy="245.53684468668314" r="4" fill="#000000" fill-opacity="1"></circle><circle cx="252.11397796376932" cy="28.356959583058426" r="4" fill="#000000" fill-opacity="1"></circle><circle cx="259.0643458920518" cy="327.66549896170574" r="4" fill="#000000" fill-opacity="1"></circle><circle cx="477.22590030773597" cy="35.67287938236416" r="4" fill="#000000" fill-opacity="1"></circle><circle cx="148.17930022442013" cy="267.6463284941459" r="4" fill="#000000" fill-opacity="1"></circle><circle cx="312.150626051358" cy="110.61597303949458" r="4" fill="#000000" fill-opacity="1"></circle><circle cx="137.33676009960857" cy="298.4796680349934" r="4" fill="#000000" fill-opacity="1"></circle><circle cx="211.02617153989684" cy="134.02678149679792" r="4" fill="#000000" fill-opacity="1"></circle><circle cx="34.17564134855441" cy="154.56695330610387" r="4" fill="#000000" fill-opacity="1"></circle><circle cx="306.2912793376535" cy="286.8901740267053" r="4" fill="#000000" fill-opacity="1"></circle><circle cx="412.4116955457334" cy="67.28628756264321" r="4" fill="#000000" fill-opacity="1"></circle><circle cx="407.7204915102222" cy="204.6838512785053" r="4" fill="#000000" fill-opacity="1"></circle><circle cx="352.10133088389153" cy="67.75077896598168" r="4" fill="#000000" fill-opacity="1"></circle><circle cx="370.4689923090585" cy="185.29618262678846" r="4" fill="#000000" fill-opacity="1"></circle><circle cx="297.97753104212325" cy="237.71546191599703" r="4" fill="#000000" fill-opacity="1"></circle><circle cx="169.76302764774488" cy="272.43494520155036" r="4" fill="#000000" fill-opacity="1"></circle><circle cx="193.6492100789062" cy="218.32357162699515" r="4" fill="#000000" fill-opacity="1"></circle><circle cx="385.1918418957151" cy="132.48032604182436" r="4" fill="#000000" fill-opacity="1"></circle><circle cx="135.56730436670614" cy="86.00628113065304" r="4" fill="#000000" fill-opacity="1"></circle><circle cx="76.67130147496604" cy="105.92530258814216" r="4" fill="#000000" fill-opacity="1"></circle><circle cx="230.0948577178799" cy="108.92761050356145" r="4" fill="#000000" fill-opacity="1"></circle><circle cx="460.8196814747303" cy="102.00637580720843" r="4" fill="#000000" fill-opacity="1"></circle><circle cx="438.2731401268924" cy="200.7216085855448" r="4" fill="#000000" fill-opacity="1"></circle><circle cx="39.6959000667822" cy="362.95093118166" r="4" fill="#000000" fill-opacity="1"></circle><circle cx="64.248329420029" cy="290.1655248612585" r="4" fill="#000000" fill-opacity="1"></circle><circle cx="184.8732508499324" cy="485.19436443005276" r="4" fill="#000000" fill-opacity="1"></circle><circle cx="217.19856095518998" cy="162.5377054792139" r="4" fill="#000000" fill-opacity="1"></circle><circle cx="420.451850083885" cy="272.6258003645668" r="4" fill="#000000" fill-opacity="1"></circle><circle cx="132.3933202242416" cy="348.9974602678654" r="4" fill="#000000" fill-opacity="1"></circle><circle cx="387.06691807424903" cy="346.34632105090634" r="4" fill="#000000" fill-opacity="1"></circle><circle cx="257.38514946040857" cy="72.85017008602827" r="4" fill="#000000" fill-opacity="1"></circle><circle cx="169.7647474739951" cy="459.1159212760105" r="4" fill="#000000" fill-opacity="1"></circle><circle cx="116.8033174278099" cy="173.73765470536503" r="4" fill="#000000" fill-opacity="1"></circle><circle cx="95.73702612986473" cy="111.94243980114652" r="4" fill="#000000" fill-opacity="1"></circle><circle cx="293.9922808497818" cy="318.2833932891301" r="4" fill="#000000" fill-opacity="1"></circle><circle cx="340.4027504830042" cy="210.58541495224597" r="4" fill="#000000" fill-opacity="1"></circle><circle cx="69.42076615579319" cy="461.4430171253995" r="4" fill="#000000" fill-opacity="1"></circle><circle cx="143.7278653115902" cy="48.27716805049725" r="4" fill="#000000" fill-opacity="1"></circle><circle cx="458.8830939480164" cy="137.16118021310075" r="4" fill="#000000" fill-opacity="1"></circle><circle cx="356.1596749130914" cy="134.00531496667364" r="4" fill="#000000" fill-opacity="1"></circle><circle cx="264.3569292997827" cy="126.6275302482226" r="4" fill="#000000" fill-opacity="1"></circle><circle cx="91.42013235865211" cy="484.10716710673836" r="4" fill="#000000" fill-opacity="1"></circle><circle cx="278.1397545140255" cy="200.53107618875381" r="4" fill="#000000" fill-opacity="1"></circle><circle cx="351.3800166341671" cy="169.81458571436602" r="4" fill="#000000" fill-opacity="1"></circle><circle cx="73.93534837573637" cy="230.99130025218818" r="4" fill="#000000" fill-opacity="1"></circle><circle cx="179.91070501386736" cy="466.3833495686037" r="4" fill="#000000" fill-opacity="1"></circle><circle cx="275.65856428315783" cy="354.0193387909048" r="4" fill="#000000" fill-opacity="1"></circle><circle cx="50.17666387191244" cy="98.61924259271227" r="4" fill="#000000" fill-opacity="1"></circle><circle cx="483.4661974183289" cy="363.3499386277613" r="4" fill="#000000" fill-opacity="1"></circle><circle cx="101.94687152481116" cy="320.5879132177609" r="4" fill="#000000" fill-opacity="1"></circle><circle cx="307.83674680012825" cy="223.2197134806368" r="4" fill="#000000" fill-opacity="1"></circle><circle cx="425.19230461844637" cy="355.7956941166416" r="4" fill="#000000" fill-opacity="1"></circle><circle cx="97.02311037068176" cy="30.604363960178116" r="4" fill="#000000" fill-opacity="1"></circle><circle cx="218.83806670117255" cy="119.92434777550963" r="4" fill="#000000" fill-opacity="1"></circle><circle cx="46.49292853099871" cy="118.17029627940703" r="4" fill="#000000" fill-opacity="1"></circle><circle cx="58.706939656251514" cy="440.44606618188624" r="4" fill="#000000" fill-opacity="1"></circle><circle cx="447.44784826302805" cy="207.72891743897048" r="4" fill="#000000" fill-opacity="1"></circle><circle cx="375.5350775310608" cy="247.2173220121543" r="4" fill="#000000" fill-opacity="1"></circle><circle cx="487.467073171554" cy="94.58791617427892" r="4" fill="#000000" fill-opacity="1"></circle><circle cx="178.362548653881" cy="74.89582951717246" r="4" fill="#000000" fill-opacity="1"></circle><circle cx="48.084172737089666" cy="265.63181452089185" r="4" fill="#000000" fill-opacity="1"></circle><circle cx="231.83596877921622" cy="329.945462772647" r="4" fill="#000000" fill-opacity="1"></circle><circle cx="412.084860637211" cy="194.76181168985224" r="4" fill="#000000" fill-opacity="1"></circle><circle cx="73.63646828666931" cy="85.66722622712985" r="4" fill="#000000" fill-opacity="1"></circle><circle cx="455.99636459019894" cy="81.11428040644637" r="4" fill="#000000" fill-opacity="1"></circle><circle cx="118.52019200160143" cy="124.88829837367739" r="4" fill="#000000" fill-opacity="1"></circle><circle cx="354.0620528606695" cy="307.8920007582849" r="4" fill="#000000" fill-opacity="1"></circle><circle cx="374.57628479294016" cy="457.3129271440151" r="4" fill="#000000" fill-opacity="1"></circle><circle cx="445.8422936093307" cy="290.5877625418401" r="4" fill="#000000" fill-opacity="1"></circle><circle cx="432.8512029095581" cy="148.01128620473264" r="4" fill="#000000" fill-opacity="1"></circle><circle cx="381.7680949087027" cy="50.632795870646646" r="4" fill="#000000" fill-opacity="1"></circle><circle cx="28.11760680538363" cy="380.407967939527" r="4" fill="#000000" fill-opacity="1"></circle><circle cx="323.17585983530415" cy="325.93508269689363" r="4" fill="#000000" fill-opacity="1"></circle></svg>