<svg width="512" height="512" viewBox="0 0 512 512" xmlns="http://www.w3.org/2000/svg">
          <rect x="0" y="0" width="512" height="512" fill="#f8f8ff" fill-opacity="1"></rect>
        <circle cx="195.5018725751708" cy="374.9302011941541" r="4" fill="#000000" fill-opacity="1"></circle><circle cx="228.52586396898354" cy="340.24043566333876" r="4" fill="#000000" fill-opacity="1"></circle><circle cx="378.1309669027082" cy="131.43445164429906" r="4" fill="#000000" fill-opacity="1"></circle><circle cx="335.6982450505196" cy="217.05448026190453" r="4" fill="#000000" fill-opacity="1"></circle><circle cx="27.77908923848198" cy="312.79898465316916" r="4" fill="#000000" fill-opacity="1"></circle><circle cx="42.78414367502714" cy="478.7700360771504" r="4" fill="#000000" fill-opacity="1"></circle><circle cx="314.00023869071657" cy="381.19578384904077" r="4" fill="#000000" fill-opacity="1"></circle><circle cx="264.50598823671925" cy="454.19692343716474" r="4" fill="#000000" fill-opacity="1"></circle><circle cx="311.47191244312853" cy="141.68429526900226" r="4" fill="#000000" fill-opacity="1"></circle><circle cx="476.616957683031" cy="174.86312971981837" r="4" fill="#000000" fill-opacity="1"></circle><circle cx="206.384737686074" cy="168.8178246455162" r="4" fill="#000000" fill-opacity="1"></circle><circle cx="308.2783962154084" cy="184.66680490901223" r="4" fill="#000000" fill-opacity="1"></circle><circle cx="284.9789973433269" cy="142.9792520605393" r="4" fill="#000000" fill-opacity="1"></circle><circle cx="33.41477783639707" cy="87.35908813085489" r="4" fill="#000000" fill-opacity="1"></circle><circle cx="88.199881611578" cy="485.2716254933795" r="4" fill="#000000" fill-opacity="1"></circle><circle cx="297.75184516030555" cy="170.22691260118307" r="4" fill="#000000" fill-opacity="1"></circle><circle cx="458.25217543323555" cy="348.4148246021948" r="4" fill="#000000" fill-opacity="1"></circle><circle cx="372.93659570851304" cy="157.2969756916566" r="4" fill="#000000" fill-opacity="1"></circle><circle cx="140.95884099941077" cy="135.1645392040186" r="4" fill="#000000" fill-opacity="1"></circle><circle cx="210.02894803703924" cy="424.29619658127626" r="4" fill="#000000" fill-opacity="1"></circle></svg>