<svg width="512" height="512" viewBox="0 0 512 512" xmlns="http://www.w3.org/2000/svg">
          <rect x="0" y="0" width="512" height="512" fill="#f8f8ff" fill-opacity="1"></rect>
        <circle cx="188.79415064080797" cy="111.31111552217375" r="4" fill="#000000" fill-opacity="1"></circle><circle cx="349.96734159983" cy="372.6347325612627" r="4" fill="#000000" fill-opacity="1"></circle><circle cx="354.41738778526303" cy="414.8330694547343" r="4" fill="#000000" fill-opacity="1"></circle><circle cx="412.5157867657606" cy="440.8735004999641" r="4" fill="#000000" fill-opacity="1"></circle><circle cx="363.3010472729495" cy="272.461117651299" r="4" fill="#000000" fill-opacity="1"></circle><circle cx="485.2744906399348" cy="335.03114324348485" r="4" fill="#000000" fill-opacity="1"></circle><circle cx="242.6145136849625" cy="393.01544721450546" r="4" fill="#000000" fill-opacity="1"></circle><circle cx="186.756997293396" cy="300.4449715146978" r="4" fill="#000000" fill-opacity="1"></circle><circle cx="406.6614114331155" cy="225.16234061582526" r="4" fill="#000000" fill-opacity="1"></circle><circle cx="100.57860026906883" cy="482.68013579086835" r="4" fill="#000000" fill-opacity="1"></circle><circle cx="234.7546567445733" cy="340.0470074122489" r="4" fill="#000000" fill-opacity="1"></circle><circle cx="314.4744469842429" cy="220.37566782455804" r="4" fill="#000000" fill-opacity="1"></circle><circle cx="89.58486042872849" cy="486.8304991736777" r="4" fill="#000000" fill-opacity="1"></circle><circle cx="452.91960777826466" cy="250.67646897719314" r="4" fill="#000000" fill-opacity="1"></circle><circle cx="228.61635308112375" cy="354.40051511355836" r="4" fill="#000000" fill-opacity="1"></circle><circle cx="378.3021558004442" cy="360.2421916747485" r="4" fill="#000000" fill-opacity="1"></circle><circle cx="95.17842410727481" cy="412.9407333221653" r="4" fill="#000000" fill-opacity="1"></circle><circle cx="153.8119442967807" cy="330.26798546594085" r="4" fill="#000000" fill-opacity="1"></circle><circle cx="173.1796654289691" cy="25.35522522788471" r="4" fill="#000000" fill-opacity="1"></circle><circle cx="97.91561172092833" cy="31.841633864828463" r="4" fill="#000000" fill-opacity="1"></circle><circle cx="173.6202760399916" cy="60.62586704295694" r="4" fill="#000000" fill-opacity="1"></circle><circle cx="404.3265078610476" cy="237.70544803875134" r="4" fill="#000000" fill-opacity="1"></circle><circle cx="478.20838302851087" cy="483.8057976010633" r="4" fill="#000000" fill-opacity="1"></circle><circle cx="448.78725985534487" cy="93.36414457661604" r="4" fill="#000000" fill-opacity="1"></circle><circle cx="318.5148458591109" cy="362.96904213622304" r="4" fill="#000000" fill-opacity="1"></circle><circle cx="312.5560249598299" cy="63.279731024938826" r="4" fill="#000000" fill-opacity="1"></circle><circle cx="469.38860397920877" cy="282.24753286112633" r="4" fill="#000000" fill-opacity="1"></circle><circle cx="121.20832801652757" cy="260.1423559615442" r="4" fill="#000000" fill-opacity="1"></circle><circle cx="134.5628618921781" cy="177.45554489431603" r="4" fill="#000000" fill-opacity="1"></circle><circle cx="458.521294001534" cy="174.69392643643923" r="4" fill="#000000" fill-opacity="1"></circle><circle cx="390.0754095016655" cy="485.50235816593624" r="4" fill="#000000" fill-opacity="1"></circle><circle cx="453.71012257806984" cy="390.05889272831297" r="4" fill="#000000" fill-opacity="1"></circle><circle cx="202.3357333926859" cy="52.01352630614055" r="4" fill="#000000" fill-opacity="1"></circle><circle cx="92.37797209000195" cy="224.66624404446523" r="4" fill="#000000" fill-opacity="1"></circle><circle cx="386.51783913730225" cy="48.065222700004476" r="4" fill="#000000" fill-opacity="1"></circle><circle cx="130.35875890921807" cy="300.6334588177739" r="4" fill="#000000" fill-opacity="1"></circle><circle cx="305.8742399563307" cy="252.75165399143737" r="4" fill="#000000" fill-opacity="1"></circle><circle cx="434.53899538850294" cy="308.09781456856973" r="4" fill="#000000" fill-opacity="1"></circle><circle cx="348.2911304536052" cy="353.370744064046" r="4" fill="#000000" fill-opacity="1"></circle><circle cx="125.52794680079319" cy="142.57061043087378" r="4" fill="#000000" fill-opacity="1"></circle><circle cx="104.53706861959895" cy="360.60692805246595" r="4" fill="#000000" fill-opacity="1"></circle><circle cx="272.469650771519" cy="168.8573749923082" r="4" fill="#000000" fill-opacity="1"></circle><circle cx="271.92643138764976" cy="267.9302224056455" r="4" fill="#000000" fill-opacity="1"></circle><circle cx="51.86475394247223" cy="436.7693520745495" r="4" fill="#000000" fill-opacity="1"></circle><circle cx="143.62680780718583" cy="188.48033606546096" r="4" fill="#000000" fill-opacity="1"></circle><circle cx="170.19715722289888" cy="70.76801347667197" r="4" fill="#000000" fill-opacity="1"></circle><circle cx="218.98912040299152" cy="409.1484314389748" r="4" fill="#000000" fill-opacity="1"></circle><circle cx="295.4250369577586" cy="287.2019493550075" r="4" fill="#000000" fill-opacity="1"></circle><circle cx="463.63783630467003" cy="376.9329685945589" r="4" fill="#000000" fill-opacity="1"></circle><circle cx="145.76414878586877" cy="322.22036591622447" r="4" fill="#000000" fill-opacity="1"></circle><circle cx="407.16985697873605" cy="278.84337327002254" r="4" fill="#000000" fill-opacity="1"></circle><circle cx="196.92064401292953" cy="234.37554944062128" r="4" fill="#000000" fill-opacity="1"></circle><circle cx="426.92530780846016" cy="212.30965672426078" r="4" fill="#000000" fill-opacity="1"></circle><circle cx="454.038731618478" cy="40.91739893528165" r="4" fill="#000000" fill-opacity="1"></circle><circle cx="249.59632351311785" cy="451.41002464938936" r="4" fill="#000000" fill-opacity="1"></circle><circle cx="400.6941376055996" cy="172.28346700309214" r="4" fill="#000000" fill-opacity="1"></circle><circle cx="148.04107999244084" cy="246.70559621915893" r="4" fill="#000000" fill-opacity="1"></circle><circle cx="263.1668499767793" cy="161.83920387540996" r="4" fill="#000000" fill-opacity="1"></circle><circle cx="377.9636963625947" cy="37.72852230212222" r="4" fill="#000000" fill-opacity="1"></circle><circle cx="167.7860181285369" cy="96.36055257679604" r="4" fill="#000000" fill-opacity="1"></circle><circle cx="42.353243196824195" cy="168.3638651820762" r="4" fill="#000000" fill-opacity="1"></circle><circle cx="411.3618361177655" cy="478.83364291084814" r="4" fill="#000000" fill-opacity="1"></circle><circle cx="92.92600068800559" cy="398.6549493190974" r="4" fill="#000000" fill-opacity="1"></circle><circle cx="366.54443082918954" cy="196.5729315839307" r="4" fill="#000000" fill-opacity="1"></circle><circle cx="459.64926951677063" cy="277.1246379234717" r="4" fill="#000000" fill-opacity="1"></circle><circle cx="340.7744621670812" cy="80.1005354570655" r="4" fill="#000000" fill-opacity="1"></circle><circle cx="430.3919659862287" cy="109.16221158544937" r="4" fill="#000000" fill-opacity="1"></circle><circle cx="94.72920129013322" cy="313.4060249901813" r="4" fill="#000000" fill-opacity="1"></circle><circle cx="383.5060393903114" cy="249.06064661039318" r="4" fill="#000000" fill-opacity="1"></circle><circle cx="440.634021452603" cy="26.060003877379472" r="4" fill="#000000" fill-opacity="1"></circle><circle cx="248.2160969644652" cy="81.56332488746662" r="4" fill="#000000" fill-opacity="1"></circle><circle cx="63.76804897329333" cy="116.48873230120014" r="4" fill="#000000" fill-opacity="1"></circle><circle cx="244.30017491994806" cy="51.826086725988446" r="4" fill="#000000" fill-opacity="1"></circle><circle cx="394.58781269950435" cy="273.6306275353626" r="4" fill="#000000" fill-opacity="1"></circle><circle cx="324.17323572296795" cy="412.974623497396" r="4" fill="#000000" fill-opacity="1"></circle><circle cx="31.908030549841758" cy="135.3989966449036" r="4" fill="#000000" fill-opacity="1"></circle><circle cx="330.4094950293913" cy="177.6525608710759" r="4" fill="#000000" fill-opacity="1"></circle><circle cx="259.38242350919916" cy="270.71153743342063" r="4" fill="#000000" fill-opacity="1"></circle><circle cx="315.07095371833276" cy="130.86697977878737" r="4" fill="#000000" fill-opacity="1"></circle><circle cx="408.3932532511911" cy="324.53755708415616" r="4" fill="#000000" fill-opacity="1"></circle><circle cx="232.62324204441322" cy="58.88098797732896" r="4" fill="#000000" fill-opacity="1"></circle><circle cx="164.78797179908847" cy="386.7549153774927" r="4" fill="#000000" fill-opacity="1"></circle><circle cx="253.66423694913178" cy="177.49581075453537" r="4" fill="#000000" fill-opacity="1"></circle><circle cx="268.06072915782386" cy="310.32418452361145" r="4" fill="#000000" fill-opacity="1"></circle><circle cx="244.21406958797155" cy="310.00758121610386" r="4" fill="#000000" fill-opacity="1"></circle><circle cx="182.9739556889396" cy="483.9020849564167" r="4" fill="#000000" fill-opacity="1"></circle><circle cx="190.6459530091118" cy="121.80627772296592" r="4" fill="#000000" fill-opacity="1"></circle><circle cx="169.64573872405583" cy="415.26927225984946" r="4" fill="#000000" fill-opacity="1"></circle><circle cx="123.94883729692201" cy="152.79821782318837" r="4" fill="#000000" fill-opacity="1"></circle><circle cx="171.76234400747464" cy="298.0953515838802" r="4" fill="#000000" fill-opacity="1"></circle><circle cx="349.15914030166135" cy="312.9611496073395" r="4" fill="#000000" fill-opacity="1"></circle><circle cx="156.16837583278854" cy="261.25780615124245" r="4" fill="#000000" fill-opacity="1"></circle><circle cx="476.9945275818241" cy="388.6419280638693" r="4" fill="#000000" fill-opacity="1"></circle><circle cx="170.13836929931958" cy="456.3425316053193" r="4" fill="#000000" fill-opacity="1"></circle><circle cx="258.3044747943901" cy="440.2184865711983" r="4" fill="#000000" fill-opacity="1"></circle><circle cx="380.8907320513872" cy="164.662645975673" r="4" fill="#000000" fill-opacity="1"></circle><circle cx="459.91883243398104" cy="220.3780149557364" r="4" fill="#000000" fill-opacity="1"></circle><circle cx="292.7150744891192" cy="227.79067508474253" r="4" fill="#000000" fill-opacity="1"></circle><circle cx="112.54881310252769" cy="392.96463921010934" r="4" fill="#000000" fill-opacity="1"></circle><circle cx="432.2865942944508" cy="249.8028483843314" r="4" fill="#000000" fill-opacity="1"></circle><circle cx="298.33256377264814" cy="346.16448258473923" r="4" fill="#000000" fill-opacity="1"></circle><circle cx="321.56957209670736" cy="91.25444697955055" r="4" fill="#000000" fill-opacity="1"></circle><circle cx="267.35799568851223" cy="279.2017581730554" r="4" fill="#000000" fill-opacity="1"></circle><circle cx="361.6481342751016" cy="293.288759920909" r="4" fill="#000000" fill-opacity="1"></circle><circle cx="447.7807189023376" cy="262.86385886995515" r="4" fill="#000000" fill-opacity="1"></circle><circle cx="330.4319362891461" cy="257.8632164730806" r="4" fill="#000000" fill-opacity="1"></circle><circle cx="402.4083808636634" cy="431.68216528028194" r="4" fill="#000000" fill-opacity="1"></circle><circle cx="103.99899107351214" cy="98.78326617627414" r="4" fill="#000000" fill-opacity="1"></circle><circle cx="148.40135660156383" cy="415.47188583959" r="4" fill="#000000" fill-opacity="1"></circle><circle cx="306.2389640986593" cy="187.2329760028605" r="4" fill="#000000" fill-opacity="1"></circle><circle cx="186.99863468740327" cy="212.0675491951979" r="4" fill="#000000" fill-opacity="1"></circle><circle cx="51.43304549635069" cy="149.27115098882072" r="4" fill="#000000" fill-opacity="1"></circle><circle cx="184.8586046137676" cy="184.93633053313914" r="4" fill="#000000" fill-opacity="1"></circle><circle cx="179.91467817692734" cy="260.0943067966193" r="4" fill="#000000" fill-opacity="1"></circle><circle cx="243.57245376871109" cy="465.3997840995727" r="4" fill="#000000" fill-opacity="1"></circle><circle cx="248.95388212599184" cy="483.25852970946636" r="4" fill="#000000" fill-opacity="1"></circle><circle cx="136.324263298416" cy="362.7246263022941" r="4" fill="#000000" fill-opacity="1"></circle><circle cx="476.13053986092933" cy="135.20905903485144" r="4" fill="#000000" fill-opacity="1"></circle><circle cx="107.20634551955013" cy="306.74267345502676" r="4" fill="#000000" fill-opacity="1"></circle><circle cx="390.3830624950798" cy="59.39232924932377" r="4" fill="#000000" fill-opacity="1"></circle><circle cx="133.37265405637504" cy="67.16138523908995" r="4" fill="#000000" fill-opacity="1"></circle><circle cx="343.4812024029428" cy="37.25189442150399" r="4" fill="#000000" fill-opacity="1"></circle><circle cx="174.27692040036803" cy="123.6804413882832" r="4" fill="#000000" fill-opacity="1"></circle><circle cx="393.65816292901184" cy="383.986419196208" r="4" fill="#000000" fill-opacity="1"></circle><circle cx="104.11396747445556" cy="338.62452710836857" r="4" fill="#000000" fill-opacity="1"></circle><circle cx="113.26256562417234" cy="466.39776394822275" r="4" fill="#000000" fill-opacity="1"></circle><circle cx="325.8009630012977" cy="333.8923628676328" r="4" fill="#000000" fill-opacity="1"></circle><circle cx="425.634679375306" cy="37.96758038325975" r="4" fill="#000000" fill-opacity="1"></circle><circle cx="330.75309379691953" cy="208.51788716810756" r="4" fill="#000000" fill-opacity="1"></circle><circle cx="309.06509257499135" cy="418.75341370933904" r="4" fill="#000000" fill-opacity="1"></circle><circle cx="136.09298466651614" cy="250.5823904792548" r="4" fill="#000000" fill-opacity="1"></circle><circle cx="394.65500818715566" cy="311.38087927226593" r="4" fill="#000000" fill-opacity="1"></circle><circle cx="223.3390600997808" cy="317.9075569395089" r="4" fill="#000000" fill-opacity="1"></circle><circle cx="131.64871353629624" cy="85.03822317011421" r="4" fill="#000000" fill-opacity="1"></circle><circle cx="302.6617142652855" cy="174.3187822892607" r="4" fill="#000000" fill-opacity="1"></circle><circle cx="78.48650201930722" cy="64.41963247596391" r="4" fill="#000000" fill-opacity="1"></circle><circle cx="39.46118317087837" cy="253.00670539312333" r="4" fill="#000000" fill-opacity="1"></circle><circle cx="98.34449168835332" cy="375.33657465671837" r="4" fill="#000000" fill-opacity="1"></circle><circle cx="223.90149480781028" cy="149.92736014123625" r="4" fill="#000000" fill-opacity="1"></circle><circle cx="248.99964688101488" cy="35.26320111491371" r="4" fill="#000000" fill-opacity="1"></circle><circle cx="241.41874803981577" cy="24.23090152971913" r="4" fill="#000000" fill-opacity="1"></circle><circle cx="339.8081487372526" cy="283.2681536640957" r="4" fill="#000000" fill-opacity="1"></circle><circle cx="317.312166427258" cy="24.861776722477504" r="4" fill="#000000" fill-opacity="1"></circle><circle cx="358.6839825397634" cy="355.2109253491815" r="4" fill="#000000" fill-opacity="1"></circle><circle cx="158.67338894197786" cy="30.64963136058998" r="4" fill="#000000" fill-opacity="1"></circle><circle cx="168.69788113088845" cy="212.44607912149587" r="4" fill="#000000" fill-opacity="1"></circle><circle cx="327.9030366110966" cy="464.6562191229688" r="4" fill="#000000" fill-opacity="1"></circle><circle cx="176.11365477130366" cy="444.33568011247" r="4" fill="#000000" fill-opacity="1"></circle><circle cx="432.49237188954544" cy="294.36122269529227" r="4" fill="#000000" fill-opacity="1"></circle><circle cx="110.88845327565802" cy="177.80512420998997" r="4" fill="#000000" fill-opacity="1"></circle><circle cx="98.83235041194463" cy="323.165429187772" r="4" fill="#000000" fill-opacity="1"></circle><circle cx="183.12657331645244" cy="83.89286040096698" r="4" fill="#000000" fill-opacity="1"></circle><circle cx="236.61198120606974" cy="189.92816122043286" r="4" fill="#000000" fill-opacity="1"></circle><circle cx="279.41728281311117" cy="320.44815110408575" r="4" fill="#000000" fill-opacity="1"></circle><circle cx="110.92964184834926" cy="35.7201035304342" r="4" fill="#000000" fill-opacity="1"></circle><circle cx="221.76933054418225" cy="126.49427128639948" r="4" fill="#000000" fill-opacity="1"></circle><circle cx="87.1656618361094" cy="101.74833968293545" r="4" fill="#000000" fill-opacity="1"></circle><circle cx="85.0196623059406" cy="302.3735478125715" r="4" fill="#000000" fill-opacity="1"></circle><circle cx="71.66793327856327" cy="257.7999446050986" r="4" fill="#000000" fill-opacity="1"></circle><circle cx="405.32555669209336" cy="159.50737419140816" r="4" fill="#000000" fill-opacity="1"></circle><circle cx="299.71195999791473" cy="81.64377256599404" r="4" fill="#000000" fill-opacity="1"></circle><circle cx="405.36521856418136" cy="392.80281978337024" r="4" fill="#000000" fill-opacity="1"></circle><circle cx="365.2408842664993" cy="451.24071070048757" r="4" fill="#000000" fill-opacity="1"></circle><circle cx="26.673131941205803" cy="286.6608753363926" r="4" fill="#000000" fill-opacity="1"></circle><circle cx="163.80194282696928" cy="328.6812312071615" r="4" fill="#000000" fill-opacity="1"></circle><circle cx="133.61027643416617" cy="394.2151469874248" r="4" fill="#000000" fill-opacity="1"></circle><circle cx="117.18924737225836" cy="124.79756686649255" r="4" fill="#000000" fill-opacity="1"></circle><circle cx="162.47151989235695" cy="302.2275384039314" r="4" fill="#000000" fill-opacity="1"></circle><circle cx="70.77518869024183" cy="477.6042038454838" r="4" fill="#000000" fill-opacity="1"></circle><circle cx="257.33588531663247" cy="65.40798956497645" r="4" fill="#000000" fill-opacity="1"></circle><circle cx="55.89771729467393" cy="71.14021742859549" r="4" fill="#000000" fill-opacity="1"></circle><circle cx="440.1710404427411" cy="434.10147004817907" r="4" fill="#000000" fill-opacity="1"></circle><circle cx="395.06561096429897" cy="84.51309922542333" r="4" fill="#000000" fill-opacity="1"></circle><circle cx="195.58772407081477" cy="269.8229592571321" r="4" fill="#000000" fill-opacity="1"></circle><circle cx="24.853583590210253" cy="483.9586292904416" r="4" fill="#000000" fill-opacity="1"></circle><circle cx="314.75648237292893" cy="258.17213819765243" r="4" fill="#000000" fill-opacity="1"></circle><circle cx="278.3619110184533" cy="146.01681110303664" r="4" fill="#000000" fill-opacity="1"></circle><circle cx="242.94907726382522" cy="69.46273786907737" r="4" fill="#000000" fill-opacity="1"></circle><circle cx="331.25668277242596" cy="117.64534543188142" r="4" fill="#000000" fill-opacity="1"></circle><circle cx="24.052359511219816" cy="46.62949224392949" r="4" fill="#000000" fill-opacity="1"></circle><circle cx="39.12631124246839" cy="427.80815467967506" r="4" fill="#000000" fill-opacity="1"></circle><circle cx="128.64360636669127" cy="339.6652437429933" r="4" fill="#000000" fill-opacity="1"></circle><circle cx="325.8241835766433" cy="142.77031762686565" r="4" fill="#000000" fill-opacity="1"></circle><circle cx="327.9149118925439" cy="367.19845458945406" r="4" fill="#000000" fill-opacity="1"></circle><circle cx="447.57020675264886" cy="340.31128381401237" r="4" fill="#000000" fill-opacity="1"></circle><circle cx="73.27614676201208" cy="123.50079131010298" r="4" fill="#000000" fill-opacity="1"></circle><circle cx="291.40729055959565" cy="54.26488419129322" r="4" fill="#000000" fill-opacity="1"></circle><circle cx="91.2846180365984" cy="63.7589047516136" r="4" fill="#000000" fill-opacity="1"></circle><circle cx="100.54123694370017" cy="51.8697424271161" r="4" fill="#000000" fill-opacity="1"></circle><circle cx="286.61302132539487" cy="481.8562501270558" r="4" fill="#000000" fill-opacity="1"></circle><circle cx="336.8376633680267" cy="381.05617118168914" r="4" fill="#000000" fill-opacity="1"></circle><circle cx="208.76662393794652" cy="223.83294444676247" r="4" fill="#000000" fill-opacity="1"></circle><circle cx="370.9130811414526" cy="400.41612140662846" r="4" fill="#000000" fill-opacity="1"></circle><circle cx="71.59956844002018" cy="445.92472383647635" r="4" fill="#000000" fill-opacity="1"></circle><circle cx="154.06151683028125" cy="111.07072451177007" r="4" fill="#000000" fill-opacity="1"></circle><circle cx="291.8009621298043" cy="253.24335310865735" r="4" fill="#000000" fill-opacity="1"></circle><circle cx="241.64251412892213" cy="260.70710899667523" r="4" fill="#000000" fill-opacity="1"></circle><circle cx="290.295454643309" cy="139.48601552183635" r="4" fill="#000000" fill-opacity="1"></circle><circle cx="260.50067203840416" cy="414.28119865094044" r="4" fill="#000000" fill-opacity="1"></circle><circle cx="80.99160274991856" cy="433.1562303834669" r="4" fill="#000000" fill-opacity="1"></circle></svg>