<svg width="512" height="512" viewBox="0 0 512 512" xmlns="http://www.w3.org/2000/svg">
          <rect x="0" y="0" width="512" height="512" fill="#f8f8ff" fill-opacity="1"></rect>
        <circle cx="219.22076350469447" cy="74.48514940548225" r="4" fill="#000000" fill-opacity="1"></circle><circle cx="425.5068429977779" cy="485.7249840610756" r="4" fill="#000000" fill-opacity="1"></circle><circle cx="477.35077972044127" cy="58.94627515315318" r="4" fill="#000000" fill-opacity="1"></circle><circle cx="145.48051509773393" cy="185.37262735767206" r="4" fill="#000000" fill-opacity="1"></circle><circle cx="327.04137885723543" cy="442.02950055561246" r="4" fill="#000000" fill-opacity="1"></circle><circle cx="167.81204352524162" cy="63.539234764657735" r="4" fill="#000000" fill-opacity="1"></circle><circle cx="457.982665279373" cy="400.2853661161806" r="4" fill="#000000" fill-opacity="1"></circle><circle cx="176.14764030302138" cy="269.9316637915771" r="4" fill="#000000" fill-opacity="1"></circle><circle cx="216.96712787901754" cy="30.046659515964947" r="4" fill="#000000" fill-opacity="1"></circle><circle cx="115.39580791903705" cy="74.63528986372444" r="4" fill="#000000" fill-opacity="1"></circle><circle cx="437.2404745834448" cy="174.19758863340257" r="4" fill="#000000" fill-opacity="1"></circle><circle cx="242.9999692481229" cy="56.07044366265359" r="4" fill="#000000" fill-opacity="1"></circle><circle cx="30.072185581818474" cy="185.8317958211733" r="4" fill="#000000" fill-opacity="1"></circle><circle cx="369.3685281703595" cy="60.58314825266435" r="4" fill="#000000" fill-opacity="1"></circle><circle cx="237.63969100452206" cy="155.71214043561443" r="4" fill="#000000" fill-opacity="1"></circle><circle cx="193.23413256477392" cy="364.0055232140497" r="4" fill="#000000" fill-opacity="1"></circle><circle cx="260.2610671855258" cy="134.63612278080234" r="4" fill="#000000" fill-opacity="1"></circle><circle cx="48.213407836155966" cy="40.72868824869811" r="4" fill="#000000" fill-opacity="1"></circle><circle cx="41.19164940930334" cy="416.0461530188812" r="4" fill="#000000" fill-opacity="1"></circle><circle cx="303.4014711494728" cy="58.16709164055104" r="4" fill="#000000" fill-opacity="1"></circle><circle cx="169.5542288722346" cy="174.10612267254302" r="4" fill="#000000" fill-opacity="1"></circle><circle cx="402.78936926503945" cy="128.49762391082078" r="4" fill="#000000" fill-opacity="1"></circle><circle cx="350.99851714576226" cy="452.7594852764481" r="4" fill="#000000" fill-opacity="1"></circle><circle cx="262.869548470732" cy="382.6404539605488" r="4" fill="#000000" fill-opacity="1"></circle><circle cx="149.122183518594" cy="452.2958532397606" r="4" fill="#000000" fill-opacity="1"></circle><circle cx="374.1322323365951" cy="201.92130106948727" r="4" fill="#000000" fill-opacity="1"></circle><circle cx="226.43202751375173" cy="459.3193773953082" r="4" fill="#000000" fill-opacity="1"></circle><circle cx="346.99367175753616" cy="182.23289187647458" r="4" fill="#000000" fill-opacity="1"></circle><circle cx="392.05516101422614" cy="56.08003059074141" r="4" fill="#000000" fill-opacity="1"></circle><circle cx="45.28961885192404" cy="256.85185527299217" r="4" fill="#000000" fill-opacity="1"></circle><circle cx="70.59126012745364" cy="161.6313434693859" r="4" fill="#000000" fill-opacity="1"></circle><circle cx="123.43651082586777" cy="247.74352399643865" r="4" fill="#000000" fill-opacity="1"></circle><circle cx="125.49715014839946" cy="142.61797253756743" r="4" fill="#000000" fill-opacity="1"></circle><circle cx="382.2022100409957" cy="121.0366021921665" r="4" fill="#000000" fill-opacity="1"></circle><circle cx="332.39978056409893" cy="101.02393927214084" r="4" fill="#000000" fill-opacity="1"></circle><circle cx="84.0225452563214" cy="424.58576025191144" r="4" fill="#000000" fill-opacity="1"></circle><circle cx="324.1192210081517" cy="422.58498100438794" r="4" fill="#000000" fill-opacity="1"></circle><circle cx="152.21132169599144" cy="101.58353576417282" r="4" fill="#000000" fill-opacity="1"></circle><circle cx="233.96287648232655" cy="210.12979166266516" r="4" fill="#000000" fill-opacity="1"></circle><circle cx="378.619919448294" cy="180.99691312327144" r="4" fill="#000000" fill-opacity="1"></circle><circle cx="131.5083136705014" cy="239.0283395890907" r="4" fill="#000000" fill-opacity="1"></circle><circle cx="281.21981779020246" cy="271.17599361402495" r="4" fill="#000000" fill-opacity="1"></circle><circle cx="253.3564431829126" cy="372.28087545279914" r="4" fill="#000000" fill-opacity="1"></circle><circle cx="443.8330537560075" cy="388.12354682565524" r="4" fill="#000000" fill-opacity="1"></circle><circle cx="460.46822418895385" cy="478.7287904077561" r="4" fill="#000000" fill-opacity="1"></circle><circle cx="383.43282156605136" cy="209.45232259300414" r="4" fill="#000000" fill-opacity="1"></circle><circle cx="401.65233176657483" cy="176.2006550785071" r="4" fill="#000000" fill-opacity="1"></circle><circle cx="296.01644031470596" cy="378.5120691969964" r="4" fill="#000000" fill-opacity="1"></circle><circle cx="313.3001083577616" cy="177.5942805108283" r="4" fill="#000000" fill-opacity="1"></circle><circle cx="362.2623726988265" cy="451.6693547625774" r="4" fill="#000000" fill-opacity="1"></circle><circle cx="149.51889281206502" cy="345.073529387686" r="4" fill="#000000" fill-opacity="1"></circle><circle cx="353.70724949932577" cy="358.7906795531529" r="4" fill="#000000" fill-opacity="1"></circle><circle cx="147.25028291420682" cy="204.66885952764824" r="4" fill="#000000" fill-opacity="1"></circle><circle cx="170.61236802117458" cy="134.32163826407188" r="4" fill="#000000" fill-opacity="1"></circle><circle cx="333.19894696206194" cy="70.55674419562295" r="4" fill="#000000" fill-opacity="1"></circle><circle cx="99.9446020963765" cy="195.8555346075123" r="4" fill="#000000" fill-opacity="1"></circle><circle cx="212.27991277268112" cy="186.98242372810486" r="4" fill="#000000" fill-opacity="1"></circle><circle cx="41.70418991544355" cy="440.93405844599675" r="4" fill="#000000" fill-opacity="1"></circle><circle cx="175.39174715009142" cy="234.24401374836103" r="4" fill="#000000" fill-opacity="1"></circle><circle cx="392.0258859121458" cy="25.473912924415785" r="4" fill="#000000" fill-opacity="1"></circle><circle cx="301.87366934644245" cy="487.2572775999663" r="4" fill="#000000" fill-opacity="1"></circle><circle cx="91.23990378461166" cy="103.33957354136935" r="4" fill="#000000" fill-opacity="1"></circle><circle cx="403.46977867139185" cy="49.04477885070749" r="4" fill="#000000" fill-opacity="1"></circle><circle cx="364.4708804778859" cy="297.0288913910423" r="4" fill="#000000" fill-opacity="1"></circle><circle cx="107.2311559906535" cy="444.3350188383017" r="4" fill="#000000" fill-opacity="1"></circle><circle cx="246.50377277992695" cy="349.18860671884215" r="4" fill="#000000" fill-opacity="1"></circle><circle cx="247.61495833116192" cy="407.9867156302928" r="4" fill="#000000" fill-opacity="1"></circle><circle cx="210.2509028769958" cy="247.39354586638183" r="4" fill="#000000" fill-opacity="1"></circle><circle cx="67.71948363488644" cy="262.5664338303317" r="4" fill="#000000" fill-opacity="1"></circle><circle cx="37.76947983901789" cy="222.16812376022634" r="4" fill="#000000" fill-opacity="1"></circle><circle cx="259.71349595391405" cy="25.815261842174948" r="4" fill="#000000" fill-opacity="1"></circle><circle cx="267.56176875076466" cy="158.6236367035837" r="4" fill="#000000" fill-opacity="1"></circle><circle cx="377.61234803660824" cy="247.4277924085527" r="4" fill="#000000" fill-opacity="1"></circle><circle cx="178.38358859529873" cy="370.48799220082657" r="4" fill="#000000" fill-opacity="1"></circle><circle cx="264.80714332313164" cy="267.45748802686524" r="4" fill="#000000" fill-opacity="1"></circle><circle cx="214.5100463596934" cy="238.18583750817317" r="4" fill="#000000" fill-opacity="1"></circle><circle cx="393.3257944558033" cy="252.12414125952654" r="4" fill="#000000" fill-opacity="1"></circle><circle cx="217.0269831996448" cy="203.3536706786651" r="4" fill="#000000" fill-opacity="1"></circle><circle cx="87.72342289599794" cy="44.54673470317046" r="4" fill="#000000" fill-opacity="1"></circle><circle cx="318.7598337767378" cy="207.95664224275225" r="4" fill="#000000" fill-opacity="1"></circle><circle cx="350.7702678709475" cy="478.67726130619747" r="4" fill="#000000" fill-opacity="1"></circle><circle cx="61.73599591668909" cy="176.74533029670928" r="4" fill="#000000" fill-opacity="1"></circle><circle cx="425.1818196708263" cy="49.187517285460274" r="4" fill="#000000" fill-opacity="1"></circle><circle cx="200.9310800013743" cy="326.64871395242784" r="4" fill="#000000" fill-opacity="1"></circle><circle cx="455.27019085742853" cy="465.97413813961793" r="4" fill="#000000" fill-opacity="1"></circle><circle cx="67.68507900589066" cy="105.27181730757442" r="4" fill="#000000" fill-opacity="1"></circle><circle cx="346.9016500168952" cy="159.48834807847464" r="4" fill="#000000" fill-opacity="1"></circle><circle cx="343.2920136409574" cy="60.91419609183275" r="4" fill="#000000" fill-opacity="1"></circle><circle cx="202.732024255331" cy="434.2627922716804" r="4" fill="#000000" fill-opacity="1"></circle><circle cx="134.21871433463656" cy="57.387148327012866" r="4" fill="#000000" fill-opacity="1"></circle><circle cx="392.2121791819506" cy="328.7906395817874" r="4" fill="#000000" fill-opacity="1"></circle><circle cx="148.44609926582103" cy="221.4413367258095" r="4" fill="#000000" fill-opacity="1"></circle><circle cx="244.1361403198589" cy="440.6510740717861" r="4" fill="#000000" fill-opacity="1"></circle><circle cx="228.71459155979926" cy="336.5190859090055" r="4" fill="#000000" fill-opacity="1"></circle><circle cx="432.11452111745825" cy="59.54244013542265" r="4" fill="#000000" fill-opacity="1"></circle><circle cx="409.01327400685784" cy="311.28049496148253" r="4" fill="#000000" fill-opacity="1"></circle><circle cx="333.26184359536" cy="414.7599043784088" r="4" fill="#000000" fill-opacity="1"></circle><circle cx="71.81073895734936" cy="242.5741644794504" r="4" fill="#000000" fill-opacity="1"></circle><circle cx="118.99442255461005" cy="58.07798513650708" r="4" fill="#000000" fill-opacity="1"></circle><circle cx="143.5403932635789" cy="441.09573845063284" r="4" fill="#000000" fill-opacity="1"></circle><circle cx="447.1197178271617" cy="169.54555885892574" r="4" fill="#000000" fill-opacity="1"></circle><circle cx="49.489807037449" cy="332.24209707420226" r="4" fill="#000000" fill-opacity="1"></circle><circle cx="294.199299925839" cy="365.24751447792045" r="4" fill="#000000" fill-opacity="1"></circle><circle cx="255.84989896214339" cy="164.0308669883962" r="4" fill="#000000" fill-opacity="1"></circle><circle cx="401.4286702485327" cy="196.23931509097366" r="4" fill="#000000" fill-opacity="1"></circle><circle cx="246.76624841956954" cy="180.81811346503343" r="4" fill="#000000" fill-opacity="1"></circle><circle cx="433.31645260510436" cy="94.95478831225209" r="4" fill="#000000" fill-opacity="1"></circle><circle cx="70.24039029506335" cy="420.8076188307142" r="4" fill="#000000" fill-opacity="1"></circle><circle cx="60.36731035495601" cy="67.73308055935627" r="4" fill="#000000" fill-opacity="1"></circle><circle cx="266.91939097749014" cy="347.5969716303003" r="4" fill="#000000" fill-opacity="1"></circle><circle cx="279.5193403174991" cy="387.92558278933546" r="4" fill="#000000" fill-opacity="1"></circle><circle cx="361.0773196210588" cy="152.2933508690172" r="4" fill="#000000" fill-opacity="1"></circle><circle cx="419.71121642207765" cy="434.04479855528166" r="4" fill="#000000" fill-opacity="1"></circle><circle cx="234.86863505944257" cy="91.07819866716216" r="4" fill="#000000" fill-opacity="1"></circle><circle cx="262.08122405234786" cy="458.43930696927214" r="4" fill="#000000" fill-opacity="1"></circle><circle cx="370.9150237363031" cy="170.7925873166432" r="4" fill="#000000" fill-opacity="1"></circle><circle cx="403.80001836958536" cy="263.8284103088067" r="4" fill="#000000" fill-opacity="1"></circle><circle cx="61.91023709257415" cy="217.45505775542625" r="4" fill="#000000" fill-opacity="1"></circle><circle cx="453.59577501302374" cy="375.8428933869561" r="4" fill="#000000" fill-opacity="1"></circle><circle cx="103.16395861483701" cy="292.0504014126491" r="4" fill="#000000" fill-opacity="1"></circle><circle cx="361.4254613326798" cy="194.0153792241469" r="4" fill="#000000" fill-opacity="1"></circle><circle cx="133.099294478341" cy="44.31221408203312" r="4" fill="#000000" fill-opacity="1"></circle><circle cx="105.96319384080306" cy="66.58336181953591" r="4" fill="#000000" fill-opacity="1"></circle><circle cx="314.97232730305393" cy="401.8636259670625" r="4" fill="#000000" fill-opacity="1"></circle><circle cx="420.43042619724196" cy="285.1392565504681" r="4" fill="#000000" fill-opacity="1"></circle><circle cx="133.58141821600663" cy="407.36510960046553" r="4" fill="#000000" fill-opacity="1"></circle><circle cx="436.2472866401729" cy="326.7452244106483" r="4" fill="#000000" fill-opacity="1"></circle><circle cx="330.9678456590225" cy="172.20159878866448" r="4" fill="#000000" fill-opacity="1"></circle><circle cx="131.10209875786256" cy="331.30137468154857" r="4" fill="#000000" fill-opacity="1"></circle><circle cx="309.78459114183835" cy="472.30721500339206" r="4" fill="#000000" fill-opacity="1"></circle><circle cx="397.5467828345547" cy="292.5279305342507" r="4" fill="#000000" fill-opacity="1"></circle><circle cx="317.96467609634675" cy="146.01770456968288" r="4" fill="#000000" fill-opacity="1"></circle><circle cx="199.16951314990274" cy="172.91303996716172" r="4" fill="#000000" fill-opacity="1"></circle><circle cx="234.03993273404592" cy="345.156348235948" r="4" fill="#000000" fill-opacity="1"></circle><circle cx="268.91584763315007" cy="228.52195552332006" r="4" fill="#000000" fill-opacity="1"></circle><circle cx="51.647371624742824" cy="406.5600924928384" r="4" fill="#000000" fill-opacity="1"></circle><circle cx="128.92443180998464" cy="382.41397544486324" r="4" fill="#000000" fill-opacity="1"></circle><circle cx="185.60740994069536" cy="133.57176632975313" r="4" fill="#000000" fill-opacity="1"></circle><circle cx="40.3312745599222" cy="473.6719575342696" r="4" fill="#000000" fill-opacity="1"></circle><circle cx="403.8489640914953" cy="101.96161706414404" r="4" fill="#000000" fill-opacity="1"></circle><circle cx="243.90011964107066" cy="337.17276352171933" r="4" fill="#000000" fill-opacity="1"></circle><circle cx="297.5599625449544" cy="430.85961291549154" r="4" fill="#000000" fill-opacity="1"></circle><circle cx="254.19596497675832" cy="435.2610783205341" r="4" fill="#000000" fill-opacity="1"></circle><circle cx="442.10247987151405" cy="405.3211064528125" r="4" fill="#000000" fill-opacity="1"></circle><circle cx="439.21528259996677" cy="243.82013964485733" r="4" fill="#000000" fill-opacity="1"></circle><circle cx="349.90153769212304" cy="129.43569042134894" r="4" fill="#000000" fill-opacity="1"></circle><circle cx="34.75549862670459" cy="427.308070220508" r="4" fill="#000000" fill-opacity="1"></circle><circle cx="385.21712911394707" cy="145.0641561691596" r="4" fill="#000000" fill-opacity="1"></circle><circle cx="196.88526686836613" cy="24.958803760163743" r="4" fill="#000000" fill-opacity="1"></circle><circle cx="27.56533747971136" cy="210.71197053111214" r="4" fill="#000000" fill-opacity="1"></circle><circle cx="414.166549934339" cy="475.86055808199643" r="4" fill="#000000" fill-opacity="1"></circle><circle cx="210.0775227168524" cy="158.52938504617865" r="4" fill="#000000" fill-opacity="1"></circle><circle cx="157.18879231536062" cy="360.6834204263513" r="4" fill="#000000" fill-opacity="1"></circle><circle cx="347.0353270243337" cy="111.75199460673582" r="4" fill="#000000" fill-opacity="1"></circle><circle cx="101.16695190329844" cy="348.3849861511609" r="4" fill="#000000" fill-opacity="1"></circle><circle cx="190.11460529492365" cy="38.89188677821353" r="4" fill="#000000" fill-opacity="1"></circle><circle cx="63.44097321823472" cy="356.3115793889985" r="4" fill="#000000" fill-opacity="1"></circle><circle cx="230.1307123506676" cy="383.7113896667888" r="4" fill="#000000" fill-opacity="1"></circle><circle cx="467.15571149706886" cy="210.14025039395264" r="4" fill="#000000" fill-opacity="1"></circle><circle cx="441.3086909102345" cy="290.76448751928064" r="4" fill="#000000" fill-opacity="1"></circle><circle cx="332.2446351306019" cy="230.06646388984413" r="4" fill="#000000" fill-opacity="1"></circle><circle cx="472.2411939438085" cy="169.8665815373708" r="4" fill="#000000" fill-opacity="1"></circle><circle cx="414.0874933109768" cy="207.2188084389929" r="4" fill="#000000" fill-opacity="1"></circle><circle cx="54.275179535278085" cy="446.3109595768434" r="4" fill="#000000" fill-opacity="1"></circle><circle cx="353.2293246249876" cy="383.5587586770951" r="4" fill="#000000" fill-opacity="1"></circle><circle cx="260.7654978669599" cy="100.47111810246021" r="4" fill="#000000" fill-opacity="1"></circle><circle cx="409.18515025422056" cy="326.4054222427759" r="4" fill="#000000" fill-opacity="1"></circle><circle cx="273.60831935421686" cy="444.288028180571" r="4" fill="#000000" fill-opacity="1"></circle><circle cx="154.1825308756333" cy="292.49771292771504" r="4" fill="#000000" fill-opacity="1"></circle><circle cx="424.21873074346775" cy="128.22617892771268" r="4" fill="#000000" fill-opacity="1"></circle><circle cx="338.2627795717534" cy="148.3772156098178" r="4" fill="#000000" fill-opacity="1"></circle><circle cx="68.08609462434792" cy="367.2827254539455" r="4" fill="#000000" fill-opacity="1"></circle><circle cx="185.5023161346132" cy="198.36289892536638" r="4" fill="#000000" fill-opacity="1"></circle><circle cx="314.2911750756414" cy="319.9926828725274" r="4" fill="#000000" fill-opacity="1"></circle><circle cx="140.37686276688487" cy="127.26796506190567" r="4" fill="#000000" fill-opacity="1"></circle><circle cx="213.7104203372108" cy="284.6038958177251" r="4" fill="#000000" fill-opacity="1"></circle><circle cx="86.60850986334975" cy="64.21704146285666" r="4" fill="#000000" fill-opacity="1"></circle><circle cx="73.8012798490645" cy="65.53821588454728" r="4" fill="#000000" fill-opacity="1"></circle><circle cx="484.6336414474106" cy="126.8444301868829" r="4" fill="#000000" fill-opacity="1"></circle><circle cx="225.94095659684592" cy="135.3375703630416" r="4" fill="#000000" fill-opacity="1"></circle><circle cx="184.26725451413705" cy="172.08195583294153" r="4" fill="#000000" fill-opacity="1"></circle><circle cx="449.4988054804444" cy="184.8782859694708" r="4" fill="#000000" fill-opacity="1"></circle><circle cx="92.42384374762541" cy="317.28022577832184" r="4" fill="#000000" fill-opacity="1"></circle><circle cx="390.4908578164713" cy="39.1540437430495" r="4" fill="#000000" fill-opacity="1"></circle><circle cx="320.7856675741384" cy="278.80200857264083" r="4" fill="#000000" fill-opacity="1"></circle><circle cx="333.63463436052" cy="342.9863674246841" r="4" fill="#000000" fill-opacity="1"></circle><circle cx="46.65265666361142" cy="309.3261110828065" r="4" fill="#000000" fill-opacity="1"></circle><circle cx="67.95022304300875" cy="139.06231113256706" r="4" fill="#000000" fill-opacity="1"></circle><circle cx="38.3818914539124" cy="176.0671027602038" r="4" fill="#000000" fill-opacity="1"></circle><circle cx="351.97867416969274" cy="422.67362450919865" r="4" fill="#000000" fill-opacity="1"></circle><circle cx="246.8297548025871" cy="476.7621651799857" r="4" fill="#000000" fill-opacity="1"></circle><circle cx="70.50419904869987" cy="47.199254625043494" r="4" fill="#000000" fill-opacity="1"></circle><circle cx="109.2023691766296" cy="240.14593959594364" r="4" fill="#000000" fill-opacity="1"></circle><circle cx="364.4043422271939" cy="393.94094098307204" r="4" fill="#000000" fill-opacity="1"></circle><circle cx="202.49102548849388" cy="385.5507141061231" r="4" fill="#000000" fill-opacity="1"></circle><circle cx="150.14657486642704" cy="472.208243043504" r="4" fill="#000000" fill-opacity="1"></circle><circle cx="120.47912023069007" cy="114.30107712655513" r="4" fill="#000000" fill-opacity="1"></circle><circle cx="296.63768880290047" cy="97.8339329154211" r="4" fill="#000000" fill-opacity="1"></circle><circle cx="117.47316317890272" cy="468.571184875611" r="4" fill="#000000" fill-opacity="1"></circle><circle cx="282.68250695156473" cy="463.2333080197111" r="4" fill="#000000" fill-opacity="1"></circle><circle cx="235.13158220453641" cy="39.66027860137488" r="4" fill="#000000" fill-opacity="1"></circle><circle cx="278.69385953399825" cy="216.0165823792805" r="4" fill="#000000" fill-opacity="1"></circle><circle cx="450.0381176770209" cy="118.7852491329094" r="4" fill="#000000" fill-opacity="1"></circle><circle cx="196.51763638976507" cy="302.46511173718164" r="4" fill="#000000" fill-opacity="1"></circle><circle cx="439.13391690100536" cy="485.68865916112173" r="4" fill="#000000" fill-opacity="1"></circle><circle cx="384.6751198719527" cy="381.19283148560237" r="4" fill="#000000" fill-opacity="1"></circle><circle cx="271.5974975563546" cy="292.80445035952295" r="4" fill="#000000" fill-opacity="1"></circle><circle cx="242.95821419582018" cy="397.7631612204473" r="4" fill="#000000" fill-opacity="1"></circle><circle cx="467.0915352122025" cy="259.95380914565084" r="4" fill="#000000" fill-opacity="1"></circle><circle cx="189.3584425770864" cy="333.11972064034836" r="4" fill="#000000" fill-opacity="1"></circle><circle cx="254.5725091904135" cy="239.2665784420114" r="4" fill="#000000" fill-opacity="1"></circle><circle cx="255.14128955589882" cy="40.82104874156442" r="4" fill="#000000" fill-opacity="1"></circle><circle cx="295.03926801109674" cy="324.05521676329045" r="4" fill="#000000" fill-opacity="1"></circle><circle cx="83.23745697471902" cy="216.74712886890367" r="4" fill="#000000" fill-opacity="1"></circle><circle cx="443.9082331090916" cy="319.3434213654416" r="4" fill="#000000" fill-opacity="1"></circle><circle cx="75.27411096823197" cy="298.4927019760575" r="4" fill="#000000" fill-opacity="1"></circle><circle cx="473.21649198785724" cy="475.87650572873713" r="4" fill="#000000" fill-opacity="1"></circle><circle cx="112.137677787712" cy="375.0017325846639" r="4" fill="#000000" fill-opacity="1"></circle><circle cx="199.4515028290636" cy="482.9869374425355" r="4" fill="#000000" fill-opacity="1"></circle><circle cx="189.88898368764825" cy="418.49545364111833" r="4" fill="#000000" fill-opacity="1"></circle><circle cx="161.45472694215263" cy="196.1796897374624" r="4" fill="#000000" fill-opacity="1"></circle><circle cx="94.81550539023127" cy="252.75942781383105" r="4" fill="#000000" fill-opacity="1"></circle><circle cx="44.948448334262295" cy="202.5208712690264" r="4" fill="#000000" fill-opacity="1"></circle><circle cx="380.66567100157033" cy="232.62178589322681" r="4" fill="#000000" fill-opacity="1"></circle><circle cx="82.90849522983704" cy="133.31692822226304" r="4" fill="#000000" fill-opacity="1"></circle><circle cx="272.00255731124264" cy="468.76548855896374" r="4" fill="#000000" fill-opacity="1"></circle><circle cx="26.152149418735114" cy="313.13044588172096" r="4" fill="#000000" fill-opacity="1"></circle><circle cx="378.522320858009" cy="99.14476642738656" r="4" fill="#000000" fill-opacity="1"></circle><circle cx="279.36555206039844" cy="87.49848413005915" r="4" fill="#000000" fill-opacity="1"></circle><circle cx="261.02315924849074" cy="181.9102443600483" r="4" fill="#000000" fill-opacity="1"></circle><circle cx="276.7071848989149" cy="25.10879903359889" r="4" fill="#000000" fill-opacity="1"></circle><circle cx="469.69647818938597" cy="231.19756097862813" r="4" fill="#000000" fill-opacity="1"></circle><circle cx="104.71298293815525" cy="314.47237366047466" r="4" fill="#000000" fill-opacity="1"></circle><circle cx="225.3171478476557" cy="440.7992302535858" r="4" fill="#000000" fill-opacity="1"></circle><circle cx="186.83625588184378" cy="438.92700206820837" r="4" fill="#000000" fill-opacity="1"></circle><circle cx="421.99272183458135" cy="394.47900936347327" r="4" fill="#000000" fill-opacity="1"></circle><circle cx="231.63227366834116" cy="398.09409475347076" r="4" fill="#000000" fill-opacity="1"></circle><circle cx="105.7389803571481" cy="148.60470963282086" r="4" fill="#000000" fill-opacity="1"></circle><circle cx="244.86165168792274" cy="127.72564995527134" r="4" fill="#000000" fill-opacity="1"></circle><circle cx="398.973711963363" cy="440.0180587207992" r="4" fill="#000000" fill-opacity="1"></circle><circle cx="328.408376550529" cy="473.848070336953" r="4" fill="#000000" fill-opacity="1"></circle><circle cx="141.71913820902824" cy="163.86412021086693" r="4" fill="#000000" fill-opacity="1"></circle><circle cx="435.28451905156606" cy="48.8108468134302" r="4" fill="#000000" fill-opacity="1"></circle><circle cx="308.72862996716776" cy="138.8348120417303" r="4" fill="#000000" fill-opacity="1"></circle><circle cx="218.97975324331162" cy="421.07216319338636" r="4" fill="#000000" fill-opacity="1"></circle><circle cx="294.2022843491088" cy="110.01472862194237" r="4" fill="#000000" fill-opacity="1"></circle><circle cx="137.74408345559175" cy="344.8376468764443" r="4" fill="#000000" fill-opacity="1"></circle><circle cx="294.3072972345192" cy="178.58497102411087" r="4" fill="#000000" fill-opacity="1"></circle><circle cx="66.19851605119463" cy="433.55543920060626" r="4" fill="#000000" fill-opacity="1"></circle><circle cx="295.45862439994846" cy="190.1748645669621" r="4" fill="#000000" fill-opacity="1"></circle></svg>