<svg width="512" height="512" viewBox="0 0 512 512" xmlns="http://www.w3.org/2000/svg">
          <rect x="0" y="0" width="512" height="512" fill="#f8f8ff" fill-opacity="1"></rect>
        <circle cx="384.00079097139223" cy="372.89222797718236" r="4" fill="#000000" fill-opacity="1"></circle><circle cx="433.76078784042556" cy="471.76332507081787" r="4" fill="#000000" fill-opacity="1"></circle><circle cx="311.13315162043375" cy="214.9795208514368" r="4" fill="#000000" fill-opacity="1"></circle><circle cx="444.18753989126003" cy="197.42937982783087" r="4" fill="#000000" fill-opacity="1"></circle><circle cx="228.57480760225533" cy="330.7918724100192" r="4" fill="#000000" fill-opacity="1"></circle><circle cx="402.0813732562224" cy="417.97767483642343" r="4" fill="#000000" fill-opacity="1"></circle><circle cx="238.24391077709816" cy="30.41232029633706" r="4" fill="#000000" fill-opacity="1"></circle><circle cx="96.48331321231575" cy="64.60879454192718" r="4" fill="#000000" fill-opacity="1"></circle><circle cx="166.40141752535365" cy="150.01870409953295" r="4" fill="#000000" fill-opacity="1"></circle><circle cx="294.6420496549275" cy="312.10969133712143" r="4" fill="#000000" fill-opacity="1"></circle><circle cx="227.9363116228974" cy="396.7679463610991" r="4" fill="#000000" fill-opacity="1"></circle><circle cx="471.9991500544816" cy="393.0942045539118" r="4" fill="#000000" fill-opacity="1"></circle><circle cx="148.84160545941634" cy="270.2763156484689" r="4" fill="#000000" fill-opacity="1"></circle><circle cx="143.86873746608208" cy="392.28459299780945" r="4" fill="#000000" fill-opacity="1"></circle><circle cx="247.3724793139053" cy="163.10600018767295" r="4" fill="#000000" fill-opacity="1"></circle><circle cx="166.111520406732" cy="306.63752622521247" r="4" fill="#000000" fill-opacity="1"></circle><circle cx="384.3764232371175" cy="161.97971902407122" r="4" fill="#000000" fill-opacity="1"></circle><circle cx="435.8234424222253" cy="235.8400228834943" r="4" fill="#000000" fill-opacity="1"></circle><circle cx="52.83000038284776" cy="248.6791441104607" r="4" fill="#000000" fill-opacity="1"></circle><circle cx="302.7994784025623" cy="399.19901488217397" r="4" fill="#000000" fill-opacity="1"></circle><circle cx="204.85601618999772" cy="324.071689703017" r="4" fill="#000000" fill-opacity="1"></circle><circle cx="476.72001112666885" cy="460.04755703269046" r="4" fill="#000000" fill-opacity="1"></circle><circle cx="293.23449684806104" cy="99.13435892263777" r="4" fill="#000000" fill-opacity="1"></circle><circle cx="430.7044326863997" cy="259.6893861975852" r="4" fill="#000000" fill-opacity="1"></circle><circle cx="382.500924713436" cy="480.5825525581099" r="4" fill="#000000" fill-opacity="1"></circle><circle cx="301.9839820358385" cy="66.76734785912426" r="4" fill="#000000" fill-opacity="1"></circle><circle cx="295.06577509319266" cy="459.82042877092124" r="4" fill="#000000" fill-opacity="1"></circle><circle cx="365.16727384376543" cy="416.0291018814194" r="4" fill="#000000" fill-opacity="1"></circle><circle cx="377.0927694116178" cy="178.1239700541749" r="4" fill="#000000" fill-opacity="1"></circle><circle cx="419.6473937714817" cy="61.221995634604596" r="4" fill="#000000" fill-opacity="1"></circle></svg>