<svg width="512" height="512" viewBox="0 0 512 512" xmlns="http://www.w3.org/2000/svg">
          <rect x="0" y="0" width="512" height="512" fill="#f8f8ff" fill-opacity="1"></rect>
        <circle cx="190.04248238971638" cy="340.3339258464444" r="4" fill="#000000" fill-opacity="1"></circle><circle cx="134.74811869958654" cy="282.7351004149344" r="4" fill="#000000" fill-opacity="1"></circle><circle cx="412.4066362490463" cy="240.97132749911503" r="4" fill="#000000" fill-opacity="1"></circle><circle cx="54.7537404156536" cy="429.72612936510035" r="4" fill="#000000" fill-opacity="1"></circle><circle cx="48.002557723852014" cy="135.14212256448855" r="4" fill="#000000" fill-opacity="1"></circle><circle cx="299.2177181230249" cy="419.0086461497839" r="4" fill="#000000" fill-opacity="1"></circle><circle cx="309.56786152807496" cy="459.00507246861076" r="4" fill="#000000" fill-opacity="1"></circle><circle cx="108.1376165236793" cy="366.1438563905815" r="4" fill="#000000" fill-opacity="1"></circle><circle cx="471.37987019129514" cy="453.5887545141457" r="4" fill="#000000" fill-opacity="1"></circle><circle cx="210.81474711388535" cy="415.00839731170646" r="4" fill="#000000" fill-opacity="1"></circle><circle cx="326.39716634341573" cy="299.6017159231514" r="4" fill="#000000" fill-opacity="1"></circle><circle cx="429.7583856404603" cy="415.3000189474254" r="4" fill="#000000" fill-opacity="1"></circle><circle cx="317.5476536452795" cy="166.2243449911628" r="4" fill="#000000" fill-opacity="1"></circle><circle cx="288.08129147422017" cy="320.19469746023475" r="4" fill="#000000" fill-opacity="1"></circle><circle cx="408.678781807252" cy="46.172342266491505" r="4" fill="#000000" fill-opacity="1"></circle><circle cx="58.39899062178904" cy="160.82153265566433" r="4" fill="#000000" fill-opacity="1"></circle><circle cx="273.3174182274188" cy="178.87895424461436" r="4" fill="#000000" fill-opacity="1"></circle><circle cx="256.9615830906271" cy="193.21212670090017" r="4" fill="#000000" fill-opacity="1"></circle><circle cx="249.8720059728566" cy="25.059363887209006" r="4" fill="#000000" fill-opacity="1"></circle><circle cx="132.53838757802424" cy="472.65436214884716" r="4" fill="#000000" fill-opacity="1"></circle><circle cx="418.76541414860145" cy="124.45602579161394" r="4" fill="#000000" fill-opacity="1"></circle><circle cx="421.40601368855295" cy="398.4197062212914" r="4" fill="#000000" fill-opacity="1"></circle><circle cx="363.87288236401446" cy="96.88522062319282" r="4" fill="#000000" fill-opacity="1"></circle><circle cx="448.847415544383" cy="225.08227645049487" r="4" fill="#000000" fill-opacity="1"></circle><circle cx="230.74464021142532" cy="84.54917330001696" r="4" fill="#000000" fill-opacity="1"></circle><circle cx="305.6402409904896" cy="142.05366411550602" r="4" fill="#000000" fill-opacity="1"></circle><circle cx="81.79759671825678" cy="466.0285084012954" r="4" fill="#000000" fill-opacity="1"></circle><circle cx="89.56643424433089" cy="209.6225397572015" r="4" fill="#000000" fill-opacity="1"></circle><circle cx="221.22366195092914" cy="335.71081784871393" r="4" fill="#000000" fill-opacity="1"></circle><circle cx="367.1392209527181" cy="75.26380583482506" r="4" fill="#000000" fill-opacity="1"></circle><circle cx="337.1226531379446" cy="458.25135760425115" r="4" fill="#000000" fill-opacity="1"></circle><circle cx="53.89011654096968" cy="56.142555230142015" r="4" fill="#000000" fill-opacity="1"></circle><circle cx="61.74462011033858" cy="137.3650623017864" r="4" fill="#000000" fill-opacity="1"></circle><circle cx="237.2771966350077" cy="121.78022073136434" r="4" fill="#000000" fill-opacity="1"></circle><circle cx="473.3146301538411" cy="159.67191600247327" r="4" fill="#000000" fill-opacity="1"></circle><circle cx="133.84865700958088" cy="347.0396142157524" r="4" fill="#000000" fill-opacity="1"></circle><circle cx="413.9367049025134" cy="96.96890595099873" r="4" fill="#000000" fill-opacity="1"></circle><circle cx="404.9681170148892" cy="317.3026549902373" r="4" fill="#000000" fill-opacity="1"></circle><circle cx="333.70556375320854" cy="196.21976570122456" r="4" fill="#000000" fill-opacity="1"></circle><circle cx="323.1980345752927" cy="430.528190587232" r="4" fill="#000000" fill-opacity="1"></circle><circle cx="472.0286545006477" cy="334.3955332232806" r="4" fill="#000000" fill-opacity="1"></circle><circle cx="458.7670600034236" cy="438.48252133742875" r="4" fill="#000000" fill-opacity="1"></circle><circle cx="254.8429854599182" cy="56.244862857474914" r="4" fill="#000000" fill-opacity="1"></circle><circle cx="331.22117148023125" cy="71.34855535421076" r="4" fill="#000000" fill-opacity="1"></circle><circle cx="41.43301786640071" cy="159.05881516079356" r="4" fill="#000000" fill-opacity="1"></circle><circle cx="140.37259150094843" cy="164.48316931561808" r="4" fill="#000000" fill-opacity="1"></circle><circle cx="54.942547311522716" cy="373.17256106514355" r="4" fill="#000000" fill-opacity="1"></circle><circle cx="244.36365136550748" cy="135.801376387821" r="4" fill="#000000" fill-opacity="1"></circle><circle cx="65.95971377394815" cy="87.17000759662734" r="4" fill="#000000" fill-opacity="1"></circle><circle cx="308.67753245520237" cy="310.5569874421292" r="4" fill="#000000" fill-opacity="1"></circle><circle cx="402.1315860154599" cy="328.4534214988787" r="4" fill="#000000" fill-opacity="1"></circle><circle cx="480.57938941313284" cy="375.0121095018202" r="4" fill="#000000" fill-opacity="1"></circle><circle cx="200.31420957996528" cy="430.4231593015272" r="4" fill="#000000" fill-opacity="1"></circle><circle cx="376.88089881938043" cy="199.93359500643285" r="4" fill="#000000" fill-opacity="1"></circle><circle cx="412.7259003964915" cy="299.11016269200616" r="4" fill="#000000" fill-opacity="1"></circle><circle cx="55.787576842965805" cy="250.51421051368578" r="4" fill="#000000" fill-opacity="1"></circle><circle cx="153.8776814531601" cy="208.8710379134941" r="4" fill="#000000" fill-opacity="1"></circle><circle cx="25.732856605558506" cy="253.39907288980137" r="4" fill="#000000" fill-opacity="1"></circle><circle cx="268.91599700388826" cy="394.28195784627087" r="4" fill="#000000" fill-opacity="1"></circle><circle cx="210.668039634773" cy="401.6725786653937" r="4" fill="#000000" fill-opacity="1"></circle><circle cx="137.82119074946678" cy="189.53414648393775" r="4" fill="#000000" fill-opacity="1"></circle><circle cx="418.25585042900974" cy="173.2058880244372" r="4" fill="#000000" fill-opacity="1"></circle><circle cx="477.2843263370629" cy="169.6060640361685" r="4" fill="#000000" fill-opacity="1"></circle><circle cx="172.42863751891974" cy="306.1634930765616" r="4" fill="#000000" fill-opacity="1"></circle><circle cx="280.72292928107856" cy="294.68037582292686" r="4" fill="#000000" fill-opacity="1"></circle><circle cx="33.04198489412684" cy="340.1341862148303" r="4" fill="#000000" fill-opacity="1"></circle><circle cx="149.82548558519125" cy="176.42267350721832" r="4" fill="#000000" fill-opacity="1"></circle><circle cx="184.90535612105478" cy="160.93425765918548" r="4" fill="#000000" fill-opacity="1"></circle><circle cx="376.7315287988712" cy="448.0173816187614" r="4" fill="#000000" fill-opacity="1"></circle><circle cx="468.9850602228855" cy="254.4568963093602" r="4" fill="#000000" fill-opacity="1"></circle><circle cx="482.55074387961605" cy="267.2289498708865" r="4" fill="#000000" fill-opacity="1"></circle><circle cx="405.53067626721526" cy="446.39456802919494" r="4" fill="#000000" fill-opacity="1"></circle><circle cx="237.85587863281026" cy="425.82802275361263" r="4" fill="#000000" fill-opacity="1"></circle><circle cx="345.72019371773246" cy="244.66042984245644" r="4" fill="#000000" fill-opacity="1"></circle><circle cx="462.1756961467484" cy="91.4334769459527" r="4" fill="#000000" fill-opacity="1"></circle><circle cx="473.44248193044086" cy="412.35528470967665" r="4" fill="#000000" fill-opacity="1"></circle><circle cx="270.06400271804375" cy="40.01532196194339" r="4" fill="#000000" fill-opacity="1"></circle><circle cx="224.10894306067837" cy="403.8653693140276" r="4" fill="#000000" fill-opacity="1"></circle><circle cx="24.81353129212479" cy="139.48724364676076" r="4" fill="#000000" fill-opacity="1"></circle><circle cx="448.5270066092659" cy="166.84414975594606" r="4" fill="#000000" fill-opacity="1"></circle><circle cx="389.5358836904682" cy="110.11087824055691" r="4" fill="#000000" fill-opacity="1"></circle><circle cx="264.42398041068554" cy="94.692204550108" r="4" fill="#000000" fill-opacity="1"></circle><circle cx="324.37198389607624" cy="279.6795459247997" r="4" fill="#000000" fill-opacity="1"></circle><circle cx="34.04243681469306" cy="278.9304933161102" r="4" fill="#000000" fill-opacity="1"></circle><circle cx="397.7849408196755" cy="342.0023688359724" r="4" fill="#000000" fill-opacity="1"></circle><circle cx="366.4815142047265" cy="264.89969092253546" r="4" fill="#000000" fill-opacity="1"></circle><circle cx="192.23689350123058" cy="406.0716614574716" r="4" fill="#000000" fill-opacity="1"></circle><circle cx="24.019722173123693" cy="82.20946790237353" r="4" fill="#000000" fill-opacity="1"></circle><circle cx="254.04215766238977" cy="367.7057051728367" r="4" fill="#000000" fill-opacity="1"></circle><circle cx="126.16901100631082" cy="201.77240423626313" r="4" fill="#000000" fill-opacity="1"></circle><circle cx="152.8507906466679" cy="89.62966945147694" r="4" fill="#000000" fill-opacity="1"></circle><circle cx="341.9181696866171" cy="157.9181545877111" r="4" fill="#000000" fill-opacity="1"></circle><circle cx="106.13780038881818" cy="248.5791445714261" r="4" fill="#000000" fill-opacity="1"></circle><circle cx="246.43902776926006" cy="417.7092523842291" r="4" fill="#000000" fill-opacity="1"></circle><circle cx="211.40119415170605" cy="236.9593280689707" r="4" fill="#000000" fill-opacity="1"></circle><circle cx="373.1237866360547" cy="457.5127607085131" r="4" fill="#000000" fill-opacity="1"></circle><circle cx="249.1089448162753" cy="171.91991049709327" r="4" fill="#000000" fill-opacity="1"></circle><circle cx="162.7922859491503" cy="235.6561374355805" r="4" fill="#000000" fill-opacity="1"></circle><circle cx="183.21754004842273" cy="255.16340921176192" r="4" fill="#000000" fill-opacity="1"></circle><circle cx="129.29987319661726" cy="328.3079812889595" r="4" fill="#000000" fill-opacity="1"></circle><circle cx="226.62303817432422" cy="66.51796398546821" r="4" fill="#000000" fill-opacity="1"></circle><circle cx="448.1094330886829" cy="319.0272072922029" r="4" fill="#000000" fill-opacity="1"></circle><circle cx="240.67368874698008" cy="194.72074208230663" r="4" fill="#000000" fill-opacity="1"></circle><circle cx="355.16017917240043" cy="276.045548011946" r="4" fill="#000000" fill-opacity="1"></circle><circle cx="145.59572286562536" cy="35.77493358850255" r="4" fill="#000000" fill-opacity="1"></circle><circle cx="316.08740017583983" cy="361.4286200261212" r="4" fill="#000000" fill-opacity="1"></circle><circle cx="349.33659569173665" cy="372.06393015047723" r="4" fill="#000000" fill-opacity="1"></circle><circle cx="87.83698863556279" cy="486.9400963064053" r="4" fill="#000000" fill-opacity="1"></circle><circle cx="337.4651964174174" cy="128.07409787865362" r="4" fill="#000000" fill-opacity="1"></circle><circle cx="479.2445669937941" cy="315.53379853982005" r="4" fill="#000000" fill-opacity="1"></circle><circle cx="468.73685986988204" cy="429.91269051397745" r="4" fill="#000000" fill-opacity="1"></circle><circle cx="285.9123628400431" cy="411.657616519947" r="4" fill="#000000" fill-opacity="1"></circle><circle cx="414.0478412169091" cy="481.8649459997624" r="4" fill="#000000" fill-opacity="1"></circle><circle cx="326.5683860802847" cy="267.7871056161032" r="4" fill="#000000" fill-opacity="1"></circle><circle cx="411.1234032909996" cy="458.684921998279" r="4" fill="#000000" fill-opacity="1"></circle><circle cx="356.0845127653118" cy="62.230447453684306" r="4" fill="#000000" fill-opacity="1"></circle><circle cx="48.78003479509967" cy="83.61377217500413" r="4" fill="#000000" fill-opacity="1"></circle><circle cx="213.0695740265703" cy="205.37590228320295" r="4" fill="#000000" fill-opacity="1"></circle><circle cx="193.67193274230866" cy="125.39037254646604" r="4" fill="#000000" fill-opacity="1"></circle><circle cx="141.9850309802751" cy="116.27904263265249" r="4" fill="#000000" fill-opacity="1"></circle><circle cx="200.77987497856702" cy="89.2687216273961" r="4" fill="#000000" fill-opacity="1"></circle><circle cx="369.92454046141916" cy="249.39389441023096" r="4" fill="#000000" fill-opacity="1"></circle><circle cx="397.0382570928992" cy="436.2049873183625" r="4" fill="#000000" fill-opacity="1"></circle><circle cx="201.2284774858247" cy="207.90845349426476" r="4" fill="#000000" fill-opacity="1"></circle><circle cx="385.2623561663111" cy="162.14260858276566" r="4" fill="#000000" fill-opacity="1"></circle><circle cx="93.16554190185435" cy="122.65847486846012" r="4" fill="#000000" fill-opacity="1"></circle><circle cx="316.83884803591087" cy="185.60855375860527" r="4" fill="#000000" fill-opacity="1"></circle><circle cx="369.13236241023293" cy="184.22962122497376" r="4" fill="#000000" fill-opacity="1"></circle><circle cx="152.65152594468725" cy="364.2851289886906" r="4" fill="#000000" fill-opacity="1"></circle><circle cx="449.296592150405" cy="50.05537188758407" r="4" fill="#000000" fill-opacity="1"></circle><circle cx="95.77875433049915" cy="176.6832496523526" r="4" fill="#000000" fill-opacity="1"></circle><circle cx="309.3508740418095" cy="67.16346780047786" r="4" fill="#000000" fill-opacity="1"></circle><circle cx="431.38152325213304" cy="346.0306759152703" r="4" fill="#000000" fill-opacity="1"></circle><circle cx="156.06730253400966" cy="410.9189777159204" r="4" fill="#000000" fill-opacity="1"></circle><circle cx="305.329339493939" cy="265.50936326202736" r="4" fill="#000000" fill-opacity="1"></circle><circle cx="220.6026210092341" cy="425.8972721136498" r="4" fill="#000000" fill-opacity="1"></circle><circle cx="31.147819876816055" cy="447.81083355094586" r="4" fill="#000000" fill-opacity="1"></circle><circle cx="141.16830504927472" cy="430.62073952539674" r="4" fill="#000000" fill-opacity="1"></circle><circle cx="178.18794794937136" cy="211.5802437095492" r="4" fill="#000000" fill-opacity="1"></circle><circle cx="396.3235528732845" cy="389.5911946990458" r="4" fill="#000000" fill-opacity="1"></circle><circle cx="77.99483841251367" cy="256.4764300213627" r="4" fill="#000000" fill-opacity="1"></circle><circle cx="163.94580964508322" cy="436.7685094881282" r="4" fill="#000000" fill-opacity="1"></circle><circle cx="144.1156784500514" cy="442.72396667689947" r="4" fill="#000000" fill-opacity="1"></circle><circle cx="376.69356110197634" cy="322.37382434693563" r="4" fill="#000000" fill-opacity="1"></circle><circle cx="458.3308517348469" cy="400.8910065554279" r="4" fill="#000000" fill-opacity="1"></circle><circle cx="413.035235922051" cy="61.00612063721374" r="4" fill="#000000" fill-opacity="1"></circle><circle cx="345.3690301656651" cy="394.74765008788785" r="4" fill="#000000" fill-opacity="1"></circle><circle cx="444.9000597933831" cy="443.8868688572782" r="4" fill="#000000" fill-opacity="1"></circle><circle cx="294.5509482185672" cy="35.04290056473893" r="4" fill="#000000" fill-opacity="1"></circle><circle cx="391.37553822090376" cy="417.69383324396017" r="4" fill="#000000" fill-opacity="1"></circle><circle cx="281.8961389080795" cy="86.717072211885" r="4" fill="#000000" fill-opacity="1"></circle><circle cx="319.46504934558993" cy="82.4772211745933" r="4" fill="#000000" fill-opacity="1"></circle><circle cx="255.0387126390251" cy="154.26276744863435" r="4" fill="#000000" fill-opacity="1"></circle><circle cx="227.01954122368895" cy="438.2039755672755" r="4" fill="#000000" fill-opacity="1"></circle><circle cx="269.45176555337355" cy="206.8697906442003" r="4" fill="#000000" fill-opacity="1"></circle><circle cx="450.40030669678464" cy="366.4643856358836" r="4" fill="#000000" fill-opacity="1"></circle><circle cx="168.52614931264222" cy="91.25955569761793" r="4" fill="#000000" fill-opacity="1"></circle><circle cx="388.0463131078561" cy="276.1533539842311" r="4" fill="#000000" fill-opacity="1"></circle><circle cx="160.9476238188977" cy="402.14708024160694" r="4" fill="#000000" fill-opacity="1"></circle><circle cx="190.22340549071177" cy="60.83806808887536" r="4" fill="#000000" fill-opacity="1"></circle><circle cx="158.2818692643789" cy="344.51529889299326" r="4" fill="#000000" fill-opacity="1"></circle><circle cx="480.8589682986772" cy="40.34221823578285" r="4" fill="#000000" fill-opacity="1"></circle><circle cx="105.19200452275606" cy="343.7184390154878" r="4" fill="#000000" fill-opacity="1"></circle><circle cx="330.93196318527515" cy="145.90679596898897" r="4" fill="#000000" fill-opacity="1"></circle><circle cx="386.72197886663747" cy="229.0018355410306" r="4" fill="#000000" fill-opacity="1"></circle><circle cx="367.5135545950059" cy="39.363093003537166" r="4" fill="#000000" fill-opacity="1"></circle><circle cx="82.97550032247872" cy="168.77487199593577" r="4" fill="#000000" fill-opacity="1"></circle><circle cx="290.61560744634704" cy="179.32494078218733" r="4" fill="#000000" fill-opacity="1"></circle><circle cx="326.1640606644354" cy="338.422140470987" r="4" fill="#000000" fill-opacity="1"></circle><circle cx="34.63046377929313" cy="378.17512361820474" r="4" fill="#000000" fill-opacity="1"></circle><circle cx="207.78750854686234" cy="326.5578649118869" r="4" fill="#000000" fill-opacity="1"></circle><circle cx="243.17674680584997" cy="260.15431109508467" r="4" fill="#000000" fill-opacity="1"></circle><circle cx="168.10927680968967" cy="118.10867460181959" r="4" fill="#000000" fill-opacity="1"></circle><circle cx="279.846972144759" cy="463.1373818805522" r="4" fill="#000000" fill-opacity="1"></circle><circle cx="164.4719691529872" cy="325.13088404961167" r="4" fill="#000000" fill-opacity="1"></circle><circle cx="73.65004019297227" cy="79.31862173517351" r="4" fill="#000000" fill-opacity="1"></circle><circle cx="164.57325211607278" cy="81.27867827195615" r="4" fill="#000000" fill-opacity="1"></circle><circle cx="359.6638996841679" cy="137.54639859241468" r="4" fill="#000000" fill-opacity="1"></circle><circle cx="359.2539924251654" cy="251.72440632383766" r="4" fill="#000000" fill-opacity="1"></circle><circle cx="198.89350836132994" cy="487.4660008441006" r="4" fill="#000000" fill-opacity="1"></circle><circle cx="239.27806739841645" cy="330.3241227646671" r="4" fill="#000000" fill-opacity="1"></circle><circle cx="440.8015014508358" cy="24.99001057800368" r="4" fill="#000000" fill-opacity="1"></circle><circle cx="287.77276087011853" cy="348.2298623474308" r="4" fill="#000000" fill-opacity="1"></circle><circle cx="240.8268293854674" cy="348.16403389600765" r="4" fill="#000000" fill-opacity="1"></circle><circle cx="176.92568100514995" cy="428.7560759578969" r="4" fill="#000000" fill-opacity="1"></circle><circle cx="68.28444726884584" cy="222.10929138835218" r="4" fill="#000000" fill-opacity="1"></circle><circle cx="298.2672303239467" cy="276.68054552509" r="4" fill="#000000" fill-opacity="1"></circle><circle cx="437.6499120604904" cy="470.8459442678974" r="4" fill="#000000" fill-opacity="1"></circle><circle cx="273.3543559529187" cy="68.60180420939967" r="4" fill="#000000" fill-opacity="1"></circle><circle cx="187.0298495618736" cy="30.70141901738118" r="4" fill="#000000" fill-opacity="1"></circle><circle cx="180.58433795040793" cy="332.5897406647557" r="4" fill="#000000" fill-opacity="1"></circle><circle cx="60.623634889300874" cy="344.99260281970123" r="4" fill="#000000" fill-opacity="1"></circle><circle cx="66.93861052260897" cy="115.76536706809691" r="4" fill="#000000" fill-opacity="1"></circle><circle cx="462.6069586189219" cy="125.4587339671166" r="4" fill="#000000" fill-opacity="1"></circle><circle cx="212.28539614793803" cy="36.23465811653263" r="4" fill="#000000" fill-opacity="1"></circle><circle cx="279.80913684056634" cy="124.0320861623501" r="4" fill="#000000" fill-opacity="1"></circle><circle cx="418.3125961852638" cy="424.2480013198083" r="4" fill="#000000" fill-opacity="1"></circle><circle cx="25.805739632419947" cy="322.3543231932608" r="4" fill="#000000" fill-opacity="1"></circle><circle cx="72.3818104128868" cy="30.73607154800893" r="4" fill="#000000" fill-opacity="1"></circle><circle cx="71.40833311729578" cy="382.21466363137637" r="4" fill="#000000" fill-opacity="1"></circle><circle cx="243.2027949754631" cy="205.6820423723576" r="4" fill="#000000" fill-opacity="1"></circle><circle cx="189.5409261904407" cy="383.74723094075955" r="4" fill="#000000" fill-opacity="1"></circle><circle cx="139.4651655148877" cy="231.81003166931447" r="4" fill="#000000" fill-opacity="1"></circle><circle cx="24.01646947468879" cy="190.1291069675023" r="4" fill="#000000" fill-opacity="1"></circle><circle cx="396.94744506469806" cy="217.49566893134352" r="4" fill="#000000" fill-opacity="1"></circle><circle cx="412.239680574863" cy="150.86882841394365" r="4" fill="#000000" fill-opacity="1"></circle><circle cx="102.20785512473196" cy="225.00026517270325" r="4" fill="#000000" fill-opacity="1"></circle><circle cx="182.69381537135087" cy="231.58088226477182" r="4" fill="#000000" fill-opacity="1"></circle><circle cx="329.74817095704867" cy="35.255822988833756" r="4" fill="#000000" fill-opacity="1"></circle><circle cx="410.1691838922143" cy="116.18401846930685" r="4" fill="#000000" fill-opacity="1"></circle><circle cx="337.76734061191667" cy="86.48521517263127" r="4" fill="#000000" fill-opacity="1"></circle><circle cx="345.60706287317055" cy="51.99745326258501" r="4" fill="#000000" fill-opacity="1"></circle><circle cx="42.51648981897126" cy="450.48205369045706" r="4" fill="#000000" fill-opacity="1"></circle><circle cx="437.2238374453938" cy="76.19694008051661" r="4" fill="#000000" fill-opacity="1"></circle><circle cx="156.34550598247807" cy="448.6427167780658" r="4" fill="#000000" fill-opacity="1"></circle><circle cx="248.48725421061616" cy="487.8453684134513" r="4" fill="#000000" fill-opacity="1"></circle><circle cx="309.0582769098183" cy="474.53311628862036" r="4" fill="#000000" fill-opacity="1"></circle><circle cx="228.19743275326041" cy="291.6115986292645" r="4" fill="#000000" fill-opacity="1"></circle><circle cx="367.0481141668914" cy="443.9990726636047" r="4" fill="#000000" fill-opacity="1"></circle><circle cx="266.36511815392595" cy="233.1920726027427" r="4" fill="#000000" fill-opacity="1"></circle><circle cx="202.04242490433037" cy="62.91891378610289" r="4" fill="#000000" fill-opacity="1"></circle><circle cx="455.3748121820082" cy="349.23413582958375" r="4" fill="#000000" fill-opacity="1"></circle><circle cx="253.2106222826573" cy="254.55979573513667" r="4" fill="#000000" fill-opacity="1"></circle><circle cx="103.03497668092355" cy="100.90665695041744" r="4" fill="#000000" fill-opacity="1"></circle><circle cx="224.98363987749673" cy="213.23639313870598" r="4" fill="#000000" fill-opacity="1"></circle><circle cx="291.0720843736452" cy="107.68651416868032" r="4" fill="#000000" fill-opacity="1"></circle><circle cx="471.66998207016877" cy="298.6563815902141" r="4" fill="#000000" fill-opacity="1"></circle><circle cx="292.4150352279534" cy="247.94232004886754" r="4" fill="#000000" fill-opacity="1"></circle><circle cx="165.3740394521187" cy="65.15152304228336" r="4" fill="#000000" fill-opacity="1"></circle><circle cx="286.6723252682487" cy="276.8801490220883" r="4" fill="#000000" fill-opacity="1"></circle><circle cx="486.41715404630946" cy="66.87868923327194" r="4" fill="#000000" fill-opacity="1"></circle><circle cx="30.07064394195735" cy="157.51190956657092" r="4" fill="#000000" fill-opacity="1"></circle><circle cx="319.4374395146765" cy="107.42703695787503" r="4" fill="#000000" fill-opacity="1"></circle><circle cx="212.3022826303187" cy="121.47961345669559" r="4" fill="#000000" fill-opacity="1"></circle><circle cx="133.4984655223181" cy="253.0244571517502" r="4" fill="#000000" fill-opacity="1"></circle><circle cx="82.93862949834855" cy="92.01009554630603" r="4" fill="#000000" fill-opacity="1"></circle><circle cx="383.37810122423787" cy="31.943174824176" r="4" fill="#000000" fill-opacity="1"></circle><circle cx="101.557912481227" cy="413.9582888025598" r="4" fill="#000000" fill-opacity="1"></circle><circle cx="437.0490539653817" cy="182.00374663920906" r="4" fill="#000000" fill-opacity="1"></circle><circle cx="133.9356106802334" cy="263.0626494028054" r="4" fill="#000000" fill-opacity="1"></circle><circle cx="307.0525150507116" cy="94.42566006847069" r="4" fill="#000000" fill-opacity="1"></circle><circle cx="243.39003601253782" cy="247.7866194756978" r="4" fill="#000000" fill-opacity="1"></circle><circle cx="39.63270422593588" cy="212.62147363430725" r="4" fill="#000000" fill-opacity="1"></circle><circle cx="264.9609751498806" cy="344.59011566244527" r="4" fill="#000000" fill-opacity="1"></circle><circle cx="73.30755489493977" cy="302.84822400963594" r="4" fill="#000000" fill-opacity="1"></circle><circle cx="327.0902982430135" cy="483.0702060013401" r="4" fill="#000000" fill-opacity="1"></circle><circle cx="48.384416314163545" cy="124.74667857463815" r="4" fill="#000000" fill-opacity="1"></circle><circle cx="222.81298235194018" cy="257.8832375115139" r="4" fill="#000000" fill-opacity="1"></circle><circle cx="353.70089363831363" cy="458.40615050897514" r="4" fill="#000000" fill-opacity="1"></circle><circle cx="249.7567622986627" cy="229.55258299770628" r="4" fill="#000000" fill-opacity="1"></circle><circle cx="462.7272739214253" cy="142.65119931026123" r="4" fill="#000000" fill-opacity="1"></circle><circle cx="308.4304699049168" cy="226.91662963602823" r="4" fill="#000000" fill-opacity="1"></circle><circle cx="112.33789096621825" cy="425.85537716698235" r="4" fill="#000000" fill-opacity="1"></circle><circle cx="439.5781859127199" cy="295.26626135820936" r="4" fill="#000000" fill-opacity="1"></circle><circle cx="105.40819630775754" cy="486.88805569650424" r="4" fill="#000000" fill-opacity="1"></circle><circle cx="403.74229227606867" cy="195.97530821690108" r="4" fill="#000000" fill-opacity="1"></circle><circle cx="375.28181076680266" cy="227.69129430618767" r="4" fill="#000000" fill-opacity="1"></circle><circle cx="424.3643920528607" cy="302.07693883750665" r="4" fill="#000000" fill-opacity="1"></circle><circle cx="248.57793518027114" cy="107.03291386644929" r="4" fill="#000000" fill-opacity="1"></circle><circle cx="152.05394721154335" cy="188.73705599241157" r="4" fill="#000000" fill-opacity="1"></circle><circle cx="390.95728733777145" cy="82.39431001488396" r="4" fill="#000000" fill-opacity="1"></circle><circle cx="41.69283251153861" cy="465.86329788579764" r="4" fill="#000000" fill-opacity="1"></circle><circle cx="458.0590733125448" cy="275.33688736613084" r="4" fill="#000000" fill-opacity="1"></circle><circle cx="430.9741585156153" cy="114.91267708965437" r="4" fill="#000000" fill-opacity="1"></circle><circle cx="436.5556098511542" cy="200.4309941057665" r="4" fill="#000000" fill-opacity="1"></circle><circle cx="163.45593941469218" cy="134.58941126389752" r="4" fill="#000000" fill-opacity="1"></circle><circle cx="303.663247500644" cy="397.51485430793747" r="4" fill="#000000" fill-opacity="1"></circle><circle cx="344.9649924742304" cy="486.5828504981274" r="4" fill="#000000" fill-opacity="1"></circle><circle cx="486.1750374507322" cy="143.61367468753843" r="4" fill="#000000" fill-opacity="1"></circle><circle cx="265.44384116008496" cy="170.7035098874085" r="4" fill="#000000" fill-opacity="1"></circle><circle cx="100.86354057968526" cy="290.8916711625392" r="4" fill="#000000" fill-opacity="1"></circle><circle cx="92.53148417325555" cy="352.7121533088681" r="4" fill="#000000" fill-opacity="1"></circle><circle cx="121.92691968921528" cy="176.39618375306762" r="4" fill="#000000" fill-opacity="1"></circle><circle cx="111.69096315495668" cy="173.47159804038552" r="4" fill="#000000" fill-opacity="1"></circle><circle cx="196.90354149071774" cy="110.88412659369236" r="4" fill="#000000" fill-opacity="1"></circle><circle cx="199.76167080522407" cy="346.00593539873" r="4" fill="#000000" fill-opacity="1"></circle><circle cx="289.26576155583024" cy="162.73266149079626" r="4" fill="#000000" fill-opacity="1"></circle><circle cx="161.23550972877104" cy="173.58293096842402" r="4" fill="#000000" fill-opacity="1"></circle><circle cx="360.1140313975789" cy="155.33233213996957" r="4" fill="#000000" fill-opacity="1"></circle><circle cx="281.3023686504881" cy="188.9005365849356" r="4" fill="#000000" fill-opacity="1"></circle><circle cx="207.4123857298427" cy="451.10957158967375" r="4" fill="#000000" fill-opacity="1"></circle><circle cx="324.9318375171848" cy="401.5433270555148" r="4" fill="#000000" fill-opacity="1"></circle><circle cx="142.90007844603343" cy="357.44286979668925" r="4" fill="#000000" fill-opacity="1"></circle><circle cx="462.1763017087117" cy="183.75173646484484" r="4" fill="#000000" fill-opacity="1"></circle><circle cx="86.58949691761298" cy="374.0213217014867" r="4" fill="#000000" fill-opacity="1"></circle><circle cx="235.82263972993795" cy="466.3833741305845" r="4" fill="#000000" fill-opacity="1"></circle><circle cx="63.21769128475631" cy="403.7681550255587" r="4" fill="#000000" fill-opacity="1"></circle><circle cx="467.4563365174076" cy="207.64704544484874" r="4" fill="#000000" fill-opacity="1"></circle><circle cx="313.29138685204043" cy="384.2894245213613" r="4" fill="#000000" fill-opacity="1"></circle><circle cx="478.3221770730943" cy="354.06375824798505" r="4" fill="#000000" fill-opacity="1"></circle><circle cx="400.65632998509125" cy="123.82683634691332" r="4" fill="#000000" fill-opacity="1"></circle><circle cx="332.69894085108007" cy="116.2998310314063" r="4" fill="#000000" fill-opacity="1"></circle><circle cx="430.05998549297124" cy="330.83722688830727" r="4" fill="#000000" fill-opacity="1"></circle><circle cx="328.9091444834645" cy="311.4728338523058" r="4" fill="#000000" fill-opacity="1"></circle><circle cx="41.95447574411138" cy="94.58404645899876" r="4" fill="#000000" fill-opacity="1"></circle><circle cx="454.82041750059716" cy="103.57957353403054" r="4" fill="#000000" fill-opacity="1"></circle><circle cx="312.5353898390673" cy="336.2198083066729" r="4" fill="#000000" fill-opacity="1"></circle><circle cx="172.94887929966222" cy="155.7776064195633" r="4" fill="#000000" fill-opacity="1"></circle><circle cx="467.23606294466543" cy="265.99199398093987" r="4" fill="#000000" fill-opacity="1"></circle><circle cx="402.8176786971778" cy="398.2755309242735" r="4" fill="#000000" fill-opacity="1"></circle></svg>