<svg width="512" height="512" viewBox="0 0 512 512" xmlns="http://www.w3.org/2000/svg">
          <rect x="0" y="0" width="512" height="512" fill="#f8f8ff" fill-opacity="1"></rect>
        <circle cx="271.15768649392334" cy="396.4269638858986" r="4" fill="#000000" fill-opacity="1"></circle><circle cx="126.78135533299694" cy="476.92073131488416" r="4" fill="#000000" fill-opacity="1"></circle><circle cx="181.6618121748544" cy="277.2053397261449" r="4" fill="#000000" fill-opacity="1"></circle><circle cx="358.94363880187547" cy="117.23876572478534" r="4" fill="#000000" fill-opacity="1"></circle><circle cx="275.91028622540557" cy="104.74527748942396" r="4" fill="#000000" fill-opacity="1"></circle><circle cx="106.26705265998933" cy="97.37810460971582" r="4" fill="#000000" fill-opacity="1"></circle><circle cx="480.80337565932444" cy="327.3257275434121" r="4" fill="#000000" fill-opacity="1"></circle><circle cx="271.0234735706063" cy="448.3884436430071" r="4" fill="#000000" fill-opacity="1"></circle><circle cx="299.4381576972699" cy="228.77029893965096" r="4" fill="#000000" fill-opacity="1"></circle><circle cx="121.71071031725701" cy="336.55026519534096" r="4" fill="#000000" fill-opacity="1"></circle><circle cx="91.89666252412363" cy="52.67843871001418" r="4" fill="#000000" fill-opacity="1"></circle><circle cx="51.50865602969188" cy="101.39516409253324" r="4" fill="#000000" fill-opacity="1"></circle><circle cx="219.5964677571791" cy="89.24172434958915" r="4" fill="#000000" fill-opacity="1"></circle><circle cx="121.99422698099626" cy="221.65694559929165" r="4" fill="#000000" fill-opacity="1"></circle><circle cx="360.82613695189843" cy="52.093189015474735" r="4" fill="#000000" fill-opacity="1"></circle><circle cx="180.08540431277464" cy="49.01841467557365" r="4" fill="#000000" fill-opacity="1"></circle><circle cx="60.71685984368864" cy="461.543734331669" r="4" fill="#000000" fill-opacity="1"></circle><circle cx="396.41399874319006" cy="187.61802786797304" r="4" fill="#000000" fill-opacity="1"></circle><circle cx="415.70096962772396" cy="234.36283665739847" r="4" fill="#000000" fill-opacity="1"></circle><circle cx="355.12192920261737" cy="484.6109235136557" r="4" fill="#000000" fill-opacity="1"></circle><circle cx="420.16784961701995" cy="361.74315834024185" r="4" fill="#000000" fill-opacity="1"></circle><circle cx="302.3811478494573" cy="354.0569018831015" r="4" fill="#000000" fill-opacity="1"></circle><circle cx="24.9409967982584" cy="447.57587200682525" r="4" fill="#000000" fill-opacity="1"></circle><circle cx="75.01290085348" cy="337.4374563899816" r="4" fill="#000000" fill-opacity="1"></circle><circle cx="428.6871121157521" cy="24.430471597525273" r="4" fill="#000000" fill-opacity="1"></circle><circle cx="94.92490221849411" cy="258.61817141100613" r="4" fill="#000000" fill-opacity="1"></circle><circle cx="239.40713853941003" cy="456.5601478922018" r="4" fill="#000000" fill-opacity="1"></circle><circle cx="252.56216290388642" cy="395.4154928359058" r="4" fill="#000000" fill-opacity="1"></circle><circle cx="60.805711535288225" cy="284.1225316432519" r="4" fill="#000000" fill-opacity="1"></circle><circle cx="172.0011118533713" cy="241.5801292853284" r="4" fill="#000000" fill-opacity="1"></circle><circle cx="167.87086037638716" cy="142.73802465533532" r="4" fill="#000000" fill-opacity="1"></circle><circle cx="49.176150018020536" cy="149.03130526505475" r="4" fill="#000000" fill-opacity="1"></circle><circle cx="50.118257699635706" cy="407.9326464853979" r="4" fill="#000000" fill-opacity="1"></circle><circle cx="250.3168893505899" cy="421.77103842792565" r="4" fill="#000000" fill-opacity="1"></circle><circle cx="343.7043069757045" cy="420.1162333631821" r="4" fill="#000000" fill-opacity="1"></circle><circle cx="76.57593770430171" cy="73.52585796429912" r="4" fill="#000000" fill-opacity="1"></circle><circle cx="407.6383385470377" cy="431.57510480395" r="4" fill="#000000" fill-opacity="1"></circle><circle cx="458.14380078980196" cy="55.70387728615415" r="4" fill="#000000" fill-opacity="1"></circle><circle cx="351.25649344333715" cy="281.95330799649474" r="4" fill="#000000" fill-opacity="1"></circle><circle cx="385.43179271873674" cy="108.61934611308148" r="4" fill="#000000" fill-opacity="1"></circle><circle cx="143.35920151524505" cy="121.40624100482711" r="4" fill="#000000" fill-opacity="1"></circle><circle cx="177.04729010624285" cy="447.1826047658061" r="4" fill="#000000" fill-opacity="1"></circle><circle cx="360.55453234276547" cy="324.5500169868217" r="4" fill="#000000" fill-opacity="1"></circle><circle cx="415.4765912123287" cy="164.26637300725272" r="4" fill="#000000" fill-opacity="1"></circle><circle cx="459.8807737515957" cy="138.04111470759742" r="4" fill="#000000" fill-opacity="1"></circle><circle cx="396.69121998499287" cy="327.14213664785206" r="4" fill="#000000" fill-opacity="1"></circle><circle cx="342.595482497744" cy="52.13545760024206" r="4" fill="#000000" fill-opacity="1"></circle><circle cx="221.47415387661775" cy="232.11209678365273" r="4" fill="#000000" fill-opacity="1"></circle><circle cx="127.42650878890869" cy="65.15535275986592" r="4" fill="#000000" fill-opacity="1"></circle><circle cx="191.12482660511031" cy="444.1377918847153" r="4" fill="#000000" fill-opacity="1"></circle><circle cx="122.89102177762764" cy="326.58735382009263" r="4" fill="#000000" fill-opacity="1"></circle><circle cx="67.91814124456951" cy="454.1498326679662" r="4" fill="#000000" fill-opacity="1"></circle><circle cx="144.9981876468795" cy="271.65157211318456" r="4" fill="#000000" fill-opacity="1"></circle><circle cx="436.35205601613313" cy="474.3309453788582" r="4" fill="#000000" fill-opacity="1"></circle><circle cx="375.3738149899351" cy="196.94204834199112" r="4" fill="#000000" fill-opacity="1"></circle><circle cx="407.7448973260256" cy="146.02906323760877" r="4" fill="#000000" fill-opacity="1"></circle><circle cx="218.992596606312" cy="467.8935107089196" r="4" fill="#000000" fill-opacity="1"></circle><circle cx="185.11275217659946" cy="145.9849302398851" r="4" fill="#000000" fill-opacity="1"></circle><circle cx="409.14805324816496" cy="189.62431172564274" r="4" fill="#000000" fill-opacity="1"></circle><circle cx="323.63842924628574" cy="237.6411110911803" r="4" fill="#000000" fill-opacity="1"></circle><circle cx="37.68777343096962" cy="170.94581221345658" r="4" fill="#000000" fill-opacity="1"></circle><circle cx="300.89177775627144" cy="439.89270411810196" r="4" fill="#000000" fill-opacity="1"></circle><circle cx="230.1684481921299" cy="484.41551227474685" r="4" fill="#000000" fill-opacity="1"></circle><circle cx="303.8177461168224" cy="118.51032083717361" r="4" fill="#000000" fill-opacity="1"></circle><circle cx="27.802426386269882" cy="84.62389305220775" r="4" fill="#000000" fill-opacity="1"></circle><circle cx="197.43025329356465" cy="49.42802969287307" r="4" fill="#000000" fill-opacity="1"></circle><circle cx="150.1428540607883" cy="297.6137678583872" r="4" fill="#000000" fill-opacity="1"></circle><circle cx="120.88372815746479" cy="310.2971879471267" r="4" fill="#000000" fill-opacity="1"></circle><circle cx="227.70147241669144" cy="66.62217965784455" r="4" fill="#000000" fill-opacity="1"></circle><circle cx="355.7712338778422" cy="32.43683356453513" r="4" fill="#000000" fill-opacity="1"></circle><circle cx="365.9295319997357" cy="414.72872279079854" r="4" fill="#000000" fill-opacity="1"></circle><circle cx="373.6465978030523" cy="305.3547017828309" r="4" fill="#000000" fill-opacity="1"></circle><circle cx="226.7302492061814" cy="244.88502693144278" r="4" fill="#000000" fill-opacity="1"></circle><circle cx="299.9934789948708" cy="370.8157114694517" r="4" fill="#000000" fill-opacity="1"></circle><circle cx="64.2567263963641" cy="363.7282601170714" r="4" fill="#000000" fill-opacity="1"></circle><circle cx="215.36609133647644" cy="263.0963023823997" r="4" fill="#000000" fill-opacity="1"></circle><circle cx="168.69321397169148" cy="361.01119107546765" r="4" fill="#000000" fill-opacity="1"></circle><circle cx="103.68688035106351" cy="86.46767804514167" r="4" fill="#000000" fill-opacity="1"></circle><circle cx="87.65289846026636" cy="275.4581314857618" r="4" fill="#000000" fill-opacity="1"></circle><circle cx="278.176914713731" cy="307.8535851624274" r="4" fill="#000000" fill-opacity="1"></circle><circle cx="203.0659865606398" cy="306.2059622609698" r="4" fill="#000000" fill-opacity="1"></circle><circle cx="252.65668360720562" cy="86.52935723691476" r="4" fill="#000000" fill-opacity="1"></circle><circle cx="312.8066064768969" cy="221.15942341188426" r="4" fill="#000000" fill-opacity="1"></circle><circle cx="401.8615094533251" cy="95.539023678769" r="4" fill="#000000" fill-opacity="1"></circle><circle cx="236.43390035708" cy="111.65371152644543" r="4" fill="#000000" fill-opacity="1"></circle><circle cx="325.62548201698894" cy="434.964100267682" r="4" fill="#000000" fill-opacity="1"></circle><circle cx="197.9343492007421" cy="154.66853674819293" r="4" fill="#000000" fill-opacity="1"></circle><circle cx="242.8418094927967" cy="287.7421269540267" r="4" fill="#000000" fill-opacity="1"></circle><circle cx="130.18152614258025" cy="389.7393230448357" r="4" fill="#000000" fill-opacity="1"></circle><circle cx="338.6256937756192" cy="290.3458994742393" r="4" fill="#000000" fill-opacity="1"></circle><circle cx="296.268589365228" cy="39.66229706222764" r="4" fill="#000000" fill-opacity="1"></circle><circle cx="348.61567336863686" cy="336.574723614636" r="4" fill="#000000" fill-opacity="1"></circle><circle cx="454.5507765125109" cy="275.15928849164595" r="4" fill="#000000" fill-opacity="1"></circle><circle cx="125.18910246562866" cy="244.21440514559606" r="4" fill="#000000" fill-opacity="1"></circle><circle cx="362.7363056096076" cy="71.73985227876895" r="4" fill="#000000" fill-opacity="1"></circle><circle cx="118.38024017700349" cy="116.9950317491724" r="4" fill="#000000" fill-opacity="1"></circle><circle cx="336.2318141595493" cy="333.8169843765457" r="4" fill="#000000" fill-opacity="1"></circle><circle cx="221.1282044486866" cy="186.78568863542495" r="4" fill="#000000" fill-opacity="1"></circle><circle cx="112.72223027488629" cy="232.14650376745502" r="4" fill="#000000" fill-opacity="1"></circle><circle cx="262.12049273344064" cy="198.38246628347494" r="4" fill="#000000" fill-opacity="1"></circle><circle cx="35.66342728954811" cy="447.26308688731825" r="4" fill="#000000" fill-opacity="1"></circle><circle cx="113.34770244703874" cy="472.32067945495675" r="4" fill="#000000" fill-opacity="1"></circle><circle cx="283.13032199437714" cy="266.35588561540465" r="4" fill="#000000" fill-opacity="1"></circle><circle cx="207.03636104177434" cy="190.76165665328784" r="4" fill="#000000" fill-opacity="1"></circle><circle cx="199.4960174358926" cy="292.9844839314897" r="4" fill="#000000" fill-opacity="1"></circle><circle cx="445.8428424375833" cy="107.98014326568935" r="4" fill="#000000" fill-opacity="1"></circle><circle cx="479.631969397567" cy="437.7079479288737" r="4" fill="#000000" fill-opacity="1"></circle><circle cx="415.24875596759097" cy="48.96591770798576" r="4" fill="#000000" fill-opacity="1"></circle><circle cx="220.05315520942833" cy="375.6548491819716" r="4" fill="#000000" fill-opacity="1"></circle><circle cx="161.3260193734188" cy="278.9160015316796" r="4" fill="#000000" fill-opacity="1"></circle><circle cx="483.25807489702714" cy="356.1368513874151" r="4" fill="#000000" fill-opacity="1"></circle><circle cx="304.0900376449798" cy="271.63948574441315" r="4" fill="#000000" fill-opacity="1"></circle><circle cx="114.79464151782571" cy="401.8713959328747" r="4" fill="#000000" fill-opacity="1"></circle><circle cx="465.44359728391123" cy="350.8489843497151" r="4" fill="#000000" fill-opacity="1"></circle><circle cx="169.41361112237365" cy="294.7554995690854" r="4" fill="#000000" fill-opacity="1"></circle><circle cx="329.6052349779767" cy="444.91837924374033" r="4" fill="#000000" fill-opacity="1"></circle><circle cx="429.27631767186807" cy="67.67850572087758" r="4" fill="#000000" fill-opacity="1"></circle><circle cx="307.44751817444126" cy="201.72035428454743" r="4" fill="#000000" fill-opacity="1"></circle><circle cx="179.15129713194338" cy="184.4462974478031" r="4" fill="#000000" fill-opacity="1"></circle><circle cx="346.4782951473835" cy="460.54495603939546" r="4" fill="#000000" fill-opacity="1"></circle><circle cx="150.13394400421544" cy="427.96564402115524" r="4" fill="#000000" fill-opacity="1"></circle><circle cx="136.70785471087294" cy="447.6234227603217" r="4" fill="#000000" fill-opacity="1"></circle><circle cx="187.99119653700387" cy="58.9234633788097" r="4" fill="#000000" fill-opacity="1"></circle><circle cx="234.7078399012061" cy="421.48215356656704" r="4" fill="#000000" fill-opacity="1"></circle><circle cx="331.46334601775027" cy="39.850772582937736" r="4" fill="#000000" fill-opacity="1"></circle><circle cx="311.1245063568832" cy="64.66301838198339" r="4" fill="#000000" fill-opacity="1"></circle><circle cx="342.7838449868903" cy="188.71142914529298" r="4" fill="#000000" fill-opacity="1"></circle><circle cx="103.27219816650565" cy="324.5149575806353" r="4" fill="#000000" fill-opacity="1"></circle><circle cx="383.8509739978541" cy="314.44218057474427" r="4" fill="#000000" fill-opacity="1"></circle><circle cx="124.35890823176129" cy="436.1095240937485" r="4" fill="#000000" fill-opacity="1"></circle><circle cx="279.2072463660062" cy="63.95281434234206" r="4" fill="#000000" fill-opacity="1"></circle><circle cx="289.63595950859764" cy="132.8145349623184" r="4" fill="#000000" fill-opacity="1"></circle><circle cx="296.91334982511967" cy="177.53459128196883" r="4" fill="#000000" fill-opacity="1"></circle><circle cx="396.69924308591277" cy="39.325192391892145" r="4" fill="#000000" fill-opacity="1"></circle><circle cx="277.73454820917357" cy="469.52389401475574" r="4" fill="#000000" fill-opacity="1"></circle><circle cx="132.932990065213" cy="295.7192582115829" r="4" fill="#000000" fill-opacity="1"></circle><circle cx="419.78872700581746" cy="134.25022711145562" r="4" fill="#000000" fill-opacity="1"></circle><circle cx="290.64306892206685" cy="233.95589243479148" r="4" fill="#000000" fill-opacity="1"></circle><circle cx="271.4852043335844" cy="318.5991385958879" r="4" fill="#000000" fill-opacity="1"></circle><circle cx="215.76276909103373" cy="115.85936605685761" r="4" fill="#000000" fill-opacity="1"></circle><circle cx="341.8217728935843" cy="255.7435619757889" r="4" fill="#000000" fill-opacity="1"></circle><circle cx="395.5146696642371" cy="214.96032467476732" r="4" fill="#000000" fill-opacity="1"></circle><circle cx="203.4644804025865" cy="102.15681225654903" r="4" fill="#000000" fill-opacity="1"></circle><circle cx="303.06390790259843" cy="296.48649437508215" r="4" fill="#000000" fill-opacity="1"></circle><circle cx="367.28902101972636" cy="382.2491283948759" r="4" fill="#000000" fill-opacity="1"></circle><circle cx="460.9197265829831" cy="365.8100498834564" r="4" fill="#000000" fill-opacity="1"></circle><circle cx="260.0905273312498" cy="283.4481385747413" r="4" fill="#000000" fill-opacity="1"></circle><circle cx="446.98006792907205" cy="49.8333469523493" r="4" fill="#000000" fill-opacity="1"></circle><circle cx="84.46726241720675" cy="160.35570327270838" r="4" fill="#000000" fill-opacity="1"></circle><circle cx="192.16812933856633" cy="235.65569350943917" r="4" fill="#000000" fill-opacity="1"></circle><circle cx="73.02248459938647" cy="252.73533893277744" r="4" fill="#000000" fill-opacity="1"></circle><circle cx="444.8211784006173" cy="223.12774948087366" r="4" fill="#000000" fill-opacity="1"></circle><circle cx="102.56252057153415" cy="182.04449464189074" r="4" fill="#000000" fill-opacity="1"></circle><circle cx="268.8636159599106" cy="167.6258354606328" r="4" fill="#000000" fill-opacity="1"></circle><circle cx="113.07551232764688" cy="355.0282110950234" r="4" fill="#000000" fill-opacity="1"></circle><circle cx="155.4778699021103" cy="324.83281593658035" r="4" fill="#000000" fill-opacity="1"></circle><circle cx="173.84181925574032" cy="103.28624730682323" r="4" fill="#000000" fill-opacity="1"></circle><circle cx="455.1143414632562" cy="307.88509995013027" r="4" fill="#000000" fill-opacity="1"></circle><circle cx="436.4160118242588" cy="290.8768420847043" r="4" fill="#000000" fill-opacity="1"></circle><circle cx="188.80796584607867" cy="321.8255565747152" r="4" fill="#000000" fill-opacity="1"></circle><circle cx="472.7208615105587" cy="71.61038842770762" r="4" fill="#000000" fill-opacity="1"></circle><circle cx="336.4220131400844" cy="464.5388485440244" r="4" fill="#000000" fill-opacity="1"></circle><circle cx="268.3950512721813" cy="376.17003974154625" r="4" fill="#000000" fill-opacity="1"></circle><circle cx="387.31318848103865" cy="476.19385634748994" r="4" fill="#000000" fill-opacity="1"></circle><circle cx="437.2609427178069" cy="35.39052406716861" r="4" fill="#000000" fill-opacity="1"></circle><circle cx="407.0199311210909" cy="418.49152417116636" r="4" fill="#000000" fill-opacity="1"></circle><circle cx="322.375825421569" cy="469.1792459083956" r="4" fill="#000000" fill-opacity="1"></circle><circle cx="221.1472225161769" cy="41.25755579120961" r="4" fill="#000000" fill-opacity="1"></circle><circle cx="74.44458835464968" cy="365.4608907813517" r="4" fill="#000000" fill-opacity="1"></circle><circle cx="238.8662676251841" cy="96.33549470521876" r="4" fill="#000000" fill-opacity="1"></circle><circle cx="200.72852061283257" cy="174.9160497280672" r="4" fill="#000000" fill-opacity="1"></circle><circle cx="144.76995035450514" cy="29.28246146387605" r="4" fill="#000000" fill-opacity="1"></circle><circle cx="306.61807037813446" cy="146.20435284190927" r="4" fill="#000000" fill-opacity="1"></circle><circle cx="313.7218457845666" cy="376.51433083992157" r="4" fill="#000000" fill-opacity="1"></circle><circle cx="219.1744743041155" cy="133.34264536365282" r="4" fill="#000000" fill-opacity="1"></circle><circle cx="70.67797634764625" cy="392.44261561360673" r="4" fill="#000000" fill-opacity="1"></circle><circle cx="476.8903711520853" cy="60.91830137857891" r="4" fill="#000000" fill-opacity="1"></circle><circle cx="210.51395758053306" cy="429.31006167452506" r="4" fill="#000000" fill-opacity="1"></circle><circle cx="248.8888691420411" cy="50.0179684290971" r="4" fill="#000000" fill-opacity="1"></circle><circle cx="38.65479252112299" cy="206.43139878278978" r="4" fill="#000000" fill-opacity="1"></circle><circle cx="186.00840586968283" cy="176.9170989284175" r="4" fill="#000000" fill-opacity="1"></circle><circle cx="326.7083898267399" cy="101.98074628614188" r="4" fill="#000000" fill-opacity="1"></circle><circle cx="316.07425138848544" cy="300.8112013013996" r="4" fill="#000000" fill-opacity="1"></circle><circle cx="467.5671247001188" cy="411.9668459986866" r="4" fill="#000000" fill-opacity="1"></circle><circle cx="444.3165540060196" cy="481.6104183291973" r="4" fill="#000000" fill-opacity="1"></circle><circle cx="413.2043289923589" cy="309.68937830321323" r="4" fill="#000000" fill-opacity="1"></circle><circle cx="418.33466266434937" cy="146.16254585177657" r="4" fill="#000000" fill-opacity="1"></circle><circle cx="111.48198500452486" cy="62.69926052091189" r="4" fill="#000000" fill-opacity="1"></circle><circle cx="408.04307170887176" cy="463.93609789216686" r="4" fill="#000000" fill-opacity="1"></circle><circle cx="65.1369381974485" cy="294.27087706216327" r="4" fill="#000000" fill-opacity="1"></circle><circle cx="350.4162279359268" cy="105.54148403544775" r="4" fill="#000000" fill-opacity="1"></circle><circle cx="300.3139878608762" cy="129.9029544564703" r="4" fill="#000000" fill-opacity="1"></circle><circle cx="47.12686487414689" cy="345.28090799412814" r="4" fill="#000000" fill-opacity="1"></circle><circle cx="445.16515870501837" cy="172.95765546378087" r="4" fill="#000000" fill-opacity="1"></circle><circle cx="359.99655790063224" cy="210.06547942069943" r="4" fill="#000000" fill-opacity="1"></circle><circle cx="87.47154704387776" cy="243.10698446375346" r="4" fill="#000000" fill-opacity="1"></circle><circle cx="190.6242179939444" cy="367.32851017249095" r="4" fill="#000000" fill-opacity="1"></circle><circle cx="318.33075485811156" cy="43.83191202456367" r="4" fill="#000000" fill-opacity="1"></circle><circle cx="468.3466636997581" cy="215.54330452687915" r="4" fill="#000000" fill-opacity="1"></circle><circle cx="464.6596615652908" cy="340.238449059447" r="4" fill="#000000" fill-opacity="1"></circle><circle cx="123.91657455287306" cy="366.26691485398294" r="4" fill="#000000" fill-opacity="1"></circle><circle cx="48.45124481500525" cy="58.29726123154405" r="4" fill="#000000" fill-opacity="1"></circle><circle cx="255.3674600589134" cy="133.27067981180906" r="4" fill="#000000" fill-opacity="1"></circle><circle cx="66.01585693588237" cy="81.42547412802475" r="4" fill="#000000" fill-opacity="1"></circle><circle cx="217.77650479976947" cy="78.20747920820506" r="4" fill="#000000" fill-opacity="1"></circle><circle cx="422.95381047120145" cy="347.7075578216145" r="4" fill="#000000" fill-opacity="1"></circle><circle cx="57.92101301093585" cy="63.65433997287231" r="4" fill="#000000" fill-opacity="1"></circle><circle cx="326.9426537992289" cy="403.1578451915747" r="4" fill="#000000" fill-opacity="1"></circle><circle cx="233.29358218049762" cy="138.9668403666746" r="4" fill="#000000" fill-opacity="1"></circle><circle cx="70.88872092748218" cy="43.32746123436463" r="4" fill="#000000" fill-opacity="1"></circle><circle cx="26.572671988507043" cy="244.21761321612172" r="4" fill="#000000" fill-opacity="1"></circle><circle cx="321.93328481019995" cy="136.06381252418657" r="4" fill="#000000" fill-opacity="1"></circle><circle cx="111.89716002296575" cy="373.9563583256897" r="4" fill="#000000" fill-opacity="1"></circle><circle cx="27.015520433798518" cy="412.9154081228374" r="4" fill="#000000" fill-opacity="1"></circle><circle cx="366.9784774943633" cy="438.75145006967347" r="4" fill="#000000" fill-opacity="1"></circle><circle cx="395.030074874913" cy="311.0651924235966" r="4" fill="#000000" fill-opacity="1"></circle><circle cx="468.8219254177877" cy="265.80595971063076" r="4" fill="#000000" fill-opacity="1"></circle><circle cx="151.63899643688978" cy="191.6058942144193" r="4" fill="#000000" fill-opacity="1"></circle><circle cx="163.67181752789378" cy="229.98001474110845" r="4" fill="#000000" fill-opacity="1"></circle><circle cx="39.38208958781412" cy="84.48280339896101" r="4" fill="#000000" fill-opacity="1"></circle><circle cx="179.1478065184958" cy="327.776622390806" r="4" fill="#000000" fill-opacity="1"></circle><circle cx="110.2225114824461" cy="427.9008862297843" r="4" fill="#000000" fill-opacity="1"></circle><circle cx="436.5858042558185" cy="48.615395616746326" r="4" fill="#000000" fill-opacity="1"></circle><circle cx="145.31225315148254" cy="233.94601225790214" r="4" fill="#000000" fill-opacity="1"></circle><circle cx="324.54038785943357" cy="213.77251931035892" r="4" fill="#000000" fill-opacity="1"></circle><circle cx="94.43040028166337" cy="302.4192513725466" r="4" fill="#000000" fill-opacity="1"></circle><circle cx="288.1446314493396" cy="413.2656734269559" r="4" fill="#000000" fill-opacity="1"></circle><circle cx="215.11742632924032" cy="32.0901914023664" r="4" fill="#000000" fill-opacity="1"></circle><circle cx="381.25994881438805" cy="240.92201748596105" r="4" fill="#000000" fill-opacity="1"></circle><circle cx="66.96040095165466" cy="275.57856864978396" r="4" fill="#000000" fill-opacity="1"></circle><circle cx="449.46946633689555" cy="82.13929232387703" r="4" fill="#000000" fill-opacity="1"></circle><circle cx="123.03626915135021" cy="179.04613838073618" r="4" fill="#000000" fill-opacity="1"></circle><circle cx="373.4780302226477" cy="106.59532347745797" r="4" fill="#000000" fill-opacity="1"></circle><circle cx="294.33781936577515" cy="361.0075705572351" r="4" fill="#000000" fill-opacity="1"></circle><circle cx="266.80329546202745" cy="66.26790982136134" r="4" fill="#000000" fill-opacity="1"></circle><circle cx="81.3705119594514" cy="403.3730901035963" r="4" fill="#000000" fill-opacity="1"></circle><circle cx="322.2388909778411" cy="352.49508278356853" r="4" fill="#000000" fill-opacity="1"></circle><circle cx="204.79864419914279" cy="229.13299709362045" r="4" fill="#000000" fill-opacity="1"></circle><circle cx="183.3478485487353" cy="411.61513622285406" r="4" fill="#000000" fill-opacity="1"></circle><circle cx="106.0979135098348" cy="344.0915644853667" r="4" fill="#000000" fill-opacity="1"></circle><circle cx="105.098129463493" cy="260.39264188857516" r="4" fill="#000000" fill-opacity="1"></circle><circle cx="83.11692062748313" cy="116.23790928244448" r="4" fill="#000000" fill-opacity="1"></circle><circle cx="452.27325126956964" cy="466.6848374031335" r="4" fill="#000000" fill-opacity="1"></circle><circle cx="421.6400320084208" cy="91.9951317201934" r="4" fill="#000000" fill-opacity="1"></circle><circle cx="478.32368835389076" cy="272.9694163671547" r="4" fill="#000000" fill-opacity="1"></circle><circle cx="192.6844079109293" cy="283.13609359164127" r="4" fill="#000000" fill-opacity="1"></circle><circle cx="328.4001296067394" cy="145.4922828949462" r="4" fill="#000000" fill-opacity="1"></circle><circle cx="429.19459864946197" cy="413.38556179768113" r="4" fill="#000000" fill-opacity="1"></circle><circle cx="441.9447520536356" cy="201.59321261981566" r="4" fill="#000000" fill-opacity="1"></circle><circle cx="345.67235398629157" cy="156.7403248148568" r="4" fill="#000000" fill-opacity="1"></circle><circle cx="484.9848836674089" cy="221.34682630609484" r="4" fill="#000000" fill-opacity="1"></circle><circle cx="271.69248509189237" cy="213.1322621326085" r="4" fill="#000000" fill-opacity="1"></circle><circle cx="34.792909514835785" cy="275.07660138551825" r="4" fill="#000000" fill-opacity="1"></circle><circle cx="333.30649621106596" cy="26.34683186730207" r="4" fill="#000000" fill-opacity="1"></circle><circle cx="135.78793911148563" cy="112.76211237507026" r="4" fill="#000000" fill-opacity="1"></circle><circle cx="169.58565883076398" cy="127.63571860596915" r="4" fill="#000000" fill-opacity="1"></circle><circle cx="410.73596664992925" cy="274.8968978660698" r="4" fill="#000000" fill-opacity="1"></circle><circle cx="279.0416621416251" cy="155.59958622802876" r="4" fill="#000000" fill-opacity="1"></circle><circle cx="458.92456239075125" cy="482.6581005849125" r="4" fill="#000000" fill-opacity="1"></circle><circle cx="284.66610870908323" cy="340.467315584878" r="4" fill="#000000" fill-opacity="1"></circle><circle cx="424.4089804497862" cy="280.25978727533413" r="4" fill="#000000" fill-opacity="1"></circle><circle cx="476.8932191274082" cy="379.0766892930722" r="4" fill="#000000" fill-opacity="1"></circle><circle cx="162.52369999608968" cy="50.08869951001035" r="4" fill="#000000" fill-opacity="1"></circle><circle cx="474.14318963123867" cy="107.90192760593438" r="4" fill="#000000" fill-opacity="1"></circle><circle cx="141.69211598327766" cy="183.5052665515979" r="4" fill="#000000" fill-opacity="1"></circle><circle cx="252.25417563162546" cy="231.15323520274794" r="4" fill="#000000" fill-opacity="1"></circle><circle cx="198.65802895390942" cy="316.66519036491883" r="4" fill="#000000" fill-opacity="1"></circle><circle cx="332.1426127207504" cy="201.16033762868793" r="4" fill="#000000" fill-opacity="1"></circle><circle cx="442.61466241908397" cy="350.1199149400723" r="4" fill="#000000" fill-opacity="1"></circle><circle cx="52.729815065614005" cy="368.3962960261806" r="4" fill="#000000" fill-opacity="1"></circle><circle cx="369.4772829591484" cy="158.0368467654953" r="4" fill="#000000" fill-opacity="1"></circle><circle cx="36.44849735647229" cy="37.11737764934621" r="4" fill="#000000" fill-opacity="1"></circle><circle cx="122.57002122381672" cy="102.12391085770619" r="4" fill="#000000" fill-opacity="1"></circle><circle cx="332.5114871383348" cy="261.211680250228" r="4" fill="#000000" fill-opacity="1"></circle><circle cx="31.832014166037442" cy="220.7302542355436" r="4" fill="#000000" fill-opacity="1"></circle><circle cx="138.97037461778797" cy="357.0073779917553" r="4" fill="#000000" fill-opacity="1"></circle><circle cx="462.10104513181466" cy="461.67199474916356" r="4" fill="#000000" fill-opacity="1"></circle><circle cx="25.786663948610435" cy="112.43366761966934" r="4" fill="#000000" fill-opacity="1"></circle><circle cx="280.80500987216163" cy="481.82052582879055" r="4" fill="#000000" fill-opacity="1"></circle><circle cx="57.5610300028771" cy="215.52897524770376" r="4" fill="#000000" fill-opacity="1"></circle><circle cx="374.3124412427586" cy="349.18557111884576" r="4" fill="#000000" fill-opacity="1"></circle><circle cx="76.74096412317998" cy="93.1887738205957" r="4" fill="#000000" fill-opacity="1"></circle><circle cx="345.3207487068394" cy="362.3643001265784" r="4" fill="#000000" fill-opacity="1"></circle><circle cx="85.20651011913893" cy="454.63626380675953" r="4" fill="#000000" fill-opacity="1"></circle><circle cx="334.09582843533747" cy="300.34750033849366" r="4" fill="#000000" fill-opacity="1"></circle><circle cx="261.19089724417694" cy="337.67853129043806" r="4" fill="#000000" fill-opacity="1"></circle><circle cx="371.87483878687766" cy="42.97601102204997" r="4" fill="#000000" fill-opacity="1"></circle><circle cx="370.11934497143017" cy="452.76493655127695" r="4" fill="#000000" fill-opacity="1"></circle><circle cx="290.8081949187398" cy="246.03866308623765" r="4" fill="#000000" fill-opacity="1"></circle><circle cx="205.84278647978894" cy="43.58030822763247" r="4" fill="#000000" fill-opacity="1"></circle><circle cx="430.659540188591" cy="400.42267884143064" r="4" fill="#000000" fill-opacity="1"></circle><circle cx="257.33056281094036" cy="381.7038525740536" r="4" fill="#000000" fill-opacity="1"></circle><circle cx="86.31776375738872" cy="201.2637239252689" r="4" fill="#000000" fill-opacity="1"></circle><circle cx="200.24688132369855" cy="386.0052672891286" r="4" fill="#000000" fill-opacity="1"></circle><circle cx="167.586579283104" cy="170.0016564857642" r="4" fill="#000000" fill-opacity="1"></circle><circle cx="292.37756353434435" cy="157.21487766027613" r="4" fill="#000000" fill-opacity="1"></circle><circle cx="400.7192346940391" cy="26.421747970177073" r="4" fill="#000000" fill-opacity="1"></circle><circle cx="152.62289516351473" cy="42.6669950106336" r="4" fill="#000000" fill-opacity="1"></circle><circle cx="165.46394406791103" cy="419.11452459250313" r="4" fill="#000000" fill-opacity="1"></circle><circle cx="131.41240036551017" cy="459.92743886372307" r="4" fill="#000000" fill-opacity="1"></circle><circle cx="169.4898745219394" cy="429.02251099571623" r="4" fill="#000000" fill-opacity="1"></circle><circle cx="416.60029809805695" cy="68.03077536229814" r="4" fill="#000000" fill-opacity="1"></circle><circle cx="228.55035389400405" cy="202.72805621739616" r="4" fill="#000000" fill-opacity="1"></circle><circle cx="157.6587856702406" cy="267.0918095091453" r="4" fill="#000000" fill-opacity="1"></circle><circle cx="475.9368862673585" cy="248.20444786313374" r="4" fill="#000000" fill-opacity="1"></circle><circle cx="316.1813732796267" cy="174.43319942662765" r="4" fill="#000000" fill-opacity="1"></circle><circle cx="100.53453004738388" cy="31.907699804700442" r="4" fill="#000000" fill-opacity="1"></circle><circle cx="62.67930928386555" cy="415.63639026729265" r="4" fill="#000000" fill-opacity="1"></circle><circle cx="246.25440559392834" cy="126.39530902391135" r="4" fill="#000000" fill-opacity="1"></circle><circle cx="216.848996956507" cy="213.71422431523544" r="4" fill="#000000" fill-opacity="1"></circle><circle cx="277.5589781519537" cy="277.39115112185857" r="4" fill="#000000" fill-opacity="1"></circle><circle cx="145.2047569009098" cy="146.8795427878519" r="4" fill="#000000" fill-opacity="1"></circle><circle cx="46.46064753659983" cy="302.90641171609343" r="4" fill="#000000" fill-opacity="1"></circle><circle cx="405.4090235656637" cy="250.22217036998725" r="4" fill="#000000" fill-opacity="1"></circle><circle cx="151.4470985188297" cy="93.88745723545782" r="4" fill="#000000" fill-opacity="1"></circle><circle cx="31.99542123598897" cy="399.86795789159123" r="4" fill="#000000" fill-opacity="1"></circle><circle cx="51.6241287735117" cy="120.46711311069717" r="4" fill="#000000" fill-opacity="1"></circle><circle cx="178.086604529904" cy="230.09668482507848" r="4" fill="#000000" fill-opacity="1"></circle><circle cx="388.7939414147884" cy="279.72546406519564" r="4" fill="#000000" fill-opacity="1"></circle><circle cx="31.340118959640375" cy="297.50966934398457" r="4" fill="#000000" fill-opacity="1"></circle><circle cx="39.48279125199189" cy="376.2244478241385" r="4" fill="#000000" fill-opacity="1"></circle><circle cx="96.0498025152473" cy="74.94519857476303" r="4" fill="#000000" fill-opacity="1"></circle><circle cx="398.7254995256843" cy="278.00229841387653" r="4" fill="#000000" fill-opacity="1"></circle><circle cx="84.46206341301871" cy="426.05664208084596" r="4" fill="#000000" fill-opacity="1"></circle><circle cx="473.0591569492293" cy="155.02261951832918" r="4" fill="#000000" fill-opacity="1"></circle><circle cx="64.65948724126235" cy="162.6740648506002" r="4" fill="#000000" fill-opacity="1"></circle><circle cx="354.7827062302218" cy="233.64444401692606" r="4" fill="#000000" fill-opacity="1"></circle><circle cx="320.39947248774837" cy="323.83480698128534" r="4" fill="#000000" fill-opacity="1"></circle><circle cx="193.42492868485243" cy="130.72263386862437" r="4" fill="#000000" fill-opacity="1"></circle><circle cx="68.20687484525685" cy="309.09346041677617" r="4" fill="#000000" fill-opacity="1"></circle><circle cx="130.0644239685286" cy="129.70477076703085" r="4" fill="#000000" fill-opacity="1"></circle><circle cx="264.65672712607363" cy="179.80883738586013" r="4" fill="#000000" fill-opacity="1"></circle><circle cx="106.47730198208252" cy="110.61011606876532" r="4" fill="#000000" fill-opacity="1"></circle><circle cx="83.11704049068516" cy="382.04238847018905" r="4" fill="#000000" fill-opacity="1"></circle><circle cx="195.96722849460687" cy="253.81396486868647" r="4" fill="#000000" fill-opacity="1"></circle><circle cx="115.07960922323726" cy="50.14512924904636" r="4" fill="#000000" fill-opacity="1"></circle><circle cx="250.6999591695667" cy="155.49898528464624" r="4" fill="#000000" fill-opacity="1"></circle><circle cx="457.13499995072425" cy="238.3607203852835" r="4" fill="#000000" fill-opacity="1"></circle><circle cx="142.21999463159563" cy="464.98641438408174" r="4" fill="#000000" fill-opacity="1"></circle><circle cx="169.0593148343412" cy="392.69966341352347" r="4" fill="#000000" fill-opacity="1"></circle><circle cx="110.9633295633692" cy="443.7251802644686" r="4" fill="#000000" fill-opacity="1"></circle><circle cx="311.69480028274705" cy="472.82395169100766" r="4" fill="#000000" fill-opacity="1"></circle><circle cx="130.31629654193924" cy="95.14985759834391" r="4" fill="#000000" fill-opacity="1"></circle><circle cx="448.8820540553468" cy="381.732333720663" r="4" fill="#000000" fill-opacity="1"></circle><circle cx="432.9889438641914" cy="269.7086153242664" r="4" fill="#000000" fill-opacity="1"></circle><circle cx="382.22577005317817" cy="292.07392839308017" r="4" fill="#000000" fill-opacity="1"></circle><circle cx="285.1027039796893" cy="218.3480565518418" r="4" fill="#000000" fill-opacity="1"></circle><circle cx="309.1273619709326" cy="282.072936844622" r="4" fill="#000000" fill-opacity="1"></circle><circle cx="49.094569219484995" cy="40.617194552051785" r="4" fill="#000000" fill-opacity="1"></circle><circle cx="461.597169539844" cy="223.84071348977383" r="4" fill="#000000" fill-opacity="1"></circle></svg>