<svg width="512" height="512" viewBox="0 0 512 512" xmlns="http://www.w3.org/2000/svg">
          <rect x="0" y="0" width="512" height="512" fill="#f8f8ff" fill-opacity="1"></rect>
        <circle cx="485.5080763532841" cy="289.95238409322207" r="4" fill="#000000" fill-opacity="1"></circle><circle cx="315.9600643721556" cy="399.58724711232486" r="4" fill="#000000" fill-opacity="1"></circle><circle cx="296.9182590076871" cy="260.3142488444024" r="4" fill="#000000" fill-opacity="1"></circle><circle cx="290.2955402206052" cy="101.30766218283986" r="4" fill="#000000" fill-opacity="1"></circle><circle cx="476.335585519214" cy="256.8737992023707" r="4" fill="#000000" fill-opacity="1"></circle><circle cx="315.05791022894664" cy="46.12420288313306" r="4" fill="#000000" fill-opacity="1"></circle><circle cx="451.37930696485597" cy="239.64294896841938" r="4" fill="#000000" fill-opacity="1"></circle><circle cx="402.88398100715483" cy="106.55988061727201" r="4" fill="#000000" fill-opacity="1"></circle><circle cx="53.35195315432415" cy="111.11090574608976" r="4" fill="#000000" fill-opacity="1"></circle><circle cx="140.37603927593327" cy="311.71196941450216" r="4" fill="#000000" fill-opacity="1"></circle><circle cx="251.80271049862486" cy="237.32981121754568" r="4" fill="#000000" fill-opacity="1"></circle><circle cx="190.07862755960792" cy="240.48778939390098" r="4" fill="#000000" fill-opacity="1"></circle><circle cx="438.84820495256645" cy="409.8500024661689" r="4" fill="#000000" fill-opacity="1"></circle><circle cx="389.1507687746974" cy="229.3543154360076" r="4" fill="#000000" fill-opacity="1"></circle><circle cx="388.28813128509904" cy="112.1616049356497" r="4" fill="#000000" fill-opacity="1"></circle><circle cx="246.78442154990097" cy="309.5366104962539" r="4" fill="#000000" fill-opacity="1"></circle><circle cx="258.1857749811095" cy="71.0757724696692" r="4" fill="#000000" fill-opacity="1"></circle><circle cx="336.6093558703231" cy="37.98180997541377" r="4" fill="#000000" fill-opacity="1"></circle><circle cx="421.1780258041757" cy="153.46905263686958" r="4" fill="#000000" fill-opacity="1"></circle><circle cx="136.68545226256333" cy="244.6045038375135" r="4" fill="#000000" fill-opacity="1"></circle><circle cx="141.40080610669943" cy="139.96321819403136" r="4" fill="#000000" fill-opacity="1"></circle><circle cx="124.3954681345532" cy="384.12545271753834" r="4" fill="#000000" fill-opacity="1"></circle><circle cx="246.82424881291897" cy="341.8449557586417" r="4" fill="#000000" fill-opacity="1"></circle><circle cx="211.28121428888142" cy="244.28239843519762" r="4" fill="#000000" fill-opacity="1"></circle><circle cx="302.8141695016672" cy="381.49881789096713" r="4" fill="#000000" fill-opacity="1"></circle><circle cx="418.3278009642728" cy="39.84638075128066" r="4" fill="#000000" fill-opacity="1"></circle><circle cx="90.89340562825612" cy="300.1832664771991" r="4" fill="#000000" fill-opacity="1"></circle><circle cx="261.51323737037467" cy="83.68927525003997" r="4" fill="#000000" fill-opacity="1"></circle><circle cx="330.9957851250745" cy="165.34746494863606" r="4" fill="#000000" fill-opacity="1"></circle><circle cx="197.98559592044526" cy="202.95298151017036" r="4" fill="#000000" fill-opacity="1"></circle><circle cx="363.46162068408233" cy="137.99616656735694" r="4" fill="#000000" fill-opacity="1"></circle><circle cx="39.00337996682185" cy="191.73321347431124" r="4" fill="#000000" fill-opacity="1"></circle><circle cx="266.3057627093266" cy="335.3161487894734" r="4" fill="#000000" fill-opacity="1"></circle><circle cx="255.23050172492117" cy="96.89653891289781" r="4" fill="#000000" fill-opacity="1"></circle><circle cx="84.4213571163418" cy="348.37846613289395" r="4" fill="#000000" fill-opacity="1"></circle><circle cx="261.2933577697869" cy="433.4221015715323" r="4" fill="#000000" fill-opacity="1"></circle><circle cx="443.6707191671392" cy="98.09230856275703" r="4" fill="#000000" fill-opacity="1"></circle><circle cx="416.07725263967086" cy="191.12246044821225" r="4" fill="#000000" fill-opacity="1"></circle><circle cx="30.328180892675615" cy="287.25980641994283" r="4" fill="#000000" fill-opacity="1"></circle><circle cx="199.9514991058373" cy="178.25546782695247" r="4" fill="#000000" fill-opacity="1"></circle></svg>