<svg width="512" height="512" viewBox="0 0 512 512" xmlns="http://www.w3.org/2000/svg">
          <rect x="0" y="0" width="512" height="512" fill="#f8f8ff" fill-opacity="1"></rect>
        <circle cx="391.4375106652223" cy="91.48843168808818" r="4" fill="#000000" fill-opacity="1"></circle><circle cx="274.241068854325" cy="199.70822438654977" r="4" fill="#000000" fill-opacity="1"></circle><circle cx="203.85320781103604" cy="178.17060056540726" r="4" fill="#000000" fill-opacity="1"></circle><circle cx="32.462260193312005" cy="323.4763002992495" r="4" fill="#000000" fill-opacity="1"></circle><circle cx="368.7497531607713" cy="484.9031791143624" r="4" fill="#000000" fill-opacity="1"></circle><circle cx="305.65805591734727" cy="430.2389260730055" r="4" fill="#000000" fill-opacity="1"></circle><circle cx="72.10898605301945" cy="192.79562564820577" r="4" fill="#000000" fill-opacity="1"></circle><circle cx="240.05794240492315" cy="421.998568264144" r="4" fill="#000000" fill-opacity="1"></circle><circle cx="482.2512705128445" cy="103.08508388555126" r="4" fill="#000000" fill-opacity="1"></circle><circle cx="455.1995041553285" cy="198.353431427591" r="4" fill="#000000" fill-opacity="1"></circle><circle cx="109.30424583354367" cy="151.14282802863448" r="4" fill="#000000" fill-opacity="1"></circle><circle cx="418.4192981961072" cy="141.2589192681715" r="4" fill="#000000" fill-opacity="1"></circle><circle cx="349.9824597692658" cy="204.6781490317435" r="4" fill="#000000" fill-opacity="1"></circle><circle cx="316.0234333936795" cy="46.677977290808656" r="4" fill="#000000" fill-opacity="1"></circle><circle cx="246.65379026019613" cy="231.30540747931923" r="4" fill="#000000" fill-opacity="1"></circle><circle cx="434.82833198756856" cy="295.714869653526" r="4" fill="#000000" fill-opacity="1"></circle><circle cx="400.2607249049899" cy="274.9908057489882" r="4" fill="#000000" fill-opacity="1"></circle><circle cx="73.15246726274005" cy="70.17840083990869" r="4" fill="#000000" fill-opacity="1"></circle><circle cx="340.47278136685406" cy="159.11676351242792" r="4" fill="#000000" fill-opacity="1"></circle><circle cx="61.470148602194854" cy="387.7093983718327" r="4" fill="#000000" fill-opacity="1"></circle><circle cx="335.07072554458387" cy="72.9917327873699" r="4" fill="#000000" fill-opacity="1"></circle><circle cx="53.83531802737183" cy="435.86169111992734" r="4" fill="#000000" fill-opacity="1"></circle><circle cx="189.47158438390738" cy="81.6789436147158" r="4" fill="#000000" fill-opacity="1"></circle><circle cx="162.58594896781497" cy="64.30324913798196" r="4" fill="#000000" fill-opacity="1"></circle><circle cx="110.00687843238825" cy="483.03884355298396" r="4" fill="#000000" fill-opacity="1"></circle><circle cx="104.90078895205419" cy="341.3243720644812" r="4" fill="#000000" fill-opacity="1"></circle><circle cx="98.9896800293508" cy="483.40804283158496" r="4" fill="#000000" fill-opacity="1"></circle><circle cx="85.2695557697683" cy="421.97528612295173" r="4" fill="#000000" fill-opacity="1"></circle><circle cx="393.6401035850005" cy="367.627812778241" r="4" fill="#000000" fill-opacity="1"></circle><circle cx="194.2845171681441" cy="239.33740056641295" r="4" fill="#000000" fill-opacity="1"></circle><circle cx="309.4223816826697" cy="204.38388143240297" r="4" fill="#000000" fill-opacity="1"></circle><circle cx="62.844180461945896" cy="75.57811561236029" r="4" fill="#000000" fill-opacity="1"></circle><circle cx="252.73367595343598" cy="298.60812919772826" r="4" fill="#000000" fill-opacity="1"></circle><circle cx="322.5576185729635" cy="87.99179623456227" r="4" fill="#000000" fill-opacity="1"></circle><circle cx="219.98314040362553" cy="436.9471980427678" r="4" fill="#000000" fill-opacity="1"></circle><circle cx="361.3110142432827" cy="221.40597286705412" r="4" fill="#000000" fill-opacity="1"></circle><circle cx="47.9850843377493" cy="487.70543651630345" r="4" fill="#000000" fill-opacity="1"></circle><circle cx="317.82469781756913" cy="77.1462885232566" r="4" fill="#000000" fill-opacity="1"></circle><circle cx="254.27062183535168" cy="73.10329960212763" r="4" fill="#000000" fill-opacity="1"></circle><circle cx="144.13936489481745" cy="453.16174043921967" r="4" fill="#000000" fill-opacity="1"></circle><circle cx="299.42323782223144" cy="341.6974221607454" r="4" fill="#000000" fill-opacity="1"></circle><circle cx="398.8340471613593" cy="119.0650572536791" r="4" fill="#000000" fill-opacity="1"></circle><circle cx="316.16685556809875" cy="387.8998844031417" r="4" fill="#000000" fill-opacity="1"></circle><circle cx="398.21771345399736" cy="166.93828001153688" r="4" fill="#000000" fill-opacity="1"></circle><circle cx="389.2122390053113" cy="270.0008545142231" r="4" fill="#000000" fill-opacity="1"></circle><circle cx="34.38079366910509" cy="401.52599014603703" r="4" fill="#000000" fill-opacity="1"></circle><circle cx="466.6968266103844" cy="146.49002030933485" r="4" fill="#000000" fill-opacity="1"></circle><circle cx="486.8621697702558" cy="213.05483641599312" r="4" fill="#000000" fill-opacity="1"></circle><circle cx="215.2221237901024" cy="308.3590923409226" r="4" fill="#000000" fill-opacity="1"></circle><circle cx="401.7327407708611" cy="96.1507208903443" r="4" fill="#000000" fill-opacity="1"></circle><circle cx="97.65509656216433" cy="90.38204761193748" r="4" fill="#000000" fill-opacity="1"></circle><circle cx="345.02782336492834" cy="423.85970831100747" r="4" fill="#000000" fill-opacity="1"></circle><circle cx="478.5578634978395" cy="276.4286625028918" r="4" fill="#000000" fill-opacity="1"></circle><circle cx="204.53032502844871" cy="145.7522687504386" r="4" fill="#000000" fill-opacity="1"></circle><circle cx="313.0930723686905" cy="253.43405998108028" r="4" fill="#000000" fill-opacity="1"></circle><circle cx="184.71217152765314" cy="142.52949086888364" r="4" fill="#000000" fill-opacity="1"></circle><circle cx="349.7616773792202" cy="98.59840568086233" r="4" fill="#000000" fill-opacity="1"></circle><circle cx="485.65523823653706" cy="84.31129124502098" r="4" fill="#000000" fill-opacity="1"></circle><circle cx="478.1183762500444" cy="165.70552822158635" r="4" fill="#000000" fill-opacity="1"></circle><circle cx="198.68216724751" cy="166.84834088391682" r="4" fill="#000000" fill-opacity="1"></circle><circle cx="420.7204420387997" cy="474.86590211715924" r="4" fill="#000000" fill-opacity="1"></circle><circle cx="444.8648336236105" cy="153.21758449108057" r="4" fill="#000000" fill-opacity="1"></circle><circle cx="479.1879759896106" cy="335.9029996253685" r="4" fill="#000000" fill-opacity="1"></circle><circle cx="146.92995145144602" cy="381.4854010518222" r="4" fill="#000000" fill-opacity="1"></circle><circle cx="316.30180834610434" cy="230.8046065103855" r="4" fill="#000000" fill-opacity="1"></circle><circle cx="325.83481855609597" cy="272.399638367017" r="4" fill="#000000" fill-opacity="1"></circle><circle cx="214.31771467475565" cy="451.3163477656636" r="4" fill="#000000" fill-opacity="1"></circle><circle cx="394.26426295715066" cy="293.16264969258924" r="4" fill="#000000" fill-opacity="1"></circle><circle cx="57.29104127769682" cy="211.73357490991646" r="4" fill="#000000" fill-opacity="1"></circle><circle cx="234.651573604159" cy="402.4424975063983" r="4" fill="#000000" fill-opacity="1"></circle><circle cx="307.92392231382587" cy="281.78917124520524" r="4" fill="#000000" fill-opacity="1"></circle><circle cx="142.52146628127872" cy="36.656789479825406" r="4" fill="#000000" fill-opacity="1"></circle><circle cx="200.5535381583993" cy="466.56127878972796" r="4" fill="#000000" fill-opacity="1"></circle><circle cx="53.8907911189756" cy="185.2642524233375" r="4" fill="#000000" fill-opacity="1"></circle><circle cx="258.1455838118783" cy="131.16792814399201" r="4" fill="#000000" fill-opacity="1"></circle><circle cx="467.4788519023268" cy="57.17974409719303" r="4" fill="#000000" fill-opacity="1"></circle><circle cx="223.54356863866087" cy="418.6746211232292" r="4" fill="#000000" fill-opacity="1"></circle><circle cx="442.89206533882435" cy="30.221189477906336" r="4" fill="#000000" fill-opacity="1"></circle><circle cx="33.589627291123705" cy="416.11490859780577" r="4" fill="#000000" fill-opacity="1"></circle><circle cx="433.7286150834301" cy="226.14664788749218" r="4" fill="#000000" fill-opacity="1"></circle><circle cx="122.39387754235015" cy="27.520200723094774" r="4" fill="#000000" fill-opacity="1"></circle><circle cx="72.74087169365444" cy="113.73242153875304" r="4" fill="#000000" fill-opacity="1"></circle><circle cx="281.2077691409281" cy="133.7010814780939" r="4" fill="#000000" fill-opacity="1"></circle><circle cx="242.09825476690298" cy="452.74412359812607" r="4" fill="#000000" fill-opacity="1"></circle><circle cx="304.6491557934207" cy="185.4989707052151" r="4" fill="#000000" fill-opacity="1"></circle><circle cx="247.23175038353244" cy="315.6306034489625" r="4" fill="#000000" fill-opacity="1"></circle><circle cx="374.6566558322964" cy="269.36378928556064" r="4" fill="#000000" fill-opacity="1"></circle><circle cx="244.94059987566584" cy="153.50827607415735" r="4" fill="#000000" fill-opacity="1"></circle><circle cx="483.0998538742659" cy="365.6623358942922" r="4" fill="#000000" fill-opacity="1"></circle><circle cx="96.96354666855919" cy="472.15845732306644" r="4" fill="#000000" fill-opacity="1"></circle><circle cx="354.5645006910593" cy="276.7418516526394" r="4" fill="#000000" fill-opacity="1"></circle><circle cx="386.59745934829925" cy="164.15734024783197" r="4" fill="#000000" fill-opacity="1"></circle><circle cx="335.31320243811945" cy="486.984401577232" r="4" fill="#000000" fill-opacity="1"></circle><circle cx="317.5099750792342" cy="422.92180976020643" r="4" fill="#000000" fill-opacity="1"></circle><circle cx="27.7337732255142" cy="95.77008680450209" r="4" fill="#000000" fill-opacity="1"></circle><circle cx="34.440909695924844" cy="227.3167960008757" r="4" fill="#000000" fill-opacity="1"></circle><circle cx="329.2381460087878" cy="244.8246294068241" r="4" fill="#000000" fill-opacity="1"></circle><circle cx="70.19008587645203" cy="309.5964120614199" r="4" fill="#000000" fill-opacity="1"></circle><circle cx="267.4035173391701" cy="313.7783889350114" r="4" fill="#000000" fill-opacity="1"></circle><circle cx="338.17314053001957" cy="329.0978022494334" r="4" fill="#000000" fill-opacity="1"></circle><circle cx="119.73677185906993" cy="301.6731427144356" r="4" fill="#000000" fill-opacity="1"></circle><circle cx="409.6459631424789" cy="334.4015162190004" r="4" fill="#000000" fill-opacity="1"></circle><circle cx="80.35551091293938" cy="183.6566776474372" r="4" fill="#000000" fill-opacity="1"></circle><circle cx="119.53162976707556" cy="460.38175528422687" r="4" fill="#000000" fill-opacity="1"></circle><circle cx="325.8811115483299" cy="25.368465050272103" r="4" fill="#000000" fill-opacity="1"></circle><circle cx="373.8814977632048" cy="216.31182949913938" r="4" fill="#000000" fill-opacity="1"></circle><circle cx="442.5427071235759" cy="307.61404967172825" r="4" fill="#000000" fill-opacity="1"></circle><circle cx="39.04806711536144" cy="313.27965988699276" r="4" fill="#000000" fill-opacity="1"></circle><circle cx="27.855964638984894" cy="427.65772551882196" r="4" fill="#000000" fill-opacity="1"></circle><circle cx="175.91759916242594" cy="424.8786317724132" r="4" fill="#000000" fill-opacity="1"></circle><circle cx="379.1744589357663" cy="397.16059670878076" r="4" fill="#000000" fill-opacity="1"></circle><circle cx="279.7085549163113" cy="474.00322327152395" r="4" fill="#000000" fill-opacity="1"></circle><circle cx="201.42283505237455" cy="313.9997801214688" r="4" fill="#000000" fill-opacity="1"></circle><circle cx="417.5153416025403" cy="211.07818380782354" r="4" fill="#000000" fill-opacity="1"></circle><circle cx="446.80773716775775" cy="449.01467768640697" r="4" fill="#000000" fill-opacity="1"></circle><circle cx="91.11229006330431" cy="283.09574971057884" r="4" fill="#000000" fill-opacity="1"></circle><circle cx="155.13316305446386" cy="375.16739616855045" r="4" fill="#000000" fill-opacity="1"></circle><circle cx="361.6035263518279" cy="372.86354230059123" r="4" fill="#000000" fill-opacity="1"></circle><circle cx="390.9646357946069" cy="138.26002694373645" r="4" fill="#000000" fill-opacity="1"></circle><circle cx="332.5633769809343" cy="394.6392328544395" r="4" fill="#000000" fill-opacity="1"></circle><circle cx="224.70810321384488" cy="29.92915782377477" r="4" fill="#000000" fill-opacity="1"></circle><circle cx="344.309419754705" cy="59.232328772850195" r="4" fill="#000000" fill-opacity="1"></circle><circle cx="278.5342730409345" cy="399.2486805101127" r="4" fill="#000000" fill-opacity="1"></circle><circle cx="128.7322481110609" cy="86.7704697776737" r="4" fill="#000000" fill-opacity="1"></circle><circle cx="484.557975183429" cy="255.90254712360493" r="4" fill="#000000" fill-opacity="1"></circle><circle cx="155.5478397803849" cy="269.32690232061157" r="4" fill="#000000" fill-opacity="1"></circle><circle cx="365.22660272339664" cy="404.25644417030367" r="4" fill="#000000" fill-opacity="1"></circle><circle cx="401.5977544936003" cy="430.11897192325677" r="4" fill="#000000" fill-opacity="1"></circle><circle cx="236.2369172232855" cy="293.8292450113211" r="4" fill="#000000" fill-opacity="1"></circle><circle cx="86.35866005089129" cy="99.04631826513437" r="4" fill="#000000" fill-opacity="1"></circle><circle cx="265.4247762842943" cy="470.46122779465315" r="4" fill="#000000" fill-opacity="1"></circle><circle cx="171.78109541834726" cy="334.39809499383466" r="4" fill="#000000" fill-opacity="1"></circle><circle cx="241.19973561309632" cy="74.38110463149889" r="4" fill="#000000" fill-opacity="1"></circle><circle cx="361.0128159225347" cy="254.83808532301225" r="4" fill="#000000" fill-opacity="1"></circle><circle cx="486.0432002490408" cy="283.30996638751304" r="4" fill="#000000" fill-opacity="1"></circle><circle cx="275.0022649587627" cy="168.8014973518399" r="4" fill="#000000" fill-opacity="1"></circle><circle cx="311.09497532059595" cy="32.08516356814229" r="4" fill="#000000" fill-opacity="1"></circle><circle cx="185.88896011119587" cy="436.94067502990885" r="4" fill="#000000" fill-opacity="1"></circle><circle cx="276.08475421001214" cy="285.20675886492324" r="4" fill="#000000" fill-opacity="1"></circle><circle cx="411.9947418856939" cy="457.6029380207334" r="4" fill="#000000" fill-opacity="1"></circle><circle cx="419.06027693286626" cy="397.9029620236999" r="4" fill="#000000" fill-opacity="1"></circle><circle cx="393.99779342960056" cy="242.90540349676397" r="4" fill="#000000" fill-opacity="1"></circle><circle cx="365.6413173185117" cy="357.415174603093" r="4" fill="#000000" fill-opacity="1"></circle><circle cx="353.9821271320178" cy="176.93379916725536" r="4" fill="#000000" fill-opacity="1"></circle><circle cx="154.77698953638549" cy="437.17034905629674" r="4" fill="#000000" fill-opacity="1"></circle><circle cx="250.5261504624977" cy="459.4466773910591" r="4" fill="#000000" fill-opacity="1"></circle><circle cx="155.63080834017137" cy="29.61492970633718" r="4" fill="#000000" fill-opacity="1"></circle><circle cx="389.9514003179234" cy="53.507268481231606" r="4" fill="#000000" fill-opacity="1"></circle><circle cx="180.97277493602274" cy="306.1930448222613" r="4" fill="#000000" fill-opacity="1"></circle><circle cx="484.39049872411516" cy="326.755190008627" r="4" fill="#000000" fill-opacity="1"></circle><circle cx="264.0122071795048" cy="191.589293281324" r="4" fill="#000000" fill-opacity="1"></circle><circle cx="226.59157979628714" cy="457.17468348456515" r="4" fill="#000000" fill-opacity="1"></circle><circle cx="484.597897472911" cy="313.5472964000491" r="4" fill="#000000" fill-opacity="1"></circle><circle cx="44.28715727461804" cy="394.0159646279861" r="4" fill="#000000" fill-opacity="1"></circle><circle cx="126.10020239865203" cy="318.92802969207065" r="4" fill="#000000" fill-opacity="1"></circle><circle cx="450.6056424800303" cy="83.01621708262005" r="4" fill="#000000" fill-opacity="1"></circle><circle cx="479.86782164412267" cy="351.91694007274185" r="4" fill="#000000" fill-opacity="1"></circle><circle cx="75.01153838407248" cy="397.7997716192869" r="4" fill="#000000" fill-opacity="1"></circle><circle cx="413.1327658280469" cy="200.4702545204838" r="4" fill="#000000" fill-opacity="1"></circle><circle cx="189.5017448546524" cy="393.5830066908109" r="4" fill="#000000" fill-opacity="1"></circle><circle cx="428.1804921629555" cy="134.30939623721648" r="4" fill="#000000" fill-opacity="1"></circle><circle cx="294.25003720441526" cy="255.48380907518668" r="4" fill="#000000" fill-opacity="1"></circle><circle cx="313.161423244642" cy="454.03797441158986" r="4" fill="#000000" fill-opacity="1"></circle><circle cx="275.06989863126444" cy="75.706838756806" r="4" fill="#000000" fill-opacity="1"></circle><circle cx="450.0760310514835" cy="334.95019232590846" r="4" fill="#000000" fill-opacity="1"></circle><circle cx="290.4436301642417" cy="181.2356710363307" r="4" fill="#000000" fill-opacity="1"></circle><circle cx="118.79134628892277" cy="234.370200274406" r="4" fill="#000000" fill-opacity="1"></circle><circle cx="328.92645897671997" cy="284.9547719892237" r="4" fill="#000000" fill-opacity="1"></circle><circle cx="420.3325399577585" cy="123.63309343470962" r="4" fill="#000000" fill-opacity="1"></circle><circle cx="205.6160916313646" cy="371.8364350570975" r="4" fill="#000000" fill-opacity="1"></circle><circle cx="318.2610163974024" cy="404.69545847128427" r="4" fill="#000000" fill-opacity="1"></circle><circle cx="111.03784806773618" cy="47.56957641524146" r="4" fill="#000000" fill-opacity="1"></circle><circle cx="414.2517996608261" cy="289.6214814049038" r="4" fill="#000000" fill-opacity="1"></circle><circle cx="330.8297286901475" cy="162.9753771339701" r="4" fill="#000000" fill-opacity="1"></circle><circle cx="430.99928782081014" cy="404.58968211600217" r="4" fill="#000000" fill-opacity="1"></circle><circle cx="61.47248323083584" cy="354.2727815186645" r="4" fill="#000000" fill-opacity="1"></circle><circle cx="311.6109844640049" cy="302.8746911688806" r="4" fill="#000000" fill-opacity="1"></circle><circle cx="348.8856304643993" cy="456.3694615411567" r="4" fill="#000000" fill-opacity="1"></circle><circle cx="65.67842441885387" cy="169.18515650173313" r="4" fill="#000000" fill-opacity="1"></circle><circle cx="135.08816352962145" cy="378.3953289739903" r="4" fill="#000000" fill-opacity="1"></circle><circle cx="178.16038600241046" cy="116.93236691112054" r="4" fill="#000000" fill-opacity="1"></circle><circle cx="483.21992982450024" cy="388.4291568699116" r="4" fill="#000000" fill-opacity="1"></circle><circle cx="95.9265732824558" cy="317.47749707499435" r="4" fill="#000000" fill-opacity="1"></circle><circle cx="443.15298078701534" cy="255.10604186263734" r="4" fill="#000000" fill-opacity="1"></circle><circle cx="406.12654569972756" cy="173.47781735778057" r="4" fill="#000000" fill-opacity="1"></circle><circle cx="437.4839321829073" cy="77.17507295561686" r="4" fill="#000000" fill-opacity="1"></circle><circle cx="418.5409006532024" cy="178.96994300907397" r="4" fill="#000000" fill-opacity="1"></circle><circle cx="144.36352990484625" cy="182.64946422467318" r="4" fill="#000000" fill-opacity="1"></circle><circle cx="196.10111715056414" cy="340.4239387839816" r="4" fill="#000000" fill-opacity="1"></circle><circle cx="68.83995509734947" cy="37.61204171512898" r="4" fill="#000000" fill-opacity="1"></circle><circle cx="381.4771463246219" cy="428.0633623956957" r="4" fill="#000000" fill-opacity="1"></circle><circle cx="150.4160075383187" cy="145.14105513803827" r="4" fill="#000000" fill-opacity="1"></circle><circle cx="364.84999128191026" cy="30.75566616765992" r="4" fill="#000000" fill-opacity="1"></circle><circle cx="234.21303967320554" cy="439.9641912594254" r="4" fill="#000000" fill-opacity="1"></circle><circle cx="124.09054626849336" cy="368.73876244742723" r="4" fill="#000000" fill-opacity="1"></circle><circle cx="331.9085115982668" cy="143.4349074680022" r="4" fill="#000000" fill-opacity="1"></circle><circle cx="302.21870047310324" cy="71.03103830984365" r="4" fill="#000000" fill-opacity="1"></circle><circle cx="270.5891665718161" cy="117.88618540594996" r="4" fill="#000000" fill-opacity="1"></circle><circle cx="463.519262988368" cy="252.17740695040587" r="4" fill="#000000" fill-opacity="1"></circle><circle cx="430.84520851003975" cy="349.8719449054761" r="4" fill="#000000" fill-opacity="1"></circle><circle cx="296.83085316169013" cy="422.60347527929923" r="4" fill="#000000" fill-opacity="1"></circle><circle cx="136.88058671259884" cy="259.68730495606906" r="4" fill="#000000" fill-opacity="1"></circle><circle cx="92.28871427991564" cy="156.71478849531547" r="4" fill="#000000" fill-opacity="1"></circle><circle cx="290.4115578081654" cy="393.0324265560786" r="4" fill="#000000" fill-opacity="1"></circle><circle cx="163.06170989958864" cy="389.72170319479596" r="4" fill="#000000" fill-opacity="1"></circle><circle cx="49.12600989973804" cy="75.39549540963719" r="4" fill="#000000" fill-opacity="1"></circle><circle cx="430.17008470832906" cy="269.38767995549927" r="4" fill="#000000" fill-opacity="1"></circle><circle cx="387.32602850079417" cy="214.956463505913" r="4" fill="#000000" fill-opacity="1"></circle><circle cx="289.4105489987319" cy="455.12803467694584" r="4" fill="#000000" fill-opacity="1"></circle><circle cx="403.357803063442" cy="412.8589683644166" r="4" fill="#000000" fill-opacity="1"></circle><circle cx="162.57243801875146" cy="311.15787788575955" r="4" fill="#000000" fill-opacity="1"></circle><circle cx="322.3378132350198" cy="434.6319666334652" r="4" fill="#000000" fill-opacity="1"></circle><circle cx="72.16949745251435" cy="418.52563442055794" r="4" fill="#000000" fill-opacity="1"></circle><circle cx="110.15315210845385" cy="211.99850748846632" r="4" fill="#000000" fill-opacity="1"></circle><circle cx="232.51008359866813" cy="43.69794549331749" r="4" fill="#000000" fill-opacity="1"></circle><circle cx="78.00586193481806" cy="447.05839696615686" r="4" fill="#000000" fill-opacity="1"></circle><circle cx="167.4701905107084" cy="54.92056610015192" r="4" fill="#000000" fill-opacity="1"></circle><circle cx="317.30899619706986" cy="464.4437097310682" r="4" fill="#000000" fill-opacity="1"></circle><circle cx="357.29450600295814" cy="337.2327180937907" r="4" fill="#000000" fill-opacity="1"></circle><circle cx="485.3637161692201" cy="436.47814395777004" r="4" fill="#000000" fill-opacity="1"></circle><circle cx="486.6912068866735" cy="71.56824314018986" r="4" fill="#000000" fill-opacity="1"></circle><circle cx="364.7549914670513" cy="66.12509248850267" r="4" fill="#000000" fill-opacity="1"></circle><circle cx="166.69111442598344" cy="435.71122959573506" r="4" fill="#000000" fill-opacity="1"></circle><circle cx="77.47935285748775" cy="29.417088674569737" r="4" fill="#000000" fill-opacity="1"></circle><circle cx="190.52035479677534" cy="450.2943633489338" r="4" fill="#000000" fill-opacity="1"></circle><circle cx="327.0215963203248" cy="452.10282162619393" r="4" fill="#000000" fill-opacity="1"></circle><circle cx="368.0018472825355" cy="244.22939171099821" r="4" fill="#000000" fill-opacity="1"></circle><circle cx="465.62525050263866" cy="333.9360136439881" r="4" fill="#000000" fill-opacity="1"></circle><circle cx="409.2576142645945" cy="262.1226075513039" r="4" fill="#000000" fill-opacity="1"></circle><circle cx="239.6418701465992" cy="487.9845203028103" r="4" fill="#000000" fill-opacity="1"></circle><circle cx="110.25773405041676" cy="325.57186006768467" r="4" fill="#000000" fill-opacity="1"></circle><circle cx="307.5845135420474" cy="56.051854997248924" r="4" fill="#000000" fill-opacity="1"></circle><circle cx="420.78120399140226" cy="448.0557554812819" r="4" fill="#000000" fill-opacity="1"></circle><circle cx="145.08418444372978" cy="348.48938893639564" r="4" fill="#000000" fill-opacity="1"></circle><circle cx="307.30702668697063" cy="330.76808773800906" r="4" fill="#000000" fill-opacity="1"></circle><circle cx="48.77552874963111" cy="318.32930324541496" r="4" fill="#000000" fill-opacity="1"></circle><circle cx="398.27695669042686" cy="78.17678243749944" r="4" fill="#000000" fill-opacity="1"></circle><circle cx="97.49222623773635" cy="225.81601622161818" r="4" fill="#000000" fill-opacity="1"></circle><circle cx="221.15546012720273" cy="108.4205934597206" r="4" fill="#000000" fill-opacity="1"></circle><circle cx="469.8899181922176" cy="69.68745410227186" r="4" fill="#000000" fill-opacity="1"></circle><circle cx="285.67174994077556" cy="144.03839880291247" r="4" fill="#000000" fill-opacity="1"></circle><circle cx="458.07000488476876" cy="464.31880545508045" r="4" fill="#000000" fill-opacity="1"></circle><circle cx="179.82799906596057" cy="388.7896369999319" r="4" fill="#000000" fill-opacity="1"></circle><circle cx="76.34597690643221" cy="207.33086204045065" r="4" fill="#000000" fill-opacity="1"></circle><circle cx="368.05610697360896" cy="338.13446298240603" r="4" fill="#000000" fill-opacity="1"></circle><circle cx="308.7580071270943" cy="215.09564227822423" r="4" fill="#000000" fill-opacity="1"></circle><circle cx="200.09888824477025" cy="203.86288104156662" r="4" fill="#000000" fill-opacity="1"></circle><circle cx="56.97220811249615" cy="425.8651131728366" r="4" fill="#000000" fill-opacity="1"></circle><circle cx="108.49834728052488" cy="360.69744584403134" r="4" fill="#000000" fill-opacity="1"></circle><circle cx="387.9439131927729" cy="153.9263236998303" r="4" fill="#000000" fill-opacity="1"></circle><circle cx="94.39166683950315" cy="28.64919913798053" r="4" fill="#000000" fill-opacity="1"></circle><circle cx="101.67802935749728" cy="291.95754480975774" r="4" fill="#000000" fill-opacity="1"></circle><circle cx="190.72930661782686" cy="175.82860310493464" r="4" fill="#000000" fill-opacity="1"></circle><circle cx="29.243322552481235" cy="240.92269814858412" r="4" fill="#000000" fill-opacity="1"></circle><circle cx="330.41023054757557" cy="359.78600266956755" r="4" fill="#000000" fill-opacity="1"></circle><circle cx="270.7372155527296" cy="91.28558220087032" r="4" fill="#000000" fill-opacity="1"></circle><circle cx="32.429533409397266" cy="211.92138469695755" r="4" fill="#000000" fill-opacity="1"></circle><circle cx="258.52736024741574" cy="233.76001344391358" r="4" fill="#000000" fill-opacity="1"></circle><circle cx="199.32693783538102" cy="254.4602723154343" r="4" fill="#000000" fill-opacity="1"></circle><circle cx="40.70208365039421" cy="175.51324428166043" r="4" fill="#000000" fill-opacity="1"></circle><circle cx="376.802538340844" cy="298.6491751867847" r="4" fill="#000000" fill-opacity="1"></circle><circle cx="63.86616391920187" cy="479.73895780706357" r="4" fill="#000000" fill-opacity="1"></circle><circle cx="336.43805698184013" cy="113.11056303612374" r="4" fill="#000000" fill-opacity="1"></circle><circle cx="88.6783249367245" cy="367.6851174098021" r="4" fill="#000000" fill-opacity="1"></circle><circle cx="248.28414727209775" cy="139.44299558913642" r="4" fill="#000000" fill-opacity="1"></circle><circle cx="437.96115108087974" cy="385.0110890981585" r="4" fill="#000000" fill-opacity="1"></circle><circle cx="208.927894308511" cy="290.4123437356022" r="4" fill="#000000" fill-opacity="1"></circle><circle cx="203.27513313354737" cy="327.38402158420763" r="4" fill="#000000" fill-opacity="1"></circle><circle cx="308.411127329253" cy="412.3651255392967" r="4" fill="#000000" fill-opacity="1"></circle><circle cx="352.26169997539716" cy="117.67812728830339" r="4" fill="#000000" fill-opacity="1"></circle><circle cx="59.70143676706954" cy="87.57589406223322" r="4" fill="#000000" fill-opacity="1"></circle><circle cx="44.98752441061139" cy="412.07482611600335" r="4" fill="#000000" fill-opacity="1"></circle><circle cx="57.664370285839446" cy="451.2822951634006" r="4" fill="#000000" fill-opacity="1"></circle><circle cx="51.8277471905478" cy="94.7526458655196" r="4" fill="#000000" fill-opacity="1"></circle><circle cx="392.1388969315057" cy="339.1720577910947" r="4" fill="#000000" fill-opacity="1"></circle><circle cx="235.01913950687754" cy="204.44717903546376" r="4" fill="#000000" fill-opacity="1"></circle><circle cx="232.90646629133386" cy="168.79585987615152" r="4" fill="#000000" fill-opacity="1"></circle><circle cx="419.82661462320726" cy="27.18386430896517" r="4" fill="#000000" fill-opacity="1"></circle><circle cx="362.4270362808858" cy="151.56154569688596" r="4" fill="#000000" fill-opacity="1"></circle><circle cx="68.9966687034685" cy="469.6948574400153" r="4" fill="#000000" fill-opacity="1"></circle><circle cx="390.6197842936481" cy="29.010661989170686" r="4" fill="#000000" fill-opacity="1"></circle><circle cx="438.30582617342094" cy="331.15040009251925" r="4" fill="#000000" fill-opacity="1"></circle><circle cx="454.64973896303815" cy="281.53512378667983" r="4" fill="#000000" fill-opacity="1"></circle><circle cx="142.69215194529528" cy="94.04342934888409" r="4" fill="#000000" fill-opacity="1"></circle><circle cx="292.2692463389969" cy="128.19621246929103" r="4" fill="#000000" fill-opacity="1"></circle><circle cx="154.33182308244915" cy="246.02486887052476" r="4" fill="#000000" fill-opacity="1"></circle><circle cx="212.94313183591947" cy="247.95777318436512" r="4" fill="#000000" fill-opacity="1"></circle><circle cx="195.95630793197932" cy="222.81049016785434" r="4" fill="#000000" fill-opacity="1"></circle><circle cx="470.6214376816584" cy="197.79665609140628" r="4" fill="#000000" fill-opacity="1"></circle><circle cx="69.53843689669691" cy="158.2887295983574" r="4" fill="#000000" fill-opacity="1"></circle><circle cx="473.77273062062227" cy="437.2835936846841" r="4" fill="#000000" fill-opacity="1"></circle><circle cx="40.955511535190674" cy="243.7952412298503" r="4" fill="#000000" fill-opacity="1"></circle><circle cx="438.0540586339174" cy="418.7197666158215" r="4" fill="#000000" fill-opacity="1"></circle><circle cx="213.63233308198616" cy="397.62294090442674" r="4" fill="#000000" fill-opacity="1"></circle><circle cx="239.9637789625082" cy="330.9249302848223" r="4" fill="#000000" fill-opacity="1"></circle><circle cx="50.76445511429193" cy="227.53769007023612" r="4" fill="#000000" fill-opacity="1"></circle><circle cx="348.3099711670198" cy="152.22052783838183" r="4" fill="#000000" fill-opacity="1"></circle><circle cx="158.3503867287088" cy="105.39767390722096" r="4" fill="#000000" fill-opacity="1"></circle><circle cx="163.15577393630926" cy="161.69743823104363" r="4" fill="#000000" fill-opacity="1"></circle><circle cx="38.73561628745233" cy="51.82441890025311" r="4" fill="#000000" fill-opacity="1"></circle><circle cx="58.748419384976955" cy="26.84874226457917" r="4" fill="#000000" fill-opacity="1"></circle><circle cx="477.5288636609597" cy="184.25938323328728" r="4" fill="#000000" fill-opacity="1"></circle><circle cx="256.0869950390203" cy="427.1374838018059" r="4" fill="#000000" fill-opacity="1"></circle><circle cx="230.34451753435278" cy="478.67035613193906" r="4" fill="#000000" fill-opacity="1"></circle><circle cx="405.439560188728" cy="209.27891330680467" r="4" fill="#000000" fill-opacity="1"></circle><circle cx="363.8272844518774" cy="323.3269731407043" r="4" fill="#000000" fill-opacity="1"></circle><circle cx="213.22235945713902" cy="117.06956250221796" r="4" fill="#000000" fill-opacity="1"></circle><circle cx="68.20537206627458" cy="100.24453859124117" r="4" fill="#000000" fill-opacity="1"></circle><circle cx="93.49511963255136" cy="248.61052619217946" r="4" fill="#000000" fill-opacity="1"></circle><circle cx="343.965099087808" cy="369.7963511091317" r="4" fill="#000000" fill-opacity="1"></circle><circle cx="132.4058068482432" cy="477.38877043370076" r="4" fill="#000000" fill-opacity="1"></circle><circle cx="453.83138671168143" cy="320.5087880284985" r="4" fill="#000000" fill-opacity="1"></circle><circle cx="448.05899228700264" cy="373.03615520594536" r="4" fill="#000000" fill-opacity="1"></circle><circle cx="213.33004259335462" cy="209.1045387728733" r="4" fill="#000000" fill-opacity="1"></circle><circle cx="266.77692447629624" cy="24.034924536127743" r="4" fill="#000000" fill-opacity="1"></circle><circle cx="87.52177794806016" cy="390.8970001944114" r="4" fill="#000000" fill-opacity="1"></circle><circle cx="343.0139273413583" cy="469.6707938904049" r="4" fill="#000000" fill-opacity="1"></circle><circle cx="443.18228968424387" cy="233.84558500623365" r="4" fill="#000000" fill-opacity="1"></circle><circle cx="425.97316759845927" cy="105.89114615747695" r="4" fill="#000000" fill-opacity="1"></circle><circle cx="195.9168591572237" cy="90.56111209070619" r="4" fill="#000000" fill-opacity="1"></circle><circle cx="58.56059445352746" cy="54.22259410890628" r="4" fill="#000000" fill-opacity="1"></circle><circle cx="230.40776503689455" cy="341.10739292142034" r="4" fill="#000000" fill-opacity="1"></circle><circle cx="249.5016851832649" cy="254.9919561455027" r="4" fill="#000000" fill-opacity="1"></circle><circle cx="464.0088783308352" cy="357.3232303498268" r="4" fill="#000000" fill-opacity="1"></circle><circle cx="237.63914118164786" cy="188.301963286966" r="4" fill="#000000" fill-opacity="1"></circle><circle cx="150.00421616441633" cy="210.72935868413322" r="4" fill="#000000" fill-opacity="1"></circle><circle cx="465.33760030555476" cy="162.15709590689872" r="4" fill="#000000" fill-opacity="1"></circle><circle cx="370.34237677978115" cy="429.9771100549227" r="4" fill="#000000" fill-opacity="1"></circle><circle cx="114.34596055428153" cy="401.38377266843077" r="4" fill="#000000" fill-opacity="1"></circle><circle cx="353.03779899832796" cy="349.1879793872513" r="4" fill="#000000" fill-opacity="1"></circle><circle cx="220.38186471878106" cy="340.14708488886714" r="4" fill="#000000" fill-opacity="1"></circle><circle cx="43.329154446177235" cy="29.167829166882935" r="4" fill="#000000" fill-opacity="1"></circle><circle cx="30.263161181180656" cy="477.4808836060385" r="4" fill="#000000" fill-opacity="1"></circle><circle cx="316.3037547500914" cy="190.94564407551098" r="4" fill="#000000" fill-opacity="1"></circle><circle cx="192.91876993161762" cy="26.033288490435275" r="4" fill="#000000" fill-opacity="1"></circle><circle cx="292.3256562689762" cy="236.63000565708884" r="4" fill="#000000" fill-opacity="1"></circle><circle cx="364.6568169970195" cy="90.54426673282882" r="4" fill="#000000" fill-opacity="1"></circle><circle cx="337.80705015102933" cy="43.8650128995879" r="4" fill="#000000" fill-opacity="1"></circle><circle cx="194.71279423839624" cy="278.27064820900694" r="4" fill="#000000" fill-opacity="1"></circle><circle cx="305.6145090325134" cy="112.28702127465539" r="4" fill="#000000" fill-opacity="1"></circle><circle cx="45.19975614198041" cy="285.28343873209116" r="4" fill="#000000" fill-opacity="1"></circle><circle cx="130.75816046021924" cy="209.99860805703344" r="4" fill="#000000" fill-opacity="1"></circle><circle cx="478.445731337445" cy="129.4011113190685" r="4" fill="#000000" fill-opacity="1"></circle><circle cx="161.30358761648375" cy="207.8500829034297" r="4" fill="#000000" fill-opacity="1"></circle><circle cx="133.8247929837834" cy="189.3829370770856" r="4" fill="#000000" fill-opacity="1"></circle><circle cx="383.3569228041961" cy="328.38645484230574" r="4" fill="#000000" fill-opacity="1"></circle><circle cx="111.80620626881327" cy="100.80710701492896" r="4" fill="#000000" fill-opacity="1"></circle><circle cx="71.61429952702808" cy="299.6323551781807" r="4" fill="#000000" fill-opacity="1"></circle><circle cx="128.5227914726118" cy="179.53791940087473" r="4" fill="#000000" fill-opacity="1"></circle><circle cx="48.648760011818545" cy="153.0978747590023" r="4" fill="#000000" fill-opacity="1"></circle><circle cx="376.55567249697003" cy="471.38485160197325" r="4" fill="#000000" fill-opacity="1"></circle><circle cx="41.47856906416203" cy="441.829433329479" r="4" fill="#000000" fill-opacity="1"></circle><circle cx="340.1038749576619" cy="228.42150375716201" r="4" fill="#000000" fill-opacity="1"></circle><circle cx="317.6129139368991" cy="113.2863606001812" r="4" fill="#000000" fill-opacity="1"></circle><circle cx="115.5360683609077" cy="113.70829743446518" r="4" fill="#000000" fill-opacity="1"></circle><circle cx="355.08091941405314" cy="363.146940028309" r="4" fill="#000000" fill-opacity="1"></circle><circle cx="420.54282226627396" cy="336.66597916045134" r="4" fill="#000000" fill-opacity="1"></circle><circle cx="91.70763475496511" cy="400.27309028525417" r="4" fill="#000000" fill-opacity="1"></circle><circle cx="51.542688747986034" cy="171.058986673636" r="4" fill="#000000" fill-opacity="1"></circle><circle cx="177.53564492405474" cy="100.96621212776155" r="4" fill="#000000" fill-opacity="1"></circle><circle cx="248.5463382352561" cy="38.82089073889113" r="4" fill="#000000" fill-opacity="1"></circle><circle cx="351.87354985345024" cy="296.0793031054505" r="4" fill="#000000" fill-opacity="1"></circle><circle cx="424.01014290908137" cy="49.36749282859892" r="4" fill="#000000" fill-opacity="1"></circle><circle cx="78.7825615264691" cy="58.99052647464749" r="4" fill="#000000" fill-opacity="1"></circle><circle cx="470.6024769615357" cy="227.33406807411816" r="4" fill="#000000" fill-opacity="1"></circle><circle cx="261.32116328595293" cy="486.770112956374" r="4" fill="#000000" fill-opacity="1"></circle><circle cx="197.1266133821503" cy="358.5818743771854" r="4" fill="#000000" fill-opacity="1"></circle><circle cx="45.96238159481211" cy="40.892040968388514" r="4" fill="#000000" fill-opacity="1"></circle><circle cx="330.6659327317066" cy="348.48407783108456" r="4" fill="#000000" fill-opacity="1"></circle><circle cx="268.01874301658995" cy="353.02370360279843" r="4" fill="#000000" fill-opacity="1"></circle><circle cx="449.8062890470996" cy="174.4311419273618" r="4" fill="#000000" fill-opacity="1"></circle><circle cx="447.63892603062857" cy="362.5893596166573" r="4" fill="#000000" fill-opacity="1"></circle><circle cx="66.08621165775797" cy="236.2464629642121" r="4" fill="#000000" fill-opacity="1"></circle><circle cx="380.88532472150376" cy="482.3051435858839" r="4" fill="#000000" fill-opacity="1"></circle><circle cx="349.3628079052553" cy="219.3389208745731" r="4" fill="#000000" fill-opacity="1"></circle><circle cx="216.56125499250766" cy="373.0440557240221" r="4" fill="#000000" fill-opacity="1"></circle><circle cx="37.13228766370902" cy="118.82385929164887" r="4" fill="#000000" fill-opacity="1"></circle><circle cx="157.49489957648652" cy="132.4267100253941" r="4" fill="#000000" fill-opacity="1"></circle><circle cx="456.1453825359074" cy="397.17082603985887" r="4" fill="#000000" fill-opacity="1"></circle><circle cx="166.984026710055" cy="217.99336106242205" r="4" fill="#000000" fill-opacity="1"></circle><circle cx="336.95653240193536" cy="94.2094395903042" r="4" fill="#000000" fill-opacity="1"></circle><circle cx="154.82163239054293" cy="397.2225370777586" r="4" fill="#000000" fill-opacity="1"></circle><circle cx="139.89387453622228" cy="295.76615437146154" r="4" fill="#000000" fill-opacity="1"></circle><circle cx="143.55255894640135" cy="362.3517626911537" r="4" fill="#000000" fill-opacity="1"></circle><circle cx="246.81622637534716" cy="391.25659795807513" r="4" fill="#000000" fill-opacity="1"></circle><circle cx="213.1859845668372" cy="359.9254858661594" r="4" fill="#000000" fill-opacity="1"></circle><circle cx="143.82924277276737" cy="313.6963050943393" r="4" fill="#000000" fill-opacity="1"></circle><circle cx="361.6416823989793" cy="183.79562192795896" r="4" fill="#000000" fill-opacity="1"></circle><circle cx="123.43448848586084" cy="49.862052828870766" r="4" fill="#000000" fill-opacity="1"></circle><circle cx="468.68841754358795" cy="469.3517191444335" r="4" fill="#000000" fill-opacity="1"></circle><circle cx="168.39655109333174" cy="478.02224787417583" r="4" fill="#000000" fill-opacity="1"></circle><circle cx="105.97317757440909" cy="73.350124674592" r="4" fill="#000000" fill-opacity="1"></circle><circle cx="193.72929800780486" cy="47.88781275836669" r="4" fill="#000000" fill-opacity="1"></circle><circle cx="248.34207516909157" cy="353.20337509693996" r="4" fill="#000000" fill-opacity="1"></circle><circle cx="230.5174020842445" cy="74.7094485048967" r="4" fill="#000000" fill-opacity="1"></circle><circle cx="136.21656786233922" cy="162.64973653695625" r="4" fill="#000000" fill-opacity="1"></circle><circle cx="84.27039939355925" cy="486.96650614765724" r="4" fill="#000000" fill-opacity="1"></circle><circle cx="24.52225288912363" cy="124.00890687720842" r="4" fill="#000000" fill-opacity="1"></circle><circle cx="306.71668349296357" cy="242.98984912382667" r="4" fill="#000000" fill-opacity="1"></circle><circle cx="434.42885460861044" cy="119.2142675442289" r="4" fill="#000000" fill-opacity="1"></circle></svg>