<svg width="512" height="512" viewBox="0 0 512 512" xmlns="http://www.w3.org/2000/svg">
          <rect x="0" y="0" width="512" height="512" fill="#f8f8ff" fill-opacity="1"></rect>
        <circle cx="276.3626306255725" cy="164.5977754162837" r="4" fill="#000000" fill-opacity="1"></circle><circle cx="394.0978111331321" cy="373.93370500352654" r="4" fill="#000000" fill-opacity="1"></circle><circle cx="38.869050169559884" cy="137.41422092765836" r="4" fill="#000000" fill-opacity="1"></circle><circle cx="376.466199365148" cy="486.4994667597226" r="4" fill="#000000" fill-opacity="1"></circle><circle cx="302.99781543373473" cy="486.8797767726318" r="4" fill="#000000" fill-opacity="1"></circle><circle cx="173.03477091066688" cy="85.56319033986075" r="4" fill="#000000" fill-opacity="1"></circle><circle cx="150.32259974205695" cy="292.4584717334835" r="4" fill="#000000" fill-opacity="1"></circle><circle cx="367.72210739343257" cy="405.6282128452497" r="4" fill="#000000" fill-opacity="1"></circle><circle cx="150.58240293111004" cy="386.4290507121933" r="4" fill="#000000" fill-opacity="1"></circle><circle cx="216.2813097089952" cy="163.80819408497769" r="4" fill="#000000" fill-opacity="1"></circle><circle cx="444.17109461103547" cy="348.1394781795414" r="4" fill="#000000" fill-opacity="1"></circle><circle cx="110.77562126391845" cy="321.75242139429355" r="4" fill="#000000" fill-opacity="1"></circle><circle cx="75.36522524206532" cy="138.3061204780861" r="4" fill="#000000" fill-opacity="1"></circle><circle cx="179.02962009171142" cy="381.6305572540293" r="4" fill="#000000" fill-opacity="1"></circle><circle cx="148.84143857128743" cy="343.8414891025102" r="4" fill="#000000" fill-opacity="1"></circle><circle cx="53.355878640670724" cy="324.3112500661286" r="4" fill="#000000" fill-opacity="1"></circle><circle cx="109.48627952533988" cy="151.8922521953437" r="4" fill="#000000" fill-opacity="1"></circle><circle cx="360.21492320890974" cy="356.6722549647996" r="4" fill="#000000" fill-opacity="1"></circle><circle cx="427.4649345607603" cy="119.20345230265895" r="4" fill="#000000" fill-opacity="1"></circle><circle cx="75.44257340123275" cy="330.20704557406583" r="4" fill="#000000" fill-opacity="1"></circle><circle cx="248.90121405688134" cy="44.79777780816656" r="4" fill="#000000" fill-opacity="1"></circle><circle cx="423.2922713956055" cy="192.70861177024733" r="4" fill="#000000" fill-opacity="1"></circle><circle cx="337.6153336075163" cy="298.34254017448154" r="4" fill="#000000" fill-opacity="1"></circle><circle cx="475.7528898905128" cy="145.35525903919515" r="4" fill="#000000" fill-opacity="1"></circle><circle cx="378.3876946019719" cy="357.3319152555064" r="4" fill="#000000" fill-opacity="1"></circle><circle cx="351.6326481372108" cy="284.2700632839079" r="4" fill="#000000" fill-opacity="1"></circle><circle cx="89.78460792328605" cy="83.3570819743291" r="4" fill="#000000" fill-opacity="1"></circle><circle cx="191.439497060435" cy="181.86429015870323" r="4" fill="#000000" fill-opacity="1"></circle><circle cx="455.02513911377724" cy="181.82788073582114" r="4" fill="#000000" fill-opacity="1"></circle><circle cx="164.92419623074858" cy="332.16392332575725" r="4" fill="#000000" fill-opacity="1"></circle><circle cx="59.657815336410636" cy="165.89947715969754" r="4" fill="#000000" fill-opacity="1"></circle><circle cx="217.3105378327695" cy="375.3495902339934" r="4" fill="#000000" fill-opacity="1"></circle><circle cx="33.80705208045125" cy="241.68744158206243" r="4" fill="#000000" fill-opacity="1"></circle><circle cx="288.74707244439753" cy="169.1809693882134" r="4" fill="#000000" fill-opacity="1"></circle><circle cx="224.4096137102901" cy="472.95410307865285" r="4" fill="#000000" fill-opacity="1"></circle><circle cx="110.7339281620143" cy="480.1227570661195" r="4" fill="#000000" fill-opacity="1"></circle><circle cx="150.2955160508817" cy="271.61899601755965" r="4" fill="#000000" fill-opacity="1"></circle><circle cx="216.46051012376242" cy="298.4298274045429" r="4" fill="#000000" fill-opacity="1"></circle><circle cx="278.6632993487225" cy="194.59975228493317" r="4" fill="#000000" fill-opacity="1"></circle><circle cx="441.24129479788587" cy="365.4587278081974" r="4" fill="#000000" fill-opacity="1"></circle><circle cx="90.39523006901621" cy="323.16534042361053" r="4" fill="#000000" fill-opacity="1"></circle><circle cx="234.18151941984823" cy="421.3644648738929" r="4" fill="#000000" fill-opacity="1"></circle><circle cx="359.37484171268744" cy="113.50360000617138" r="4" fill="#000000" fill-opacity="1"></circle><circle cx="345.7532778975133" cy="26.79909260202844" r="4" fill="#000000" fill-opacity="1"></circle><circle cx="448.99597978027384" cy="97.4723360893336" r="4" fill="#000000" fill-opacity="1"></circle><circle cx="267.31270751021486" cy="75.89052262159896" r="4" fill="#000000" fill-opacity="1"></circle><circle cx="177.8739630620087" cy="391.64364965667954" r="4" fill="#000000" fill-opacity="1"></circle><circle cx="54.30475644591246" cy="421.6237146755083" r="4" fill="#000000" fill-opacity="1"></circle><circle cx="327.6963239150153" cy="447.94122673555876" r="4" fill="#000000" fill-opacity="1"></circle><circle cx="34.94510705317546" cy="228.5753042227336" r="4" fill="#000000" fill-opacity="1"></circle><circle cx="298.89652737381647" cy="225.9942157908841" r="4" fill="#000000" fill-opacity="1"></circle><circle cx="320.50500744419446" cy="281.86707982751915" r="4" fill="#000000" fill-opacity="1"></circle><circle cx="402.3985360532055" cy="227.9105743622764" r="4" fill="#000000" fill-opacity="1"></circle><circle cx="65.17323822844187" cy="24.010199697130176" r="4" fill="#000000" fill-opacity="1"></circle><circle cx="138.5566133538531" cy="477.9537436386834" r="4" fill="#000000" fill-opacity="1"></circle><circle cx="193.17119832594298" cy="206.3731749990994" r="4" fill="#000000" fill-opacity="1"></circle><circle cx="126.94035360980048" cy="377.6749383225457" r="4" fill="#000000" fill-opacity="1"></circle><circle cx="175.5882703077964" cy="440.51344354467864" r="4" fill="#000000" fill-opacity="1"></circle><circle cx="115.73588192098804" cy="400.44825710096444" r="4" fill="#000000" fill-opacity="1"></circle><circle cx="206.40065649796918" cy="342.2444238895754" r="4" fill="#000000" fill-opacity="1"></circle><circle cx="169.8135234627998" cy="250.60141339659225" r="4" fill="#000000" fill-opacity="1"></circle><circle cx="197.0505197914916" cy="414.56725264407606" r="4" fill="#000000" fill-opacity="1"></circle><circle cx="264.48387229029123" cy="146.65184758441373" r="4" fill="#000000" fill-opacity="1"></circle><circle cx="137.71486746371394" cy="221.165711724775" r="4" fill="#000000" fill-opacity="1"></circle><circle cx="460.5328167410297" cy="331.49897782414547" r="4" fill="#000000" fill-opacity="1"></circle><circle cx="186.82470526765266" cy="396.706609733421" r="4" fill="#000000" fill-opacity="1"></circle><circle cx="312.45543915215865" cy="207.7133814418437" r="4" fill="#000000" fill-opacity="1"></circle><circle cx="429.8901009642158" cy="175.62257843042883" r="4" fill="#000000" fill-opacity="1"></circle><circle cx="158.97465219620614" cy="201.66352468511343" r="4" fill="#000000" fill-opacity="1"></circle><circle cx="48.7474256286067" cy="230.54928290764406" r="4" fill="#000000" fill-opacity="1"></circle><circle cx="406.0319819959372" cy="449.84907027159693" r="4" fill="#000000" fill-opacity="1"></circle><circle cx="296.99623448718626" cy="257.996692110453" r="4" fill="#000000" fill-opacity="1"></circle><circle cx="245.55768285683988" cy="97.0505217543241" r="4" fill="#000000" fill-opacity="1"></circle><circle cx="423.22052404076817" cy="264.99880370635606" r="4" fill="#000000" fill-opacity="1"></circle><circle cx="388.467131608636" cy="447.7252876180821" r="4" fill="#000000" fill-opacity="1"></circle><circle cx="384.08723675843146" cy="467.49601657449426" r="4" fill="#000000" fill-opacity="1"></circle><circle cx="173.24806769576105" cy="356.3980560135823" r="4" fill="#000000" fill-opacity="1"></circle><circle cx="422.0442182435157" cy="359.23267368538427" r="4" fill="#000000" fill-opacity="1"></circle><circle cx="472.99823161800305" cy="453.36180408836685" r="4" fill="#000000" fill-opacity="1"></circle><circle cx="79.35824710585374" cy="434.3404785497544" r="4" fill="#000000" fill-opacity="1"></circle><circle cx="212.27131381968502" cy="268.7507234675582" r="4" fill="#000000" fill-opacity="1"></circle><circle cx="409.57830035919494" cy="55.5198584917315" r="4" fill="#000000" fill-opacity="1"></circle><circle cx="431.608292041057" cy="135.28548662459843" r="4" fill="#000000" fill-opacity="1"></circle><circle cx="347.1366704272979" cy="115.78667158364345" r="4" fill="#000000" fill-opacity="1"></circle><circle cx="368.9940778853703" cy="135.24720404830686" r="4" fill="#000000" fill-opacity="1"></circle><circle cx="26.014476290886524" cy="303.6044899612865" r="4" fill="#000000" fill-opacity="1"></circle><circle cx="261.42074566665633" cy="418.30480362985674" r="4" fill="#000000" fill-opacity="1"></circle><circle cx="238.00073650421257" cy="261.7442208581898" r="4" fill="#000000" fill-opacity="1"></circle><circle cx="180.04241272906245" cy="27.218881848065887" r="4" fill="#000000" fill-opacity="1"></circle><circle cx="439.8805088730477" cy="435.3496641368786" r="4" fill="#000000" fill-opacity="1"></circle><circle cx="257.32311881838814" cy="85.04903925414015" r="4" fill="#000000" fill-opacity="1"></circle><circle cx="358.61766222573414" cy="450.0501421756707" r="4" fill="#000000" fill-opacity="1"></circle><circle cx="119.20218215367905" cy="63.45693190937035" r="4" fill="#000000" fill-opacity="1"></circle><circle cx="473.5236656401448" cy="271.6223802202887" r="4" fill="#000000" fill-opacity="1"></circle><circle cx="119.40495248967889" cy="215.46007194457218" r="4" fill="#000000" fill-opacity="1"></circle><circle cx="424.3258432620929" cy="50.468082972909095" r="4" fill="#000000" fill-opacity="1"></circle><circle cx="43.89478979601874" cy="206.57056612215996" r="4" fill="#000000" fill-opacity="1"></circle><circle cx="210.21297077067902" cy="102.18525631081664" r="4" fill="#000000" fill-opacity="1"></circle><circle cx="384.5380187945536" cy="121.46666998871247" r="4" fill="#000000" fill-opacity="1"></circle><circle cx="114.79994180013101" cy="387.26474862743885" r="4" fill="#000000" fill-opacity="1"></circle><circle cx="313.9598646250119" cy="299.90626435605515" r="4" fill="#000000" fill-opacity="1"></circle><circle cx="172.3647151047235" cy="322.4004256746214" r="4" fill="#000000" fill-opacity="1"></circle><circle cx="343.54346626336746" cy="486.4553217145953" r="4" fill="#000000" fill-opacity="1"></circle><circle cx="63.98050141900909" cy="45.44621413060707" r="4" fill="#000000" fill-opacity="1"></circle><circle cx="257.5540004451409" cy="324.9033853572065" r="4" fill="#000000" fill-opacity="1"></circle><circle cx="31.919351404273684" cy="145.19367300965965" r="4" fill="#000000" fill-opacity="1"></circle><circle cx="135.55069529999759" cy="149.137984861316" r="4" fill="#000000" fill-opacity="1"></circle><circle cx="48.60586479128807" cy="59.02090720889565" r="4" fill="#000000" fill-opacity="1"></circle><circle cx="436.1979441366713" cy="448.0712965344775" r="4" fill="#000000" fill-opacity="1"></circle><circle cx="390.40055624100904" cy="244.9118980853953" r="4" fill="#000000" fill-opacity="1"></circle><circle cx="37.32480184877973" cy="433.1198815136334" r="4" fill="#000000" fill-opacity="1"></circle><circle cx="65.96041181117434" cy="375.0598778744302" r="4" fill="#000000" fill-opacity="1"></circle><circle cx="54.72630972753798" cy="247.5965371538334" r="4" fill="#000000" fill-opacity="1"></circle><circle cx="99.86504274112659" cy="209.20777505037395" r="4" fill="#000000" fill-opacity="1"></circle><circle cx="473.4622986590025" cy="394.09112090293024" r="4" fill="#000000" fill-opacity="1"></circle><circle cx="267.90248193864045" cy="224.9803602372501" r="4" fill="#000000" fill-opacity="1"></circle><circle cx="302.7775476160332" cy="41.19844972476146" r="4" fill="#000000" fill-opacity="1"></circle><circle cx="110.9593308818069" cy="467.1528661713212" r="4" fill="#000000" fill-opacity="1"></circle><circle cx="335.78105647641013" cy="271.0658981048157" r="4" fill="#000000" fill-opacity="1"></circle><circle cx="414.0052157841434" cy="120.28073322960572" r="4" fill="#000000" fill-opacity="1"></circle><circle cx="390.09939949474784" cy="34.391008847432936" r="4" fill="#000000" fill-opacity="1"></circle><circle cx="204.01810423622084" cy="238.42664124543177" r="4" fill="#000000" fill-opacity="1"></circle><circle cx="426.59855598801806" cy="103.23553000974063" r="4" fill="#000000" fill-opacity="1"></circle><circle cx="339.65789102935355" cy="148.77082041613852" r="4" fill="#000000" fill-opacity="1"></circle><circle cx="441.4707249308939" cy="389.6383231101017" r="4" fill="#000000" fill-opacity="1"></circle><circle cx="433.6960665210691" cy="32.05332261896219" r="4" fill="#000000" fill-opacity="1"></circle><circle cx="408.95658049586393" cy="420.59063383286616" r="4" fill="#000000" fill-opacity="1"></circle><circle cx="106.0540201117689" cy="291.3030112281062" r="4" fill="#000000" fill-opacity="1"></circle><circle cx="408.4613190140275" cy="351.28916480208954" r="4" fill="#000000" fill-opacity="1"></circle><circle cx="126.94053840446318" cy="129.77187083885778" r="4" fill="#000000" fill-opacity="1"></circle><circle cx="82.94575092541692" cy="472.1579893436514" r="4" fill="#000000" fill-opacity="1"></circle><circle cx="206.30462059019456" cy="145.3464138601774" r="4" fill="#000000" fill-opacity="1"></circle><circle cx="272.94283075712156" cy="26.305020056920686" r="4" fill="#000000" fill-opacity="1"></circle><circle cx="309.61934213080616" cy="157.01198045313123" r="4" fill="#000000" fill-opacity="1"></circle><circle cx="244.26397828654018" cy="245.9236268015244" r="4" fill="#000000" fill-opacity="1"></circle><circle cx="193.94684156791757" cy="29.57745008315715" r="4" fill="#000000" fill-opacity="1"></circle><circle cx="465.9723102598027" cy="414.7284459249978" r="4" fill="#000000" fill-opacity="1"></circle><circle cx="355.4230243748281" cy="48.17461824129548" r="4" fill="#000000" fill-opacity="1"></circle><circle cx="34.54676975057964" cy="81.85262081878615" r="4" fill="#000000" fill-opacity="1"></circle><circle cx="265.201370296309" cy="278.87109096071663" r="4" fill="#000000" fill-opacity="1"></circle><circle cx="283.96806839056376" cy="302.592504737911" r="4" fill="#000000" fill-opacity="1"></circle><circle cx="140.59571494414544" cy="397.38347803577534" r="4" fill="#000000" fill-opacity="1"></circle><circle cx="63.77928663743975" cy="327.97593513152185" r="4" fill="#000000" fill-opacity="1"></circle><circle cx="67.00365601331491" cy="350.1275376134321" r="4" fill="#000000" fill-opacity="1"></circle><circle cx="120.71057974115476" cy="263.6671167184778" r="4" fill="#000000" fill-opacity="1"></circle><circle cx="67.34128735574838" cy="195.35801365361877" r="4" fill="#000000" fill-opacity="1"></circle><circle cx="424.3354720350925" cy="76.49720949343717" r="4" fill="#000000" fill-opacity="1"></circle><circle cx="430.3621418699182" cy="298.21946942187833" r="4" fill="#000000" fill-opacity="1"></circle><circle cx="421.799813242416" cy="455.6163661175107" r="4" fill="#000000" fill-opacity="1"></circle><circle cx="60.694558683388394" cy="474.25884109395236" r="4" fill="#000000" fill-opacity="1"></circle><circle cx="73.50838467172751" cy="93.12135186684067" r="4" fill="#000000" fill-opacity="1"></circle><circle cx="193.12090664261675" cy="235.98877099466714" r="4" fill="#000000" fill-opacity="1"></circle><circle cx="395.41198726203817" cy="86.78273683342587" r="4" fill="#000000" fill-opacity="1"></circle><circle cx="333.6602855063435" cy="245.25990573905577" r="4" fill="#000000" fill-opacity="1"></circle><circle cx="419.7540782891059" cy="27.990267571815153" r="4" fill="#000000" fill-opacity="1"></circle><circle cx="320.0913093219859" cy="335.858793833281" r="4" fill="#000000" fill-opacity="1"></circle><circle cx="118.60705895748788" cy="181.40577971916096" r="4" fill="#000000" fill-opacity="1"></circle><circle cx="109.64174804305318" cy="53.38489145611434" r="4" fill="#000000" fill-opacity="1"></circle><circle cx="333.5954416036821" cy="124.54079090536125" r="4" fill="#000000" fill-opacity="1"></circle><circle cx="396.2658066852577" cy="479.89248119904727" r="4" fill="#000000" fill-opacity="1"></circle><circle cx="216.01721529234786" cy="177.1507061649813" r="4" fill="#000000" fill-opacity="1"></circle><circle cx="194.11665327522093" cy="161.67268660104878" r="4" fill="#000000" fill-opacity="1"></circle><circle cx="428.3142658188273" cy="378.71763017859746" r="4" fill="#000000" fill-opacity="1"></circle><circle cx="71.33839943397834" cy="466.52198440554645" r="4" fill="#000000" fill-opacity="1"></circle><circle cx="319.4766230582824" cy="215.5460511899338" r="4" fill="#000000" fill-opacity="1"></circle><circle cx="404.39462682767453" cy="177.33319251611582" r="4" fill="#000000" fill-opacity="1"></circle><circle cx="456.4057076949519" cy="353.6596559266902" r="4" fill="#000000" fill-opacity="1"></circle><circle cx="208.49506779852834" cy="214.92214586763316" r="4" fill="#000000" fill-opacity="1"></circle><circle cx="58.27875795478188" cy="139.4374250600043" r="4" fill="#000000" fill-opacity="1"></circle><circle cx="373.06366718167163" cy="390.2771778617463" r="4" fill="#000000" fill-opacity="1"></circle><circle cx="251.6890325413097" cy="157.7666259861155" r="4" fill="#000000" fill-opacity="1"></circle><circle cx="407.724807166988" cy="327.02045519193337" r="4" fill="#000000" fill-opacity="1"></circle><circle cx="209.10106868346503" cy="434.7215901188905" r="4" fill="#000000" fill-opacity="1"></circle><circle cx="385.72998933124245" cy="271.9186377475148" r="4" fill="#000000" fill-opacity="1"></circle><circle cx="122.97885473689234" cy="473.9023074667711" r="4" fill="#000000" fill-opacity="1"></circle><circle cx="223.18625163237937" cy="212.1485374884174" r="4" fill="#000000" fill-opacity="1"></circle><circle cx="484.863301639905" cy="56.24027144627671" r="4" fill="#000000" fill-opacity="1"></circle><circle cx="205.98558397291714" cy="277.09680705936677" r="4" fill="#000000" fill-opacity="1"></circle><circle cx="168.45896182628687" cy="276.7349109499055" r="4" fill="#000000" fill-opacity="1"></circle><circle cx="259.1326177025031" cy="189.6172604587048" r="4" fill="#000000" fill-opacity="1"></circle><circle cx="72.16960078723409" cy="481.4420024170798" r="4" fill="#000000" fill-opacity="1"></circle><circle cx="127.3600195142005" cy="306.8715716014542" r="4" fill="#000000" fill-opacity="1"></circle><circle cx="29.42984775759644" cy="452.2245559509474" r="4" fill="#000000" fill-opacity="1"></circle><circle cx="276.497843835489" cy="110.43095441567309" r="4" fill="#000000" fill-opacity="1"></circle><circle cx="65.58056291815026" cy="295.3234848215091" r="4" fill="#000000" fill-opacity="1"></circle><circle cx="401.1638716390621" cy="465.40767600384544" r="4" fill="#000000" fill-opacity="1"></circle><circle cx="314.3916478962493" cy="360.45557991472714" r="4" fill="#000000" fill-opacity="1"></circle><circle cx="197.9898929138822" cy="116.59186966288765" r="4" fill="#000000" fill-opacity="1"></circle><circle cx="160.67306228668835" cy="39.93750146754036" r="4" fill="#000000" fill-opacity="1"></circle><circle cx="48.90364962185873" cy="310.05098709321567" r="4" fill="#000000" fill-opacity="1"></circle><circle cx="323.5248184669657" cy="176.61392842329846" r="4" fill="#000000" fill-opacity="1"></circle><circle cx="316.9552310103601" cy="444.12160697636784" r="4" fill="#000000" fill-opacity="1"></circle><circle cx="142.62471924635128" cy="411.1381436317046" r="4" fill="#000000" fill-opacity="1"></circle><circle cx="485.11450399473796" cy="200.61333932096454" r="4" fill="#000000" fill-opacity="1"></circle><circle cx="334.01749400859785" cy="387.9061704827254" r="4" fill="#000000" fill-opacity="1"></circle><circle cx="28.64471638148597" cy="466.535957013898" r="4" fill="#000000" fill-opacity="1"></circle><circle cx="449.3201949935001" cy="87.16388078276181" r="4" fill="#000000" fill-opacity="1"></circle><circle cx="462.4471807935388" cy="62.403160928114126" r="4" fill="#000000" fill-opacity="1"></circle><circle cx="57.564601714268704" cy="73.06599854579048" r="4" fill="#000000" fill-opacity="1"></circle><circle cx="66.94864542900889" cy="219.04848612770948" r="4" fill="#000000" fill-opacity="1"></circle><circle cx="270.4950209167623" cy="120.83339040520323" r="4" fill="#000000" fill-opacity="1"></circle><circle cx="377.7182386027919" cy="260.75413176452287" r="4" fill="#000000" fill-opacity="1"></circle><circle cx="460.5982553296614" cy="240.24450414235895" r="4" fill="#000000" fill-opacity="1"></circle><circle cx="181.83385183771185" cy="159.78944837051188" r="4" fill="#000000" fill-opacity="1"></circle><circle cx="254.29233972248556" cy="406.4904292202321" r="4" fill="#000000" fill-opacity="1"></circle><circle cx="447.1387579512958" cy="414.8546988149403" r="4" fill="#000000" fill-opacity="1"></circle><circle cx="469.06946380200264" cy="439.5567104190724" r="4" fill="#000000" fill-opacity="1"></circle><circle cx="188.0464218435099" cy="135.30543862181904" r="4" fill="#000000" fill-opacity="1"></circle><circle cx="143.96833665486173" cy="143.59497851515465" r="4" fill="#000000" fill-opacity="1"></circle><circle cx="474.14163112223827" cy="120.58591192044129" r="4" fill="#000000" fill-opacity="1"></circle><circle cx="290.47576017009624" cy="244.6377590837891" r="4" fill="#000000" fill-opacity="1"></circle><circle cx="226.83104725745363" cy="177.0035448111847" r="4" fill="#000000" fill-opacity="1"></circle><circle cx="218.12325883855647" cy="418.2926429088077" r="4" fill="#000000" fill-opacity="1"></circle><circle cx="90.81794753796241" cy="432.4365096733423" r="4" fill="#000000" fill-opacity="1"></circle><circle cx="64.75235046069278" cy="259.3173165259985" r="4" fill="#000000" fill-opacity="1"></circle><circle cx="371.95160974370225" cy="185.36728226959218" r="4" fill="#000000" fill-opacity="1"></circle><circle cx="342.8861814061547" cy="372.1105274576629" r="4" fill="#000000" fill-opacity="1"></circle><circle cx="391.29689926581415" cy="458.1984519151793" r="4" fill="#000000" fill-opacity="1"></circle><circle cx="74.9691266570006" cy="301.738385157461" r="4" fill="#000000" fill-opacity="1"></circle><circle cx="36.652666101948945" cy="361.78682039011113" r="4" fill="#000000" fill-opacity="1"></circle><circle cx="126.27020844067535" cy="421.25551432592613" r="4" fill="#000000" fill-opacity="1"></circle><circle cx="92.91497868989394" cy="365.43147162586143" r="4" fill="#000000" fill-opacity="1"></circle><circle cx="202.49330350396764" cy="193.06150795170174" r="4" fill="#000000" fill-opacity="1"></circle><circle cx="465.1026857320932" cy="46.02752552893763" r="4" fill="#000000" fill-opacity="1"></circle><circle cx="249.394757947445" cy="236.13844608097295" r="4" fill="#000000" fill-opacity="1"></circle><circle cx="433.4763424756078" cy="234.35008150506224" r="4" fill="#000000" fill-opacity="1"></circle><circle cx="273.30338520206715" cy="299.5297803855136" r="4" fill="#000000" fill-opacity="1"></circle><circle cx="79.95059725794941" cy="151.98738819466672" r="4" fill="#000000" fill-opacity="1"></circle><circle cx="263.5142230366041" cy="380.3322576413435" r="4" fill="#000000" fill-opacity="1"></circle><circle cx="422.67378177034044" cy="222.19280990985766" r="4" fill="#000000" fill-opacity="1"></circle><circle cx="211.0472846666013" cy="52.61929961845355" r="4" fill="#000000" fill-opacity="1"></circle><circle cx="477.5813095489164" cy="240.09983216184284" r="4" fill="#000000" fill-opacity="1"></circle><circle cx="147.3264862431191" cy="31.600365125979543" r="4" fill="#000000" fill-opacity="1"></circle><circle cx="146.2169177583533" cy="250.64692040971602" r="4" fill="#000000" fill-opacity="1"></circle><circle cx="456.878806837948" cy="398.3646846050406" r="4" fill="#000000" fill-opacity="1"></circle><circle cx="486.61587939553357" cy="91.42470354824431" r="4" fill="#000000" fill-opacity="1"></circle><circle cx="356.04202532772166" cy="344.64463225320054" r="4" fill="#000000" fill-opacity="1"></circle><circle cx="155.21272665731917" cy="395.6130124392402" r="4" fill="#000000" fill-opacity="1"></circle><circle cx="407.2179865805945" cy="378.15921791249497" r="4" fill="#000000" fill-opacity="1"></circle><circle cx="167.4682345989343" cy="192.7516054440387" r="4" fill="#000000" fill-opacity="1"></circle><circle cx="202.37589974600624" cy="390.560090614988" r="4" fill="#000000" fill-opacity="1"></circle><circle cx="263.7296848175589" cy="316.2017347455373" r="4" fill="#000000" fill-opacity="1"></circle><circle cx="466.9209614497471" cy="222.8746897975152" r="4" fill="#000000" fill-opacity="1"></circle><circle cx="228.28419958332574" cy="375.4825611581274" r="4" fill="#000000" fill-opacity="1"></circle><circle cx="264.7774831098685" cy="214.59692953751647" r="4" fill="#000000" fill-opacity="1"></circle><circle cx="151.25476162071863" cy="67.15922820434291" r="4" fill="#000000" fill-opacity="1"></circle><circle cx="119.27198693911427" cy="448.9078346085077" r="4" fill="#000000" fill-opacity="1"></circle><circle cx="439.33723172163263" cy="146.54786626202815" r="4" fill="#000000" fill-opacity="1"></circle><circle cx="268.12514463640105" cy="245.25266760351064" r="4" fill="#000000" fill-opacity="1"></circle><circle cx="474.55659194533587" cy="362.24482604022427" r="4" fill="#000000" fill-opacity="1"></circle><circle cx="423.64842999409524" cy="438.4720753610358" r="4" fill="#000000" fill-opacity="1"></circle><circle cx="479.1553100211977" cy="483.52925611039797" r="4" fill="#000000" fill-opacity="1"></circle><circle cx="138.92830553210132" cy="115.59289707440134" r="4" fill="#000000" fill-opacity="1"></circle><circle cx="345.5854864145883" cy="414.20676795628924" r="4" fill="#000000" fill-opacity="1"></circle><circle cx="177.86953450822466" cy="176.02644234480258" r="4" fill="#000000" fill-opacity="1"></circle><circle cx="234.0166039236236" cy="250.10032363760448" r="4" fill="#000000" fill-opacity="1"></circle><circle cx="88.4172313655162" cy="237.8620228354299" r="4" fill="#000000" fill-opacity="1"></circle><circle cx="35.08847066789508" cy="216.42463669127721" r="4" fill="#000000" fill-opacity="1"></circle><circle cx="254.96664465390245" cy="56.00787269169224" r="4" fill="#000000" fill-opacity="1"></circle><circle cx="340.1195560985155" cy="161.2814954675589" r="4" fill="#000000" fill-opacity="1"></circle><circle cx="382.54832622747665" cy="109.22982600667162" r="4" fill="#000000" fill-opacity="1"></circle><circle cx="419.91859376555476" cy="242.0747993604563" r="4" fill="#000000" fill-opacity="1"></circle><circle cx="358.0587234395155" cy="192.7392040031292" r="4" fill="#000000" fill-opacity="1"></circle><circle cx="454.84927990242534" cy="340.4492559162822" r="4" fill="#000000" fill-opacity="1"></circle><circle cx="318.5837908962871" cy="413.56652223170755" r="4" fill="#000000" fill-opacity="1"></circle><circle cx="355.2257882535896" cy="406.037790739344" r="4" fill="#000000" fill-opacity="1"></circle><circle cx="375.1030802401222" cy="239.7221224426412" r="4" fill="#000000" fill-opacity="1"></circle><circle cx="116.50998906742413" cy="139.97723777917878" r="4" fill="#000000" fill-opacity="1"></circle><circle cx="462.54136676918756" cy="98.33298540364643" r="4" fill="#000000" fill-opacity="1"></circle><circle cx="113.14086361987071" cy="421.61961478661715" r="4" fill="#000000" fill-opacity="1"></circle><circle cx="475.28263496283444" cy="405.95404578454105" r="4" fill="#000000" fill-opacity="1"></circle><circle cx="241.77710606028808" cy="191.07487541757826" r="4" fill="#000000" fill-opacity="1"></circle><circle cx="253.3161168255971" cy="277.58133158375017" r="4" fill="#000000" fill-opacity="1"></circle><circle cx="137.50027866998033" cy="29.04631007120562" r="4" fill="#000000" fill-opacity="1"></circle><circle cx="139.1317509331538" cy="430.7050133813838" r="4" fill="#000000" fill-opacity="1"></circle><circle cx="358.2893433893244" cy="298.87780613802" r="4" fill="#000000" fill-opacity="1"></circle><circle cx="385.7742868859539" cy="194.56655236176636" r="4" fill="#000000" fill-opacity="1"></circle><circle cx="397.6644079940158" cy="390.78041564553877" r="4" fill="#000000" fill-opacity="1"></circle><circle cx="91.14868505771946" cy="27.391740845785304" r="4" fill="#000000" fill-opacity="1"></circle><circle cx="410.4251296995342" cy="38.43920119169496" r="4" fill="#000000" fill-opacity="1"></circle><circle cx="485.3887329437387" cy="174.87207658481822" r="4" fill="#000000" fill-opacity="1"></circle><circle cx="387.3745775806897" cy="334.7825841133283" r="4" fill="#000000" fill-opacity="1"></circle><circle cx="255.15504308777204" cy="392.3300086987135" r="4" fill="#000000" fill-opacity="1"></circle><circle cx="220.61276542000058" cy="322.9419182026765" r="4" fill="#000000" fill-opacity="1"></circle><circle cx="351.970123647272" cy="227.73856687186128" r="4" fill="#000000" fill-opacity="1"></circle><circle cx="86.55525029379146" cy="346.9087495065782" r="4" fill="#000000" fill-opacity="1"></circle><circle cx="212.96016694991246" cy="74.2231321751372" r="4" fill="#000000" fill-opacity="1"></circle><circle cx="487.5663201982955" cy="411.32359435668417" r="4" fill="#000000" fill-opacity="1"></circle><circle cx="341.3946211148521" cy="42.197484513621156" r="4" fill="#000000" fill-opacity="1"></circle><circle cx="167.1758799064619" cy="296.2994630450769" r="4" fill="#000000" fill-opacity="1"></circle><circle cx="248.34436887048216" cy="28.98354168660506" r="4" fill="#000000" fill-opacity="1"></circle><circle cx="476.3911185571794" cy="307.4313686287795" r="4" fill="#000000" fill-opacity="1"></circle><circle cx="161.72377918768439" cy="105.12248813304748" r="4" fill="#000000" fill-opacity="1"></circle><circle cx="82.06185544295266" cy="219.41637359476601" r="4" fill="#000000" fill-opacity="1"></circle><circle cx="259.0657331603592" cy="465.20069666829056" r="4" fill="#000000" fill-opacity="1"></circle><circle cx="311.92359682941714" cy="124.08267641995255" r="4" fill="#000000" fill-opacity="1"></circle><circle cx="134.60849737115666" cy="260.99723722966155" r="4" fill="#000000" fill-opacity="1"></circle><circle cx="339.6726990339159" cy="465.33024659735423" r="4" fill="#000000" fill-opacity="1"></circle><circle cx="199.76350591042976" cy="472.7765814622198" r="4" fill="#000000" fill-opacity="1"></circle><circle cx="109.52561355369518" cy="251.74247493525945" r="4" fill="#000000" fill-opacity="1"></circle><circle cx="265.23471899142305" cy="105.90238771383848" r="4" fill="#000000" fill-opacity="1"></circle><circle cx="114.10645857971966" cy="372.2358944675161" r="4" fill="#000000" fill-opacity="1"></circle><circle cx="129.2524853808451" cy="159.03056902214138" r="4" fill="#000000" fill-opacity="1"></circle><circle cx="27.787589966888554" cy="339.26276399448005" r="4" fill="#000000" fill-opacity="1"></circle><circle cx="137.29285678567362" cy="301.57417408062355" r="4" fill="#000000" fill-opacity="1"></circle><circle cx="258.13697317806657" cy="68.62573344267096" r="4" fill="#000000" fill-opacity="1"></circle><circle cx="244.12631504086056" cy="402.7738743993515" r="4" fill="#000000" fill-opacity="1"></circle><circle cx="461.89599223392446" cy="316.1809130454344" r="4" fill="#000000" fill-opacity="1"></circle><circle cx="453.4555470610026" cy="111.79821908483478" r="4" fill="#000000" fill-opacity="1"></circle><circle cx="65.9231225348131" cy="107.82204259598315" r="4" fill="#000000" fill-opacity="1"></circle><circle cx="243.04616758277592" cy="115.24886610668077" r="4" fill="#000000" fill-opacity="1"></circle><circle cx="206.4787907259037" cy="28.248562989181995" r="4" fill="#000000" fill-opacity="1"></circle><circle cx="75.7247571047219" cy="232.12718947045627" r="4" fill="#000000" fill-opacity="1"></circle><circle cx="296.2250197256552" cy="121.69997916576966" r="4" fill="#000000" fill-opacity="1"></circle><circle cx="247.6655226648802" cy="288.82063482294745" r="4" fill="#000000" fill-opacity="1"></circle><circle cx="272.3722036875789" cy="261.2569912730451" r="4" fill="#000000" fill-opacity="1"></circle><circle cx="159.45673255917745" cy="471.83387216830397" r="4" fill="#000000" fill-opacity="1"></circle><circle cx="217.23551250184707" cy="220.58904154491532" r="4" fill="#000000" fill-opacity="1"></circle><circle cx="180.85411473276275" cy="106.43860943868003" r="4" fill="#000000" fill-opacity="1"></circle><circle cx="219.5276447680725" cy="400.5148230245709" r="4" fill="#000000" fill-opacity="1"></circle><circle cx="319.1505923118321" cy="267.13917093965154" r="4" fill="#000000" fill-opacity="1"></circle><circle cx="55.05549043156033" cy="378.6032785025854" r="4" fill="#000000" fill-opacity="1"></circle><circle cx="302.23994248470296" cy="397.0500021830113" r="4" fill="#000000" fill-opacity="1"></circle><circle cx="189.87196212621478" cy="123.41502831385283" r="4" fill="#000000" fill-opacity="1"></circle><circle cx="195.8355538231712" cy="429.8004700441635" r="4" fill="#000000" fill-opacity="1"></circle><circle cx="305.4411868909069" cy="94.9453912197288" r="4" fill="#000000" fill-opacity="1"></circle><circle cx="193.9620810738761" cy="312.98981095395493" r="4" fill="#000000" fill-opacity="1"></circle><circle cx="276.37283006772014" cy="389.6759607265846" r="4" fill="#000000" fill-opacity="1"></circle><circle cx="452.95147337029454" cy="251.17904531464677" r="4" fill="#000000" fill-opacity="1"></circle><circle cx="312.94485025685776" cy="141.2230633083065" r="4" fill="#000000" fill-opacity="1"></circle><circle cx="315.247794114427" cy="38.357167021712826" r="4" fill="#000000" fill-opacity="1"></circle><circle cx="377.9101060495083" cy="439.60653337033017" r="4" fill="#000000" fill-opacity="1"></circle><circle cx="377.8044712026532" cy="278.9274317817645" r="4" fill="#000000" fill-opacity="1"></circle><circle cx="394.3731631227007" cy="408.22990777943926" r="4" fill="#000000" fill-opacity="1"></circle><circle cx="51.62934471362481" cy="277.8760207287198" r="4" fill="#000000" fill-opacity="1"></circle><circle cx="123.75978484586355" cy="336.75020957753253" r="4" fill="#000000" fill-opacity="1"></circle><circle cx="163.49611550474742" cy="77.62229874702696" r="4" fill="#000000" fill-opacity="1"></circle><circle cx="226.43853019161398" cy="110.00875391690982" r="4" fill="#000000" fill-opacity="1"></circle><circle cx="31.67681086735952" cy="401.29166503712133" r="4" fill="#000000" fill-opacity="1"></circle><circle cx="191.32146911535858" cy="223.6476710625292" r="4" fill="#000000" fill-opacity="1"></circle><circle cx="104.08442962236442" cy="441.95436028041536" r="4" fill="#000000" fill-opacity="1"></circle><circle cx="120.78018756838233" cy="197.32493381674908" r="4" fill="#000000" fill-opacity="1"></circle><circle cx="187.42911426930294" cy="407.6002139863452" r="4" fill="#000000" fill-opacity="1"></circle><circle cx="170.35693283804753" cy="153.75762990094898" r="4" fill="#000000" fill-opacity="1"></circle><circle cx="335.7165354247746" cy="256.33128613159136" r="4" fill="#000000" fill-opacity="1"></circle><circle cx="240.82465007144407" cy="133.4831949200634" r="4" fill="#000000" fill-opacity="1"></circle><circle cx="239.3507116708552" cy="325.10742149587975" r="4" fill="#000000" fill-opacity="1"></circle><circle cx="304.08248603033826" cy="433.5517579490493" r="4" fill="#000000" fill-opacity="1"></circle><circle cx="157.85967395488737" cy="140.84003509710794" r="4" fill="#000000" fill-opacity="1"></circle><circle cx="460.2522873303431" cy="260.4927077246683" r="4" fill="#000000" fill-opacity="1"></circle><circle cx="452.0445213304601" cy="212.41404550698894" r="4" fill="#000000" fill-opacity="1"></circle><circle cx="349.61988525212143" cy="127.39889504781307" r="4" fill="#000000" fill-opacity="1"></circle><circle cx="232.73690846295028" cy="405.4703278631082" r="4" fill="#000000" fill-opacity="1"></circle><circle cx="206.6926639234801" cy="42.36924813655156" r="4" fill="#000000" fill-opacity="1"></circle><circle cx="247.56298533934682" cy="340.3270976513038" r="4" fill="#000000" fill-opacity="1"></circle><circle cx="418.21564117270157" cy="252.34693618816178" r="4" fill="#000000" fill-opacity="1"></circle><circle cx="483.011993723894" cy="185.0448433260354" r="4" fill="#000000" fill-opacity="1"></circle><circle cx="158.7108473759385" cy="130.73067970327713" r="4" fill="#000000" fill-opacity="1"></circle><circle cx="463.1849629202921" cy="198.68940376647643" r="4" fill="#000000" fill-opacity="1"></circle><circle cx="217.04900392548222" cy="84.42217054659298" r="4" fill="#000000" fill-opacity="1"></circle><circle cx="60.35483140378818" cy="177.50310997643712" r="4" fill="#000000" fill-opacity="1"></circle><circle cx="29.598088578245665" cy="70.7089517209317" r="4" fill="#000000" fill-opacity="1"></circle><circle cx="362.3488742173108" cy="36.48970716301803" r="4" fill="#000000" fill-opacity="1"></circle><circle cx="27.273083629281267" cy="479.95465206204443" r="4" fill="#000000" fill-opacity="1"></circle><circle cx="157.68352953736553" cy="361.15686214325865" r="4" fill="#000000" fill-opacity="1"></circle><circle cx="34.31331600474366" cy="387.1154399045028" r="4" fill="#000000" fill-opacity="1"></circle><circle cx="360.72439223357435" cy="246.25261545700553" r="4" fill="#000000" fill-opacity="1"></circle><circle cx="475.14624168744257" cy="51.721855162880004" r="4" fill="#000000" fill-opacity="1"></circle><circle cx="245.33002101397426" cy="69.1412189974694" r="4" fill="#000000" fill-opacity="1"></circle><circle cx="139.95934910938018" cy="210.1971057272065" r="4" fill="#000000" fill-opacity="1"></circle><circle cx="291.35209077579" cy="62.64372333888906" r="4" fill="#000000" fill-opacity="1"></circle><circle cx="107.18979918680195" cy="177.29411999269885" r="4" fill="#000000" fill-opacity="1"></circle><circle cx="45.964253044677264" cy="451.85939302124956" r="4" fill="#000000" fill-opacity="1"></circle><circle cx="358.5523207336133" cy="272.06483308053555" r="4" fill="#000000" fill-opacity="1"></circle><circle cx="353.99423229099153" cy="99.91887735052951" r="4" fill="#000000" fill-opacity="1"></circle><circle cx="376.1465414296197" cy="450.31062383060515" r="4" fill="#000000" fill-opacity="1"></circle><circle cx="292.6863507056803" cy="49.92035642804453" r="4" fill="#000000" fill-opacity="1"></circle><circle cx="428.8594032989168" cy="330.30207216630805" r="4" fill="#000000" fill-opacity="1"></circle><circle cx="55.56638820202846" cy="295.6070805443015" r="4" fill="#000000" fill-opacity="1"></circle><circle cx="36.432866619865976" cy="376.92354822941945" r="4" fill="#000000" fill-opacity="1"></circle><circle cx="439.9892025191068" cy="462.93950440942734" r="4" fill="#000000" fill-opacity="1"></circle><circle cx="287.8189274697171" cy="423.20988480338366" r="4" fill="#000000" fill-opacity="1"></circle><circle cx="485.8660589025953" cy="134.2091110979683" r="4" fill="#000000" fill-opacity="1"></circle><circle cx="83.02123959327494" cy="55.55889796661663" r="4" fill="#000000" fill-opacity="1"></circle><circle cx="371.48290848011817" cy="424.24358924849116" r="4" fill="#000000" fill-opacity="1"></circle><circle cx="448.31939997835696" cy="372.9355085403138" r="4" fill="#000000" fill-opacity="1"></circle><circle cx="425.6092986794324" cy="275.27023541660435" r="4" fill="#000000" fill-opacity="1"></circle><circle cx="381.90848474351077" cy="412.36680061120194" r="4" fill="#000000" fill-opacity="1"></circle><circle cx="257.77419994564184" cy="299.8214138047158" r="4" fill="#000000" fill-opacity="1"></circle><circle cx="400.2933936816326" cy="255.29904551527716" r="4" fill="#000000" fill-opacity="1"></circle><circle cx="457.19980849340266" cy="364.26803870974595" r="4" fill="#000000" fill-opacity="1"></circle><circle cx="145.5927121391016" cy="199.06080833411355" r="4" fill="#000000" fill-opacity="1"></circle><circle cx="226.79237108797176" cy="55.107767945069625" r="4" fill="#000000" fill-opacity="1"></circle><circle cx="187.071410065963" cy="455.4919828332819" r="4" fill="#000000" fill-opacity="1"></circle><circle cx="247.96705418679423" cy="460.16746203242445" r="4" fill="#000000" fill-opacity="1"></circle><circle cx="434.8070429123011" cy="487.50511652617996" r="4" fill="#000000" fill-opacity="1"></circle><circle cx="122.07479446221213" cy="275.4184653897199" r="4" fill="#000000" fill-opacity="1"></circle><circle cx="369.3107876727119" cy="307.94059581699275" r="4" fill="#000000" fill-opacity="1"></circle><circle cx="292.6632282772996" cy="276.95728080928507" r="4" fill="#000000" fill-opacity="1"></circle><circle cx="405.8183693388198" cy="338.329690319475" r="4" fill="#000000" fill-opacity="1"></circle><circle cx="258.08801436127476" cy="242.2916041034358" r="4" fill="#000000" fill-opacity="1"></circle><circle cx="249.58686083691663" cy="473.74315561918957" r="4" fill="#000000" fill-opacity="1"></circle><circle cx="64.9983887970126" cy="411.1887953517135" r="4" fill="#000000" fill-opacity="1"></circle><circle cx="204.00657937131157" cy="225.75466800696285" r="4" fill="#000000" fill-opacity="1"></circle><circle cx="131.11075256557103" cy="95.18650442815255" r="4" fill="#000000" fill-opacity="1"></circle><circle cx="394.7109514220281" cy="293.0079831698356" r="4" fill="#000000" fill-opacity="1"></circle><circle cx="160.25682685465026" cy="231.88617650181453" r="4" fill="#000000" fill-opacity="1"></circle><circle cx="367.1152726091375" cy="58.284219827485046" r="4" fill="#000000" fill-opacity="1"></circle><circle cx="223.64380821374965" cy="437.3179575088163" r="4" fill="#000000" fill-opacity="1"></circle><circle cx="338.6429948767421" cy="347.6811474521289" r="4" fill="#000000" fill-opacity="1"></circle><circle cx="55.897697545505494" cy="125.67550982255324" r="4" fill="#000000" fill-opacity="1"></circle><circle cx="108.83792272190934" cy="219.22195282742362" r="4" fill="#000000" fill-opacity="1"></circle><circle cx="106.52458361202122" cy="190.3683460144174" r="4" fill="#000000" fill-opacity="1"></circle><circle cx="247.81367744825076" cy="208.2422923982757" r="4" fill="#000000" fill-opacity="1"></circle><circle cx="230.22964588858005" cy="70.05192847390504" r="4" fill="#000000" fill-opacity="1"></circle><circle cx="300.3563543002255" cy="132.3776172018142" r="4" fill="#000000" fill-opacity="1"></circle><circle cx="53.237274545492454" cy="362.5354112466478" r="4" fill="#000000" fill-opacity="1"></circle><circle cx="197.02750967743754" cy="333.0818749839803" r="4" fill="#000000" fill-opacity="1"></circle><circle cx="40.07656665602555" cy="420.40647525851085" r="4" fill="#000000" fill-opacity="1"></circle><circle cx="41.5276003505043" cy="173.54198603000648" r="4" fill="#000000" fill-opacity="1"></circle><circle cx="351.83383213589224" cy="437.1766560410753" r="4" fill="#000000" fill-opacity="1"></circle><circle cx="445.99532079110793" cy="69.87835709713933" r="4" fill="#000000" fill-opacity="1"></circle><circle cx="315.19210627900276" cy="375.11393429108074" r="4" fill="#000000" fill-opacity="1"></circle><circle cx="151.7120870627915" cy="240.57061710058517" r="4" fill="#000000" fill-opacity="1"></circle><circle cx="258.78059094832497" cy="114.43540927456682" r="4" fill="#000000" fill-opacity="1"></circle><circle cx="309.8042331856107" cy="220.44226580717842" r="4" fill="#000000" fill-opacity="1"></circle><circle cx="182.18651555091304" cy="280.52769793519326" r="4" fill="#000000" fill-opacity="1"></circle><circle cx="383.04083619799746" cy="310.0178194140401" r="4" fill="#000000" fill-opacity="1"></circle><circle cx="372.00233487098285" cy="48.43938201727284" r="4" fill="#000000" fill-opacity="1"></circle><circle cx="200.6224570103445" cy="350.7766331323503" r="4" fill="#000000" fill-opacity="1"></circle><circle cx="251.21121551695717" cy="254.4293311056557" r="4" fill="#000000" fill-opacity="1"></circle><circle cx="147.24409565517385" cy="311.1117504724309" r="4" fill="#000000" fill-opacity="1"></circle><circle cx="401.4274304740848" cy="45.605440848728996" r="4" fill="#000000" fill-opacity="1"></circle><circle cx="266.3344727911496" cy="181.35550732849632" r="4" fill="#000000" fill-opacity="1"></circle><circle cx="295.86721610795433" cy="180.46113001702864" r="4" fill="#000000" fill-opacity="1"></circle><circle cx="64.38650641093827" cy="309.5344229092444" r="4" fill="#000000" fill-opacity="1"></circle><circle cx="26.428883932639785" cy="440.0883078421452" r="4" fill="#000000" fill-opacity="1"></circle><circle cx="360.74191918910265" cy="78.1009884584035" r="4" fill="#000000" fill-opacity="1"></circle><circle cx="383.10619344169186" cy="146.85830082471904" r="4" fill="#000000" fill-opacity="1"></circle><circle cx="306.8228765269167" cy="287.08425038158754" r="4" fill="#000000" fill-opacity="1"></circle><circle cx="314.72071195670776" cy="27.71605646608794" r="4" fill="#000000" fill-opacity="1"></circle><circle cx="407.6120066553836" cy="248.44631415003983" r="4" fill="#000000" fill-opacity="1"></circle><circle cx="196.4802358991562" cy="373.6986700255515" r="4" fill="#000000" fill-opacity="1"></circle><circle cx="25.332384351366613" cy="134.3800934741289" r="4" fill="#000000" fill-opacity="1"></circle><circle cx="188.16212665199788" cy="53.1145885628704" r="4" fill="#000000" fill-opacity="1"></circle><circle cx="174.91589199644824" cy="38.02178684388883" r="4" fill="#000000" fill-opacity="1"></circle><circle cx="446.2038418106251" cy="293.62582648203767" r="4" fill="#000000" fill-opacity="1"></circle><circle cx="341.29823805200857" cy="177.8543521893397" r="4" fill="#000000" fill-opacity="1"></circle><circle cx="192.17556567969146" cy="248.58403720167667" r="4" fill="#000000" fill-opacity="1"></circle><circle cx="463.16491541686673" cy="136.46777270319907" r="4" fill="#000000" fill-opacity="1"></circle></svg>