<svg width="512" height="512" viewBox="0 0 512 512" xmlns="http://www.w3.org/2000/svg">
          <rect x="0" y="0" width="512" height="512" fill="#f8f8ff" fill-opacity="1"></rect>
        <circle cx="76.89801201829799" cy="147.56853247775425" r="4" fill="#000000" fill-opacity="1"></circle><circle cx="481.05165807651787" cy="247.912933642509" r="4" fill="#000000" fill-opacity="1"></circle><circle cx="83.63691701534096" cy="439.7258559154292" r="4" fill="#000000" fill-opacity="1"></circle><circle cx="145.7748837389849" cy="268.5922025337193" r="4" fill="#000000" fill-opacity="1"></circle><circle cx="327.54393420199585" cy="144.05596598756495" r="4" fill="#000000" fill-opacity="1"></circle><circle cx="352.33084126615154" cy="446.55676922776036" r="4" fill="#000000" fill-opacity="1"></circle><circle cx="175.05031725960757" cy="474.25592325229564" r="4" fill="#000000" fill-opacity="1"></circle><circle cx="355.2102648583035" cy="141.14360168272862" r="4" fill="#000000" fill-opacity="1"></circle><circle cx="182.688480953235" cy="99.9094583784513" r="4" fill="#000000" fill-opacity="1"></circle><circle cx="314.9046939027521" cy="129.30757205471255" r="4" fill="#000000" fill-opacity="1"></circle><circle cx="402.85543925994574" cy="61.58404151762431" r="4" fill="#000000" fill-opacity="1"></circle><circle cx="467.4513007345259" cy="288.8115957662777" r="4" fill="#000000" fill-opacity="1"></circle><circle cx="53.464877079891586" cy="355.408235452078" r="4" fill="#000000" fill-opacity="1"></circle><circle cx="83.7438301637724" cy="487.13166231262915" r="4" fill="#000000" fill-opacity="1"></circle><circle cx="147.892052797525" cy="427.6564607408606" r="4" fill="#000000" fill-opacity="1"></circle><circle cx="233.96452411663185" cy="399.75553154800394" r="4" fill="#000000" fill-opacity="1"></circle><circle cx="213.57334141320175" cy="73.38203698570024" r="4" fill="#000000" fill-opacity="1"></circle><circle cx="259.4593342652162" cy="333.1937150311177" r="4" fill="#000000" fill-opacity="1"></circle><circle cx="311.2545728777148" cy="151.79477112105133" r="4" fill="#000000" fill-opacity="1"></circle><circle cx="459.5966159943931" cy="214.6861884333914" r="4" fill="#000000" fill-opacity="1"></circle><circle cx="84.789922614349" cy="385.62370533991447" r="4" fill="#000000" fill-opacity="1"></circle><circle cx="49.64237842657137" cy="403.8085837149411" r="4" fill="#000000" fill-opacity="1"></circle><circle cx="271.6239541431338" cy="454.723320063236" r="4" fill="#000000" fill-opacity="1"></circle><circle cx="64.22830969415489" cy="180.3402761295308" r="4" fill="#000000" fill-opacity="1"></circle><circle cx="139.3638162261246" cy="190.67367872677383" r="4" fill="#000000" fill-opacity="1"></circle><circle cx="34.470848187549436" cy="227.15455480160728" r="4" fill="#000000" fill-opacity="1"></circle><circle cx="305.77322203440565" cy="296.7478679107001" r="4" fill="#000000" fill-opacity="1"></circle><circle cx="208.1821152619807" cy="482.62362421249117" r="4" fill="#000000" fill-opacity="1"></circle><circle cx="361.5578325798872" cy="312.4132795094422" r="4" fill="#000000" fill-opacity="1"></circle><circle cx="304.63885068134556" cy="326.02936460763783" r="4" fill="#000000" fill-opacity="1"></circle><circle cx="184.3449293686321" cy="205.45613009331927" r="4" fill="#000000" fill-opacity="1"></circle><circle cx="317.9555300311309" cy="118.12122888983839" r="4" fill="#000000" fill-opacity="1"></circle><circle cx="93.73687327009065" cy="340.5668167309164" r="4" fill="#000000" fill-opacity="1"></circle><circle cx="282.91707550697504" cy="431.69848598500715" r="4" fill="#000000" fill-opacity="1"></circle><circle cx="475.74264738135656" cy="301.45313374592826" r="4" fill="#000000" fill-opacity="1"></circle><circle cx="44.83470183790935" cy="421.12253822749" r="4" fill="#000000" fill-opacity="1"></circle><circle cx="326.5379336053167" cy="251.08343362672815" r="4" fill="#000000" fill-opacity="1"></circle><circle cx="217.13295377885902" cy="206.2349854685857" r="4" fill="#000000" fill-opacity="1"></circle><circle cx="107.53143240655533" cy="482.3474267432861" r="4" fill="#000000" fill-opacity="1"></circle><circle cx="129.53497576222003" cy="117.36072882451975" r="4" fill="#000000" fill-opacity="1"></circle><circle cx="323.2485552901327" cy="74.54586987914998" r="4" fill="#000000" fill-opacity="1"></circle><circle cx="65.09175885760712" cy="457.8113701039296" r="4" fill="#000000" fill-opacity="1"></circle><circle cx="249.61507058579934" cy="415.9447336364381" r="4" fill="#000000" fill-opacity="1"></circle><circle cx="28.796180543126383" cy="248.40272383872895" r="4" fill="#000000" fill-opacity="1"></circle><circle cx="78.72327367410796" cy="258.0690363414459" r="4" fill="#000000" fill-opacity="1"></circle><circle cx="132.1377764521806" cy="380.8907967214381" r="4" fill="#000000" fill-opacity="1"></circle><circle cx="162.91565204865336" cy="91.56975860569881" r="4" fill="#000000" fill-opacity="1"></circle><circle cx="109.9481258202127" cy="132.4203446637431" r="4" fill="#000000" fill-opacity="1"></circle><circle cx="310.5623754573546" cy="75.98490524641554" r="4" fill="#000000" fill-opacity="1"></circle><circle cx="165.69193301565156" cy="320.21519929254373" r="4" fill="#000000" fill-opacity="1"></circle></svg>