<svg width="512" height="512" viewBox="0 0 512 512" xmlns="http://www.w3.org/2000/svg">
          <rect x="0" y="0" width="512" height="512" fill="#f8f8ff" fill-opacity="1"></rect>
        <circle cx="26.808007596397992" cy="71.21319228940717" r="4" fill="#000000" fill-opacity="1"></circle><circle cx="127.80805766827471" cy="141.59868104808163" r="4" fill="#000000" fill-opacity="1"></circle><circle cx="229.3606548490974" cy="358.84452538913365" r="4" fill="#000000" fill-opacity="1"></circle><circle cx="156.02827383161588" cy="183.8458539416265" r="4" fill="#000000" fill-opacity="1"></circle><circle cx="328.60590924700705" cy="118.91147660643108" r="4" fill="#000000" fill-opacity="1"></circle><circle cx="477.1819393068997" cy="259.96618777113406" r="4" fill="#000000" fill-opacity="1"></circle><circle cx="124.38285825563199" cy="378.52393046778866" r="4" fill="#000000" fill-opacity="1"></circle><circle cx="174.06937185122476" cy="223.77806651177065" r="4" fill="#000000" fill-opacity="1"></circle><circle cx="102.76017696846567" cy="242.55455781128546" r="4" fill="#000000" fill-opacity="1"></circle><circle cx="39.18916581345955" cy="387.51719264570613" r="4" fill="#000000" fill-opacity="1"></circle><circle cx="258.3966206484266" cy="64.00229616625614" r="4" fill="#000000" fill-opacity="1"></circle><circle cx="341.14503200336634" cy="290.34740403904175" r="4" fill="#000000" fill-opacity="1"></circle><circle cx="92.99979201576542" cy="419.893820808119" r="4" fill="#000000" fill-opacity="1"></circle><circle cx="357.7951655210968" cy="355.51507966541305" r="4" fill="#000000" fill-opacity="1"></circle><circle cx="151.95445097824086" cy="437.70285281010905" r="4" fill="#000000" fill-opacity="1"></circle><circle cx="289.2171374238418" cy="377.2738675103721" r="4" fill="#000000" fill-opacity="1"></circle><circle cx="331.6865868774151" cy="41.45750267655994" r="4" fill="#000000" fill-opacity="1"></circle><circle cx="305.4422449108708" cy="178.96276399792166" r="4" fill="#000000" fill-opacity="1"></circle><circle cx="152.98660760419745" cy="138.28723933780282" r="4" fill="#000000" fill-opacity="1"></circle><circle cx="58.83710505229823" cy="444.7959700852893" r="4" fill="#000000" fill-opacity="1"></circle><circle cx="107.94211922379654" cy="283.3271261529236" r="4" fill="#000000" fill-opacity="1"></circle><circle cx="151.04436341320852" cy="262.73438732541683" r="4" fill="#000000" fill-opacity="1"></circle><circle cx="65.28691281943871" cy="256.62365989046896" r="4" fill="#000000" fill-opacity="1"></circle><circle cx="116.55502081868758" cy="243.63651261814573" r="4" fill="#000000" fill-opacity="1"></circle><circle cx="28.18815843032748" cy="112.9755791374209" r="4" fill="#000000" fill-opacity="1"></circle><circle cx="197.3316752330041" cy="419.0677905261366" r="4" fill="#000000" fill-opacity="1"></circle><circle cx="340.0045271641161" cy="335.73942748649966" r="4" fill="#000000" fill-opacity="1"></circle><circle cx="241.86902089113087" cy="121.953538946532" r="4" fill="#000000" fill-opacity="1"></circle><circle cx="127.43161487904247" cy="201.89882349937437" r="4" fill="#000000" fill-opacity="1"></circle><circle cx="440.0730011086735" cy="93.47922010466912" r="4" fill="#000000" fill-opacity="1"></circle><circle cx="430.02810680509856" cy="441.4467232278372" r="4" fill="#000000" fill-opacity="1"></circle><circle cx="303.1541284760263" cy="320.73912117435185" r="4" fill="#000000" fill-opacity="1"></circle><circle cx="384.47786316466414" cy="411.441272744029" r="4" fill="#000000" fill-opacity="1"></circle><circle cx="58.906555258992896" cy="129.32467959634067" r="4" fill="#000000" fill-opacity="1"></circle><circle cx="373.7863320661365" cy="229.03970113962185" r="4" fill="#000000" fill-opacity="1"></circle><circle cx="229.10597774240534" cy="155.11277427423315" r="4" fill="#000000" fill-opacity="1"></circle><circle cx="220.88294168087813" cy="335.35537190824425" r="4" fill="#000000" fill-opacity="1"></circle><circle cx="340.01820357722045" cy="70.60937726699953" r="4" fill="#000000" fill-opacity="1"></circle><circle cx="191.419228935959" cy="453.0989574109087" r="4" fill="#000000" fill-opacity="1"></circle><circle cx="114.96039165147972" cy="27.53344975542507" r="4" fill="#000000" fill-opacity="1"></circle><circle cx="285.5364065779074" cy="394.43723036083145" r="4" fill="#000000" fill-opacity="1"></circle><circle cx="346.03712827104414" cy="400.12509574256484" r="4" fill="#000000" fill-opacity="1"></circle><circle cx="35.4144394650626" cy="298.98677006713905" r="4" fill="#000000" fill-opacity="1"></circle><circle cx="93.08744207809049" cy="460.42377358646337" r="4" fill="#000000" fill-opacity="1"></circle><circle cx="212.8365109130926" cy="393.1831692403935" r="4" fill="#000000" fill-opacity="1"></circle><circle cx="469.11225080720493" cy="245.1615213981396" r="4" fill="#000000" fill-opacity="1"></circle><circle cx="92.83305417110138" cy="353.998232841583" r="4" fill="#000000" fill-opacity="1"></circle><circle cx="47.284973210720054" cy="108.62505306124991" r="4" fill="#000000" fill-opacity="1"></circle><circle cx="37.607918348496455" cy="141.91911088657497" r="4" fill="#000000" fill-opacity="1"></circle><circle cx="384.63774595668957" cy="355.95600038638867" r="4" fill="#000000" fill-opacity="1"></circle><circle cx="255.5040657626425" cy="448.8597869166242" r="4" fill="#000000" fill-opacity="1"></circle><circle cx="110.17344113926346" cy="317.3902031391772" r="4" fill="#000000" fill-opacity="1"></circle><circle cx="315.62654340524347" cy="481.0799973866763" r="4" fill="#000000" fill-opacity="1"></circle><circle cx="65.71821515628152" cy="147.8103043922057" r="4" fill="#000000" fill-opacity="1"></circle><circle cx="348.5995605783164" cy="267.2273690166911" r="4" fill="#000000" fill-opacity="1"></circle><circle cx="308.36694952198036" cy="244.16190965016975" r="4" fill="#000000" fill-opacity="1"></circle><circle cx="417.49858638340055" cy="90.00372496887451" r="4" fill="#000000" fill-opacity="1"></circle><circle cx="51.715294723651326" cy="68.207797636079" r="4" fill="#000000" fill-opacity="1"></circle><circle cx="384.9866813903941" cy="330.09249112444036" r="4" fill="#000000" fill-opacity="1"></circle><circle cx="266.5809507763154" cy="230.55549146102504" r="4" fill="#000000" fill-opacity="1"></circle></svg>