<svg width="512" height="512" viewBox="0 0 512 512" xmlns="http://www.w3.org/2000/svg">
          <rect x="0" y="0" width="512" height="512" fill="#f8f8ff" fill-opacity="1"></rect>
        <circle cx="75.59919418740803" cy="82.52253906489138" r="4" fill="#000000" fill-opacity="1"></circle><circle cx="360.9190429002893" cy="462.06044157652263" r="4" fill="#000000" fill-opacity="1"></circle><circle cx="122.94821235782234" cy="398.7581064621669" r="4" fill="#000000" fill-opacity="1"></circle><circle cx="311.11002269253737" cy="270.99205697764546" r="4" fill="#000000" fill-opacity="1"></circle><circle cx="268.18589664710123" cy="168.6413085651017" r="4" fill="#000000" fill-opacity="1"></circle><circle cx="199.81226006780753" cy="478.0115493089462" r="4" fill="#000000" fill-opacity="1"></circle><circle cx="126.74900507752065" cy="373.47946021984757" r="4" fill="#000000" fill-opacity="1"></circle><circle cx="305.7676605690364" cy="51.002219500282564" r="4" fill="#000000" fill-opacity="1"></circle><circle cx="224.06801708287594" cy="32.23260371146348" r="4" fill="#000000" fill-opacity="1"></circle><circle cx="443.7080574554127" cy="36.79518859426662" r="4" fill="#000000" fill-opacity="1"></circle><circle cx="68.35807074674003" cy="132.97269823365704" r="4" fill="#000000" fill-opacity="1"></circle><circle cx="293.1329459178874" cy="353.39936901847386" r="4" fill="#000000" fill-opacity="1"></circle><circle cx="94.34189282808708" cy="89.40023257919114" r="4" fill="#000000" fill-opacity="1"></circle><circle cx="47.14466781543492" cy="385.062408782223" r="4" fill="#000000" fill-opacity="1"></circle><circle cx="66.24327851483997" cy="375.1650753276194" r="4" fill="#000000" fill-opacity="1"></circle><circle cx="358.1686487933465" cy="171.48511622514283" r="4" fill="#000000" fill-opacity="1"></circle><circle cx="375.0925094827651" cy="364.7500650188161" r="4" fill="#000000" fill-opacity="1"></circle><circle cx="351.7087055662806" cy="101.84413886733122" r="4" fill="#000000" fill-opacity="1"></circle><circle cx="433.58835501568416" cy="220.4343146597321" r="4" fill="#000000" fill-opacity="1"></circle><circle cx="304.96903335995955" cy="314.9247435709674" r="4" fill="#000000" fill-opacity="1"></circle><circle cx="476.4156513013782" cy="57.95203317224308" r="4" fill="#000000" fill-opacity="1"></circle><circle cx="153.01283357657707" cy="416.2562583718239" r="4" fill="#000000" fill-opacity="1"></circle><circle cx="233.32207122035868" cy="354.5205103290238" r="4" fill="#000000" fill-opacity="1"></circle><circle cx="203.39168170224175" cy="377.81003889467013" r="4" fill="#000000" fill-opacity="1"></circle><circle cx="415.39474660404716" cy="465.87558055819966" r="4" fill="#000000" fill-opacity="1"></circle><circle cx="202.34253687272658" cy="133.0512726903715" r="4" fill="#000000" fill-opacity="1"></circle><circle cx="438.3713477383897" cy="460.830319833897" r="4" fill="#000000" fill-opacity="1"></circle><circle cx="458.95635674496833" cy="54.66122168330641" r="4" fill="#000000" fill-opacity="1"></circle><circle cx="97.25767022817554" cy="211.86867671806024" r="4" fill="#000000" fill-opacity="1"></circle><circle cx="373.5962013605442" cy="339.69526494366204" r="4" fill="#000000" fill-opacity="1"></circle><circle cx="140.8550401514311" cy="319.8109355271635" r="4" fill="#000000" fill-opacity="1"></circle><circle cx="248.47396523418018" cy="370.47935439129355" r="4" fill="#000000" fill-opacity="1"></circle><circle cx="49.56056401547566" cy="310.4681021725728" r="4" fill="#000000" fill-opacity="1"></circle><circle cx="95.9148269897061" cy="165.55742085021848" r="4" fill="#000000" fill-opacity="1"></circle><circle cx="50.758458558985524" cy="93.06491210899293" r="4" fill="#000000" fill-opacity="1"></circle><circle cx="231.99667397686466" cy="96.31046687125857" r="4" fill="#000000" fill-opacity="1"></circle><circle cx="367.72794215771836" cy="423.28787981824553" r="4" fill="#000000" fill-opacity="1"></circle><circle cx="147.45820674628413" cy="198.60274523833255" r="4" fill="#000000" fill-opacity="1"></circle><circle cx="223.71198354478392" cy="449.7844980091641" r="4" fill="#000000" fill-opacity="1"></circle><circle cx="385.61970638437805" cy="111.21655719364574" r="4" fill="#000000" fill-opacity="1"></circle><circle cx="390.3590984220458" cy="338.4217527136499" r="4" fill="#000000" fill-opacity="1"></circle><circle cx="121.09045673016388" cy="481.2346199119164" r="4" fill="#000000" fill-opacity="1"></circle><circle cx="353.9830145357732" cy="267.75782745367553" r="4" fill="#000000" fill-opacity="1"></circle><circle cx="358.01256071587073" cy="363.9238169692101" r="4" fill="#000000" fill-opacity="1"></circle><circle cx="164.50411199135593" cy="272.2356422128218" r="4" fill="#000000" fill-opacity="1"></circle><circle cx="80.55460495888896" cy="253.09124463450468" r="4" fill="#000000" fill-opacity="1"></circle><circle cx="448.99715188297444" cy="176.7307124928395" r="4" fill="#000000" fill-opacity="1"></circle><circle cx="263.29271430591723" cy="27.274913286788554" r="4" fill="#000000" fill-opacity="1"></circle><circle cx="239.32154565687227" cy="80.45142135398463" r="4" fill="#000000" fill-opacity="1"></circle><circle cx="332.4105132588153" cy="330.38623843200264" r="4" fill="#000000" fill-opacity="1"></circle><circle cx="473.87347305977596" cy="111.62174905711313" r="4" fill="#000000" fill-opacity="1"></circle><circle cx="68.76445271410468" cy="273.37332971206047" r="4" fill="#000000" fill-opacity="1"></circle><circle cx="89.8129054072714" cy="37.810061050703126" r="4" fill="#000000" fill-opacity="1"></circle><circle cx="291.3277473714611" cy="465.4444975210448" r="4" fill="#000000" fill-opacity="1"></circle><circle cx="201.9996362968126" cy="148.43136814386992" r="4" fill="#000000" fill-opacity="1"></circle><circle cx="118.05602155960338" cy="425.89071534803276" r="4" fill="#000000" fill-opacity="1"></circle><circle cx="204.1863593995252" cy="361.78803923928973" r="4" fill="#000000" fill-opacity="1"></circle><circle cx="349.289068301334" cy="29.144343097376883" r="4" fill="#000000" fill-opacity="1"></circle><circle cx="96.66918070615004" cy="117.36565944944569" r="4" fill="#000000" fill-opacity="1"></circle><circle cx="363.77431149547687" cy="66.07389659585269" r="4" fill="#000000" fill-opacity="1"></circle><circle cx="31.248655145338375" cy="475.00395917380246" r="4" fill="#000000" fill-opacity="1"></circle><circle cx="109.8165665941504" cy="290.5919490258105" r="4" fill="#000000" fill-opacity="1"></circle><circle cx="274.6519243629217" cy="416.5006560451597" r="4" fill="#000000" fill-opacity="1"></circle><circle cx="150.59384845608318" cy="379.01023809460753" r="4" fill="#000000" fill-opacity="1"></circle><circle cx="479.4308646965686" cy="90.91465420089922" r="4" fill="#000000" fill-opacity="1"></circle><circle cx="312.6472766025513" cy="358.32211959614153" r="4" fill="#000000" fill-opacity="1"></circle><circle cx="239.56317381380464" cy="384.2350958749958" r="4" fill="#000000" fill-opacity="1"></circle><circle cx="408.5122610723304" cy="157.80962435279406" r="4" fill="#000000" fill-opacity="1"></circle><circle cx="382.2443943110167" cy="168.99782972545387" r="4" fill="#000000" fill-opacity="1"></circle><circle cx="184.05660591025276" cy="312.22923562285973" r="4" fill="#000000" fill-opacity="1"></circle></svg>