<svg width="512" height="512" viewBox="0 0 512 512" xmlns="http://www.w3.org/2000/svg">
          <rect x="0" y="0" width="512" height="512" fill="#f8f8ff" fill-opacity="1"></rect>
        <circle cx="224.45016444430135" cy="307.9129623944036" r="4" fill="#000000" fill-opacity="1"></circle><circle cx="214.01843366033242" cy="289.98262719278307" r="4" fill="#000000" fill-opacity="1"></circle><circle cx="315.20938545541094" cy="57.92287387245139" r="4" fill="#000000" fill-opacity="1"></circle><circle cx="129.18382723961534" cy="339.6550240462874" r="4" fill="#000000" fill-opacity="1"></circle><circle cx="51.79553530265989" cy="194.79847701920022" r="4" fill="#000000" fill-opacity="1"></circle><circle cx="349.70659770861766" cy="201.06299378242463" r="4" fill="#000000" fill-opacity="1"></circle><circle cx="246.30237599275395" cy="228.44424861707944" r="4" fill="#000000" fill-opacity="1"></circle><circle cx="425.25108406295556" cy="52.84388614893584" r="4" fill="#000000" fill-opacity="1"></circle><circle cx="317.8468429408348" cy="442.38605519680897" r="4" fill="#000000" fill-opacity="1"></circle><circle cx="57.38817370184583" cy="79.92453680434336" r="4" fill="#000000" fill-opacity="1"></circle><circle cx="345.3174944288837" cy="38.12755788731974" r="4" fill="#000000" fill-opacity="1"></circle><circle cx="439.5219488007601" cy="237.27134536782376" r="4" fill="#000000" fill-opacity="1"></circle><circle cx="347.5965822132986" cy="463.13698969186146" r="4" fill="#000000" fill-opacity="1"></circle><circle cx="356.61686899126175" cy="387.4608745699287" r="4" fill="#000000" fill-opacity="1"></circle><circle cx="376.78534409355944" cy="375.6892617726864" r="4" fill="#000000" fill-opacity="1"></circle><circle cx="410.1730064432234" cy="114.8637947249675" r="4" fill="#000000" fill-opacity="1"></circle><circle cx="189.12626899780105" cy="224.4130627976857" r="4" fill="#000000" fill-opacity="1"></circle><circle cx="158.7008924159154" cy="473.21303725004987" r="4" fill="#000000" fill-opacity="1"></circle><circle cx="39.20973703734167" cy="95.0276670967218" r="4" fill="#000000" fill-opacity="1"></circle><circle cx="423.91483618513934" cy="398.51213841840683" r="4" fill="#000000" fill-opacity="1"></circle><circle cx="181.29379614562384" cy="39.88645436925485" r="4" fill="#000000" fill-opacity="1"></circle><circle cx="123.07050486277235" cy="139.728136429387" r="4" fill="#000000" fill-opacity="1"></circle><circle cx="226.24864894077916" cy="243.08401030864775" r="4" fill="#000000" fill-opacity="1"></circle><circle cx="420.7172323192425" cy="278.6789937863099" r="4" fill="#000000" fill-opacity="1"></circle><circle cx="384.3751228150102" cy="237.5295833729095" r="4" fill="#000000" fill-opacity="1"></circle><circle cx="445.4416701823106" cy="226.71170517663165" r="4" fill="#000000" fill-opacity="1"></circle><circle cx="231.7535511871099" cy="267.73310581270397" r="4" fill="#000000" fill-opacity="1"></circle><circle cx="103.16301020623956" cy="368.6293893087627" r="4" fill="#000000" fill-opacity="1"></circle><circle cx="149.41798714813984" cy="24.398198036205176" r="4" fill="#000000" fill-opacity="1"></circle><circle cx="99.40119609801228" cy="407.19943696955124" r="4" fill="#000000" fill-opacity="1"></circle><circle cx="139.7225920399027" cy="82.29336963208937" r="4" fill="#000000" fill-opacity="1"></circle><circle cx="161.96253110583442" cy="51.70923475458269" r="4" fill="#000000" fill-opacity="1"></circle><circle cx="412.8629245306153" cy="211.0422642322043" r="4" fill="#000000" fill-opacity="1"></circle><circle cx="231.79850979315992" cy="386.19316829437895" r="4" fill="#000000" fill-opacity="1"></circle><circle cx="157.7303402495602" cy="208.93335016318022" r="4" fill="#000000" fill-opacity="1"></circle><circle cx="441.97970163427124" cy="331.33757142373963" r="4" fill="#000000" fill-opacity="1"></circle><circle cx="243.09269778241787" cy="288.99500392908527" r="4" fill="#000000" fill-opacity="1"></circle><circle cx="447.91016457268245" cy="263.03969787284564" r="4" fill="#000000" fill-opacity="1"></circle><circle cx="423.9455770356676" cy="217.74607292373526" r="4" fill="#000000" fill-opacity="1"></circle><circle cx="466.029758248852" cy="398.14182453445153" r="4" fill="#000000" fill-opacity="1"></circle><circle cx="297.03473165912914" cy="353.69849179398636" r="4" fill="#000000" fill-opacity="1"></circle><circle cx="107.6858625828522" cy="73.86391169491588" r="4" fill="#000000" fill-opacity="1"></circle><circle cx="193.05486466590807" cy="64.8902341735743" r="4" fill="#000000" fill-opacity="1"></circle><circle cx="238.79691685191247" cy="347.04088938481596" r="4" fill="#000000" fill-opacity="1"></circle><circle cx="165.907529336407" cy="232.44958925035957" r="4" fill="#000000" fill-opacity="1"></circle><circle cx="479.2815904306071" cy="303.86359992703757" r="4" fill="#000000" fill-opacity="1"></circle><circle cx="171.13481996438898" cy="437.2976347997412" r="4" fill="#000000" fill-opacity="1"></circle><circle cx="66.37857077484422" cy="435.01741672538816" r="4" fill="#000000" fill-opacity="1"></circle><circle cx="73.70634851505551" cy="276.2371486424181" r="4" fill="#000000" fill-opacity="1"></circle><circle cx="298.4369294845285" cy="469.903813437438" r="4" fill="#000000" fill-opacity="1"></circle><circle cx="476.65531408487794" cy="203.38481021214528" r="4" fill="#000000" fill-opacity="1"></circle><circle cx="162.12559786193427" cy="367.9463693689377" r="4" fill="#000000" fill-opacity="1"></circle><circle cx="367.54205639725336" cy="345.0530950492264" r="4" fill="#000000" fill-opacity="1"></circle><circle cx="414.8085676183508" cy="138.36141218445647" r="4" fill="#000000" fill-opacity="1"></circle><circle cx="218.230466685573" cy="487.69769567917683" r="4" fill="#000000" fill-opacity="1"></circle><circle cx="150.5656789656706" cy="446.9784878626226" r="4" fill="#000000" fill-opacity="1"></circle><circle cx="61.15236273264814" cy="298.89705480513106" r="4" fill="#000000" fill-opacity="1"></circle><circle cx="214.37505456102755" cy="446.1642103666078" r="4" fill="#000000" fill-opacity="1"></circle><circle cx="163.9073661858066" cy="165.57993070448825" r="4" fill="#000000" fill-opacity="1"></circle><circle cx="287.89661334860426" cy="65.30267487187331" r="4" fill="#000000" fill-opacity="1"></circle><circle cx="83.77680395739719" cy="212.2012715869674" r="4" fill="#000000" fill-opacity="1"></circle><circle cx="323.96039096775803" cy="74.37838716337427" r="4" fill="#000000" fill-opacity="1"></circle><circle cx="449.2810068616687" cy="393.3685734601399" r="4" fill="#000000" fill-opacity="1"></circle><circle cx="192.45593877427814" cy="208.828091622724" r="4" fill="#000000" fill-opacity="1"></circle><circle cx="373.3820742789909" cy="300.00847887529045" r="4" fill="#000000" fill-opacity="1"></circle><circle cx="393.365439770879" cy="229.93027469689937" r="4" fill="#000000" fill-opacity="1"></circle><circle cx="264.1237946404322" cy="269.743562632225" r="4" fill="#000000" fill-opacity="1"></circle><circle cx="319.9418337991208" cy="482.07440474901017" r="4" fill="#000000" fill-opacity="1"></circle><circle cx="69.86146325725885" cy="385.38299387199066" r="4" fill="#000000" fill-opacity="1"></circle><circle cx="436.1718500942081" cy="210.1691752546856" r="4" fill="#000000" fill-opacity="1"></circle><circle cx="300.15900678094766" cy="153.95858000953368" r="4" fill="#000000" fill-opacity="1"></circle><circle cx="164.29631538360678" cy="300.3064415214686" r="4" fill="#000000" fill-opacity="1"></circle><circle cx="305.02352876180106" cy="163.35902027008146" r="4" fill="#000000" fill-opacity="1"></circle><circle cx="365.67624124471496" cy="363.70095623187854" r="4" fill="#000000" fill-opacity="1"></circle><circle cx="284.4781303319047" cy="353.1801846346989" r="4" fill="#000000" fill-opacity="1"></circle><circle cx="385.436051730062" cy="254.30200114010586" r="4" fill="#000000" fill-opacity="1"></circle><circle cx="395.8509832190611" cy="131.7494154976926" r="4" fill="#000000" fill-opacity="1"></circle><circle cx="377.9975567119543" cy="71.58813029616184" r="4" fill="#000000" fill-opacity="1"></circle><circle cx="101.31915207121945" cy="58.618436949145774" r="4" fill="#000000" fill-opacity="1"></circle><circle cx="293.1453355586811" cy="427.28514134281187" r="4" fill="#000000" fill-opacity="1"></circle></svg>