<svg width="512" height="512" viewBox="0 0 512 512" xmlns="http://www.w3.org/2000/svg">
          <rect x="0" y="0" width="512" height="512" fill="#f8f8ff" fill-opacity="1"></rect>
        <circle cx="425.0270606780917" cy="353.08026832287294" r="4" fill="#000000" fill-opacity="1"></circle><circle cx="356.4364878385448" cy="259.8802978245909" r="4" fill="#000000" fill-opacity="1"></circle><circle cx="242.60948718132136" cy="173.06776254784228" r="4" fill="#000000" fill-opacity="1"></circle><circle cx="277.16404770842837" cy="171.11592195152312" r="4" fill="#000000" fill-opacity="1"></circle><circle cx="211.8488396184668" cy="328.3018998585171" r="4" fill="#000000" fill-opacity="1"></circle><circle cx="323.86942951842536" cy="457.19618017861944" r="4" fill="#000000" fill-opacity="1"></circle><circle cx="205.50024652097866" cy="235.32235520735506" r="4" fill="#000000" fill-opacity="1"></circle><circle cx="482.9156149042929" cy="482.4778962909365" r="4" fill="#000000" fill-opacity="1"></circle><circle cx="358.4996585641542" cy="304.9878279065735" r="4" fill="#000000" fill-opacity="1"></circle><circle cx="337.17633481788965" cy="192.51323918467003" r="4" fill="#000000" fill-opacity="1"></circle><circle cx="258.8437268682538" cy="273.42409062266177" r="4" fill="#000000" fill-opacity="1"></circle><circle cx="227.23881266346976" cy="101.973277800135" r="4" fill="#000000" fill-opacity="1"></circle><circle cx="261.71969884908805" cy="370.91835715545596" r="4" fill="#000000" fill-opacity="1"></circle><circle cx="387.7020068050951" cy="189.30196780520944" r="4" fill="#000000" fill-opacity="1"></circle><circle cx="215.44199242157245" cy="212.84113649177908" r="4" fill="#000000" fill-opacity="1"></circle><circle cx="135.66158086536188" cy="102.92309625171613" r="4" fill="#000000" fill-opacity="1"></circle><circle cx="358.25627854402103" cy="218.52492365477866" r="4" fill="#000000" fill-opacity="1"></circle><circle cx="445.24214881756996" cy="373.3447869297768" r="4" fill="#000000" fill-opacity="1"></circle><circle cx="450.8396437935459" cy="147.06494483690165" r="4" fill="#000000" fill-opacity="1"></circle><circle cx="84.5724213151735" cy="448.01407204105385" r="4" fill="#000000" fill-opacity="1"></circle><circle cx="131.1369010681457" cy="328.6562861079247" r="4" fill="#000000" fill-opacity="1"></circle><circle cx="109.11375336341015" cy="249.799067255752" r="4" fill="#000000" fill-opacity="1"></circle><circle cx="143.2299027012122" cy="176.03098400995611" r="4" fill="#000000" fill-opacity="1"></circle><circle cx="346.24282181810975" cy="51.01729741076936" r="4" fill="#000000" fill-opacity="1"></circle><circle cx="434.98384208656114" cy="134.9898943331138" r="4" fill="#000000" fill-opacity="1"></circle><circle cx="121.69672117716107" cy="116.01917950393236" r="4" fill="#000000" fill-opacity="1"></circle><circle cx="323.86274984054586" cy="221.96728016377875" r="4" fill="#000000" fill-opacity="1"></circle><circle cx="395.8385135944248" cy="114.30333045298441" r="4" fill="#000000" fill-opacity="1"></circle><circle cx="293.09576003913327" cy="238.29564661530367" r="4" fill="#000000" fill-opacity="1"></circle><circle cx="242.64993772629083" cy="360.2497649068363" r="4" fill="#000000" fill-opacity="1"></circle><circle cx="302.8877259798618" cy="449.8456133987619" r="4" fill="#000000" fill-opacity="1"></circle><circle cx="231.79752764481185" cy="425.5208147223229" r="4" fill="#000000" fill-opacity="1"></circle><circle cx="291.22788206298173" cy="471.9051972695442" r="4" fill="#000000" fill-opacity="1"></circle><circle cx="59.77853693173215" cy="138.521085492827" r="4" fill="#000000" fill-opacity="1"></circle><circle cx="242.17771455138825" cy="226.24232984991752" r="4" fill="#000000" fill-opacity="1"></circle><circle cx="133.8806093381986" cy="464.07434907283897" r="4" fill="#000000" fill-opacity="1"></circle><circle cx="171.87526531048152" cy="330.55068051795826" r="4" fill="#000000" fill-opacity="1"></circle><circle cx="127.3249873043415" cy="403.6633956951589" r="4" fill="#000000" fill-opacity="1"></circle><circle cx="147.7464723825168" cy="479.9157362761103" r="4" fill="#000000" fill-opacity="1"></circle><circle cx="213.68015175383837" cy="410.34887110097253" r="4" fill="#000000" fill-opacity="1"></circle><circle cx="341.724142576385" cy="28.85219109665488" r="4" fill="#000000" fill-opacity="1"></circle><circle cx="215.96126024123845" cy="141.08658021695823" r="4" fill="#000000" fill-opacity="1"></circle><circle cx="294.63469946221755" cy="275.02081650317564" r="4" fill="#000000" fill-opacity="1"></circle><circle cx="57.97434639921657" cy="372.0559079034077" r="4" fill="#000000" fill-opacity="1"></circle><circle cx="76.53776429506908" cy="309.8533189749668" r="4" fill="#000000" fill-opacity="1"></circle><circle cx="318.1250395922286" cy="123.45446785117893" r="4" fill="#000000" fill-opacity="1"></circle><circle cx="277.3373156596326" cy="344.44328797379114" r="4" fill="#000000" fill-opacity="1"></circle><circle cx="395.42465797596117" cy="41.32729974430565" r="4" fill="#000000" fill-opacity="1"></circle><circle cx="72.28944463752656" cy="221.33342074381974" r="4" fill="#000000" fill-opacity="1"></circle><circle cx="383.1815833533966" cy="71.42444808228345" r="4" fill="#000000" fill-opacity="1"></circle><circle cx="408.927532097287" cy="419.77886063405424" r="4" fill="#000000" fill-opacity="1"></circle><circle cx="477.34077387565316" cy="472.5873801851938" r="4" fill="#000000" fill-opacity="1"></circle><circle cx="424.0512862601796" cy="84.00228161955916" r="4" fill="#000000" fill-opacity="1"></circle><circle cx="442.8652821066704" cy="415.8202141171135" r="4" fill="#000000" fill-opacity="1"></circle><circle cx="413.02628223645735" cy="468.1756696517865" r="4" fill="#000000" fill-opacity="1"></circle><circle cx="52.83545306247371" cy="118.90860255881537" r="4" fill="#000000" fill-opacity="1"></circle><circle cx="142.09960153567494" cy="405.03048124699643" r="4" fill="#000000" fill-opacity="1"></circle><circle cx="45.872386955388194" cy="403.6704096511822" r="4" fill="#000000" fill-opacity="1"></circle><circle cx="465.55085243126393" cy="172.22372826178403" r="4" fill="#000000" fill-opacity="1"></circle><circle cx="70.62357193800759" cy="423.5913443935611" r="4" fill="#000000" fill-opacity="1"></circle><circle cx="43.70572749457174" cy="416.8362018496599" r="4" fill="#000000" fill-opacity="1"></circle><circle cx="477.8611155189537" cy="195.82478343451527" r="4" fill="#000000" fill-opacity="1"></circle><circle cx="145.69204564747048" cy="323.83404713068217" r="4" fill="#000000" fill-opacity="1"></circle><circle cx="236.31448307141616" cy="106.88652948024847" r="4" fill="#000000" fill-opacity="1"></circle><circle cx="390.1698352992871" cy="199.07288229342478" r="4" fill="#000000" fill-opacity="1"></circle><circle cx="124.34703230996789" cy="197.39172353551086" r="4" fill="#000000" fill-opacity="1"></circle><circle cx="275.34752396036544" cy="376.1091606807471" r="4" fill="#000000" fill-opacity="1"></circle><circle cx="301.18310460392667" cy="360.87264060494664" r="4" fill="#000000" fill-opacity="1"></circle><circle cx="138.310025049065" cy="88.88048876633827" r="4" fill="#000000" fill-opacity="1"></circle><circle cx="475.04588475894894" cy="185.8944773798998" r="4" fill="#000000" fill-opacity="1"></circle><circle cx="115.39084196717992" cy="310.0094336976392" r="4" fill="#000000" fill-opacity="1"></circle><circle cx="466.4768588358109" cy="419.87276141479026" r="4" fill="#000000" fill-opacity="1"></circle><circle cx="222.3029911126802" cy="451.99926056635496" r="4" fill="#000000" fill-opacity="1"></circle><circle cx="36.30243940489767" cy="186.78536091497176" r="4" fill="#000000" fill-opacity="1"></circle><circle cx="340.1550776552242" cy="157.886365062643" r="4" fill="#000000" fill-opacity="1"></circle><circle cx="43.76163271654899" cy="220.27392224702294" r="4" fill="#000000" fill-opacity="1"></circle><circle cx="347.6594563343329" cy="336.1053009366088" r="4" fill="#000000" fill-opacity="1"></circle><circle cx="393.44316898439774" cy="167.71818276877008" r="4" fill="#000000" fill-opacity="1"></circle><circle cx="195.13421974904733" cy="31.772934770534352" r="4" fill="#000000" fill-opacity="1"></circle><circle cx="305.49100477499223" cy="377.9013756808315" r="4" fill="#000000" fill-opacity="1"></circle><circle cx="433.18369683888926" cy="383.41451820072035" r="4" fill="#000000" fill-opacity="1"></circle><circle cx="295.86784785300216" cy="333.37352601665793" r="4" fill="#000000" fill-opacity="1"></circle><circle cx="448.40288386461066" cy="301.1611547936168" r="4" fill="#000000" fill-opacity="1"></circle><circle cx="450.1092251332452" cy="89.63190067971905" r="4" fill="#000000" fill-opacity="1"></circle><circle cx="254.69658467195677" cy="222.20132281281985" r="4" fill="#000000" fill-opacity="1"></circle><circle cx="104.09085282090324" cy="319.2596622031796" r="4" fill="#000000" fill-opacity="1"></circle><circle cx="255.2641112051783" cy="480.82042082049884" r="4" fill="#000000" fill-opacity="1"></circle><circle cx="86.40537057943831" cy="318.4552515561182" r="4" fill="#000000" fill-opacity="1"></circle><circle cx="157.57058495521977" cy="33.3595830269137" r="4" fill="#000000" fill-opacity="1"></circle><circle cx="182.5469611323701" cy="148.61695777253385" r="4" fill="#000000" fill-opacity="1"></circle></svg>